M48
; DRILL file {KiCad (6.0.5)} date Mon Nov 21 20:26:27 2022
; FORMAT={-:-/ absolute / metric / decimal}
; #@! TF.CreationDate,2022-11-21T20:26:27-06:00
; #@! TF.GenerationSoftware,Kicad,Pcbnew,(6.0.5)
; #@! TF.FileFunction,Plated,1,2,PTH
FMAT,2
METRIC
; #@! TA.AperFunction,Plated,PTH,ViaDrill
T1C0.400
; #@! TA.AperFunction,Plated,PTH,ComponentDrill
T2C0.800
; #@! TA.AperFunction,Plated,PTH,ComponentDrill
T3C0.850
; #@! TA.AperFunction,Plated,PTH,ComponentDrill
T4C0.900
; #@! TA.AperFunction,Plated,PTH,ComponentDrill
T5C1.000
; #@! TA.AperFunction,Plated,PTH,ComponentDrill
T6C1.016
; #@! TA.AperFunction,Plated,PTH,ComponentDrill
T7C1.100
%
G90
G05
T1
X106.0Y-113.7
X122.645Y-68.052
X123.916Y-62.816
X124.489Y-64.297
X125.404Y-62.995
X125.5Y-82.2
X128.0Y-49.2
X131.3Y-92.6
X133.5Y-40.6
X136.2Y-68.4
X136.422Y-81.228
X139.2Y-109.0
X140.306Y-78.711
X140.7Y-83.7
X142.4Y-55.6
X146.353Y-135.623
X148.774Y-88.789
X159.7Y-79.6
T2
X109.38Y-69.5
X109.38Y-72.04
X109.38Y-74.58
X109.38Y-77.12
X109.38Y-79.66
X109.38Y-82.2
X109.38Y-84.74
X109.38Y-87.28
X110.5Y-66.0
X115.5Y-66.0
X117.0Y-69.5
X117.0Y-72.04
X117.0Y-74.58
X117.0Y-77.12
X117.0Y-79.66
X117.0Y-82.2
X117.0Y-84.74
X117.0Y-87.28
X117.5Y-141.5
X117.818Y-160.0
X120.0Y-141.5
X120.19Y-67.0
X120.318Y-160.0
X121.46Y-72.36
X124.0Y-72.36
X125.92Y-137.5
X126.42Y-87.5
X126.42Y-112.5
X126.42Y-162.5
X126.54Y-72.36
X127.81Y-67.0
X130.92Y-19.0
X130.92Y-22.5
X130.92Y-26.0
X130.92Y-33.0
X130.92Y-36.5
X130.92Y-40.0
X130.92Y-43.5
X130.92Y-47.0
X130.92Y-50.5
X130.92Y-57.5
X130.92Y-61.0
X130.92Y-64.5
X130.92Y-68.0
X130.92Y-71.5
X135.5Y-29.5
X135.5Y-54.0
X136.08Y-137.5
X136.58Y-87.5
X136.58Y-112.5
X136.58Y-162.5
X140.5Y-29.5
X140.5Y-54.0
X141.08Y-19.0
X141.08Y-22.5
X141.08Y-26.0
X141.08Y-33.0
X141.08Y-36.5
X141.08Y-40.0
X141.08Y-43.5
X141.08Y-47.0
X141.08Y-50.5
X141.08Y-57.5
X141.08Y-61.0
X141.08Y-64.5
X141.08Y-68.0
X141.08Y-71.5
X144.68Y-21.875
X144.68Y-24.415
X144.68Y-26.955
X144.68Y-29.495
X144.68Y-32.035
X144.68Y-34.575
X144.68Y-37.115
X144.68Y-46.375
X144.68Y-48.915
X144.68Y-51.455
X144.68Y-53.995
X144.68Y-56.535
X144.68Y-59.075
X144.68Y-61.615
X145.19Y-67.0
X146.96Y-72.36
X149.5Y-72.36
X151.42Y-87.5
X151.42Y-112.5
X151.42Y-162.5
X151.92Y-137.5
X152.04Y-72.36
X152.3Y-21.875
X152.3Y-24.415
X152.3Y-26.955
X152.3Y-29.495
X152.3Y-32.035
X152.3Y-34.575
X152.3Y-37.115
X152.3Y-46.375
X152.3Y-48.915
X152.3Y-51.455
X152.3Y-53.995
X152.3Y-56.535
X152.3Y-59.075
X152.3Y-61.615
X152.81Y-67.0
X155.92Y-19.0
X155.92Y-22.5
X155.92Y-26.0
X155.92Y-33.0
X155.92Y-36.5
X155.92Y-40.0
X155.92Y-43.5
X155.92Y-47.0
X155.92Y-50.5
X155.92Y-57.5
X155.92Y-61.0
X155.92Y-64.5
X155.92Y-68.0
X155.92Y-71.5
X156.5Y-29.5
X156.5Y-54.0
X161.5Y-29.5
X161.5Y-54.0
X161.58Y-87.5
X161.58Y-112.5
X161.58Y-162.5
X162.08Y-137.5
X166.08Y-19.0
X166.08Y-22.5
X166.08Y-26.0
X166.08Y-33.0
X166.08Y-36.5
X166.08Y-40.0
X166.08Y-43.5
X166.08Y-47.0
X166.08Y-50.5
X166.08Y-57.5
X166.08Y-61.0
X166.08Y-64.5
X166.08Y-68.0
X166.08Y-71.5
T3
X116.318Y-148.0
X116.318Y-153.0
X126.318Y-148.0
X126.318Y-153.0
T4
X141.225Y-87.5
X141.225Y-112.5
X141.225Y-137.5
X141.225Y-162.5
X143.765Y-87.5
X143.765Y-112.5
X143.765Y-137.5
X143.765Y-162.5
X166.225Y-87.5
X166.225Y-112.5
X166.225Y-137.5
X166.225Y-162.5
X168.765Y-87.5
X168.765Y-112.5
X168.765Y-137.5
X168.765Y-162.5
T5
X107.76Y-21.0
X107.76Y-23.54
X107.76Y-26.08
X107.76Y-28.62
X107.76Y-31.16
X107.76Y-33.7
X107.76Y-36.24
X107.76Y-38.78
X107.76Y-41.32
X107.76Y-43.86
X107.76Y-46.4
X107.76Y-48.94
X107.76Y-51.48
X107.76Y-54.02
X107.76Y-56.56
X123.0Y-21.0
X123.0Y-23.54
X123.0Y-26.08
X123.0Y-28.62
X123.0Y-31.16
X123.0Y-33.7
X123.0Y-36.24
X123.0Y-38.78
X123.0Y-41.32
X123.0Y-43.86
X123.0Y-46.4
X123.0Y-48.94
X123.0Y-51.48
X123.0Y-54.02
X123.0Y-56.56
X123.525Y-77.5
X126.065Y-77.5
X128.605Y-77.5
X131.145Y-77.5
X133.685Y-77.5
X136.225Y-77.5
X138.765Y-77.5
X141.305Y-77.5
X143.845Y-77.5
X146.385Y-77.5
X148.925Y-77.5
X151.465Y-77.5
T6
X108.048Y-145.42
X108.048Y-147.96
X108.048Y-150.5
X108.048Y-153.04
X108.048Y-155.58
X110.588Y-145.42
X110.588Y-147.96
X110.588Y-150.5
X110.588Y-153.04
X110.588Y-155.58
T7
X112.42Y-171.5
X114.96Y-171.5
X117.5Y-171.5
T5
X106.1Y-99.65G85X106.1Y-101.35
G05
X106.1Y-124.65G85X106.1Y-126.35
G05
X109.15Y-106.4G85X110.85Y-106.4
G05
X109.15Y-131.4G85X110.85Y-131.4
G05
X112.15Y-93.6G85X113.85Y-93.6
G05
X112.15Y-118.6G85X113.85Y-118.6
G05
X116.639Y-105.341G85X117.841Y-104.139
G05
X116.639Y-130.341G85X117.841Y-129.139
G05
X118.9Y-96.65G85X118.9Y-98.35
G05
X118.9Y-121.65G85X118.9Y-123.35
G05
X131.1Y-99.65G85X131.1Y-101.35
G05
X131.1Y-124.65G85X131.1Y-126.35
G05
X131.1Y-149.65G85X131.1Y-151.35
G05
X131.1Y-174.65G85X131.1Y-176.35
G05
X134.15Y-106.4G85X135.85Y-106.4
G05
X134.15Y-131.4G85X135.85Y-131.4
G05
X134.15Y-156.4G85X135.85Y-156.4
G05
X134.15Y-181.4G85X135.85Y-181.4
G05
X137.15Y-93.6G85X138.85Y-93.6
G05
X137.15Y-118.6G85X138.85Y-118.6
G05
X137.15Y-143.6G85X138.85Y-143.6
G05
X137.15Y-168.6G85X138.85Y-168.6
G05
X141.639Y-105.341G85X142.841Y-104.139
G05
X141.639Y-130.341G85X142.841Y-129.139
G05
X141.639Y-155.341G85X142.841Y-154.139
G05
X141.639Y-180.341G85X142.841Y-179.139
G05
X143.9Y-96.65G85X143.9Y-98.35
G05
X143.9Y-121.65G85X143.9Y-123.35
G05
X143.9Y-146.65G85X143.9Y-148.35
G05
X143.9Y-171.65G85X143.9Y-173.35
G05
X156.1Y-99.65G85X156.1Y-101.35
G05
X156.1Y-124.65G85X156.1Y-126.35
G05
X156.1Y-149.65G85X156.1Y-151.35
G05
X156.1Y-174.65G85X156.1Y-176.35
G05
X159.15Y-106.4G85X160.85Y-106.4
G05
X159.15Y-131.4G85X160.85Y-131.4
G05
X159.15Y-156.4G85X160.85Y-156.4
G05
X159.15Y-181.4G85X160.85Y-181.4
G05
X162.15Y-93.6G85X163.85Y-93.6
G05
X162.15Y-118.6G85X163.85Y-118.6
G05
X162.15Y-143.6G85X163.85Y-143.6
G05
X162.15Y-168.6G85X163.85Y-168.6
G05
X166.639Y-105.341G85X167.841Y-104.139
G05
X166.639Y-130.341G85X167.841Y-129.139
G05
X166.639Y-155.341G85X167.841Y-154.139
G05
X166.639Y-180.341G85X167.841Y-179.139
G05
X168.9Y-96.65G85X168.9Y-98.35
G05
X168.9Y-121.65G85X168.9Y-123.35
G05
X168.9Y-146.65G85X168.9Y-148.35
G05
X168.9Y-171.65G85X168.9Y-173.35
G05
T0
M30
