G04 #@! TF.GenerationSoftware,KiCad,Pcbnew,(6.0.5)*
G04 #@! TF.CreationDate,2022-11-21T20:26:23-06:00*
G04 #@! TF.ProjectId,KosmoClockMain,4b6f736d-6f43-46c6-9f63-6b4d61696e2e,rev?*
G04 #@! TF.SameCoordinates,Original*
G04 #@! TF.FileFunction,Soldermask,Bot*
G04 #@! TF.FilePolarity,Negative*
%FSLAX46Y46*%
G04 Gerber Fmt 4.6, Leading zero omitted, Abs format (unit mm)*
G04 Created by KiCad (PCBNEW (6.0.5)) date 2022-11-21 20:26:23*
%MOMM*%
%LPD*%
G01*
G04 APERTURE LIST*
G04 Aperture macros list*
%AMRotRect*
0 Rectangle, with rotation*
0 The origin of the aperture is its center*
0 $1 length*
0 $2 width*
0 $3 Rotation angle, in degrees counterclockwise*
0 Add horizontal line*
21,1,$1,$2,0,0,$3*%
G04 Aperture macros list end*
%ADD10O,4.500001X2.500000*%
%ADD11O,2.500001X4.500001*%
%ADD12RotRect,4.500001X2.500001X45.000000*%
%ADD13O,2.500000X4.500000*%
%ADD14O,4.500000X2.500000*%
%ADD15R,1.800000X1.800000*%
%ADD16C,1.800000*%
%ADD17C,3.200000*%
%ADD18R,1.700000X1.700000*%
%ADD19O,1.700000X1.700000*%
%ADD20R,1.600000X1.600000*%
%ADD21O,1.600000X1.600000*%
%ADD22R,1.500000X1.500000*%
%ADD23C,1.500000*%
%ADD24C,1.600000*%
%ADD25R,2.400000X1.600000*%
%ADD26O,2.400000X1.600000*%
%ADD27R,1.905000X2.000000*%
%ADD28O,1.905000X2.000000*%
%ADD29R,1.727200X1.727200*%
%ADD30O,1.727200X1.727200*%
G04 APERTURE END LIST*
D10*
X163000000Y-118600000D03*
D11*
X168900000Y-122500000D03*
D12*
X167240000Y-129740000D03*
D13*
X156100000Y-125500000D03*
D14*
X160000000Y-131400000D03*
D10*
X113000000Y-93600000D03*
D11*
X118900000Y-97500000D03*
D12*
X117240000Y-104740000D03*
D13*
X106100000Y-100500000D03*
D14*
X110000000Y-106400000D03*
D10*
X163000000Y-93600000D03*
D11*
X168900000Y-97500000D03*
D12*
X167240000Y-104740000D03*
D13*
X156100000Y-100500000D03*
D14*
X160000000Y-106400000D03*
D10*
X163000000Y-143600000D03*
D11*
X168900000Y-147500000D03*
D12*
X167240000Y-154740000D03*
D13*
X156100000Y-150500000D03*
D14*
X160000000Y-156400000D03*
D10*
X138000000Y-143600000D03*
D11*
X143900000Y-147500000D03*
D12*
X142240000Y-154740000D03*
D13*
X131100000Y-150500000D03*
D14*
X135000000Y-156400000D03*
D10*
X113000000Y-118600000D03*
D11*
X118900000Y-122500000D03*
D12*
X117240000Y-129740000D03*
D13*
X106100000Y-125500000D03*
D14*
X110000000Y-131400000D03*
D10*
X138000000Y-168600000D03*
D11*
X143900000Y-172500000D03*
D12*
X142240000Y-179740000D03*
D13*
X131100000Y-175500000D03*
D14*
X135000000Y-181400000D03*
D10*
X138000000Y-118600000D03*
D11*
X143900000Y-122500000D03*
D12*
X142240000Y-129740000D03*
D13*
X131100000Y-125500000D03*
D14*
X135000000Y-131400000D03*
D10*
X163000000Y-168600000D03*
D11*
X168900000Y-172500000D03*
D12*
X167240000Y-179740000D03*
D13*
X156100000Y-175500000D03*
D14*
X160000000Y-181400000D03*
D10*
X138000000Y-93600000D03*
D11*
X143900000Y-97500000D03*
D12*
X142240000Y-104740000D03*
D13*
X131100000Y-100500000D03*
D14*
X135000000Y-106400000D03*
D15*
X141225000Y-87500000D03*
D16*
X143765000Y-87500000D03*
D17*
X112500000Y-25000000D03*
D15*
X141225000Y-112500000D03*
D16*
X143765000Y-112500000D03*
D17*
X162500000Y-75000000D03*
D15*
X141225000Y-162500000D03*
D16*
X143765000Y-162500000D03*
D18*
X123525000Y-77500000D03*
D19*
X126065000Y-77500000D03*
X128605000Y-77500000D03*
X131145000Y-77500000D03*
X133685000Y-77500000D03*
X136225000Y-77500000D03*
X138765000Y-77500000D03*
X141305000Y-77500000D03*
X143845000Y-77500000D03*
X146385000Y-77500000D03*
X148925000Y-77500000D03*
X151465000Y-77500000D03*
D15*
X166225000Y-162500000D03*
D16*
X168765000Y-162500000D03*
D15*
X166225000Y-87500000D03*
D16*
X168765000Y-87500000D03*
D15*
X166225000Y-137500000D03*
D16*
X168765000Y-137500000D03*
D15*
X141225000Y-137500000D03*
D16*
X143765000Y-137500000D03*
D15*
X166225000Y-112500000D03*
D16*
X168765000Y-112500000D03*
D20*
X127810000Y-67000000D03*
D21*
X120190000Y-67000000D03*
D22*
X152040000Y-72360000D03*
D23*
X149500000Y-72360000D03*
X146960000Y-72360000D03*
D20*
X152810000Y-67000000D03*
D21*
X145190000Y-67000000D03*
D24*
X130920000Y-26000000D03*
D21*
X141080000Y-26000000D03*
D24*
X130920000Y-71500000D03*
D21*
X141080000Y-71500000D03*
D24*
X141080000Y-64500000D03*
D21*
X130920000Y-64500000D03*
D24*
X166080000Y-33000000D03*
D21*
X155920000Y-33000000D03*
D20*
X120000000Y-141500000D03*
D24*
X117500000Y-141500000D03*
X126420000Y-112500000D03*
D21*
X136580000Y-112500000D03*
D24*
X141080000Y-57500000D03*
D21*
X130920000Y-57500000D03*
D24*
X116317600Y-148000000D03*
D21*
X126317600Y-148000000D03*
D25*
X117000000Y-69500000D03*
D26*
X117000000Y-72040000D03*
X117000000Y-74580000D03*
X117000000Y-77120000D03*
X117000000Y-79660000D03*
X117000000Y-82200000D03*
X117000000Y-84740000D03*
X117000000Y-87280000D03*
X109380000Y-87280000D03*
X109380000Y-84740000D03*
X109380000Y-82200000D03*
X109380000Y-79660000D03*
X109380000Y-77120000D03*
X109380000Y-74580000D03*
X109380000Y-72040000D03*
X109380000Y-69500000D03*
D24*
X155920000Y-61000000D03*
D21*
X166080000Y-61000000D03*
D24*
X126420000Y-162500000D03*
D21*
X136580000Y-162500000D03*
D24*
X130920000Y-33000000D03*
D21*
X141080000Y-33000000D03*
D27*
X117500000Y-171500000D03*
D28*
X114960000Y-171500000D03*
X112420000Y-171500000D03*
D24*
X166080000Y-26000000D03*
D21*
X155920000Y-26000000D03*
D24*
X151420000Y-162500000D03*
D21*
X161580000Y-162500000D03*
D24*
X155920000Y-71500000D03*
D21*
X166080000Y-71500000D03*
D24*
X125920000Y-137500000D03*
D21*
X136080000Y-137500000D03*
D24*
X141080000Y-22500000D03*
D21*
X130920000Y-22500000D03*
D24*
X166080000Y-57500000D03*
D21*
X155920000Y-57500000D03*
D24*
X116317600Y-153000000D03*
D21*
X126317600Y-153000000D03*
D24*
X156500000Y-54000000D03*
X161500000Y-54000000D03*
X141080000Y-68000000D03*
D21*
X130920000Y-68000000D03*
D24*
X155920000Y-64500000D03*
D21*
X166080000Y-64500000D03*
D24*
X155920000Y-40000000D03*
D21*
X166080000Y-40000000D03*
D24*
X126420000Y-87500000D03*
D21*
X136580000Y-87500000D03*
D24*
X141080000Y-61000000D03*
D21*
X130920000Y-61000000D03*
D24*
X166080000Y-68000000D03*
D21*
X155920000Y-68000000D03*
D24*
X115500000Y-66000000D03*
X110500000Y-66000000D03*
X141080000Y-47000000D03*
D21*
X130920000Y-47000000D03*
D24*
X140500000Y-29500000D03*
X135500000Y-29500000D03*
X151920000Y-137500000D03*
D21*
X162080000Y-137500000D03*
D24*
X141080000Y-43500000D03*
D21*
X130920000Y-43500000D03*
D24*
X151420000Y-112500000D03*
D21*
X161580000Y-112500000D03*
D25*
X152300000Y-46375000D03*
D26*
X152300000Y-48915000D03*
X152300000Y-51455000D03*
X152300000Y-53995000D03*
X152300000Y-56535000D03*
X152300000Y-59075000D03*
X152300000Y-61615000D03*
X144680000Y-61615000D03*
X144680000Y-59075000D03*
X144680000Y-56535000D03*
X144680000Y-53995000D03*
X144680000Y-51455000D03*
X144680000Y-48915000D03*
X144680000Y-46375000D03*
D24*
X130920000Y-50500000D03*
D21*
X141080000Y-50500000D03*
D24*
X141080000Y-19000000D03*
D21*
X130920000Y-19000000D03*
D24*
X151420000Y-87500000D03*
D21*
X161580000Y-87500000D03*
D24*
X141080000Y-40000000D03*
D21*
X130920000Y-40000000D03*
D20*
X117817600Y-160000000D03*
D24*
X120317600Y-160000000D03*
D25*
X152300000Y-21875000D03*
D26*
X152300000Y-24415000D03*
X152300000Y-26955000D03*
X152300000Y-29495000D03*
X152300000Y-32035000D03*
X152300000Y-34575000D03*
X152300000Y-37115000D03*
X144680000Y-37115000D03*
X144680000Y-34575000D03*
X144680000Y-32035000D03*
X144680000Y-29495000D03*
X144680000Y-26955000D03*
X144680000Y-24415000D03*
X144680000Y-21875000D03*
D24*
X166080000Y-22500000D03*
D21*
X155920000Y-22500000D03*
D24*
X166080000Y-50500000D03*
D21*
X155920000Y-50500000D03*
D24*
X166080000Y-47000000D03*
D21*
X155920000Y-47000000D03*
D22*
X126540000Y-72360000D03*
D23*
X124000000Y-72360000D03*
X121460000Y-72360000D03*
D24*
X156500000Y-29500000D03*
X161500000Y-29500000D03*
X140500000Y-54000000D03*
X135500000Y-54000000D03*
D20*
X123000000Y-21000000D03*
D21*
X123000000Y-23540000D03*
X123000000Y-26080000D03*
X123000000Y-28620000D03*
X123000000Y-31160000D03*
X123000000Y-33700000D03*
X123000000Y-36240000D03*
X123000000Y-38780000D03*
X123000000Y-41320000D03*
X123000000Y-43860000D03*
X123000000Y-46400000D03*
X123000000Y-48940000D03*
X123000000Y-51480000D03*
X123000000Y-54020000D03*
X123000000Y-56560000D03*
X107760000Y-56560000D03*
X107760000Y-54020000D03*
X107760000Y-51480000D03*
X107760000Y-48940000D03*
X107760000Y-46400000D03*
X107760000Y-43860000D03*
X107760000Y-41320000D03*
X107760000Y-38780000D03*
X107760000Y-36240000D03*
X107760000Y-33700000D03*
X107760000Y-31160000D03*
X107760000Y-28620000D03*
X107760000Y-26080000D03*
X107760000Y-23540000D03*
X107760000Y-21000000D03*
D24*
X141080000Y-36500000D03*
D21*
X130920000Y-36500000D03*
D24*
X155920000Y-19000000D03*
D21*
X166080000Y-19000000D03*
D29*
X108047600Y-155580000D03*
D30*
X110587600Y-155580000D03*
X108047600Y-153040000D03*
X110587600Y-153040000D03*
X108047600Y-150500000D03*
X110587600Y-150500000D03*
X108047600Y-147960000D03*
X110587600Y-147960000D03*
X108047600Y-145420000D03*
X110587600Y-145420000D03*
D24*
X155920000Y-43500000D03*
D21*
X166080000Y-43500000D03*
D24*
X166080000Y-36500000D03*
D21*
X155920000Y-36500000D03*
M02*
