G04 #@! TF.GenerationSoftware,KiCad,Pcbnew,(6.0.5)*
G04 #@! TF.CreationDate,2022-11-21T20:26:23-06:00*
G04 #@! TF.ProjectId,KosmoClockMain,4b6f736d-6f43-46c6-9f63-6b4d61696e2e,rev?*
G04 #@! TF.SameCoordinates,Original*
G04 #@! TF.FileFunction,Legend,Top*
G04 #@! TF.FilePolarity,Positive*
%FSLAX46Y46*%
G04 Gerber Fmt 4.6, Leading zero omitted, Abs format (unit mm)*
G04 Created by KiCad (PCBNEW (6.0.5)) date 2022-11-21 20:26:23*
%MOMM*%
%LPD*%
G01*
G04 APERTURE LIST*
G04 Aperture macros list*
%AMRotRect*
0 Rectangle, with rotation*
0 The origin of the aperture is its center*
0 $1 length*
0 $2 width*
0 $3 Rotation angle, in degrees counterclockwise*
0 Add horizontal line*
21,1,$1,$2,0,0,$3*%
G04 Aperture macros list end*
%ADD10C,0.150000*%
%ADD11C,0.120000*%
%ADD12O,4.500001X2.500000*%
%ADD13O,2.500001X4.500001*%
%ADD14RotRect,4.500001X2.500001X45.000000*%
%ADD15O,2.500000X4.500000*%
%ADD16O,4.500000X2.500000*%
%ADD17R,1.800000X1.800000*%
%ADD18C,1.800000*%
%ADD19C,3.200000*%
%ADD20R,1.700000X1.700000*%
%ADD21O,1.700000X1.700000*%
%ADD22R,1.600000X1.600000*%
%ADD23O,1.600000X1.600000*%
%ADD24R,1.500000X1.500000*%
%ADD25C,1.500000*%
%ADD26C,1.600000*%
%ADD27R,2.400000X1.600000*%
%ADD28O,2.400000X1.600000*%
%ADD29R,1.905000X2.000000*%
%ADD30O,1.905000X2.000000*%
%ADD31R,1.727200X1.727200*%
%ADD32O,1.727200X1.727200*%
G04 APERTURE END LIST*
D10*
X162250000Y-115089285D02*
X162250000Y-115625000D01*
X162214285Y-115732142D01*
X162142857Y-115803571D01*
X162035714Y-115839285D01*
X161964285Y-115839285D01*
X162642857Y-115839285D02*
X162785714Y-115839285D01*
X162857142Y-115803571D01*
X162892857Y-115767857D01*
X162964285Y-115660714D01*
X163000000Y-115517857D01*
X163000000Y-115232142D01*
X162964285Y-115160714D01*
X162928571Y-115125000D01*
X162857142Y-115089285D01*
X162714285Y-115089285D01*
X162642857Y-115125000D01*
X162607142Y-115160714D01*
X162571428Y-115232142D01*
X162571428Y-115410714D01*
X162607142Y-115482142D01*
X162642857Y-115517857D01*
X162714285Y-115553571D01*
X162857142Y-115553571D01*
X162928571Y-115517857D01*
X162964285Y-115482142D01*
X163000000Y-115410714D01*
X112250000Y-90089285D02*
X112250000Y-90625000D01*
X112214285Y-90732142D01*
X112142857Y-90803571D01*
X112035714Y-90839285D01*
X111964285Y-90839285D01*
X112535714Y-90089285D02*
X113000000Y-90089285D01*
X112750000Y-90375000D01*
X112857142Y-90375000D01*
X112928571Y-90410714D01*
X112964285Y-90446428D01*
X113000000Y-90517857D01*
X113000000Y-90696428D01*
X112964285Y-90767857D01*
X112928571Y-90803571D01*
X112857142Y-90839285D01*
X112642857Y-90839285D01*
X112571428Y-90803571D01*
X112535714Y-90767857D01*
X162250000Y-90089285D02*
X162250000Y-90625000D01*
X162214285Y-90732142D01*
X162142857Y-90803571D01*
X162035714Y-90839285D01*
X161964285Y-90839285D01*
X162714285Y-90410714D02*
X162642857Y-90375000D01*
X162607142Y-90339285D01*
X162571428Y-90267857D01*
X162571428Y-90232142D01*
X162607142Y-90160714D01*
X162642857Y-90125000D01*
X162714285Y-90089285D01*
X162857142Y-90089285D01*
X162928571Y-90125000D01*
X162964285Y-90160714D01*
X163000000Y-90232142D01*
X163000000Y-90267857D01*
X162964285Y-90339285D01*
X162928571Y-90375000D01*
X162857142Y-90410714D01*
X162714285Y-90410714D01*
X162642857Y-90446428D01*
X162607142Y-90482142D01*
X162571428Y-90553571D01*
X162571428Y-90696428D01*
X162607142Y-90767857D01*
X162642857Y-90803571D01*
X162714285Y-90839285D01*
X162857142Y-90839285D01*
X162928571Y-90803571D01*
X162964285Y-90767857D01*
X163000000Y-90696428D01*
X163000000Y-90553571D01*
X162964285Y-90482142D01*
X162928571Y-90446428D01*
X162857142Y-90410714D01*
X161892857Y-140089285D02*
X161892857Y-140625000D01*
X161857142Y-140732142D01*
X161785714Y-140803571D01*
X161678571Y-140839285D01*
X161607142Y-140839285D01*
X162642857Y-140839285D02*
X162214285Y-140839285D01*
X162428571Y-140839285D02*
X162428571Y-140089285D01*
X162357142Y-140196428D01*
X162285714Y-140267857D01*
X162214285Y-140303571D01*
X163107142Y-140089285D02*
X163178571Y-140089285D01*
X163250000Y-140125000D01*
X163285714Y-140160714D01*
X163321428Y-140232142D01*
X163357142Y-140375000D01*
X163357142Y-140553571D01*
X163321428Y-140696428D01*
X163285714Y-140767857D01*
X163250000Y-140803571D01*
X163178571Y-140839285D01*
X163107142Y-140839285D01*
X163035714Y-140803571D01*
X163000000Y-140767857D01*
X162964285Y-140696428D01*
X162928571Y-140553571D01*
X162928571Y-140375000D01*
X162964285Y-140232142D01*
X163000000Y-140160714D01*
X163035714Y-140125000D01*
X163107142Y-140089285D01*
X137250000Y-140089285D02*
X137250000Y-140625000D01*
X137214285Y-140732142D01*
X137142857Y-140803571D01*
X137035714Y-140839285D01*
X136964285Y-140839285D01*
X137964285Y-140089285D02*
X137607142Y-140089285D01*
X137571428Y-140446428D01*
X137607142Y-140410714D01*
X137678571Y-140375000D01*
X137857142Y-140375000D01*
X137928571Y-140410714D01*
X137964285Y-140446428D01*
X138000000Y-140517857D01*
X138000000Y-140696428D01*
X137964285Y-140767857D01*
X137928571Y-140803571D01*
X137857142Y-140839285D01*
X137678571Y-140839285D01*
X137607142Y-140803571D01*
X137571428Y-140767857D01*
X112250000Y-115089285D02*
X112250000Y-115625000D01*
X112214285Y-115732142D01*
X112142857Y-115803571D01*
X112035714Y-115839285D01*
X111964285Y-115839285D01*
X112571428Y-115160714D02*
X112607142Y-115125000D01*
X112678571Y-115089285D01*
X112857142Y-115089285D01*
X112928571Y-115125000D01*
X112964285Y-115160714D01*
X113000000Y-115232142D01*
X113000000Y-115303571D01*
X112964285Y-115410714D01*
X112535714Y-115839285D01*
X113000000Y-115839285D01*
X137250000Y-165089285D02*
X137250000Y-165625000D01*
X137214285Y-165732142D01*
X137142857Y-165803571D01*
X137035714Y-165839285D01*
X136964285Y-165839285D01*
X137535714Y-165089285D02*
X138035714Y-165089285D01*
X137714285Y-165839285D01*
X137250000Y-115089285D02*
X137250000Y-115625000D01*
X137214285Y-115732142D01*
X137142857Y-115803571D01*
X137035714Y-115839285D01*
X136964285Y-115839285D01*
X137928571Y-115089285D02*
X137785714Y-115089285D01*
X137714285Y-115125000D01*
X137678571Y-115160714D01*
X137607142Y-115267857D01*
X137571428Y-115410714D01*
X137571428Y-115696428D01*
X137607142Y-115767857D01*
X137642857Y-115803571D01*
X137714285Y-115839285D01*
X137857142Y-115839285D01*
X137928571Y-115803571D01*
X137964285Y-115767857D01*
X138000000Y-115696428D01*
X138000000Y-115517857D01*
X137964285Y-115446428D01*
X137928571Y-115410714D01*
X137857142Y-115375000D01*
X137714285Y-115375000D01*
X137642857Y-115410714D01*
X137607142Y-115446428D01*
X137571428Y-115517857D01*
X161892857Y-165089285D02*
X161892857Y-165625000D01*
X161857142Y-165732142D01*
X161785714Y-165803571D01*
X161678571Y-165839285D01*
X161607142Y-165839285D01*
X162642857Y-165839285D02*
X162214285Y-165839285D01*
X162428571Y-165839285D02*
X162428571Y-165089285D01*
X162357142Y-165196428D01*
X162285714Y-165267857D01*
X162214285Y-165303571D01*
X163357142Y-165839285D02*
X162928571Y-165839285D01*
X163142857Y-165839285D02*
X163142857Y-165089285D01*
X163071428Y-165196428D01*
X163000000Y-165267857D01*
X162928571Y-165303571D01*
X137250000Y-90089285D02*
X137250000Y-90625000D01*
X137214285Y-90732142D01*
X137142857Y-90803571D01*
X137035714Y-90839285D01*
X136964285Y-90839285D01*
X137928571Y-90339285D02*
X137928571Y-90839285D01*
X137750000Y-90053571D02*
X137571428Y-90589285D01*
X138035714Y-90589285D01*
X141941428Y-83879285D02*
X141941428Y-83129285D01*
X142120000Y-83129285D01*
X142227142Y-83165000D01*
X142298571Y-83236428D01*
X142334285Y-83307857D01*
X142370000Y-83450714D01*
X142370000Y-83557857D01*
X142334285Y-83700714D01*
X142298571Y-83772142D01*
X142227142Y-83843571D01*
X142120000Y-83879285D01*
X141941428Y-83879285D01*
X142620000Y-83129285D02*
X143084285Y-83129285D01*
X142834285Y-83415000D01*
X142941428Y-83415000D01*
X143012857Y-83450714D01*
X143048571Y-83486428D01*
X143084285Y-83557857D01*
X143084285Y-83736428D01*
X143048571Y-83807857D01*
X143012857Y-83843571D01*
X142941428Y-83879285D01*
X142727142Y-83879285D01*
X142655714Y-83843571D01*
X142620000Y-83807857D01*
X138328571Y-87839285D02*
X138328571Y-87089285D01*
X138757142Y-87839285D02*
X138435714Y-87410714D01*
X138757142Y-87089285D02*
X138328571Y-87517857D01*
X141941428Y-108879285D02*
X141941428Y-108129285D01*
X142120000Y-108129285D01*
X142227142Y-108165000D01*
X142298571Y-108236428D01*
X142334285Y-108307857D01*
X142370000Y-108450714D01*
X142370000Y-108557857D01*
X142334285Y-108700714D01*
X142298571Y-108772142D01*
X142227142Y-108843571D01*
X142120000Y-108879285D01*
X141941428Y-108879285D01*
X143048571Y-108129285D02*
X142691428Y-108129285D01*
X142655714Y-108486428D01*
X142691428Y-108450714D01*
X142762857Y-108415000D01*
X142941428Y-108415000D01*
X143012857Y-108450714D01*
X143048571Y-108486428D01*
X143084285Y-108557857D01*
X143084285Y-108736428D01*
X143048571Y-108807857D01*
X143012857Y-108843571D01*
X142941428Y-108879285D01*
X142762857Y-108879285D01*
X142691428Y-108843571D01*
X142655714Y-108807857D01*
X138328571Y-112839285D02*
X138328571Y-112089285D01*
X138757142Y-112839285D02*
X138435714Y-112410714D01*
X138757142Y-112089285D02*
X138328571Y-112517857D01*
X141941428Y-158879285D02*
X141941428Y-158129285D01*
X142120000Y-158129285D01*
X142227142Y-158165000D01*
X142298571Y-158236428D01*
X142334285Y-158307857D01*
X142370000Y-158450714D01*
X142370000Y-158557857D01*
X142334285Y-158700714D01*
X142298571Y-158772142D01*
X142227142Y-158843571D01*
X142120000Y-158879285D01*
X141941428Y-158879285D01*
X143012857Y-158129285D02*
X142870000Y-158129285D01*
X142798571Y-158165000D01*
X142762857Y-158200714D01*
X142691428Y-158307857D01*
X142655714Y-158450714D01*
X142655714Y-158736428D01*
X142691428Y-158807857D01*
X142727142Y-158843571D01*
X142798571Y-158879285D01*
X142941428Y-158879285D01*
X143012857Y-158843571D01*
X143048571Y-158807857D01*
X143084285Y-158736428D01*
X143084285Y-158557857D01*
X143048571Y-158486428D01*
X143012857Y-158450714D01*
X142941428Y-158415000D01*
X142798571Y-158415000D01*
X142727142Y-158450714D01*
X142691428Y-158486428D01*
X142655714Y-158557857D01*
X138328571Y-162839285D02*
X138328571Y-162089285D01*
X138757142Y-162839285D02*
X138435714Y-162410714D01*
X138757142Y-162089285D02*
X138328571Y-162517857D01*
X120647380Y-78309523D02*
X121361666Y-78309523D01*
X121504523Y-78357142D01*
X121599761Y-78452380D01*
X121647380Y-78595238D01*
X121647380Y-78690476D01*
X121647380Y-77309523D02*
X121647380Y-77880952D01*
X121647380Y-77595238D02*
X120647380Y-77595238D01*
X120790238Y-77690476D01*
X120885476Y-77785714D01*
X120933095Y-77880952D01*
X120647380Y-76976190D02*
X120647380Y-76357142D01*
X121028333Y-76690476D01*
X121028333Y-76547619D01*
X121075952Y-76452380D01*
X121123571Y-76404761D01*
X121218809Y-76357142D01*
X121456904Y-76357142D01*
X121552142Y-76404761D01*
X121599761Y-76452380D01*
X121647380Y-76547619D01*
X121647380Y-76833333D01*
X121599761Y-76928571D01*
X121552142Y-76976190D01*
X166584285Y-158879285D02*
X166584285Y-158129285D01*
X166762857Y-158129285D01*
X166870000Y-158165000D01*
X166941428Y-158236428D01*
X166977142Y-158307857D01*
X167012857Y-158450714D01*
X167012857Y-158557857D01*
X166977142Y-158700714D01*
X166941428Y-158772142D01*
X166870000Y-158843571D01*
X166762857Y-158879285D01*
X166584285Y-158879285D01*
X167727142Y-158879285D02*
X167298571Y-158879285D01*
X167512857Y-158879285D02*
X167512857Y-158129285D01*
X167441428Y-158236428D01*
X167370000Y-158307857D01*
X167298571Y-158343571D01*
X168191428Y-158129285D02*
X168262857Y-158129285D01*
X168334285Y-158165000D01*
X168370000Y-158200714D01*
X168405714Y-158272142D01*
X168441428Y-158415000D01*
X168441428Y-158593571D01*
X168405714Y-158736428D01*
X168370000Y-158807857D01*
X168334285Y-158843571D01*
X168262857Y-158879285D01*
X168191428Y-158879285D01*
X168120000Y-158843571D01*
X168084285Y-158807857D01*
X168048571Y-158736428D01*
X168012857Y-158593571D01*
X168012857Y-158415000D01*
X168048571Y-158272142D01*
X168084285Y-158200714D01*
X168120000Y-158165000D01*
X168191428Y-158129285D01*
X163328571Y-162839285D02*
X163328571Y-162089285D01*
X163757142Y-162839285D02*
X163435714Y-162410714D01*
X163757142Y-162089285D02*
X163328571Y-162517857D01*
X166941428Y-83879285D02*
X166941428Y-83129285D01*
X167120000Y-83129285D01*
X167227142Y-83165000D01*
X167298571Y-83236428D01*
X167334285Y-83307857D01*
X167370000Y-83450714D01*
X167370000Y-83557857D01*
X167334285Y-83700714D01*
X167298571Y-83772142D01*
X167227142Y-83843571D01*
X167120000Y-83879285D01*
X166941428Y-83879285D01*
X167620000Y-83129285D02*
X168120000Y-83129285D01*
X167798571Y-83879285D01*
X163328571Y-87839285D02*
X163328571Y-87089285D01*
X163757142Y-87839285D02*
X163435714Y-87410714D01*
X163757142Y-87089285D02*
X163328571Y-87517857D01*
X166941428Y-133879285D02*
X166941428Y-133129285D01*
X167120000Y-133129285D01*
X167227142Y-133165000D01*
X167298571Y-133236428D01*
X167334285Y-133307857D01*
X167370000Y-133450714D01*
X167370000Y-133557857D01*
X167334285Y-133700714D01*
X167298571Y-133772142D01*
X167227142Y-133843571D01*
X167120000Y-133879285D01*
X166941428Y-133879285D01*
X167727142Y-133879285D02*
X167870000Y-133879285D01*
X167941428Y-133843571D01*
X167977142Y-133807857D01*
X168048571Y-133700714D01*
X168084285Y-133557857D01*
X168084285Y-133272142D01*
X168048571Y-133200714D01*
X168012857Y-133165000D01*
X167941428Y-133129285D01*
X167798571Y-133129285D01*
X167727142Y-133165000D01*
X167691428Y-133200714D01*
X167655714Y-133272142D01*
X167655714Y-133450714D01*
X167691428Y-133522142D01*
X167727142Y-133557857D01*
X167798571Y-133593571D01*
X167941428Y-133593571D01*
X168012857Y-133557857D01*
X168048571Y-133522142D01*
X168084285Y-133450714D01*
X163328571Y-137839285D02*
X163328571Y-137089285D01*
X163757142Y-137839285D02*
X163435714Y-137410714D01*
X163757142Y-137089285D02*
X163328571Y-137517857D01*
X141941428Y-133879285D02*
X141941428Y-133129285D01*
X142120000Y-133129285D01*
X142227142Y-133165000D01*
X142298571Y-133236428D01*
X142334285Y-133307857D01*
X142370000Y-133450714D01*
X142370000Y-133557857D01*
X142334285Y-133700714D01*
X142298571Y-133772142D01*
X142227142Y-133843571D01*
X142120000Y-133879285D01*
X141941428Y-133879285D01*
X143012857Y-133379285D02*
X143012857Y-133879285D01*
X142834285Y-133093571D02*
X142655714Y-133629285D01*
X143120000Y-133629285D01*
X138328571Y-137839285D02*
X138328571Y-137089285D01*
X138757142Y-137839285D02*
X138435714Y-137410714D01*
X138757142Y-137089285D02*
X138328571Y-137517857D01*
X166941428Y-108879285D02*
X166941428Y-108129285D01*
X167120000Y-108129285D01*
X167227142Y-108165000D01*
X167298571Y-108236428D01*
X167334285Y-108307857D01*
X167370000Y-108450714D01*
X167370000Y-108557857D01*
X167334285Y-108700714D01*
X167298571Y-108772142D01*
X167227142Y-108843571D01*
X167120000Y-108879285D01*
X166941428Y-108879285D01*
X167798571Y-108450714D02*
X167727142Y-108415000D01*
X167691428Y-108379285D01*
X167655714Y-108307857D01*
X167655714Y-108272142D01*
X167691428Y-108200714D01*
X167727142Y-108165000D01*
X167798571Y-108129285D01*
X167941428Y-108129285D01*
X168012857Y-108165000D01*
X168048571Y-108200714D01*
X168084285Y-108272142D01*
X168084285Y-108307857D01*
X168048571Y-108379285D01*
X168012857Y-108415000D01*
X167941428Y-108450714D01*
X167798571Y-108450714D01*
X167727142Y-108486428D01*
X167691428Y-108522142D01*
X167655714Y-108593571D01*
X167655714Y-108736428D01*
X167691428Y-108807857D01*
X167727142Y-108843571D01*
X167798571Y-108879285D01*
X167941428Y-108879285D01*
X168012857Y-108843571D01*
X168048571Y-108807857D01*
X168084285Y-108736428D01*
X168084285Y-108593571D01*
X168048571Y-108522142D01*
X168012857Y-108486428D01*
X167941428Y-108450714D01*
X163328571Y-112839285D02*
X163328571Y-112089285D01*
X163757142Y-112839285D02*
X163435714Y-112410714D01*
X163757142Y-112089285D02*
X163328571Y-112517857D01*
D11*
X170350000Y-124600000D02*
X170350000Y-130800000D01*
X154600000Y-117100000D02*
X161000000Y-117100000D01*
X170350000Y-130850000D02*
X167850000Y-132850000D01*
X165000000Y-117100000D02*
X170350000Y-117100000D01*
X158000000Y-132850000D02*
X154600000Y-132850000D01*
X167850000Y-132850000D02*
X162000000Y-132850000D01*
X170350000Y-117100000D02*
X170350000Y-120300000D01*
X170350000Y-130800000D02*
X170350000Y-130850000D01*
X154600000Y-123500000D02*
X154600000Y-117100000D01*
X154600000Y-132850000D02*
X154600000Y-127500000D01*
X120350000Y-99600000D02*
X120350000Y-105800000D01*
X104600000Y-92100000D02*
X111000000Y-92100000D01*
X120350000Y-105850000D02*
X117850000Y-107850000D01*
X115000000Y-92100000D02*
X120350000Y-92100000D01*
X108000000Y-107850000D02*
X104600000Y-107850000D01*
X117850000Y-107850000D02*
X112000000Y-107850000D01*
X120350000Y-92100000D02*
X120350000Y-95300000D01*
X120350000Y-105800000D02*
X120350000Y-105850000D01*
X104600000Y-98500000D02*
X104600000Y-92100000D01*
X104600000Y-107850000D02*
X104600000Y-102500000D01*
X170350000Y-99600000D02*
X170350000Y-105800000D01*
X154600000Y-92100000D02*
X161000000Y-92100000D01*
X170350000Y-105850000D02*
X167850000Y-107850000D01*
X165000000Y-92100000D02*
X170350000Y-92100000D01*
X158000000Y-107850000D02*
X154600000Y-107850000D01*
X167850000Y-107850000D02*
X162000000Y-107850000D01*
X170350000Y-92100000D02*
X170350000Y-95300000D01*
X170350000Y-105800000D02*
X170350000Y-105850000D01*
X154600000Y-98500000D02*
X154600000Y-92100000D01*
X154600000Y-107850000D02*
X154600000Y-102500000D01*
X170350000Y-149600000D02*
X170350000Y-155800000D01*
X154600000Y-142100000D02*
X161000000Y-142100000D01*
X170350000Y-155850000D02*
X167850000Y-157850000D01*
X165000000Y-142100000D02*
X170350000Y-142100000D01*
X158000000Y-157850000D02*
X154600000Y-157850000D01*
X167850000Y-157850000D02*
X162000000Y-157850000D01*
X170350000Y-142100000D02*
X170350000Y-145300000D01*
X170350000Y-155800000D02*
X170350000Y-155850000D01*
X154600000Y-148500000D02*
X154600000Y-142100000D01*
X154600000Y-157850000D02*
X154600000Y-152500000D01*
X145350000Y-149600000D02*
X145350000Y-155800000D01*
X129600000Y-142100000D02*
X136000000Y-142100000D01*
X145350000Y-155850000D02*
X142850000Y-157850000D01*
X140000000Y-142100000D02*
X145350000Y-142100000D01*
X133000000Y-157850000D02*
X129600000Y-157850000D01*
X142850000Y-157850000D02*
X137000000Y-157850000D01*
X145350000Y-142100000D02*
X145350000Y-145300000D01*
X145350000Y-155800000D02*
X145350000Y-155850000D01*
X129600000Y-148500000D02*
X129600000Y-142100000D01*
X129600000Y-157850000D02*
X129600000Y-152500000D01*
X120350000Y-124600000D02*
X120350000Y-130800000D01*
X104600000Y-117100000D02*
X111000000Y-117100000D01*
X120350000Y-130850000D02*
X117850000Y-132850000D01*
X115000000Y-117100000D02*
X120350000Y-117100000D01*
X108000000Y-132850000D02*
X104600000Y-132850000D01*
X117850000Y-132850000D02*
X112000000Y-132850000D01*
X120350000Y-117100000D02*
X120350000Y-120300000D01*
X120350000Y-130800000D02*
X120350000Y-130850000D01*
X104600000Y-123500000D02*
X104600000Y-117100000D01*
X104600000Y-132850000D02*
X104600000Y-127500000D01*
X145350000Y-174600000D02*
X145350000Y-180800000D01*
X129600000Y-167100000D02*
X136000000Y-167100000D01*
X145350000Y-180850000D02*
X142850000Y-182850000D01*
X140000000Y-167100000D02*
X145350000Y-167100000D01*
X133000000Y-182850000D02*
X129600000Y-182850000D01*
X142850000Y-182850000D02*
X137000000Y-182850000D01*
X145350000Y-167100000D02*
X145350000Y-170300000D01*
X145350000Y-180800000D02*
X145350000Y-180850000D01*
X129600000Y-173500000D02*
X129600000Y-167100000D01*
X129600000Y-182850000D02*
X129600000Y-177500000D01*
X145350000Y-124600000D02*
X145350000Y-130800000D01*
X129600000Y-117100000D02*
X136000000Y-117100000D01*
X145350000Y-130850000D02*
X142850000Y-132850000D01*
X140000000Y-117100000D02*
X145350000Y-117100000D01*
X133000000Y-132850000D02*
X129600000Y-132850000D01*
X142850000Y-132850000D02*
X137000000Y-132850000D01*
X145350000Y-117100000D02*
X145350000Y-120300000D01*
X145350000Y-130800000D02*
X145350000Y-130850000D01*
X129600000Y-123500000D02*
X129600000Y-117100000D01*
X129600000Y-132850000D02*
X129600000Y-127500000D01*
X170350000Y-174600000D02*
X170350000Y-180800000D01*
X154600000Y-167100000D02*
X161000000Y-167100000D01*
X170350000Y-180850000D02*
X167850000Y-182850000D01*
X165000000Y-167100000D02*
X170350000Y-167100000D01*
X158000000Y-182850000D02*
X154600000Y-182850000D01*
X167850000Y-182850000D02*
X162000000Y-182850000D01*
X170350000Y-167100000D02*
X170350000Y-170300000D01*
X170350000Y-180800000D02*
X170350000Y-180850000D01*
X154600000Y-173500000D02*
X154600000Y-167100000D01*
X154600000Y-182850000D02*
X154600000Y-177500000D01*
X145350000Y-99600000D02*
X145350000Y-105800000D01*
X129600000Y-92100000D02*
X136000000Y-92100000D01*
X145350000Y-105850000D02*
X142850000Y-107850000D01*
X140000000Y-92100000D02*
X145350000Y-92100000D01*
X133000000Y-107850000D02*
X129600000Y-107850000D01*
X142850000Y-107850000D02*
X137000000Y-107850000D01*
X145350000Y-92100000D02*
X145350000Y-95300000D01*
X145350000Y-105800000D02*
X145350000Y-105850000D01*
X129600000Y-98500000D02*
X129600000Y-92100000D01*
X129600000Y-107850000D02*
X129600000Y-102500000D01*
X139935000Y-85955000D02*
X139935000Y-89045000D01*
X145485000Y-87500462D02*
G75*
G03*
X139935000Y-85955170I-2990000J462D01*
G01*
X139935000Y-89044830D02*
G75*
G03*
X145485000Y-87499538I2560000J1544830D01*
G01*
X144995000Y-87500000D02*
G75*
G03*
X144995000Y-87500000I-2500000J0D01*
G01*
X139935000Y-110955000D02*
X139935000Y-114045000D01*
X145485000Y-112500462D02*
G75*
G03*
X139935000Y-110955170I-2990000J462D01*
G01*
X139935000Y-114044830D02*
G75*
G03*
X145485000Y-112499538I2560000J1544830D01*
G01*
X144995000Y-112500000D02*
G75*
G03*
X144995000Y-112500000I-2500000J0D01*
G01*
X139935000Y-160955000D02*
X139935000Y-164045000D01*
X139935000Y-164044830D02*
G75*
G03*
X145485000Y-162499538I2560000J1544830D01*
G01*
X145485000Y-162500462D02*
G75*
G03*
X139935000Y-160955170I-2990000J462D01*
G01*
X144995000Y-162500000D02*
G75*
G03*
X144995000Y-162500000I-2500000J0D01*
G01*
X124795000Y-76170000D02*
X152795000Y-76170000D01*
X124795000Y-78830000D02*
X152795000Y-78830000D01*
X122195000Y-78830000D02*
X122195000Y-77500000D01*
X124795000Y-78830000D02*
X124795000Y-76170000D01*
X123525000Y-78830000D02*
X122195000Y-78830000D01*
X152795000Y-78830000D02*
X152795000Y-76170000D01*
X164935000Y-160955000D02*
X164935000Y-164045000D01*
X170485000Y-162500462D02*
G75*
G03*
X164935000Y-160955170I-2990000J462D01*
G01*
X164935000Y-164044830D02*
G75*
G03*
X170485000Y-162499538I2560000J1544830D01*
G01*
X169995000Y-162500000D02*
G75*
G03*
X169995000Y-162500000I-2500000J0D01*
G01*
X164935000Y-85955000D02*
X164935000Y-89045000D01*
X164935000Y-89044830D02*
G75*
G03*
X170485000Y-87499538I2560000J1544830D01*
G01*
X170485000Y-87500462D02*
G75*
G03*
X164935000Y-85955170I-2990000J462D01*
G01*
X169995000Y-87500000D02*
G75*
G03*
X169995000Y-87500000I-2500000J0D01*
G01*
X164935000Y-135955000D02*
X164935000Y-139045000D01*
X170485000Y-137500462D02*
G75*
G03*
X164935000Y-135955170I-2990000J462D01*
G01*
X164935000Y-139044830D02*
G75*
G03*
X170485000Y-137499538I2560000J1544830D01*
G01*
X169995000Y-137500000D02*
G75*
G03*
X169995000Y-137500000I-2500000J0D01*
G01*
X139935000Y-135955000D02*
X139935000Y-139045000D01*
X145485000Y-137500462D02*
G75*
G03*
X139935000Y-135955170I-2990000J462D01*
G01*
X139935000Y-139044830D02*
G75*
G03*
X145485000Y-137499538I2560000J1544830D01*
G01*
X144995000Y-137500000D02*
G75*
G03*
X144995000Y-137500000I-2500000J0D01*
G01*
X164935000Y-110955000D02*
X164935000Y-114045000D01*
X170485000Y-112500462D02*
G75*
G03*
X164935000Y-110955170I-2990000J462D01*
G01*
X164935000Y-114044830D02*
G75*
G03*
X170485000Y-112499538I2560000J1544830D01*
G01*
X169995000Y-112500000D02*
G75*
G03*
X169995000Y-112500000I-2500000J0D01*
G01*
%LPC*%
D12*
X163000000Y-118600000D03*
D13*
X168900000Y-122500000D03*
D14*
X167240000Y-129740000D03*
D15*
X156100000Y-125500000D03*
D16*
X160000000Y-131400000D03*
D12*
X113000000Y-93600000D03*
D13*
X118900000Y-97500000D03*
D14*
X117240000Y-104740000D03*
D15*
X106100000Y-100500000D03*
D16*
X110000000Y-106400000D03*
D12*
X163000000Y-93600000D03*
D13*
X168900000Y-97500000D03*
D14*
X167240000Y-104740000D03*
D15*
X156100000Y-100500000D03*
D16*
X160000000Y-106400000D03*
D12*
X163000000Y-143600000D03*
D13*
X168900000Y-147500000D03*
D14*
X167240000Y-154740000D03*
D15*
X156100000Y-150500000D03*
D16*
X160000000Y-156400000D03*
D12*
X138000000Y-143600000D03*
D13*
X143900000Y-147500000D03*
D14*
X142240000Y-154740000D03*
D15*
X131100000Y-150500000D03*
D16*
X135000000Y-156400000D03*
D12*
X113000000Y-118600000D03*
D13*
X118900000Y-122500000D03*
D14*
X117240000Y-129740000D03*
D15*
X106100000Y-125500000D03*
D16*
X110000000Y-131400000D03*
D12*
X138000000Y-168600000D03*
D13*
X143900000Y-172500000D03*
D14*
X142240000Y-179740000D03*
D15*
X131100000Y-175500000D03*
D16*
X135000000Y-181400000D03*
D12*
X138000000Y-118600000D03*
D13*
X143900000Y-122500000D03*
D14*
X142240000Y-129740000D03*
D15*
X131100000Y-125500000D03*
D16*
X135000000Y-131400000D03*
D12*
X163000000Y-168600000D03*
D13*
X168900000Y-172500000D03*
D14*
X167240000Y-179740000D03*
D15*
X156100000Y-175500000D03*
D16*
X160000000Y-181400000D03*
D12*
X138000000Y-93600000D03*
D13*
X143900000Y-97500000D03*
D14*
X142240000Y-104740000D03*
D15*
X131100000Y-100500000D03*
D16*
X135000000Y-106400000D03*
D17*
X141225000Y-87500000D03*
D18*
X143765000Y-87500000D03*
D19*
X112500000Y-25000000D03*
D17*
X141225000Y-112500000D03*
D18*
X143765000Y-112500000D03*
D19*
X162500000Y-75000000D03*
D17*
X141225000Y-162500000D03*
D18*
X143765000Y-162500000D03*
D20*
X123525000Y-77500000D03*
D21*
X126065000Y-77500000D03*
X128605000Y-77500000D03*
X131145000Y-77500000D03*
X133685000Y-77500000D03*
X136225000Y-77500000D03*
X138765000Y-77500000D03*
X141305000Y-77500000D03*
X143845000Y-77500000D03*
X146385000Y-77500000D03*
X148925000Y-77500000D03*
X151465000Y-77500000D03*
D17*
X166225000Y-162500000D03*
D18*
X168765000Y-162500000D03*
D17*
X166225000Y-87500000D03*
D18*
X168765000Y-87500000D03*
D17*
X166225000Y-137500000D03*
D18*
X168765000Y-137500000D03*
D17*
X141225000Y-137500000D03*
D18*
X143765000Y-137500000D03*
D17*
X166225000Y-112500000D03*
D18*
X168765000Y-112500000D03*
D22*
X127810000Y-67000000D03*
D23*
X120190000Y-67000000D03*
D24*
X152040000Y-72360000D03*
D25*
X149500000Y-72360000D03*
X146960000Y-72360000D03*
D22*
X152810000Y-67000000D03*
D23*
X145190000Y-67000000D03*
D26*
X130920000Y-26000000D03*
D23*
X141080000Y-26000000D03*
D26*
X130920000Y-71500000D03*
D23*
X141080000Y-71500000D03*
D26*
X141080000Y-64500000D03*
D23*
X130920000Y-64500000D03*
D26*
X166080000Y-33000000D03*
D23*
X155920000Y-33000000D03*
D22*
X120000000Y-141500000D03*
D26*
X117500000Y-141500000D03*
X126420000Y-112500000D03*
D23*
X136580000Y-112500000D03*
D26*
X141080000Y-57500000D03*
D23*
X130920000Y-57500000D03*
D26*
X116317600Y-148000000D03*
D23*
X126317600Y-148000000D03*
D27*
X117000000Y-69500000D03*
D28*
X117000000Y-72040000D03*
X117000000Y-74580000D03*
X117000000Y-77120000D03*
X117000000Y-79660000D03*
X117000000Y-82200000D03*
X117000000Y-84740000D03*
X117000000Y-87280000D03*
X109380000Y-87280000D03*
X109380000Y-84740000D03*
X109380000Y-82200000D03*
X109380000Y-79660000D03*
X109380000Y-77120000D03*
X109380000Y-74580000D03*
X109380000Y-72040000D03*
X109380000Y-69500000D03*
D26*
X155920000Y-61000000D03*
D23*
X166080000Y-61000000D03*
D26*
X126420000Y-162500000D03*
D23*
X136580000Y-162500000D03*
D26*
X130920000Y-33000000D03*
D23*
X141080000Y-33000000D03*
D29*
X117500000Y-171500000D03*
D30*
X114960000Y-171500000D03*
X112420000Y-171500000D03*
D26*
X166080000Y-26000000D03*
D23*
X155920000Y-26000000D03*
D26*
X151420000Y-162500000D03*
D23*
X161580000Y-162500000D03*
D26*
X155920000Y-71500000D03*
D23*
X166080000Y-71500000D03*
D26*
X125920000Y-137500000D03*
D23*
X136080000Y-137500000D03*
D26*
X141080000Y-22500000D03*
D23*
X130920000Y-22500000D03*
D26*
X166080000Y-57500000D03*
D23*
X155920000Y-57500000D03*
D26*
X116317600Y-153000000D03*
D23*
X126317600Y-153000000D03*
D26*
X156500000Y-54000000D03*
X161500000Y-54000000D03*
X141080000Y-68000000D03*
D23*
X130920000Y-68000000D03*
D26*
X155920000Y-64500000D03*
D23*
X166080000Y-64500000D03*
D26*
X155920000Y-40000000D03*
D23*
X166080000Y-40000000D03*
D26*
X126420000Y-87500000D03*
D23*
X136580000Y-87500000D03*
D26*
X141080000Y-61000000D03*
D23*
X130920000Y-61000000D03*
D26*
X166080000Y-68000000D03*
D23*
X155920000Y-68000000D03*
D26*
X115500000Y-66000000D03*
X110500000Y-66000000D03*
X141080000Y-47000000D03*
D23*
X130920000Y-47000000D03*
D26*
X140500000Y-29500000D03*
X135500000Y-29500000D03*
X151920000Y-137500000D03*
D23*
X162080000Y-137500000D03*
D26*
X141080000Y-43500000D03*
D23*
X130920000Y-43500000D03*
D26*
X151420000Y-112500000D03*
D23*
X161580000Y-112500000D03*
D27*
X152300000Y-46375000D03*
D28*
X152300000Y-48915000D03*
X152300000Y-51455000D03*
X152300000Y-53995000D03*
X152300000Y-56535000D03*
X152300000Y-59075000D03*
X152300000Y-61615000D03*
X144680000Y-61615000D03*
X144680000Y-59075000D03*
X144680000Y-56535000D03*
X144680000Y-53995000D03*
X144680000Y-51455000D03*
X144680000Y-48915000D03*
X144680000Y-46375000D03*
D26*
X130920000Y-50500000D03*
D23*
X141080000Y-50500000D03*
D26*
X141080000Y-19000000D03*
D23*
X130920000Y-19000000D03*
D26*
X151420000Y-87500000D03*
D23*
X161580000Y-87500000D03*
D26*
X141080000Y-40000000D03*
D23*
X130920000Y-40000000D03*
D22*
X117817600Y-160000000D03*
D26*
X120317600Y-160000000D03*
D27*
X152300000Y-21875000D03*
D28*
X152300000Y-24415000D03*
X152300000Y-26955000D03*
X152300000Y-29495000D03*
X152300000Y-32035000D03*
X152300000Y-34575000D03*
X152300000Y-37115000D03*
X144680000Y-37115000D03*
X144680000Y-34575000D03*
X144680000Y-32035000D03*
X144680000Y-29495000D03*
X144680000Y-26955000D03*
X144680000Y-24415000D03*
X144680000Y-21875000D03*
D26*
X166080000Y-22500000D03*
D23*
X155920000Y-22500000D03*
D26*
X166080000Y-50500000D03*
D23*
X155920000Y-50500000D03*
D26*
X166080000Y-47000000D03*
D23*
X155920000Y-47000000D03*
D24*
X126540000Y-72360000D03*
D25*
X124000000Y-72360000D03*
X121460000Y-72360000D03*
D26*
X156500000Y-29500000D03*
X161500000Y-29500000D03*
X140500000Y-54000000D03*
X135500000Y-54000000D03*
D22*
X123000000Y-21000000D03*
D23*
X123000000Y-23540000D03*
X123000000Y-26080000D03*
X123000000Y-28620000D03*
X123000000Y-31160000D03*
X123000000Y-33700000D03*
X123000000Y-36240000D03*
X123000000Y-38780000D03*
X123000000Y-41320000D03*
X123000000Y-43860000D03*
X123000000Y-46400000D03*
X123000000Y-48940000D03*
X123000000Y-51480000D03*
X123000000Y-54020000D03*
X123000000Y-56560000D03*
X107760000Y-56560000D03*
X107760000Y-54020000D03*
X107760000Y-51480000D03*
X107760000Y-48940000D03*
X107760000Y-46400000D03*
X107760000Y-43860000D03*
X107760000Y-41320000D03*
X107760000Y-38780000D03*
X107760000Y-36240000D03*
X107760000Y-33700000D03*
X107760000Y-31160000D03*
X107760000Y-28620000D03*
X107760000Y-26080000D03*
X107760000Y-23540000D03*
X107760000Y-21000000D03*
D26*
X141080000Y-36500000D03*
D23*
X130920000Y-36500000D03*
D26*
X155920000Y-19000000D03*
D23*
X166080000Y-19000000D03*
D31*
X108047600Y-155580000D03*
D32*
X110587600Y-155580000D03*
X108047600Y-153040000D03*
X110587600Y-153040000D03*
X108047600Y-150500000D03*
X110587600Y-150500000D03*
X108047600Y-147960000D03*
X110587600Y-147960000D03*
X108047600Y-145420000D03*
X110587600Y-145420000D03*
D26*
X155920000Y-43500000D03*
D23*
X166080000Y-43500000D03*
D26*
X166080000Y-36500000D03*
D23*
X155920000Y-36500000D03*
M02*
