G04 #@! TF.GenerationSoftware,KiCad,Pcbnew,(6.0.5)*
G04 #@! TF.CreationDate,2022-11-21T20:26:23-06:00*
G04 #@! TF.ProjectId,KosmoClockMain,4b6f736d-6f43-46c6-9f63-6b4d61696e2e,rev?*
G04 #@! TF.SameCoordinates,Original*
G04 #@! TF.FileFunction,Legend,Bot*
G04 #@! TF.FilePolarity,Positive*
%FSLAX46Y46*%
G04 Gerber Fmt 4.6, Leading zero omitted, Abs format (unit mm)*
G04 Created by KiCad (PCBNEW (6.0.5)) date 2022-11-21 20:26:23*
%MOMM*%
%LPD*%
G01*
G04 APERTURE LIST*
G04 Aperture macros list*
%AMRotRect*
0 Rectangle, with rotation*
0 The origin of the aperture is its center*
0 $1 length*
0 $2 width*
0 $3 Rotation angle, in degrees counterclockwise*
0 Add horizontal line*
21,1,$1,$2,0,0,$3*%
G04 Aperture macros list end*
%ADD10C,0.250000*%
%ADD11C,0.150000*%
%ADD12C,0.120000*%
%ADD13O,4.500001X2.500000*%
%ADD14O,2.500001X4.500001*%
%ADD15RotRect,4.500001X2.500001X45.000000*%
%ADD16O,2.500000X4.500000*%
%ADD17O,4.500000X2.500000*%
%ADD18R,1.800000X1.800000*%
%ADD19C,1.800000*%
%ADD20C,3.200000*%
%ADD21R,1.700000X1.700000*%
%ADD22O,1.700000X1.700000*%
%ADD23R,1.600000X1.600000*%
%ADD24O,1.600000X1.600000*%
%ADD25R,1.500000X1.500000*%
%ADD26C,1.500000*%
%ADD27C,1.600000*%
%ADD28R,2.400000X1.600000*%
%ADD29O,2.400000X1.600000*%
%ADD30R,1.905000X2.000000*%
%ADD31O,1.905000X2.000000*%
%ADD32R,1.727200X1.727200*%
%ADD33O,1.727200X1.727200*%
G04 APERTURE END LIST*
D10*
X127800000Y-177416285D02*
X127800000Y-175616285D01*
X126771428Y-177416285D02*
X127542857Y-176387714D01*
X126771428Y-175616285D02*
X127800000Y-176644857D01*
X125742857Y-177416285D02*
X125914285Y-177330571D01*
X126000000Y-177244857D01*
X126085714Y-177073428D01*
X126085714Y-176559142D01*
X126000000Y-176387714D01*
X125914285Y-176302000D01*
X125742857Y-176216285D01*
X125485714Y-176216285D01*
X125314285Y-176302000D01*
X125228571Y-176387714D01*
X125142857Y-176559142D01*
X125142857Y-177073428D01*
X125228571Y-177244857D01*
X125314285Y-177330571D01*
X125485714Y-177416285D01*
X125742857Y-177416285D01*
X124457142Y-177330571D02*
X124285714Y-177416285D01*
X123942857Y-177416285D01*
X123771428Y-177330571D01*
X123685714Y-177159142D01*
X123685714Y-177073428D01*
X123771428Y-176902000D01*
X123942857Y-176816285D01*
X124200000Y-176816285D01*
X124371428Y-176730571D01*
X124457142Y-176559142D01*
X124457142Y-176473428D01*
X124371428Y-176302000D01*
X124200000Y-176216285D01*
X123942857Y-176216285D01*
X123771428Y-176302000D01*
X122914285Y-177416285D02*
X122914285Y-176216285D01*
X122914285Y-176387714D02*
X122828571Y-176302000D01*
X122657142Y-176216285D01*
X122400000Y-176216285D01*
X122228571Y-176302000D01*
X122142857Y-176473428D01*
X122142857Y-177416285D01*
X122142857Y-176473428D02*
X122057142Y-176302000D01*
X121885714Y-176216285D01*
X121628571Y-176216285D01*
X121457142Y-176302000D01*
X121371428Y-176473428D01*
X121371428Y-177416285D01*
X120257142Y-177416285D02*
X120428571Y-177330571D01*
X120514285Y-177244857D01*
X120600000Y-177073428D01*
X120600000Y-176559142D01*
X120514285Y-176387714D01*
X120428571Y-176302000D01*
X120257142Y-176216285D01*
X120000000Y-176216285D01*
X119828571Y-176302000D01*
X119742857Y-176387714D01*
X119657142Y-176559142D01*
X119657142Y-177073428D01*
X119742857Y-177244857D01*
X119828571Y-177330571D01*
X120000000Y-177416285D01*
X120257142Y-177416285D01*
X116485714Y-177244857D02*
X116571428Y-177330571D01*
X116828571Y-177416285D01*
X117000000Y-177416285D01*
X117257142Y-177330571D01*
X117428571Y-177159142D01*
X117514285Y-176987714D01*
X117600000Y-176644857D01*
X117600000Y-176387714D01*
X117514285Y-176044857D01*
X117428571Y-175873428D01*
X117257142Y-175702000D01*
X117000000Y-175616285D01*
X116828571Y-175616285D01*
X116571428Y-175702000D01*
X116485714Y-175787714D01*
X115457142Y-177416285D02*
X115628571Y-177330571D01*
X115714285Y-177159142D01*
X115714285Y-175616285D01*
X114514285Y-177416285D02*
X114685714Y-177330571D01*
X114771428Y-177244857D01*
X114857142Y-177073428D01*
X114857142Y-176559142D01*
X114771428Y-176387714D01*
X114685714Y-176302000D01*
X114514285Y-176216285D01*
X114257142Y-176216285D01*
X114085714Y-176302000D01*
X114000000Y-176387714D01*
X113914285Y-176559142D01*
X113914285Y-177073428D01*
X114000000Y-177244857D01*
X114085714Y-177330571D01*
X114257142Y-177416285D01*
X114514285Y-177416285D01*
X112371428Y-177330571D02*
X112542857Y-177416285D01*
X112885714Y-177416285D01*
X113057142Y-177330571D01*
X113142857Y-177244857D01*
X113228571Y-177073428D01*
X113228571Y-176559142D01*
X113142857Y-176387714D01*
X113057142Y-176302000D01*
X112885714Y-176216285D01*
X112542857Y-176216285D01*
X112371428Y-176302000D01*
X111600000Y-177416285D02*
X111600000Y-175616285D01*
X111428571Y-176730571D02*
X110914285Y-177416285D01*
X110914285Y-176216285D02*
X111600000Y-176902000D01*
X109028571Y-175616285D02*
X108428571Y-177416285D01*
X107828571Y-175616285D01*
X106285714Y-177416285D02*
X107314285Y-177416285D01*
X106800000Y-177416285D02*
X106800000Y-175616285D01*
X106971428Y-175873428D01*
X107142857Y-176044857D01*
X107314285Y-176130571D01*
X105514285Y-177244857D02*
X105428571Y-177330571D01*
X105514285Y-177416285D01*
X105600000Y-177330571D01*
X105514285Y-177244857D01*
X105514285Y-177416285D01*
X104314285Y-175616285D02*
X104142857Y-175616285D01*
X103971428Y-175702000D01*
X103885714Y-175787714D01*
X103800000Y-175959142D01*
X103714285Y-176302000D01*
X103714285Y-176730571D01*
X103800000Y-177073428D01*
X103885714Y-177244857D01*
X103971428Y-177330571D01*
X104142857Y-177416285D01*
X104314285Y-177416285D01*
X104485714Y-177330571D01*
X104571428Y-177244857D01*
X104657142Y-177073428D01*
X104742857Y-176730571D01*
X104742857Y-176302000D01*
X104657142Y-175959142D01*
X104571428Y-175787714D01*
X104485714Y-175702000D01*
X104314285Y-175616285D01*
X121842857Y-180314285D02*
X121842857Y-178514285D01*
X121242857Y-179800000D01*
X120642857Y-178514285D01*
X120642857Y-180314285D01*
X119014285Y-180314285D02*
X119014285Y-179371428D01*
X119100000Y-179200000D01*
X119271428Y-179114285D01*
X119614285Y-179114285D01*
X119785714Y-179200000D01*
X119014285Y-180228571D02*
X119185714Y-180314285D01*
X119614285Y-180314285D01*
X119785714Y-180228571D01*
X119871428Y-180057142D01*
X119871428Y-179885714D01*
X119785714Y-179714285D01*
X119614285Y-179628571D01*
X119185714Y-179628571D01*
X119014285Y-179542857D01*
X118157142Y-180314285D02*
X118157142Y-179114285D01*
X118157142Y-178514285D02*
X118242857Y-178600000D01*
X118157142Y-178685714D01*
X118071428Y-178600000D01*
X118157142Y-178514285D01*
X118157142Y-178685714D01*
X117300000Y-179114285D02*
X117300000Y-180314285D01*
X117300000Y-179285714D02*
X117214285Y-179200000D01*
X117042857Y-179114285D01*
X116785714Y-179114285D01*
X116614285Y-179200000D01*
X116528571Y-179371428D01*
X116528571Y-180314285D01*
X114300000Y-180314285D02*
X114300000Y-178514285D01*
X113614285Y-178514285D01*
X113442857Y-178600000D01*
X113357142Y-178685714D01*
X113271428Y-178857142D01*
X113271428Y-179114285D01*
X113357142Y-179285714D01*
X113442857Y-179371428D01*
X113614285Y-179457142D01*
X114300000Y-179457142D01*
X111471428Y-180142857D02*
X111557142Y-180228571D01*
X111814285Y-180314285D01*
X111985714Y-180314285D01*
X112242857Y-180228571D01*
X112414285Y-180057142D01*
X112500000Y-179885714D01*
X112585714Y-179542857D01*
X112585714Y-179285714D01*
X112500000Y-178942857D01*
X112414285Y-178771428D01*
X112242857Y-178600000D01*
X111985714Y-178514285D01*
X111814285Y-178514285D01*
X111557142Y-178600000D01*
X111471428Y-178685714D01*
X110100000Y-179371428D02*
X109842857Y-179457142D01*
X109757142Y-179542857D01*
X109671428Y-179714285D01*
X109671428Y-179971428D01*
X109757142Y-180142857D01*
X109842857Y-180228571D01*
X110014285Y-180314285D01*
X110700000Y-180314285D01*
X110700000Y-178514285D01*
X110100000Y-178514285D01*
X109928571Y-178600000D01*
X109842857Y-178685714D01*
X109757142Y-178857142D01*
X109757142Y-179028571D01*
X109842857Y-179200000D01*
X109928571Y-179285714D01*
X110100000Y-179371428D01*
X110700000Y-179371428D01*
X126042857Y-183212285D02*
X126042857Y-181412285D01*
X125014285Y-183212285D01*
X125014285Y-181412285D01*
X123900000Y-183212285D02*
X124071428Y-183126571D01*
X124157142Y-183040857D01*
X124242857Y-182869428D01*
X124242857Y-182355142D01*
X124157142Y-182183714D01*
X124071428Y-182098000D01*
X123900000Y-182012285D01*
X123642857Y-182012285D01*
X123471428Y-182098000D01*
X123385714Y-182183714D01*
X123300000Y-182355142D01*
X123300000Y-182869428D01*
X123385714Y-183040857D01*
X123471428Y-183126571D01*
X123642857Y-183212285D01*
X123900000Y-183212285D01*
X122700000Y-182012285D02*
X122271428Y-183212285D01*
X121842857Y-182012285D01*
X120471428Y-183126571D02*
X120642857Y-183212285D01*
X120985714Y-183212285D01*
X121157142Y-183126571D01*
X121242857Y-182955142D01*
X121242857Y-182269428D01*
X121157142Y-182098000D01*
X120985714Y-182012285D01*
X120642857Y-182012285D01*
X120471428Y-182098000D01*
X120385714Y-182269428D01*
X120385714Y-182440857D01*
X121242857Y-182612285D01*
X119614285Y-183212285D02*
X119614285Y-182012285D01*
X119614285Y-182183714D02*
X119528571Y-182098000D01*
X119357142Y-182012285D01*
X119100000Y-182012285D01*
X118928571Y-182098000D01*
X118842857Y-182269428D01*
X118842857Y-183212285D01*
X118842857Y-182269428D02*
X118757142Y-182098000D01*
X118585714Y-182012285D01*
X118328571Y-182012285D01*
X118157142Y-182098000D01*
X118071428Y-182269428D01*
X118071428Y-183212285D01*
X117214285Y-183212285D02*
X117214285Y-181412285D01*
X117214285Y-182098000D02*
X117042857Y-182012285D01*
X116700000Y-182012285D01*
X116528571Y-182098000D01*
X116442857Y-182183714D01*
X116357142Y-182355142D01*
X116357142Y-182869428D01*
X116442857Y-183040857D01*
X116528571Y-183126571D01*
X116700000Y-183212285D01*
X117042857Y-183212285D01*
X117214285Y-183126571D01*
X114900000Y-183126571D02*
X115071428Y-183212285D01*
X115414285Y-183212285D01*
X115585714Y-183126571D01*
X115671428Y-182955142D01*
X115671428Y-182269428D01*
X115585714Y-182098000D01*
X115414285Y-182012285D01*
X115071428Y-182012285D01*
X114900000Y-182098000D01*
X114814285Y-182269428D01*
X114814285Y-182440857D01*
X115671428Y-182612285D01*
X114042857Y-183212285D02*
X114042857Y-182012285D01*
X114042857Y-182355142D02*
X113957142Y-182183714D01*
X113871428Y-182098000D01*
X113700000Y-182012285D01*
X113528571Y-182012285D01*
X111642857Y-181583714D02*
X111557142Y-181498000D01*
X111385714Y-181412285D01*
X110957142Y-181412285D01*
X110785714Y-181498000D01*
X110700000Y-181583714D01*
X110614285Y-181755142D01*
X110614285Y-181926571D01*
X110700000Y-182183714D01*
X111728571Y-183212285D01*
X110614285Y-183212285D01*
X109500000Y-181412285D02*
X109328571Y-181412285D01*
X109157142Y-181498000D01*
X109071428Y-181583714D01*
X108985714Y-181755142D01*
X108900000Y-182098000D01*
X108900000Y-182526571D01*
X108985714Y-182869428D01*
X109071428Y-183040857D01*
X109157142Y-183126571D01*
X109328571Y-183212285D01*
X109500000Y-183212285D01*
X109671428Y-183126571D01*
X109757142Y-183040857D01*
X109842857Y-182869428D01*
X109928571Y-182526571D01*
X109928571Y-182098000D01*
X109842857Y-181755142D01*
X109757142Y-181583714D01*
X109671428Y-181498000D01*
X109500000Y-181412285D01*
X108214285Y-181583714D02*
X108128571Y-181498000D01*
X107957142Y-181412285D01*
X107528571Y-181412285D01*
X107357142Y-181498000D01*
X107271428Y-181583714D01*
X107185714Y-181755142D01*
X107185714Y-181926571D01*
X107271428Y-182183714D01*
X108300000Y-183212285D01*
X107185714Y-183212285D01*
X106500000Y-181583714D02*
X106414285Y-181498000D01*
X106242857Y-181412285D01*
X105814285Y-181412285D01*
X105642857Y-181498000D01*
X105557142Y-181583714D01*
X105471428Y-181755142D01*
X105471428Y-181926571D01*
X105557142Y-182183714D01*
X106585714Y-183212285D01*
X105471428Y-183212285D01*
D11*
X123918571Y-65434285D02*
X123918571Y-64684285D01*
X123740000Y-64684285D01*
X123632857Y-64720000D01*
X123561428Y-64791428D01*
X123525714Y-64862857D01*
X123490000Y-65005714D01*
X123490000Y-65112857D01*
X123525714Y-65255714D01*
X123561428Y-65327142D01*
X123632857Y-65398571D01*
X123740000Y-65434285D01*
X123918571Y-65434285D01*
X123204285Y-64755714D02*
X123168571Y-64720000D01*
X123097142Y-64684285D01*
X122918571Y-64684285D01*
X122847142Y-64720000D01*
X122811428Y-64755714D01*
X122775714Y-64827142D01*
X122775714Y-64898571D01*
X122811428Y-65005714D01*
X123240000Y-65434285D01*
X122775714Y-65434285D01*
X128006428Y-69339285D02*
X128006428Y-68589285D01*
X127577857Y-69339285D02*
X127899285Y-68910714D01*
X127577857Y-68589285D02*
X128006428Y-69017857D01*
X125607142Y-67339285D02*
X126035714Y-67339285D01*
X125821428Y-67339285D02*
X125821428Y-66589285D01*
X125892857Y-66696428D01*
X125964285Y-66767857D01*
X126035714Y-66803571D01*
X125285714Y-67339285D02*
X125285714Y-66589285D01*
X124857142Y-67339285D01*
X124857142Y-66589285D01*
X124178571Y-66839285D02*
X124178571Y-67339285D01*
X124357142Y-66553571D02*
X124535714Y-67089285D01*
X124071428Y-67089285D01*
X123392857Y-67339285D02*
X123821428Y-67339285D01*
X123607142Y-67339285D02*
X123607142Y-66589285D01*
X123678571Y-66696428D01*
X123750000Y-66767857D01*
X123821428Y-66803571D01*
X122750000Y-66839285D02*
X122750000Y-67339285D01*
X122928571Y-66553571D02*
X123107142Y-67089285D01*
X122642857Y-67089285D01*
X122250000Y-66910714D02*
X122321428Y-66875000D01*
X122357142Y-66839285D01*
X122392857Y-66767857D01*
X122392857Y-66732142D01*
X122357142Y-66660714D01*
X122321428Y-66625000D01*
X122250000Y-66589285D01*
X122107142Y-66589285D01*
X122035714Y-66625000D01*
X122000000Y-66660714D01*
X121964285Y-66732142D01*
X121964285Y-66767857D01*
X122000000Y-66839285D01*
X122035714Y-66875000D01*
X122107142Y-66910714D01*
X122250000Y-66910714D01*
X122321428Y-66946428D01*
X122357142Y-66982142D01*
X122392857Y-67053571D01*
X122392857Y-67196428D01*
X122357142Y-67267857D01*
X122321428Y-67303571D01*
X122250000Y-67339285D01*
X122107142Y-67339285D01*
X122035714Y-67303571D01*
X122000000Y-67267857D01*
X121964285Y-67196428D01*
X121964285Y-67053571D01*
X122000000Y-66982142D01*
X122035714Y-66946428D01*
X122107142Y-66910714D01*
X149571428Y-69210714D02*
X149642857Y-69175000D01*
X149714285Y-69103571D01*
X149821428Y-68996428D01*
X149892857Y-68960714D01*
X149964285Y-68960714D01*
X149928571Y-69139285D02*
X150000000Y-69103571D01*
X150071428Y-69032142D01*
X150107142Y-68889285D01*
X150107142Y-68639285D01*
X150071428Y-68496428D01*
X150000000Y-68425000D01*
X149928571Y-68389285D01*
X149785714Y-68389285D01*
X149714285Y-68425000D01*
X149642857Y-68496428D01*
X149607142Y-68639285D01*
X149607142Y-68889285D01*
X149642857Y-69032142D01*
X149714285Y-69103571D01*
X149785714Y-69139285D01*
X149928571Y-69139285D01*
X148892857Y-69139285D02*
X149321428Y-69139285D01*
X149107142Y-69139285D02*
X149107142Y-68389285D01*
X149178571Y-68496428D01*
X149250000Y-68567857D01*
X149321428Y-68603571D01*
X151535714Y-73290714D02*
X151500000Y-73255000D01*
X151428571Y-73219285D01*
X151250000Y-73219285D01*
X151178571Y-73255000D01*
X151142857Y-73290714D01*
X151107142Y-73362142D01*
X151107142Y-73433571D01*
X151142857Y-73540714D01*
X151571428Y-73969285D01*
X151107142Y-73969285D01*
X150785714Y-73969285D02*
X150785714Y-73219285D01*
X150357142Y-73969285D01*
X150357142Y-73219285D01*
X150071428Y-73219285D02*
X149607142Y-73219285D01*
X149857142Y-73505000D01*
X149750000Y-73505000D01*
X149678571Y-73540714D01*
X149642857Y-73576428D01*
X149607142Y-73647857D01*
X149607142Y-73826428D01*
X149642857Y-73897857D01*
X149678571Y-73933571D01*
X149750000Y-73969285D01*
X149964285Y-73969285D01*
X150035714Y-73933571D01*
X150071428Y-73897857D01*
X149250000Y-73969285D02*
X149107142Y-73969285D01*
X149035714Y-73933571D01*
X149000000Y-73897857D01*
X148928571Y-73790714D01*
X148892857Y-73647857D01*
X148892857Y-73362142D01*
X148928571Y-73290714D01*
X148964285Y-73255000D01*
X149035714Y-73219285D01*
X149178571Y-73219285D01*
X149250000Y-73255000D01*
X149285714Y-73290714D01*
X149321428Y-73362142D01*
X149321428Y-73540714D01*
X149285714Y-73612142D01*
X149250000Y-73647857D01*
X149178571Y-73683571D01*
X149035714Y-73683571D01*
X148964285Y-73647857D01*
X148928571Y-73612142D01*
X148892857Y-73540714D01*
X148428571Y-73219285D02*
X148357142Y-73219285D01*
X148285714Y-73255000D01*
X148250000Y-73290714D01*
X148214285Y-73362142D01*
X148178571Y-73505000D01*
X148178571Y-73683571D01*
X148214285Y-73826428D01*
X148250000Y-73897857D01*
X148285714Y-73933571D01*
X148357142Y-73969285D01*
X148428571Y-73969285D01*
X148500000Y-73933571D01*
X148535714Y-73897857D01*
X148571428Y-73826428D01*
X148607142Y-73683571D01*
X148607142Y-73505000D01*
X148571428Y-73362142D01*
X148535714Y-73290714D01*
X148500000Y-73255000D01*
X148428571Y-73219285D01*
X147535714Y-73469285D02*
X147535714Y-73969285D01*
X147714285Y-73183571D02*
X147892857Y-73719285D01*
X147428571Y-73719285D01*
X149553571Y-65339285D02*
X149553571Y-64589285D01*
X149375000Y-64589285D01*
X149267857Y-64625000D01*
X149196428Y-64696428D01*
X149160714Y-64767857D01*
X149125000Y-64910714D01*
X149125000Y-65017857D01*
X149160714Y-65160714D01*
X149196428Y-65232142D01*
X149267857Y-65303571D01*
X149375000Y-65339285D01*
X149553571Y-65339285D01*
X148410714Y-65339285D02*
X148839285Y-65339285D01*
X148625000Y-65339285D02*
X148625000Y-64589285D01*
X148696428Y-64696428D01*
X148767857Y-64767857D01*
X148839285Y-64803571D01*
X150607142Y-67339285D02*
X151035714Y-67339285D01*
X150821428Y-67339285D02*
X150821428Y-66589285D01*
X150892857Y-66696428D01*
X150964285Y-66767857D01*
X151035714Y-66803571D01*
X150285714Y-67339285D02*
X150285714Y-66589285D01*
X149857142Y-67339285D01*
X149857142Y-66589285D01*
X149178571Y-66839285D02*
X149178571Y-67339285D01*
X149357142Y-66553571D02*
X149535714Y-67089285D01*
X149071428Y-67089285D01*
X148392857Y-67339285D02*
X148821428Y-67339285D01*
X148607142Y-67339285D02*
X148607142Y-66589285D01*
X148678571Y-66696428D01*
X148750000Y-66767857D01*
X148821428Y-66803571D01*
X147750000Y-66839285D02*
X147750000Y-67339285D01*
X147928571Y-66553571D02*
X148107142Y-67089285D01*
X147642857Y-67089285D01*
X147250000Y-66910714D02*
X147321428Y-66875000D01*
X147357142Y-66839285D01*
X147392857Y-66767857D01*
X147392857Y-66732142D01*
X147357142Y-66660714D01*
X147321428Y-66625000D01*
X147250000Y-66589285D01*
X147107142Y-66589285D01*
X147035714Y-66625000D01*
X147000000Y-66660714D01*
X146964285Y-66732142D01*
X146964285Y-66767857D01*
X147000000Y-66839285D01*
X147035714Y-66875000D01*
X147107142Y-66910714D01*
X147250000Y-66910714D01*
X147321428Y-66946428D01*
X147357142Y-66982142D01*
X147392857Y-67053571D01*
X147392857Y-67196428D01*
X147357142Y-67267857D01*
X147321428Y-67303571D01*
X147250000Y-67339285D01*
X147107142Y-67339285D01*
X147035714Y-67303571D01*
X147000000Y-67267857D01*
X146964285Y-67196428D01*
X146964285Y-67053571D01*
X147000000Y-66982142D01*
X147035714Y-66946428D01*
X147107142Y-66910714D01*
X153196428Y-69339285D02*
X153196428Y-68589285D01*
X152767857Y-69339285D02*
X153089285Y-68910714D01*
X152767857Y-68589285D02*
X153196428Y-69017857D01*
X128982142Y-26339285D02*
X129232142Y-25982142D01*
X129410714Y-26339285D02*
X129410714Y-25589285D01*
X129125000Y-25589285D01*
X129053571Y-25625000D01*
X129017857Y-25660714D01*
X128982142Y-25732142D01*
X128982142Y-25839285D01*
X129017857Y-25910714D01*
X129053571Y-25946428D01*
X129125000Y-25982142D01*
X129410714Y-25982142D01*
X128267857Y-26339285D02*
X128696428Y-26339285D01*
X128482142Y-26339285D02*
X128482142Y-25589285D01*
X128553571Y-25696428D01*
X128625000Y-25767857D01*
X128696428Y-25803571D01*
X127803571Y-25589285D02*
X127732142Y-25589285D01*
X127660714Y-25625000D01*
X127625000Y-25660714D01*
X127589285Y-25732142D01*
X127553571Y-25875000D01*
X127553571Y-26053571D01*
X127589285Y-26196428D01*
X127625000Y-26267857D01*
X127660714Y-26303571D01*
X127732142Y-26339285D01*
X127803571Y-26339285D01*
X127875000Y-26303571D01*
X127910714Y-26267857D01*
X127946428Y-26196428D01*
X127982142Y-26053571D01*
X127982142Y-25875000D01*
X127946428Y-25732142D01*
X127910714Y-25660714D01*
X127875000Y-25625000D01*
X127803571Y-25589285D01*
X136446428Y-26339285D02*
X136875000Y-26339285D01*
X136660714Y-26339285D02*
X136660714Y-25589285D01*
X136732142Y-25696428D01*
X136803571Y-25767857D01*
X136875000Y-25803571D01*
X135982142Y-25589285D02*
X135910714Y-25589285D01*
X135839285Y-25625000D01*
X135803571Y-25660714D01*
X135767857Y-25732142D01*
X135732142Y-25875000D01*
X135732142Y-26053571D01*
X135767857Y-26196428D01*
X135803571Y-26267857D01*
X135839285Y-26303571D01*
X135910714Y-26339285D01*
X135982142Y-26339285D01*
X136053571Y-26303571D01*
X136089285Y-26267857D01*
X136125000Y-26196428D01*
X136160714Y-26053571D01*
X136160714Y-25875000D01*
X136125000Y-25732142D01*
X136089285Y-25660714D01*
X136053571Y-25625000D01*
X135982142Y-25589285D01*
X135410714Y-26339285D02*
X135410714Y-25589285D01*
X135339285Y-26053571D02*
X135125000Y-26339285D01*
X135125000Y-25839285D02*
X135410714Y-26125000D01*
X143125000Y-71839285D02*
X143375000Y-71482142D01*
X143553571Y-71839285D02*
X143553571Y-71089285D01*
X143267857Y-71089285D01*
X143196428Y-71125000D01*
X143160714Y-71160714D01*
X143125000Y-71232142D01*
X143125000Y-71339285D01*
X143160714Y-71410714D01*
X143196428Y-71446428D01*
X143267857Y-71482142D01*
X143553571Y-71482142D01*
X142875000Y-71089285D02*
X142375000Y-71089285D01*
X142696428Y-71839285D01*
X136214285Y-71839285D02*
X136642857Y-71839285D01*
X136428571Y-71839285D02*
X136428571Y-71089285D01*
X136500000Y-71196428D01*
X136571428Y-71267857D01*
X136642857Y-71303571D01*
X135892857Y-71839285D02*
X135892857Y-71089285D01*
X135642857Y-71625000D01*
X135392857Y-71089285D01*
X135392857Y-71839285D01*
X128982142Y-64839285D02*
X129232142Y-64482142D01*
X129410714Y-64839285D02*
X129410714Y-64089285D01*
X129125000Y-64089285D01*
X129053571Y-64125000D01*
X129017857Y-64160714D01*
X128982142Y-64232142D01*
X128982142Y-64339285D01*
X129017857Y-64410714D01*
X129053571Y-64446428D01*
X129125000Y-64482142D01*
X129410714Y-64482142D01*
X128732142Y-64089285D02*
X128267857Y-64089285D01*
X128517857Y-64375000D01*
X128410714Y-64375000D01*
X128339285Y-64410714D01*
X128303571Y-64446428D01*
X128267857Y-64517857D01*
X128267857Y-64696428D01*
X128303571Y-64767857D01*
X128339285Y-64803571D01*
X128410714Y-64839285D01*
X128625000Y-64839285D01*
X128696428Y-64803571D01*
X128732142Y-64767857D01*
X128017857Y-64089285D02*
X127517857Y-64089285D01*
X127839285Y-64839285D01*
X136089285Y-64839285D02*
X136517857Y-64839285D01*
X136303571Y-64839285D02*
X136303571Y-64089285D01*
X136375000Y-64196428D01*
X136446428Y-64267857D01*
X136517857Y-64303571D01*
X135767857Y-64839285D02*
X135767857Y-64089285D01*
X135696428Y-64553571D02*
X135482142Y-64839285D01*
X135482142Y-64339285D02*
X135767857Y-64625000D01*
X168625000Y-33339285D02*
X168875000Y-32982142D01*
X169053571Y-33339285D02*
X169053571Y-32589285D01*
X168767857Y-32589285D01*
X168696428Y-32625000D01*
X168660714Y-32660714D01*
X168625000Y-32732142D01*
X168625000Y-32839285D01*
X168660714Y-32910714D01*
X168696428Y-32946428D01*
X168767857Y-32982142D01*
X169053571Y-32982142D01*
X168267857Y-33339285D02*
X168125000Y-33339285D01*
X168053571Y-33303571D01*
X168017857Y-33267857D01*
X167946428Y-33160714D01*
X167910714Y-33017857D01*
X167910714Y-32732142D01*
X167946428Y-32660714D01*
X167982142Y-32625000D01*
X168053571Y-32589285D01*
X168196428Y-32589285D01*
X168267857Y-32625000D01*
X168303571Y-32660714D01*
X168339285Y-32732142D01*
X168339285Y-32910714D01*
X168303571Y-32982142D01*
X168267857Y-33017857D01*
X168196428Y-33053571D01*
X168053571Y-33053571D01*
X167982142Y-33017857D01*
X167946428Y-32982142D01*
X167910714Y-32910714D01*
X161446428Y-33339285D02*
X161875000Y-33339285D01*
X161660714Y-33339285D02*
X161660714Y-32589285D01*
X161732142Y-32696428D01*
X161803571Y-32767857D01*
X161875000Y-32803571D01*
X160982142Y-32589285D02*
X160910714Y-32589285D01*
X160839285Y-32625000D01*
X160803571Y-32660714D01*
X160767857Y-32732142D01*
X160732142Y-32875000D01*
X160732142Y-33053571D01*
X160767857Y-33196428D01*
X160803571Y-33267857D01*
X160839285Y-33303571D01*
X160910714Y-33339285D01*
X160982142Y-33339285D01*
X161053571Y-33303571D01*
X161089285Y-33267857D01*
X161125000Y-33196428D01*
X161160714Y-33053571D01*
X161160714Y-32875000D01*
X161125000Y-32732142D01*
X161089285Y-32660714D01*
X161053571Y-32625000D01*
X160982142Y-32589285D01*
X160410714Y-33339285D02*
X160410714Y-32589285D01*
X160339285Y-33053571D02*
X160125000Y-33339285D01*
X160125000Y-32839285D02*
X160410714Y-33125000D01*
X121942620Y-138267857D02*
X121978334Y-138303571D01*
X122085477Y-138339285D01*
X122156905Y-138339285D01*
X122264048Y-138303571D01*
X122335477Y-138232142D01*
X122371191Y-138160714D01*
X122406905Y-138017857D01*
X122406905Y-137910714D01*
X122371191Y-137767857D01*
X122335477Y-137696428D01*
X122264048Y-137625000D01*
X122156905Y-137589285D01*
X122085477Y-137589285D01*
X121978334Y-137625000D01*
X121942620Y-137660714D01*
X121228334Y-138339285D02*
X121656905Y-138339285D01*
X121442620Y-138339285D02*
X121442620Y-137589285D01*
X121514048Y-137696428D01*
X121585477Y-137767857D01*
X121656905Y-137803571D01*
X116299762Y-138339285D02*
X116728334Y-138339285D01*
X116514048Y-138339285D02*
X116514048Y-137589285D01*
X116585477Y-137696428D01*
X116656905Y-137767857D01*
X116728334Y-137803571D01*
X115835477Y-137589285D02*
X115764048Y-137589285D01*
X115692620Y-137625000D01*
X115656905Y-137660714D01*
X115621191Y-137732142D01*
X115585477Y-137875000D01*
X115585477Y-138053571D01*
X115621191Y-138196428D01*
X115656905Y-138267857D01*
X115692620Y-138303571D01*
X115764048Y-138339285D01*
X115835477Y-138339285D01*
X115906905Y-138303571D01*
X115942620Y-138267857D01*
X115978334Y-138196428D01*
X116014048Y-138053571D01*
X116014048Y-137875000D01*
X115978334Y-137732142D01*
X115942620Y-137660714D01*
X115906905Y-137625000D01*
X115835477Y-137589285D01*
X114942620Y-137839285D02*
X114942620Y-138339285D01*
X115264048Y-137839285D02*
X115264048Y-138232142D01*
X115228334Y-138303571D01*
X115156905Y-138339285D01*
X115049762Y-138339285D01*
X114978334Y-138303571D01*
X114942620Y-138267857D01*
X131982142Y-115339285D02*
X132232142Y-114982142D01*
X132410714Y-115339285D02*
X132410714Y-114589285D01*
X132125000Y-114589285D01*
X132053571Y-114625000D01*
X132017857Y-114660714D01*
X131982142Y-114732142D01*
X131982142Y-114839285D01*
X132017857Y-114910714D01*
X132053571Y-114946428D01*
X132125000Y-114982142D01*
X132410714Y-114982142D01*
X131267857Y-115339285D02*
X131696428Y-115339285D01*
X131482142Y-115339285D02*
X131482142Y-114589285D01*
X131553571Y-114696428D01*
X131625000Y-114767857D01*
X131696428Y-114803571D01*
X131017857Y-114589285D02*
X130517857Y-114589285D01*
X130839285Y-115339285D01*
X132089285Y-112160714D02*
X132053571Y-112125000D01*
X131982142Y-112089285D01*
X131803571Y-112089285D01*
X131732142Y-112125000D01*
X131696428Y-112160714D01*
X131660714Y-112232142D01*
X131660714Y-112303571D01*
X131696428Y-112410714D01*
X132125000Y-112839285D01*
X131660714Y-112839285D01*
X131339285Y-112839285D02*
X131339285Y-112089285D01*
X130910714Y-112839285D02*
X131232142Y-112410714D01*
X130910714Y-112089285D02*
X131339285Y-112517857D01*
X128982142Y-57839285D02*
X129232142Y-57482142D01*
X129410714Y-57839285D02*
X129410714Y-57089285D01*
X129125000Y-57089285D01*
X129053571Y-57125000D01*
X129017857Y-57160714D01*
X128982142Y-57232142D01*
X128982142Y-57339285D01*
X129017857Y-57410714D01*
X129053571Y-57446428D01*
X129125000Y-57482142D01*
X129410714Y-57482142D01*
X128696428Y-57160714D02*
X128660714Y-57125000D01*
X128589285Y-57089285D01*
X128410714Y-57089285D01*
X128339285Y-57125000D01*
X128303571Y-57160714D01*
X128267857Y-57232142D01*
X128267857Y-57303571D01*
X128303571Y-57410714D01*
X128732142Y-57839285D01*
X128267857Y-57839285D01*
X127589285Y-57089285D02*
X127946428Y-57089285D01*
X127982142Y-57446428D01*
X127946428Y-57410714D01*
X127875000Y-57375000D01*
X127696428Y-57375000D01*
X127625000Y-57410714D01*
X127589285Y-57446428D01*
X127553571Y-57517857D01*
X127553571Y-57696428D01*
X127589285Y-57767857D01*
X127625000Y-57803571D01*
X127696428Y-57839285D01*
X127875000Y-57839285D01*
X127946428Y-57803571D01*
X127982142Y-57767857D01*
X136446428Y-57839285D02*
X136875000Y-57839285D01*
X136660714Y-57839285D02*
X136660714Y-57089285D01*
X136732142Y-57196428D01*
X136803571Y-57267857D01*
X136875000Y-57303571D01*
X135982142Y-57089285D02*
X135910714Y-57089285D01*
X135839285Y-57125000D01*
X135803571Y-57160714D01*
X135767857Y-57232142D01*
X135732142Y-57375000D01*
X135732142Y-57553571D01*
X135767857Y-57696428D01*
X135803571Y-57767857D01*
X135839285Y-57803571D01*
X135910714Y-57839285D01*
X135982142Y-57839285D01*
X136053571Y-57803571D01*
X136089285Y-57767857D01*
X136125000Y-57696428D01*
X136160714Y-57553571D01*
X136160714Y-57375000D01*
X136125000Y-57232142D01*
X136089285Y-57160714D01*
X136053571Y-57125000D01*
X135982142Y-57089285D01*
X135410714Y-57839285D02*
X135410714Y-57089285D01*
X135339285Y-57553571D02*
X135125000Y-57839285D01*
X135125000Y-57339285D02*
X135410714Y-57625000D01*
X122150933Y-147928571D02*
X122484266Y-147928571D01*
X122484266Y-148452380D02*
X122484266Y-147452380D01*
X122008076Y-147452380D01*
X121293790Y-147928571D02*
X121150933Y-147976190D01*
X121103314Y-148023809D01*
X121055695Y-148119047D01*
X121055695Y-148261904D01*
X121103314Y-148357142D01*
X121150933Y-148404761D01*
X121246171Y-148452380D01*
X121627123Y-148452380D01*
X121627123Y-147452380D01*
X121293790Y-147452380D01*
X121198552Y-147500000D01*
X121150933Y-147547619D01*
X121103314Y-147642857D01*
X121103314Y-147738095D01*
X121150933Y-147833333D01*
X121198552Y-147880952D01*
X121293790Y-147928571D01*
X121627123Y-147928571D01*
X120103314Y-148452380D02*
X120674742Y-148452380D01*
X120389028Y-148452380D02*
X120389028Y-147452380D01*
X120484266Y-147595238D01*
X120579504Y-147690476D01*
X120674742Y-147738095D01*
X114271428Y-89489285D02*
X114271428Y-90096428D01*
X114235714Y-90167857D01*
X114200000Y-90203571D01*
X114128571Y-90239285D01*
X113985714Y-90239285D01*
X113914285Y-90203571D01*
X113878571Y-90167857D01*
X113842857Y-90096428D01*
X113842857Y-89489285D01*
X113092857Y-90239285D02*
X113521428Y-90239285D01*
X113307142Y-90239285D02*
X113307142Y-89489285D01*
X113378571Y-89596428D01*
X113450000Y-89667857D01*
X113521428Y-89703571D01*
X112779285Y-75943571D02*
X112779285Y-76443571D01*
X113529285Y-76122142D01*
X113029285Y-77050714D02*
X113529285Y-77050714D01*
X112743571Y-76872142D02*
X113279285Y-76693571D01*
X113279285Y-77157857D01*
X113529285Y-77443571D02*
X112779285Y-77443571D01*
X113136428Y-77443571D02*
X113136428Y-77872142D01*
X113529285Y-77872142D02*
X112779285Y-77872142D01*
X113457857Y-78657857D02*
X113493571Y-78622142D01*
X113529285Y-78515000D01*
X113529285Y-78443571D01*
X113493571Y-78336428D01*
X113422142Y-78265000D01*
X113350714Y-78229285D01*
X113207857Y-78193571D01*
X113100714Y-78193571D01*
X112957857Y-78229285D01*
X112886428Y-78265000D01*
X112815000Y-78336428D01*
X112779285Y-78443571D01*
X112779285Y-78515000D01*
X112815000Y-78622142D01*
X112850714Y-78657857D01*
X112779285Y-79336428D02*
X112779285Y-78979285D01*
X113136428Y-78943571D01*
X113100714Y-78979285D01*
X113065000Y-79050714D01*
X113065000Y-79229285D01*
X113100714Y-79300714D01*
X113136428Y-79336428D01*
X113207857Y-79372142D01*
X113386428Y-79372142D01*
X113457857Y-79336428D01*
X113493571Y-79300714D01*
X113529285Y-79229285D01*
X113529285Y-79050714D01*
X113493571Y-78979285D01*
X113457857Y-78943571D01*
X113529285Y-79729285D02*
X113529285Y-79872142D01*
X113493571Y-79943571D01*
X113457857Y-79979285D01*
X113350714Y-80050714D01*
X113207857Y-80086428D01*
X112922142Y-80086428D01*
X112850714Y-80050714D01*
X112815000Y-80015000D01*
X112779285Y-79943571D01*
X112779285Y-79800714D01*
X112815000Y-79729285D01*
X112850714Y-79693571D01*
X112922142Y-79657857D01*
X113100714Y-79657857D01*
X113172142Y-79693571D01*
X113207857Y-79729285D01*
X113243571Y-79800714D01*
X113243571Y-79943571D01*
X113207857Y-80015000D01*
X113172142Y-80050714D01*
X113100714Y-80086428D01*
X112779285Y-80765000D02*
X112779285Y-80407857D01*
X113136428Y-80372142D01*
X113100714Y-80407857D01*
X113065000Y-80479285D01*
X113065000Y-80657857D01*
X113100714Y-80729285D01*
X113136428Y-80765000D01*
X113207857Y-80800714D01*
X113386428Y-80800714D01*
X113457857Y-80765000D01*
X113493571Y-80729285D01*
X113529285Y-80657857D01*
X113529285Y-80479285D01*
X113493571Y-80407857D01*
X113457857Y-80372142D01*
X168982142Y-61339285D02*
X169232142Y-60982142D01*
X169410714Y-61339285D02*
X169410714Y-60589285D01*
X169125000Y-60589285D01*
X169053571Y-60625000D01*
X169017857Y-60660714D01*
X168982142Y-60732142D01*
X168982142Y-60839285D01*
X169017857Y-60910714D01*
X169053571Y-60946428D01*
X169125000Y-60982142D01*
X169410714Y-60982142D01*
X168696428Y-60660714D02*
X168660714Y-60625000D01*
X168589285Y-60589285D01*
X168410714Y-60589285D01*
X168339285Y-60625000D01*
X168303571Y-60660714D01*
X168267857Y-60732142D01*
X168267857Y-60803571D01*
X168303571Y-60910714D01*
X168732142Y-61339285D01*
X168267857Y-61339285D01*
X167839285Y-60910714D02*
X167910714Y-60875000D01*
X167946428Y-60839285D01*
X167982142Y-60767857D01*
X167982142Y-60732142D01*
X167946428Y-60660714D01*
X167910714Y-60625000D01*
X167839285Y-60589285D01*
X167696428Y-60589285D01*
X167625000Y-60625000D01*
X167589285Y-60660714D01*
X167553571Y-60732142D01*
X167553571Y-60767857D01*
X167589285Y-60839285D01*
X167625000Y-60875000D01*
X167696428Y-60910714D01*
X167839285Y-60910714D01*
X167910714Y-60946428D01*
X167946428Y-60982142D01*
X167982142Y-61053571D01*
X167982142Y-61196428D01*
X167946428Y-61267857D01*
X167910714Y-61303571D01*
X167839285Y-61339285D01*
X167696428Y-61339285D01*
X167625000Y-61303571D01*
X167589285Y-61267857D01*
X167553571Y-61196428D01*
X167553571Y-61053571D01*
X167589285Y-60982142D01*
X167625000Y-60946428D01*
X167696428Y-60910714D01*
X161446428Y-61339285D02*
X161875000Y-61339285D01*
X161660714Y-61339285D02*
X161660714Y-60589285D01*
X161732142Y-60696428D01*
X161803571Y-60767857D01*
X161875000Y-60803571D01*
X160767857Y-60589285D02*
X161125000Y-60589285D01*
X161160714Y-60946428D01*
X161125000Y-60910714D01*
X161053571Y-60875000D01*
X160875000Y-60875000D01*
X160803571Y-60910714D01*
X160767857Y-60946428D01*
X160732142Y-61017857D01*
X160732142Y-61196428D01*
X160767857Y-61267857D01*
X160803571Y-61303571D01*
X160875000Y-61339285D01*
X161053571Y-61339285D01*
X161125000Y-61303571D01*
X161160714Y-61267857D01*
X160410714Y-61339285D02*
X160410714Y-60589285D01*
X160339285Y-61053571D02*
X160125000Y-61339285D01*
X160125000Y-60839285D02*
X160410714Y-61125000D01*
X131982142Y-165339285D02*
X132232142Y-164982142D01*
X132410714Y-165339285D02*
X132410714Y-164589285D01*
X132125000Y-164589285D01*
X132053571Y-164625000D01*
X132017857Y-164660714D01*
X131982142Y-164732142D01*
X131982142Y-164839285D01*
X132017857Y-164910714D01*
X132053571Y-164946428D01*
X132125000Y-164982142D01*
X132410714Y-164982142D01*
X131267857Y-165339285D02*
X131696428Y-165339285D01*
X131482142Y-165339285D02*
X131482142Y-164589285D01*
X131553571Y-164696428D01*
X131625000Y-164767857D01*
X131696428Y-164803571D01*
X130839285Y-164910714D02*
X130910714Y-164875000D01*
X130946428Y-164839285D01*
X130982142Y-164767857D01*
X130982142Y-164732142D01*
X130946428Y-164660714D01*
X130910714Y-164625000D01*
X130839285Y-164589285D01*
X130696428Y-164589285D01*
X130625000Y-164625000D01*
X130589285Y-164660714D01*
X130553571Y-164732142D01*
X130553571Y-164767857D01*
X130589285Y-164839285D01*
X130625000Y-164875000D01*
X130696428Y-164910714D01*
X130839285Y-164910714D01*
X130910714Y-164946428D01*
X130946428Y-164982142D01*
X130982142Y-165053571D01*
X130982142Y-165196428D01*
X130946428Y-165267857D01*
X130910714Y-165303571D01*
X130839285Y-165339285D01*
X130696428Y-165339285D01*
X130625000Y-165303571D01*
X130589285Y-165267857D01*
X130553571Y-165196428D01*
X130553571Y-165053571D01*
X130589285Y-164982142D01*
X130625000Y-164946428D01*
X130696428Y-164910714D01*
X132089285Y-162160714D02*
X132053571Y-162125000D01*
X131982142Y-162089285D01*
X131803571Y-162089285D01*
X131732142Y-162125000D01*
X131696428Y-162160714D01*
X131660714Y-162232142D01*
X131660714Y-162303571D01*
X131696428Y-162410714D01*
X132125000Y-162839285D01*
X131660714Y-162839285D01*
X131339285Y-162839285D02*
X131339285Y-162089285D01*
X130910714Y-162839285D02*
X131232142Y-162410714D01*
X130910714Y-162089285D02*
X131339285Y-162517857D01*
X128982142Y-33339285D02*
X129232142Y-32982142D01*
X129410714Y-33339285D02*
X129410714Y-32589285D01*
X129125000Y-32589285D01*
X129053571Y-32625000D01*
X129017857Y-32660714D01*
X128982142Y-32732142D01*
X128982142Y-32839285D01*
X129017857Y-32910714D01*
X129053571Y-32946428D01*
X129125000Y-32982142D01*
X129410714Y-32982142D01*
X128339285Y-32839285D02*
X128339285Y-33339285D01*
X128517857Y-32553571D02*
X128696428Y-33089285D01*
X128232142Y-33089285D01*
X127803571Y-32589285D02*
X127732142Y-32589285D01*
X127660714Y-32625000D01*
X127625000Y-32660714D01*
X127589285Y-32732142D01*
X127553571Y-32875000D01*
X127553571Y-33053571D01*
X127589285Y-33196428D01*
X127625000Y-33267857D01*
X127660714Y-33303571D01*
X127732142Y-33339285D01*
X127803571Y-33339285D01*
X127875000Y-33303571D01*
X127910714Y-33267857D01*
X127946428Y-33196428D01*
X127982142Y-33053571D01*
X127982142Y-32875000D01*
X127946428Y-32732142D01*
X127910714Y-32660714D01*
X127875000Y-32625000D01*
X127803571Y-32589285D01*
X136626570Y-33339285D02*
X137055142Y-33339285D01*
X136840856Y-33339285D02*
X136840856Y-32589285D01*
X136912284Y-32696428D01*
X136983713Y-32767857D01*
X137055142Y-32803571D01*
X136162284Y-32589285D02*
X136090856Y-32589285D01*
X136019427Y-32625000D01*
X135983713Y-32660714D01*
X135947999Y-32732142D01*
X135912284Y-32875000D01*
X135912284Y-33053571D01*
X135947999Y-33196428D01*
X135983713Y-33267857D01*
X136019427Y-33303571D01*
X136090856Y-33339285D01*
X136162284Y-33339285D01*
X136233713Y-33303571D01*
X136269427Y-33267857D01*
X136305142Y-33196428D01*
X136340856Y-33053571D01*
X136340856Y-32875000D01*
X136305142Y-32732142D01*
X136269427Y-32660714D01*
X136233713Y-32625000D01*
X136162284Y-32589285D01*
X135590856Y-33339285D02*
X135590856Y-32589285D01*
X135519427Y-33053571D02*
X135305142Y-33339285D01*
X135305142Y-32839285D02*
X135590856Y-33125000D01*
X115721904Y-166682380D02*
X115721904Y-167491904D01*
X115674285Y-167587142D01*
X115626666Y-167634761D01*
X115531428Y-167682380D01*
X115340952Y-167682380D01*
X115245714Y-167634761D01*
X115198095Y-167587142D01*
X115150476Y-167491904D01*
X115150476Y-166682380D01*
X114245714Y-167015714D02*
X114245714Y-167682380D01*
X114483809Y-166634761D02*
X114721904Y-167349047D01*
X114102857Y-167349047D01*
X168982142Y-26339285D02*
X169232142Y-25982142D01*
X169410714Y-26339285D02*
X169410714Y-25589285D01*
X169125000Y-25589285D01*
X169053571Y-25625000D01*
X169017857Y-25660714D01*
X168982142Y-25732142D01*
X168982142Y-25839285D01*
X169017857Y-25910714D01*
X169053571Y-25946428D01*
X169125000Y-25982142D01*
X169410714Y-25982142D01*
X168732142Y-25589285D02*
X168267857Y-25589285D01*
X168517857Y-25875000D01*
X168410714Y-25875000D01*
X168339285Y-25910714D01*
X168303571Y-25946428D01*
X168267857Y-26017857D01*
X168267857Y-26196428D01*
X168303571Y-26267857D01*
X168339285Y-26303571D01*
X168410714Y-26339285D01*
X168625000Y-26339285D01*
X168696428Y-26303571D01*
X168732142Y-26267857D01*
X167910714Y-26339285D02*
X167767857Y-26339285D01*
X167696428Y-26303571D01*
X167660714Y-26267857D01*
X167589285Y-26160714D01*
X167553571Y-26017857D01*
X167553571Y-25732142D01*
X167589285Y-25660714D01*
X167625000Y-25625000D01*
X167696428Y-25589285D01*
X167839285Y-25589285D01*
X167910714Y-25625000D01*
X167946428Y-25660714D01*
X167982142Y-25732142D01*
X167982142Y-25910714D01*
X167946428Y-25982142D01*
X167910714Y-26017857D01*
X167839285Y-26053571D01*
X167696428Y-26053571D01*
X167625000Y-26017857D01*
X167589285Y-25982142D01*
X167553571Y-25910714D01*
X161446428Y-26339285D02*
X161875000Y-26339285D01*
X161660714Y-26339285D02*
X161660714Y-25589285D01*
X161732142Y-25696428D01*
X161803571Y-25767857D01*
X161875000Y-25803571D01*
X160982142Y-25589285D02*
X160910714Y-25589285D01*
X160839285Y-25625000D01*
X160803571Y-25660714D01*
X160767857Y-25732142D01*
X160732142Y-25875000D01*
X160732142Y-26053571D01*
X160767857Y-26196428D01*
X160803571Y-26267857D01*
X160839285Y-26303571D01*
X160910714Y-26339285D01*
X160982142Y-26339285D01*
X161053571Y-26303571D01*
X161089285Y-26267857D01*
X161125000Y-26196428D01*
X161160714Y-26053571D01*
X161160714Y-25875000D01*
X161125000Y-25732142D01*
X161089285Y-25660714D01*
X161053571Y-25625000D01*
X160982142Y-25589285D01*
X160410714Y-26339285D02*
X160410714Y-25589285D01*
X160339285Y-26053571D02*
X160125000Y-26339285D01*
X160125000Y-25839285D02*
X160410714Y-26125000D01*
X156982142Y-165339285D02*
X157232142Y-164982142D01*
X157410714Y-165339285D02*
X157410714Y-164589285D01*
X157125000Y-164589285D01*
X157053571Y-164625000D01*
X157017857Y-164660714D01*
X156982142Y-164732142D01*
X156982142Y-164839285D01*
X157017857Y-164910714D01*
X157053571Y-164946428D01*
X157125000Y-164982142D01*
X157410714Y-164982142D01*
X156732142Y-164589285D02*
X156267857Y-164589285D01*
X156517857Y-164875000D01*
X156410714Y-164875000D01*
X156339285Y-164910714D01*
X156303571Y-164946428D01*
X156267857Y-165017857D01*
X156267857Y-165196428D01*
X156303571Y-165267857D01*
X156339285Y-165303571D01*
X156410714Y-165339285D01*
X156625000Y-165339285D01*
X156696428Y-165303571D01*
X156732142Y-165267857D01*
X155625000Y-164839285D02*
X155625000Y-165339285D01*
X155803571Y-164553571D02*
X155982142Y-165089285D01*
X155517857Y-165089285D01*
X157089285Y-162160714D02*
X157053571Y-162125000D01*
X156982142Y-162089285D01*
X156803571Y-162089285D01*
X156732142Y-162125000D01*
X156696428Y-162160714D01*
X156660714Y-162232142D01*
X156660714Y-162303571D01*
X156696428Y-162410714D01*
X157125000Y-162839285D01*
X156660714Y-162839285D01*
X156339285Y-162839285D02*
X156339285Y-162089285D01*
X155910714Y-162839285D02*
X156232142Y-162410714D01*
X155910714Y-162089285D02*
X156339285Y-162517857D01*
X168125000Y-71839285D02*
X168375000Y-71482142D01*
X168553571Y-71839285D02*
X168553571Y-71089285D01*
X168267857Y-71089285D01*
X168196428Y-71125000D01*
X168160714Y-71160714D01*
X168125000Y-71232142D01*
X168125000Y-71339285D01*
X168160714Y-71410714D01*
X168196428Y-71446428D01*
X168267857Y-71482142D01*
X168553571Y-71482142D01*
X167696428Y-71410714D02*
X167767857Y-71375000D01*
X167803571Y-71339285D01*
X167839285Y-71267857D01*
X167839285Y-71232142D01*
X167803571Y-71160714D01*
X167767857Y-71125000D01*
X167696428Y-71089285D01*
X167553571Y-71089285D01*
X167482142Y-71125000D01*
X167446428Y-71160714D01*
X167410714Y-71232142D01*
X167410714Y-71267857D01*
X167446428Y-71339285D01*
X167482142Y-71375000D01*
X167553571Y-71410714D01*
X167696428Y-71410714D01*
X167767857Y-71446428D01*
X167803571Y-71482142D01*
X167839285Y-71553571D01*
X167839285Y-71696428D01*
X167803571Y-71767857D01*
X167767857Y-71803571D01*
X167696428Y-71839285D01*
X167553571Y-71839285D01*
X167482142Y-71803571D01*
X167446428Y-71767857D01*
X167410714Y-71696428D01*
X167410714Y-71553571D01*
X167446428Y-71482142D01*
X167482142Y-71446428D01*
X167553571Y-71410714D01*
X161214285Y-71839285D02*
X161642857Y-71839285D01*
X161428571Y-71839285D02*
X161428571Y-71089285D01*
X161500000Y-71196428D01*
X161571428Y-71267857D01*
X161642857Y-71303571D01*
X160892857Y-71839285D02*
X160892857Y-71089285D01*
X160642857Y-71625000D01*
X160392857Y-71089285D01*
X160392857Y-71839285D01*
X131482142Y-140339285D02*
X131732142Y-139982142D01*
X131910714Y-140339285D02*
X131910714Y-139589285D01*
X131625000Y-139589285D01*
X131553571Y-139625000D01*
X131517857Y-139660714D01*
X131482142Y-139732142D01*
X131482142Y-139839285D01*
X131517857Y-139910714D01*
X131553571Y-139946428D01*
X131625000Y-139982142D01*
X131910714Y-139982142D01*
X130767857Y-140339285D02*
X131196428Y-140339285D01*
X130982142Y-140339285D02*
X130982142Y-139589285D01*
X131053571Y-139696428D01*
X131125000Y-139767857D01*
X131196428Y-139803571D01*
X130125000Y-139589285D02*
X130267857Y-139589285D01*
X130339285Y-139625000D01*
X130375000Y-139660714D01*
X130446428Y-139767857D01*
X130482142Y-139910714D01*
X130482142Y-140196428D01*
X130446428Y-140267857D01*
X130410714Y-140303571D01*
X130339285Y-140339285D01*
X130196428Y-140339285D01*
X130125000Y-140303571D01*
X130089285Y-140267857D01*
X130053571Y-140196428D01*
X130053571Y-140017857D01*
X130089285Y-139946428D01*
X130125000Y-139910714D01*
X130196428Y-139875000D01*
X130339285Y-139875000D01*
X130410714Y-139910714D01*
X130446428Y-139946428D01*
X130482142Y-140017857D01*
X131589285Y-137160714D02*
X131553571Y-137125000D01*
X131482142Y-137089285D01*
X131303571Y-137089285D01*
X131232142Y-137125000D01*
X131196428Y-137160714D01*
X131160714Y-137232142D01*
X131160714Y-137303571D01*
X131196428Y-137410714D01*
X131625000Y-137839285D01*
X131160714Y-137839285D01*
X130839285Y-137839285D02*
X130839285Y-137089285D01*
X130410714Y-137839285D02*
X130732142Y-137410714D01*
X130410714Y-137089285D02*
X130839285Y-137517857D01*
X129839285Y-22017857D02*
X129482142Y-21767857D01*
X129839285Y-21589285D02*
X129089285Y-21589285D01*
X129089285Y-21875000D01*
X129125000Y-21946428D01*
X129160714Y-21982142D01*
X129232142Y-22017857D01*
X129339285Y-22017857D01*
X129410714Y-21982142D01*
X129446428Y-21946428D01*
X129482142Y-21875000D01*
X129482142Y-21589285D01*
X129839285Y-22732142D02*
X129839285Y-22303571D01*
X129839285Y-22517857D02*
X129089285Y-22517857D01*
X129196428Y-22446428D01*
X129267857Y-22375000D01*
X129303571Y-22303571D01*
X129339285Y-23375000D02*
X129839285Y-23375000D01*
X129053571Y-23196428D02*
X129589285Y-23017857D01*
X129589285Y-23482142D01*
X136446428Y-22839285D02*
X136875000Y-22839285D01*
X136660714Y-22839285D02*
X136660714Y-22089285D01*
X136732142Y-22196428D01*
X136803571Y-22267857D01*
X136875000Y-22303571D01*
X135767857Y-22089285D02*
X136125000Y-22089285D01*
X136160714Y-22446428D01*
X136125000Y-22410714D01*
X136053571Y-22375000D01*
X135875000Y-22375000D01*
X135803571Y-22410714D01*
X135767857Y-22446428D01*
X135732142Y-22517857D01*
X135732142Y-22696428D01*
X135767857Y-22767857D01*
X135803571Y-22803571D01*
X135875000Y-22839285D01*
X136053571Y-22839285D01*
X136125000Y-22803571D01*
X136160714Y-22767857D01*
X135410714Y-22839285D02*
X135410714Y-22089285D01*
X135339285Y-22553571D02*
X135125000Y-22839285D01*
X135125000Y-22339285D02*
X135410714Y-22625000D01*
X169062142Y-57889285D02*
X169312142Y-57532142D01*
X169490714Y-57889285D02*
X169490714Y-57139285D01*
X169205000Y-57139285D01*
X169133571Y-57175000D01*
X169097857Y-57210714D01*
X169062142Y-57282142D01*
X169062142Y-57389285D01*
X169097857Y-57460714D01*
X169133571Y-57496428D01*
X169205000Y-57532142D01*
X169490714Y-57532142D01*
X168776428Y-57210714D02*
X168740714Y-57175000D01*
X168669285Y-57139285D01*
X168490714Y-57139285D01*
X168419285Y-57175000D01*
X168383571Y-57210714D01*
X168347857Y-57282142D01*
X168347857Y-57353571D01*
X168383571Y-57460714D01*
X168812142Y-57889285D01*
X168347857Y-57889285D01*
X167705000Y-57389285D02*
X167705000Y-57889285D01*
X167883571Y-57103571D02*
X168062142Y-57639285D01*
X167597857Y-57639285D01*
X161446428Y-57839285D02*
X161875000Y-57839285D01*
X161660714Y-57839285D02*
X161660714Y-57089285D01*
X161732142Y-57196428D01*
X161803571Y-57267857D01*
X161875000Y-57303571D01*
X160982142Y-57089285D02*
X160910714Y-57089285D01*
X160839285Y-57125000D01*
X160803571Y-57160714D01*
X160767857Y-57232142D01*
X160732142Y-57375000D01*
X160732142Y-57553571D01*
X160767857Y-57696428D01*
X160803571Y-57767857D01*
X160839285Y-57803571D01*
X160910714Y-57839285D01*
X160982142Y-57839285D01*
X161053571Y-57803571D01*
X161089285Y-57767857D01*
X161125000Y-57696428D01*
X161160714Y-57553571D01*
X161160714Y-57375000D01*
X161125000Y-57232142D01*
X161089285Y-57160714D01*
X161053571Y-57125000D01*
X160982142Y-57089285D01*
X160410714Y-57839285D02*
X160410714Y-57089285D01*
X160339285Y-57553571D02*
X160125000Y-57839285D01*
X160125000Y-57339285D02*
X160410714Y-57625000D01*
X122150933Y-152928571D02*
X122484266Y-152928571D01*
X122484266Y-153452380D02*
X122484266Y-152452380D01*
X122008076Y-152452380D01*
X121293790Y-152928571D02*
X121150933Y-152976190D01*
X121103314Y-153023809D01*
X121055695Y-153119047D01*
X121055695Y-153261904D01*
X121103314Y-153357142D01*
X121150933Y-153404761D01*
X121246171Y-153452380D01*
X121627123Y-153452380D01*
X121627123Y-152452380D01*
X121293790Y-152452380D01*
X121198552Y-152500000D01*
X121150933Y-152547619D01*
X121103314Y-152642857D01*
X121103314Y-152738095D01*
X121150933Y-152833333D01*
X121198552Y-152880952D01*
X121293790Y-152928571D01*
X121627123Y-152928571D01*
X120674742Y-152547619D02*
X120627123Y-152500000D01*
X120531885Y-152452380D01*
X120293790Y-152452380D01*
X120198552Y-152500000D01*
X120150933Y-152547619D01*
X120103314Y-152642857D01*
X120103314Y-152738095D01*
X120150933Y-152880952D01*
X120722361Y-153452380D01*
X120103314Y-153452380D01*
X164125000Y-54267857D02*
X164160714Y-54303571D01*
X164267857Y-54339285D01*
X164339285Y-54339285D01*
X164446428Y-54303571D01*
X164517857Y-54232142D01*
X164553571Y-54160714D01*
X164589285Y-54017857D01*
X164589285Y-53910714D01*
X164553571Y-53767857D01*
X164517857Y-53696428D01*
X164446428Y-53625000D01*
X164339285Y-53589285D01*
X164267857Y-53589285D01*
X164160714Y-53625000D01*
X164125000Y-53660714D01*
X163446428Y-53589285D02*
X163803571Y-53589285D01*
X163839285Y-53946428D01*
X163803571Y-53910714D01*
X163732142Y-53875000D01*
X163553571Y-53875000D01*
X163482142Y-53910714D01*
X163446428Y-53946428D01*
X163410714Y-54017857D01*
X163410714Y-54196428D01*
X163446428Y-54267857D01*
X163482142Y-54303571D01*
X163553571Y-54339285D01*
X163732142Y-54339285D01*
X163803571Y-54303571D01*
X163839285Y-54267857D01*
X159879285Y-54339285D02*
X160307857Y-54339285D01*
X160093571Y-54339285D02*
X160093571Y-53589285D01*
X160165000Y-53696428D01*
X160236428Y-53767857D01*
X160307857Y-53803571D01*
X159415000Y-53589285D02*
X159343571Y-53589285D01*
X159272142Y-53625000D01*
X159236428Y-53660714D01*
X159200714Y-53732142D01*
X159165000Y-53875000D01*
X159165000Y-54053571D01*
X159200714Y-54196428D01*
X159236428Y-54267857D01*
X159272142Y-54303571D01*
X159343571Y-54339285D01*
X159415000Y-54339285D01*
X159486428Y-54303571D01*
X159522142Y-54267857D01*
X159557857Y-54196428D01*
X159593571Y-54053571D01*
X159593571Y-53875000D01*
X159557857Y-53732142D01*
X159522142Y-53660714D01*
X159486428Y-53625000D01*
X159415000Y-53589285D01*
X158700714Y-53589285D02*
X158629285Y-53589285D01*
X158557857Y-53625000D01*
X158522142Y-53660714D01*
X158486428Y-53732142D01*
X158450714Y-53875000D01*
X158450714Y-54053571D01*
X158486428Y-54196428D01*
X158522142Y-54267857D01*
X158557857Y-54303571D01*
X158629285Y-54339285D01*
X158700714Y-54339285D01*
X158772142Y-54303571D01*
X158807857Y-54267857D01*
X158843571Y-54196428D01*
X158879285Y-54053571D01*
X158879285Y-53875000D01*
X158843571Y-53732142D01*
X158807857Y-53660714D01*
X158772142Y-53625000D01*
X158700714Y-53589285D01*
X158129285Y-53839285D02*
X158129285Y-54339285D01*
X158129285Y-53910714D02*
X158093571Y-53875000D01*
X158022142Y-53839285D01*
X157915000Y-53839285D01*
X157843571Y-53875000D01*
X157807857Y-53946428D01*
X157807857Y-54339285D01*
X143125000Y-68339285D02*
X143375000Y-67982142D01*
X143553571Y-68339285D02*
X143553571Y-67589285D01*
X143267857Y-67589285D01*
X143196428Y-67625000D01*
X143160714Y-67660714D01*
X143125000Y-67732142D01*
X143125000Y-67839285D01*
X143160714Y-67910714D01*
X143196428Y-67946428D01*
X143267857Y-67982142D01*
X143553571Y-67982142D01*
X142446428Y-67589285D02*
X142803571Y-67589285D01*
X142839285Y-67946428D01*
X142803571Y-67910714D01*
X142732142Y-67875000D01*
X142553571Y-67875000D01*
X142482142Y-67910714D01*
X142446428Y-67946428D01*
X142410714Y-68017857D01*
X142410714Y-68196428D01*
X142446428Y-68267857D01*
X142482142Y-68303571D01*
X142553571Y-68339285D01*
X142732142Y-68339285D01*
X142803571Y-68303571D01*
X142839285Y-68267857D01*
X136803571Y-68339285D02*
X137232142Y-68339285D01*
X137017857Y-68339285D02*
X137017857Y-67589285D01*
X137089285Y-67696428D01*
X137160714Y-67767857D01*
X137232142Y-67803571D01*
X136339285Y-67589285D02*
X136267857Y-67589285D01*
X136196428Y-67625000D01*
X136160714Y-67660714D01*
X136125000Y-67732142D01*
X136089285Y-67875000D01*
X136089285Y-68053571D01*
X136125000Y-68196428D01*
X136160714Y-68267857D01*
X136196428Y-68303571D01*
X136267857Y-68339285D01*
X136339285Y-68339285D01*
X136410714Y-68303571D01*
X136446428Y-68267857D01*
X136482142Y-68196428D01*
X136517857Y-68053571D01*
X136517857Y-67875000D01*
X136482142Y-67732142D01*
X136446428Y-67660714D01*
X136410714Y-67625000D01*
X136339285Y-67589285D01*
X135625000Y-67589285D02*
X135553571Y-67589285D01*
X135482142Y-67625000D01*
X135446428Y-67660714D01*
X135410714Y-67732142D01*
X135375000Y-67875000D01*
X135375000Y-68053571D01*
X135410714Y-68196428D01*
X135446428Y-68267857D01*
X135482142Y-68303571D01*
X135553571Y-68339285D01*
X135625000Y-68339285D01*
X135696428Y-68303571D01*
X135732142Y-68267857D01*
X135767857Y-68196428D01*
X135803571Y-68053571D01*
X135803571Y-67875000D01*
X135767857Y-67732142D01*
X135732142Y-67660714D01*
X135696428Y-67625000D01*
X135625000Y-67589285D01*
X135053571Y-68339285D02*
X135053571Y-67589285D01*
X134982142Y-68053571D02*
X134767857Y-68339285D01*
X134767857Y-67839285D02*
X135053571Y-68125000D01*
X168982142Y-64839285D02*
X169232142Y-64482142D01*
X169410714Y-64839285D02*
X169410714Y-64089285D01*
X169125000Y-64089285D01*
X169053571Y-64125000D01*
X169017857Y-64160714D01*
X168982142Y-64232142D01*
X168982142Y-64339285D01*
X169017857Y-64410714D01*
X169053571Y-64446428D01*
X169125000Y-64482142D01*
X169410714Y-64482142D01*
X168732142Y-64089285D02*
X168267857Y-64089285D01*
X168517857Y-64375000D01*
X168410714Y-64375000D01*
X168339285Y-64410714D01*
X168303571Y-64446428D01*
X168267857Y-64517857D01*
X168267857Y-64696428D01*
X168303571Y-64767857D01*
X168339285Y-64803571D01*
X168410714Y-64839285D01*
X168625000Y-64839285D01*
X168696428Y-64803571D01*
X168732142Y-64767857D01*
X167625000Y-64089285D02*
X167767857Y-64089285D01*
X167839285Y-64125000D01*
X167875000Y-64160714D01*
X167946428Y-64267857D01*
X167982142Y-64410714D01*
X167982142Y-64696428D01*
X167946428Y-64767857D01*
X167910714Y-64803571D01*
X167839285Y-64839285D01*
X167696428Y-64839285D01*
X167625000Y-64803571D01*
X167589285Y-64767857D01*
X167553571Y-64696428D01*
X167553571Y-64517857D01*
X167589285Y-64446428D01*
X167625000Y-64410714D01*
X167696428Y-64375000D01*
X167839285Y-64375000D01*
X167910714Y-64410714D01*
X167946428Y-64446428D01*
X167982142Y-64517857D01*
X161089285Y-64839285D02*
X161517857Y-64839285D01*
X161303571Y-64839285D02*
X161303571Y-64089285D01*
X161375000Y-64196428D01*
X161446428Y-64267857D01*
X161517857Y-64303571D01*
X160767857Y-64839285D02*
X160767857Y-64089285D01*
X160696428Y-64553571D02*
X160482142Y-64839285D01*
X160482142Y-64339285D02*
X160767857Y-64625000D01*
X168982142Y-40339285D02*
X169232142Y-39982142D01*
X169410714Y-40339285D02*
X169410714Y-39589285D01*
X169125000Y-39589285D01*
X169053571Y-39625000D01*
X169017857Y-39660714D01*
X168982142Y-39732142D01*
X168982142Y-39839285D01*
X169017857Y-39910714D01*
X169053571Y-39946428D01*
X169125000Y-39982142D01*
X169410714Y-39982142D01*
X168696428Y-39660714D02*
X168660714Y-39625000D01*
X168589285Y-39589285D01*
X168410714Y-39589285D01*
X168339285Y-39625000D01*
X168303571Y-39660714D01*
X168267857Y-39732142D01*
X168267857Y-39803571D01*
X168303571Y-39910714D01*
X168732142Y-40339285D01*
X168267857Y-40339285D01*
X167803571Y-39589285D02*
X167732142Y-39589285D01*
X167660714Y-39625000D01*
X167625000Y-39660714D01*
X167589285Y-39732142D01*
X167553571Y-39875000D01*
X167553571Y-40053571D01*
X167589285Y-40196428D01*
X167625000Y-40267857D01*
X167660714Y-40303571D01*
X167732142Y-40339285D01*
X167803571Y-40339285D01*
X167875000Y-40303571D01*
X167910714Y-40267857D01*
X167946428Y-40196428D01*
X167982142Y-40053571D01*
X167982142Y-39875000D01*
X167946428Y-39732142D01*
X167910714Y-39660714D01*
X167875000Y-39625000D01*
X167803571Y-39589285D01*
X161089285Y-40219285D02*
X161517857Y-40219285D01*
X161303571Y-40219285D02*
X161303571Y-39469285D01*
X161375000Y-39576428D01*
X161446428Y-39647857D01*
X161517857Y-39683571D01*
X160767857Y-40219285D02*
X160767857Y-39469285D01*
X160696428Y-39933571D02*
X160482142Y-40219285D01*
X160482142Y-39719285D02*
X160767857Y-40005000D01*
X131982142Y-90339285D02*
X132232142Y-89982142D01*
X132410714Y-90339285D02*
X132410714Y-89589285D01*
X132125000Y-89589285D01*
X132053571Y-89625000D01*
X132017857Y-89660714D01*
X131982142Y-89732142D01*
X131982142Y-89839285D01*
X132017857Y-89910714D01*
X132053571Y-89946428D01*
X132125000Y-89982142D01*
X132410714Y-89982142D01*
X131267857Y-90339285D02*
X131696428Y-90339285D01*
X131482142Y-90339285D02*
X131482142Y-89589285D01*
X131553571Y-89696428D01*
X131625000Y-89767857D01*
X131696428Y-89803571D01*
X130589285Y-89589285D02*
X130946428Y-89589285D01*
X130982142Y-89946428D01*
X130946428Y-89910714D01*
X130875000Y-89875000D01*
X130696428Y-89875000D01*
X130625000Y-89910714D01*
X130589285Y-89946428D01*
X130553571Y-90017857D01*
X130553571Y-90196428D01*
X130589285Y-90267857D01*
X130625000Y-90303571D01*
X130696428Y-90339285D01*
X130875000Y-90339285D01*
X130946428Y-90303571D01*
X130982142Y-90267857D01*
X132089285Y-87160714D02*
X132053571Y-87125000D01*
X131982142Y-87089285D01*
X131803571Y-87089285D01*
X131732142Y-87125000D01*
X131696428Y-87160714D01*
X131660714Y-87232142D01*
X131660714Y-87303571D01*
X131696428Y-87410714D01*
X132125000Y-87839285D01*
X131660714Y-87839285D01*
X131339285Y-87839285D02*
X131339285Y-87089285D01*
X130910714Y-87839285D02*
X131232142Y-87410714D01*
X130910714Y-87089285D02*
X131339285Y-87517857D01*
X128982142Y-61339285D02*
X129232142Y-60982142D01*
X129410714Y-61339285D02*
X129410714Y-60589285D01*
X129125000Y-60589285D01*
X129053571Y-60625000D01*
X129017857Y-60660714D01*
X128982142Y-60732142D01*
X128982142Y-60839285D01*
X129017857Y-60910714D01*
X129053571Y-60946428D01*
X129125000Y-60982142D01*
X129410714Y-60982142D01*
X128696428Y-60660714D02*
X128660714Y-60625000D01*
X128589285Y-60589285D01*
X128410714Y-60589285D01*
X128339285Y-60625000D01*
X128303571Y-60660714D01*
X128267857Y-60732142D01*
X128267857Y-60803571D01*
X128303571Y-60910714D01*
X128732142Y-61339285D01*
X128267857Y-61339285D01*
X127910714Y-61339285D02*
X127767857Y-61339285D01*
X127696428Y-61303571D01*
X127660714Y-61267857D01*
X127589285Y-61160714D01*
X127553571Y-61017857D01*
X127553571Y-60732142D01*
X127589285Y-60660714D01*
X127625000Y-60625000D01*
X127696428Y-60589285D01*
X127839285Y-60589285D01*
X127910714Y-60625000D01*
X127946428Y-60660714D01*
X127982142Y-60732142D01*
X127982142Y-60910714D01*
X127946428Y-60982142D01*
X127910714Y-61017857D01*
X127839285Y-61053571D01*
X127696428Y-61053571D01*
X127625000Y-61017857D01*
X127589285Y-60982142D01*
X127553571Y-60910714D01*
X136446428Y-61339285D02*
X136875000Y-61339285D01*
X136660714Y-61339285D02*
X136660714Y-60589285D01*
X136732142Y-60696428D01*
X136803571Y-60767857D01*
X136875000Y-60803571D01*
X135767857Y-60589285D02*
X136125000Y-60589285D01*
X136160714Y-60946428D01*
X136125000Y-60910714D01*
X136053571Y-60875000D01*
X135875000Y-60875000D01*
X135803571Y-60910714D01*
X135767857Y-60946428D01*
X135732142Y-61017857D01*
X135732142Y-61196428D01*
X135767857Y-61267857D01*
X135803571Y-61303571D01*
X135875000Y-61339285D01*
X136053571Y-61339285D01*
X136125000Y-61303571D01*
X136160714Y-61267857D01*
X135410714Y-61339285D02*
X135410714Y-60589285D01*
X135339285Y-61053571D02*
X135125000Y-61339285D01*
X135125000Y-60839285D02*
X135410714Y-61125000D01*
X168125000Y-68339285D02*
X168375000Y-67982142D01*
X168553571Y-68339285D02*
X168553571Y-67589285D01*
X168267857Y-67589285D01*
X168196428Y-67625000D01*
X168160714Y-67660714D01*
X168125000Y-67732142D01*
X168125000Y-67839285D01*
X168160714Y-67910714D01*
X168196428Y-67946428D01*
X168267857Y-67982142D01*
X168553571Y-67982142D01*
X167482142Y-67589285D02*
X167625000Y-67589285D01*
X167696428Y-67625000D01*
X167732142Y-67660714D01*
X167803571Y-67767857D01*
X167839285Y-67910714D01*
X167839285Y-68196428D01*
X167803571Y-68267857D01*
X167767857Y-68303571D01*
X167696428Y-68339285D01*
X167553571Y-68339285D01*
X167482142Y-68303571D01*
X167446428Y-68267857D01*
X167410714Y-68196428D01*
X167410714Y-68017857D01*
X167446428Y-67946428D01*
X167482142Y-67910714D01*
X167553571Y-67875000D01*
X167696428Y-67875000D01*
X167767857Y-67910714D01*
X167803571Y-67946428D01*
X167839285Y-68017857D01*
X161803571Y-68339285D02*
X162232142Y-68339285D01*
X162017857Y-68339285D02*
X162017857Y-67589285D01*
X162089285Y-67696428D01*
X162160714Y-67767857D01*
X162232142Y-67803571D01*
X161339285Y-67589285D02*
X161267857Y-67589285D01*
X161196428Y-67625000D01*
X161160714Y-67660714D01*
X161125000Y-67732142D01*
X161089285Y-67875000D01*
X161089285Y-68053571D01*
X161125000Y-68196428D01*
X161160714Y-68267857D01*
X161196428Y-68303571D01*
X161267857Y-68339285D01*
X161339285Y-68339285D01*
X161410714Y-68303571D01*
X161446428Y-68267857D01*
X161482142Y-68196428D01*
X161517857Y-68053571D01*
X161517857Y-67875000D01*
X161482142Y-67732142D01*
X161446428Y-67660714D01*
X161410714Y-67625000D01*
X161339285Y-67589285D01*
X160625000Y-67589285D02*
X160553571Y-67589285D01*
X160482142Y-67625000D01*
X160446428Y-67660714D01*
X160410714Y-67732142D01*
X160375000Y-67875000D01*
X160375000Y-68053571D01*
X160410714Y-68196428D01*
X160446428Y-68267857D01*
X160482142Y-68303571D01*
X160553571Y-68339285D01*
X160625000Y-68339285D01*
X160696428Y-68303571D01*
X160732142Y-68267857D01*
X160767857Y-68196428D01*
X160803571Y-68053571D01*
X160803571Y-67875000D01*
X160767857Y-67732142D01*
X160732142Y-67660714D01*
X160696428Y-67625000D01*
X160625000Y-67589285D01*
X160053571Y-68339285D02*
X160053571Y-67589285D01*
X159982142Y-68053571D02*
X159767857Y-68339285D01*
X159767857Y-67839285D02*
X160053571Y-68125000D01*
X117825000Y-66267857D02*
X117860714Y-66303571D01*
X117967857Y-66339285D01*
X118039285Y-66339285D01*
X118146428Y-66303571D01*
X118217857Y-66232142D01*
X118253571Y-66160714D01*
X118289285Y-66017857D01*
X118289285Y-65910714D01*
X118253571Y-65767857D01*
X118217857Y-65696428D01*
X118146428Y-65625000D01*
X118039285Y-65589285D01*
X117967857Y-65589285D01*
X117860714Y-65625000D01*
X117825000Y-65660714D01*
X117575000Y-65589285D02*
X117075000Y-65589285D01*
X117396428Y-66339285D01*
X113799285Y-66339285D02*
X114227857Y-66339285D01*
X114013571Y-66339285D02*
X114013571Y-65589285D01*
X114085000Y-65696428D01*
X114156428Y-65767857D01*
X114227857Y-65803571D01*
X113335000Y-65589285D02*
X113263571Y-65589285D01*
X113192142Y-65625000D01*
X113156428Y-65660714D01*
X113120714Y-65732142D01*
X113085000Y-65875000D01*
X113085000Y-66053571D01*
X113120714Y-66196428D01*
X113156428Y-66267857D01*
X113192142Y-66303571D01*
X113263571Y-66339285D01*
X113335000Y-66339285D01*
X113406428Y-66303571D01*
X113442142Y-66267857D01*
X113477857Y-66196428D01*
X113513571Y-66053571D01*
X113513571Y-65875000D01*
X113477857Y-65732142D01*
X113442142Y-65660714D01*
X113406428Y-65625000D01*
X113335000Y-65589285D01*
X112620714Y-65589285D02*
X112549285Y-65589285D01*
X112477857Y-65625000D01*
X112442142Y-65660714D01*
X112406428Y-65732142D01*
X112370714Y-65875000D01*
X112370714Y-66053571D01*
X112406428Y-66196428D01*
X112442142Y-66267857D01*
X112477857Y-66303571D01*
X112549285Y-66339285D01*
X112620714Y-66339285D01*
X112692142Y-66303571D01*
X112727857Y-66267857D01*
X112763571Y-66196428D01*
X112799285Y-66053571D01*
X112799285Y-65875000D01*
X112763571Y-65732142D01*
X112727857Y-65660714D01*
X112692142Y-65625000D01*
X112620714Y-65589285D01*
X112049285Y-65839285D02*
X112049285Y-66339285D01*
X112049285Y-65910714D02*
X112013571Y-65875000D01*
X111942142Y-65839285D01*
X111835000Y-65839285D01*
X111763571Y-65875000D01*
X111727857Y-65946428D01*
X111727857Y-66339285D01*
X128982142Y-47339285D02*
X129232142Y-46982142D01*
X129410714Y-47339285D02*
X129410714Y-46589285D01*
X129125000Y-46589285D01*
X129053571Y-46625000D01*
X129017857Y-46660714D01*
X128982142Y-46732142D01*
X128982142Y-46839285D01*
X129017857Y-46910714D01*
X129053571Y-46946428D01*
X129125000Y-46982142D01*
X129410714Y-46982142D01*
X128732142Y-46589285D02*
X128267857Y-46589285D01*
X128517857Y-46875000D01*
X128410714Y-46875000D01*
X128339285Y-46910714D01*
X128303571Y-46946428D01*
X128267857Y-47017857D01*
X128267857Y-47196428D01*
X128303571Y-47267857D01*
X128339285Y-47303571D01*
X128410714Y-47339285D01*
X128625000Y-47339285D01*
X128696428Y-47303571D01*
X128732142Y-47267857D01*
X127803571Y-46589285D02*
X127732142Y-46589285D01*
X127660714Y-46625000D01*
X127625000Y-46660714D01*
X127589285Y-46732142D01*
X127553571Y-46875000D01*
X127553571Y-47053571D01*
X127589285Y-47196428D01*
X127625000Y-47267857D01*
X127660714Y-47303571D01*
X127732142Y-47339285D01*
X127803571Y-47339285D01*
X127875000Y-47303571D01*
X127910714Y-47267857D01*
X127946428Y-47196428D01*
X127982142Y-47053571D01*
X127982142Y-46875000D01*
X127946428Y-46732142D01*
X127910714Y-46660714D01*
X127875000Y-46625000D01*
X127803571Y-46589285D01*
X136446428Y-47339285D02*
X136875000Y-47339285D01*
X136660714Y-47339285D02*
X136660714Y-46589285D01*
X136732142Y-46696428D01*
X136803571Y-46767857D01*
X136875000Y-46803571D01*
X135767857Y-46589285D02*
X136125000Y-46589285D01*
X136160714Y-46946428D01*
X136125000Y-46910714D01*
X136053571Y-46875000D01*
X135875000Y-46875000D01*
X135803571Y-46910714D01*
X135767857Y-46946428D01*
X135732142Y-47017857D01*
X135732142Y-47196428D01*
X135767857Y-47267857D01*
X135803571Y-47303571D01*
X135875000Y-47339285D01*
X136053571Y-47339285D01*
X136125000Y-47303571D01*
X136160714Y-47267857D01*
X135410714Y-47339285D02*
X135410714Y-46589285D01*
X135339285Y-47053571D02*
X135125000Y-47339285D01*
X135125000Y-46839285D02*
X135410714Y-47125000D01*
X133125000Y-29767857D02*
X133160714Y-29803571D01*
X133267857Y-29839285D01*
X133339285Y-29839285D01*
X133446428Y-29803571D01*
X133517857Y-29732142D01*
X133553571Y-29660714D01*
X133589285Y-29517857D01*
X133589285Y-29410714D01*
X133553571Y-29267857D01*
X133517857Y-29196428D01*
X133446428Y-29125000D01*
X133339285Y-29089285D01*
X133267857Y-29089285D01*
X133160714Y-29125000D01*
X133125000Y-29160714D01*
X132482142Y-29339285D02*
X132482142Y-29839285D01*
X132660714Y-29053571D02*
X132839285Y-29589285D01*
X132375000Y-29589285D01*
X138799285Y-29839285D02*
X139227857Y-29839285D01*
X139013571Y-29839285D02*
X139013571Y-29089285D01*
X139085000Y-29196428D01*
X139156428Y-29267857D01*
X139227857Y-29303571D01*
X138335000Y-29089285D02*
X138263571Y-29089285D01*
X138192142Y-29125000D01*
X138156428Y-29160714D01*
X138120714Y-29232142D01*
X138085000Y-29375000D01*
X138085000Y-29553571D01*
X138120714Y-29696428D01*
X138156428Y-29767857D01*
X138192142Y-29803571D01*
X138263571Y-29839285D01*
X138335000Y-29839285D01*
X138406428Y-29803571D01*
X138442142Y-29767857D01*
X138477857Y-29696428D01*
X138513571Y-29553571D01*
X138513571Y-29375000D01*
X138477857Y-29232142D01*
X138442142Y-29160714D01*
X138406428Y-29125000D01*
X138335000Y-29089285D01*
X137620714Y-29089285D02*
X137549285Y-29089285D01*
X137477857Y-29125000D01*
X137442142Y-29160714D01*
X137406428Y-29232142D01*
X137370714Y-29375000D01*
X137370714Y-29553571D01*
X137406428Y-29696428D01*
X137442142Y-29767857D01*
X137477857Y-29803571D01*
X137549285Y-29839285D01*
X137620714Y-29839285D01*
X137692142Y-29803571D01*
X137727857Y-29767857D01*
X137763571Y-29696428D01*
X137799285Y-29553571D01*
X137799285Y-29375000D01*
X137763571Y-29232142D01*
X137727857Y-29160714D01*
X137692142Y-29125000D01*
X137620714Y-29089285D01*
X137049285Y-29339285D02*
X137049285Y-29839285D01*
X137049285Y-29410714D02*
X137013571Y-29375000D01*
X136942142Y-29339285D01*
X136835000Y-29339285D01*
X136763571Y-29375000D01*
X136727857Y-29446428D01*
X136727857Y-29839285D01*
X157482142Y-140339285D02*
X157732142Y-139982142D01*
X157910714Y-140339285D02*
X157910714Y-139589285D01*
X157625000Y-139589285D01*
X157553571Y-139625000D01*
X157517857Y-139660714D01*
X157482142Y-139732142D01*
X157482142Y-139839285D01*
X157517857Y-139910714D01*
X157553571Y-139946428D01*
X157625000Y-139982142D01*
X157910714Y-139982142D01*
X157232142Y-139589285D02*
X156767857Y-139589285D01*
X157017857Y-139875000D01*
X156910714Y-139875000D01*
X156839285Y-139910714D01*
X156803571Y-139946428D01*
X156767857Y-140017857D01*
X156767857Y-140196428D01*
X156803571Y-140267857D01*
X156839285Y-140303571D01*
X156910714Y-140339285D01*
X157125000Y-140339285D01*
X157196428Y-140303571D01*
X157232142Y-140267857D01*
X156517857Y-139589285D02*
X156053571Y-139589285D01*
X156303571Y-139875000D01*
X156196428Y-139875000D01*
X156125000Y-139910714D01*
X156089285Y-139946428D01*
X156053571Y-140017857D01*
X156053571Y-140196428D01*
X156089285Y-140267857D01*
X156125000Y-140303571D01*
X156196428Y-140339285D01*
X156410714Y-140339285D01*
X156482142Y-140303571D01*
X156517857Y-140267857D01*
X157589285Y-137160714D02*
X157553571Y-137125000D01*
X157482142Y-137089285D01*
X157303571Y-137089285D01*
X157232142Y-137125000D01*
X157196428Y-137160714D01*
X157160714Y-137232142D01*
X157160714Y-137303571D01*
X157196428Y-137410714D01*
X157625000Y-137839285D01*
X157160714Y-137839285D01*
X156839285Y-137839285D02*
X156839285Y-137089285D01*
X156410714Y-137839285D02*
X156732142Y-137410714D01*
X156410714Y-137089285D02*
X156839285Y-137517857D01*
X128982142Y-43839285D02*
X129232142Y-43482142D01*
X129410714Y-43839285D02*
X129410714Y-43089285D01*
X129125000Y-43089285D01*
X129053571Y-43125000D01*
X129017857Y-43160714D01*
X128982142Y-43232142D01*
X128982142Y-43339285D01*
X129017857Y-43410714D01*
X129053571Y-43446428D01*
X129125000Y-43482142D01*
X129410714Y-43482142D01*
X128732142Y-43089285D02*
X128267857Y-43089285D01*
X128517857Y-43375000D01*
X128410714Y-43375000D01*
X128339285Y-43410714D01*
X128303571Y-43446428D01*
X128267857Y-43517857D01*
X128267857Y-43696428D01*
X128303571Y-43767857D01*
X128339285Y-43803571D01*
X128410714Y-43839285D01*
X128625000Y-43839285D01*
X128696428Y-43803571D01*
X128732142Y-43767857D01*
X127839285Y-43410714D02*
X127910714Y-43375000D01*
X127946428Y-43339285D01*
X127982142Y-43267857D01*
X127982142Y-43232142D01*
X127946428Y-43160714D01*
X127910714Y-43125000D01*
X127839285Y-43089285D01*
X127696428Y-43089285D01*
X127625000Y-43125000D01*
X127589285Y-43160714D01*
X127553571Y-43232142D01*
X127553571Y-43267857D01*
X127589285Y-43339285D01*
X127625000Y-43375000D01*
X127696428Y-43410714D01*
X127839285Y-43410714D01*
X127910714Y-43446428D01*
X127946428Y-43482142D01*
X127982142Y-43553571D01*
X127982142Y-43696428D01*
X127946428Y-43767857D01*
X127910714Y-43803571D01*
X127839285Y-43839285D01*
X127696428Y-43839285D01*
X127625000Y-43803571D01*
X127589285Y-43767857D01*
X127553571Y-43696428D01*
X127553571Y-43553571D01*
X127589285Y-43482142D01*
X127625000Y-43446428D01*
X127696428Y-43410714D01*
X136089285Y-43839285D02*
X136517857Y-43839285D01*
X136303571Y-43839285D02*
X136303571Y-43089285D01*
X136375000Y-43196428D01*
X136446428Y-43267857D01*
X136517857Y-43303571D01*
X135767857Y-43839285D02*
X135767857Y-43089285D01*
X135696428Y-43553571D02*
X135482142Y-43839285D01*
X135482142Y-43339285D02*
X135767857Y-43625000D01*
X156982142Y-115339285D02*
X157232142Y-114982142D01*
X157410714Y-115339285D02*
X157410714Y-114589285D01*
X157125000Y-114589285D01*
X157053571Y-114625000D01*
X157017857Y-114660714D01*
X156982142Y-114732142D01*
X156982142Y-114839285D01*
X157017857Y-114910714D01*
X157053571Y-114946428D01*
X157125000Y-114982142D01*
X157410714Y-114982142D01*
X156732142Y-114589285D02*
X156267857Y-114589285D01*
X156517857Y-114875000D01*
X156410714Y-114875000D01*
X156339285Y-114910714D01*
X156303571Y-114946428D01*
X156267857Y-115017857D01*
X156267857Y-115196428D01*
X156303571Y-115267857D01*
X156339285Y-115303571D01*
X156410714Y-115339285D01*
X156625000Y-115339285D01*
X156696428Y-115303571D01*
X156732142Y-115267857D01*
X155982142Y-114660714D02*
X155946428Y-114625000D01*
X155875000Y-114589285D01*
X155696428Y-114589285D01*
X155625000Y-114625000D01*
X155589285Y-114660714D01*
X155553571Y-114732142D01*
X155553571Y-114803571D01*
X155589285Y-114910714D01*
X156017857Y-115339285D01*
X155553571Y-115339285D01*
X157009285Y-112060714D02*
X156973571Y-112025000D01*
X156902142Y-111989285D01*
X156723571Y-111989285D01*
X156652142Y-112025000D01*
X156616428Y-112060714D01*
X156580714Y-112132142D01*
X156580714Y-112203571D01*
X156616428Y-112310714D01*
X157045000Y-112739285D01*
X156580714Y-112739285D01*
X156259285Y-112739285D02*
X156259285Y-111989285D01*
X155830714Y-112739285D02*
X156152142Y-112310714D01*
X155830714Y-111989285D02*
X156259285Y-112417857D01*
X144071428Y-43589285D02*
X144071428Y-44196428D01*
X144035714Y-44267857D01*
X144000000Y-44303571D01*
X143928571Y-44339285D01*
X143785714Y-44339285D01*
X143714285Y-44303571D01*
X143678571Y-44267857D01*
X143642857Y-44196428D01*
X143642857Y-43589285D01*
X143357142Y-43589285D02*
X142892857Y-43589285D01*
X143142857Y-43875000D01*
X143035714Y-43875000D01*
X142964285Y-43910714D01*
X142928571Y-43946428D01*
X142892857Y-44017857D01*
X142892857Y-44196428D01*
X142928571Y-44267857D01*
X142964285Y-44303571D01*
X143035714Y-44339285D01*
X143250000Y-44339285D01*
X143321428Y-44303571D01*
X143357142Y-44267857D01*
X148079285Y-52405714D02*
X148079285Y-52834285D01*
X148829285Y-52620000D02*
X148079285Y-52620000D01*
X148829285Y-53441428D02*
X148829285Y-53084285D01*
X148079285Y-53084285D01*
X148079285Y-53834285D02*
X148079285Y-53905714D01*
X148115000Y-53977142D01*
X148150714Y-54012857D01*
X148222142Y-54048571D01*
X148365000Y-54084285D01*
X148543571Y-54084285D01*
X148686428Y-54048571D01*
X148757857Y-54012857D01*
X148793571Y-53977142D01*
X148829285Y-53905714D01*
X148829285Y-53834285D01*
X148793571Y-53762857D01*
X148757857Y-53727142D01*
X148686428Y-53691428D01*
X148543571Y-53655714D01*
X148365000Y-53655714D01*
X148222142Y-53691428D01*
X148150714Y-53727142D01*
X148115000Y-53762857D01*
X148079285Y-53834285D01*
X148079285Y-54334285D02*
X148079285Y-54834285D01*
X148829285Y-54512857D01*
X148329285Y-55441428D02*
X148829285Y-55441428D01*
X148043571Y-55262857D02*
X148579285Y-55084285D01*
X148579285Y-55548571D01*
X128982142Y-50839285D02*
X129232142Y-50482142D01*
X129410714Y-50839285D02*
X129410714Y-50089285D01*
X129125000Y-50089285D01*
X129053571Y-50125000D01*
X129017857Y-50160714D01*
X128982142Y-50232142D01*
X128982142Y-50339285D01*
X129017857Y-50410714D01*
X129053571Y-50446428D01*
X129125000Y-50482142D01*
X129410714Y-50482142D01*
X128696428Y-50160714D02*
X128660714Y-50125000D01*
X128589285Y-50089285D01*
X128410714Y-50089285D01*
X128339285Y-50125000D01*
X128303571Y-50160714D01*
X128267857Y-50232142D01*
X128267857Y-50303571D01*
X128303571Y-50410714D01*
X128732142Y-50839285D01*
X128267857Y-50839285D01*
X127625000Y-50089285D02*
X127767857Y-50089285D01*
X127839285Y-50125000D01*
X127875000Y-50160714D01*
X127946428Y-50267857D01*
X127982142Y-50410714D01*
X127982142Y-50696428D01*
X127946428Y-50767857D01*
X127910714Y-50803571D01*
X127839285Y-50839285D01*
X127696428Y-50839285D01*
X127625000Y-50803571D01*
X127589285Y-50767857D01*
X127553571Y-50696428D01*
X127553571Y-50517857D01*
X127589285Y-50446428D01*
X127625000Y-50410714D01*
X127696428Y-50375000D01*
X127839285Y-50375000D01*
X127910714Y-50410714D01*
X127946428Y-50446428D01*
X127982142Y-50517857D01*
X136446428Y-50839285D02*
X136875000Y-50839285D01*
X136660714Y-50839285D02*
X136660714Y-50089285D01*
X136732142Y-50196428D01*
X136803571Y-50267857D01*
X136875000Y-50303571D01*
X135982142Y-50089285D02*
X135910714Y-50089285D01*
X135839285Y-50125000D01*
X135803571Y-50160714D01*
X135767857Y-50232142D01*
X135732142Y-50375000D01*
X135732142Y-50553571D01*
X135767857Y-50696428D01*
X135803571Y-50767857D01*
X135839285Y-50803571D01*
X135910714Y-50839285D01*
X135982142Y-50839285D01*
X136053571Y-50803571D01*
X136089285Y-50767857D01*
X136125000Y-50696428D01*
X136160714Y-50553571D01*
X136160714Y-50375000D01*
X136125000Y-50232142D01*
X136089285Y-50160714D01*
X136053571Y-50125000D01*
X135982142Y-50089285D01*
X135410714Y-50839285D02*
X135410714Y-50089285D01*
X135339285Y-50553571D02*
X135125000Y-50839285D01*
X135125000Y-50339285D02*
X135410714Y-50625000D01*
X128982142Y-19339285D02*
X129232142Y-18982142D01*
X129410714Y-19339285D02*
X129410714Y-18589285D01*
X129125000Y-18589285D01*
X129053571Y-18625000D01*
X129017857Y-18660714D01*
X128982142Y-18732142D01*
X128982142Y-18839285D01*
X129017857Y-18910714D01*
X129053571Y-18946428D01*
X129125000Y-18982142D01*
X129410714Y-18982142D01*
X128696428Y-18660714D02*
X128660714Y-18625000D01*
X128589285Y-18589285D01*
X128410714Y-18589285D01*
X128339285Y-18625000D01*
X128303571Y-18660714D01*
X128267857Y-18732142D01*
X128267857Y-18803571D01*
X128303571Y-18910714D01*
X128732142Y-19339285D01*
X128267857Y-19339285D01*
X127982142Y-18660714D02*
X127946428Y-18625000D01*
X127875000Y-18589285D01*
X127696428Y-18589285D01*
X127625000Y-18625000D01*
X127589285Y-18660714D01*
X127553571Y-18732142D01*
X127553571Y-18803571D01*
X127589285Y-18910714D01*
X128017857Y-19339285D01*
X127553571Y-19339285D01*
X136089285Y-19339285D02*
X136517857Y-19339285D01*
X136303571Y-19339285D02*
X136303571Y-18589285D01*
X136375000Y-18696428D01*
X136446428Y-18767857D01*
X136517857Y-18803571D01*
X135767857Y-19339285D02*
X135767857Y-18589285D01*
X135696428Y-19053571D02*
X135482142Y-19339285D01*
X135482142Y-18839285D02*
X135767857Y-19125000D01*
X156982142Y-90339285D02*
X157232142Y-89982142D01*
X157410714Y-90339285D02*
X157410714Y-89589285D01*
X157125000Y-89589285D01*
X157053571Y-89625000D01*
X157017857Y-89660714D01*
X156982142Y-89732142D01*
X156982142Y-89839285D01*
X157017857Y-89910714D01*
X157053571Y-89946428D01*
X157125000Y-89982142D01*
X157410714Y-89982142D01*
X156732142Y-89589285D02*
X156267857Y-89589285D01*
X156517857Y-89875000D01*
X156410714Y-89875000D01*
X156339285Y-89910714D01*
X156303571Y-89946428D01*
X156267857Y-90017857D01*
X156267857Y-90196428D01*
X156303571Y-90267857D01*
X156339285Y-90303571D01*
X156410714Y-90339285D01*
X156625000Y-90339285D01*
X156696428Y-90303571D01*
X156732142Y-90267857D01*
X155553571Y-90339285D02*
X155982142Y-90339285D01*
X155767857Y-90339285D02*
X155767857Y-89589285D01*
X155839285Y-89696428D01*
X155910714Y-89767857D01*
X155982142Y-89803571D01*
X157089285Y-87160714D02*
X157053571Y-87125000D01*
X156982142Y-87089285D01*
X156803571Y-87089285D01*
X156732142Y-87125000D01*
X156696428Y-87160714D01*
X156660714Y-87232142D01*
X156660714Y-87303571D01*
X156696428Y-87410714D01*
X157125000Y-87839285D01*
X156660714Y-87839285D01*
X156339285Y-87839285D02*
X156339285Y-87089285D01*
X155910714Y-87839285D02*
X156232142Y-87410714D01*
X155910714Y-87089285D02*
X156339285Y-87517857D01*
X128982142Y-40339285D02*
X129232142Y-39982142D01*
X129410714Y-40339285D02*
X129410714Y-39589285D01*
X129125000Y-39589285D01*
X129053571Y-39625000D01*
X129017857Y-39660714D01*
X128982142Y-39732142D01*
X128982142Y-39839285D01*
X129017857Y-39910714D01*
X129053571Y-39946428D01*
X129125000Y-39982142D01*
X129410714Y-39982142D01*
X128696428Y-39660714D02*
X128660714Y-39625000D01*
X128589285Y-39589285D01*
X128410714Y-39589285D01*
X128339285Y-39625000D01*
X128303571Y-39660714D01*
X128267857Y-39732142D01*
X128267857Y-39803571D01*
X128303571Y-39910714D01*
X128732142Y-40339285D01*
X128267857Y-40339285D01*
X127553571Y-40339285D02*
X127982142Y-40339285D01*
X127767857Y-40339285D02*
X127767857Y-39589285D01*
X127839285Y-39696428D01*
X127910714Y-39767857D01*
X127982142Y-39803571D01*
X136089285Y-40339285D02*
X136517857Y-40339285D01*
X136303571Y-40339285D02*
X136303571Y-39589285D01*
X136375000Y-39696428D01*
X136446428Y-39767857D01*
X136517857Y-39803571D01*
X135767857Y-40339285D02*
X135767857Y-39589285D01*
X135696428Y-40053571D02*
X135482142Y-40339285D01*
X135482142Y-39839285D02*
X135767857Y-40125000D01*
X116942600Y-164667857D02*
X116978314Y-164703571D01*
X117085457Y-164739285D01*
X117156885Y-164739285D01*
X117264028Y-164703571D01*
X117335457Y-164632142D01*
X117371171Y-164560714D01*
X117406885Y-164417857D01*
X117406885Y-164310714D01*
X117371171Y-164167857D01*
X117335457Y-164096428D01*
X117264028Y-164025000D01*
X117156885Y-163989285D01*
X117085457Y-163989285D01*
X116978314Y-164025000D01*
X116942600Y-164060714D01*
X116656885Y-164060714D02*
X116621171Y-164025000D01*
X116549742Y-163989285D01*
X116371171Y-163989285D01*
X116299742Y-164025000D01*
X116264028Y-164060714D01*
X116228314Y-164132142D01*
X116228314Y-164203571D01*
X116264028Y-164310714D01*
X116692600Y-164739285D01*
X116228314Y-164739285D01*
X122299742Y-164839285D02*
X122728314Y-164839285D01*
X122514028Y-164839285D02*
X122514028Y-164089285D01*
X122585457Y-164196428D01*
X122656885Y-164267857D01*
X122728314Y-164303571D01*
X121835457Y-164089285D02*
X121764028Y-164089285D01*
X121692600Y-164125000D01*
X121656885Y-164160714D01*
X121621171Y-164232142D01*
X121585457Y-164375000D01*
X121585457Y-164553571D01*
X121621171Y-164696428D01*
X121656885Y-164767857D01*
X121692600Y-164803571D01*
X121764028Y-164839285D01*
X121835457Y-164839285D01*
X121906885Y-164803571D01*
X121942600Y-164767857D01*
X121978314Y-164696428D01*
X122014028Y-164553571D01*
X122014028Y-164375000D01*
X121978314Y-164232142D01*
X121942600Y-164160714D01*
X121906885Y-164125000D01*
X121835457Y-164089285D01*
X120942600Y-164339285D02*
X120942600Y-164839285D01*
X121264028Y-164339285D02*
X121264028Y-164732142D01*
X121228314Y-164803571D01*
X121156885Y-164839285D01*
X121049742Y-164839285D01*
X120978314Y-164803571D01*
X120942600Y-164767857D01*
X144071428Y-18959285D02*
X144071428Y-19566428D01*
X144035714Y-19637857D01*
X144000000Y-19673571D01*
X143928571Y-19709285D01*
X143785714Y-19709285D01*
X143714285Y-19673571D01*
X143678571Y-19637857D01*
X143642857Y-19566428D01*
X143642857Y-18959285D01*
X143321428Y-19030714D02*
X143285714Y-18995000D01*
X143214285Y-18959285D01*
X143035714Y-18959285D01*
X142964285Y-18995000D01*
X142928571Y-19030714D01*
X142892857Y-19102142D01*
X142892857Y-19173571D01*
X142928571Y-19280714D01*
X143357142Y-19709285D01*
X142892857Y-19709285D01*
X148079285Y-27905714D02*
X148079285Y-28334285D01*
X148829285Y-28120000D02*
X148079285Y-28120000D01*
X148829285Y-28941428D02*
X148829285Y-28584285D01*
X148079285Y-28584285D01*
X148079285Y-29334285D02*
X148079285Y-29405714D01*
X148115000Y-29477142D01*
X148150714Y-29512857D01*
X148222142Y-29548571D01*
X148365000Y-29584285D01*
X148543571Y-29584285D01*
X148686428Y-29548571D01*
X148757857Y-29512857D01*
X148793571Y-29477142D01*
X148829285Y-29405714D01*
X148829285Y-29334285D01*
X148793571Y-29262857D01*
X148757857Y-29227142D01*
X148686428Y-29191428D01*
X148543571Y-29155714D01*
X148365000Y-29155714D01*
X148222142Y-29191428D01*
X148150714Y-29227142D01*
X148115000Y-29262857D01*
X148079285Y-29334285D01*
X148079285Y-29834285D02*
X148079285Y-30334285D01*
X148829285Y-30012857D01*
X148329285Y-30941428D02*
X148829285Y-30941428D01*
X148043571Y-30762857D02*
X148579285Y-30584285D01*
X148579285Y-31048571D01*
X168982142Y-22839285D02*
X169232142Y-22482142D01*
X169410714Y-22839285D02*
X169410714Y-22089285D01*
X169125000Y-22089285D01*
X169053571Y-22125000D01*
X169017857Y-22160714D01*
X168982142Y-22232142D01*
X168982142Y-22339285D01*
X169017857Y-22410714D01*
X169053571Y-22446428D01*
X169125000Y-22482142D01*
X169410714Y-22482142D01*
X168267857Y-22839285D02*
X168696428Y-22839285D01*
X168482142Y-22839285D02*
X168482142Y-22089285D01*
X168553571Y-22196428D01*
X168625000Y-22267857D01*
X168696428Y-22303571D01*
X167553571Y-22839285D02*
X167982142Y-22839285D01*
X167767857Y-22839285D02*
X167767857Y-22089285D01*
X167839285Y-22196428D01*
X167910714Y-22267857D01*
X167982142Y-22303571D01*
X161336428Y-22939285D02*
X161765000Y-22939285D01*
X161550714Y-22939285D02*
X161550714Y-22189285D01*
X161622142Y-22296428D01*
X161693571Y-22367857D01*
X161765000Y-22403571D01*
X160657857Y-22189285D02*
X161015000Y-22189285D01*
X161050714Y-22546428D01*
X161015000Y-22510714D01*
X160943571Y-22475000D01*
X160765000Y-22475000D01*
X160693571Y-22510714D01*
X160657857Y-22546428D01*
X160622142Y-22617857D01*
X160622142Y-22796428D01*
X160657857Y-22867857D01*
X160693571Y-22903571D01*
X160765000Y-22939285D01*
X160943571Y-22939285D01*
X161015000Y-22903571D01*
X161050714Y-22867857D01*
X160300714Y-22939285D02*
X160300714Y-22189285D01*
X160229285Y-22653571D02*
X160015000Y-22939285D01*
X160015000Y-22439285D02*
X160300714Y-22725000D01*
X169062142Y-50789285D02*
X169312142Y-50432142D01*
X169490714Y-50789285D02*
X169490714Y-50039285D01*
X169205000Y-50039285D01*
X169133571Y-50075000D01*
X169097857Y-50110714D01*
X169062142Y-50182142D01*
X169062142Y-50289285D01*
X169097857Y-50360714D01*
X169133571Y-50396428D01*
X169205000Y-50432142D01*
X169490714Y-50432142D01*
X168776428Y-50110714D02*
X168740714Y-50075000D01*
X168669285Y-50039285D01*
X168490714Y-50039285D01*
X168419285Y-50075000D01*
X168383571Y-50110714D01*
X168347857Y-50182142D01*
X168347857Y-50253571D01*
X168383571Y-50360714D01*
X168812142Y-50789285D01*
X168347857Y-50789285D01*
X168097857Y-50039285D02*
X167633571Y-50039285D01*
X167883571Y-50325000D01*
X167776428Y-50325000D01*
X167705000Y-50360714D01*
X167669285Y-50396428D01*
X167633571Y-50467857D01*
X167633571Y-50646428D01*
X167669285Y-50717857D01*
X167705000Y-50753571D01*
X167776428Y-50789285D01*
X167990714Y-50789285D01*
X168062142Y-50753571D01*
X168097857Y-50717857D01*
X161526428Y-50839285D02*
X161955000Y-50839285D01*
X161740714Y-50839285D02*
X161740714Y-50089285D01*
X161812142Y-50196428D01*
X161883571Y-50267857D01*
X161955000Y-50303571D01*
X161062142Y-50089285D02*
X160990714Y-50089285D01*
X160919285Y-50125000D01*
X160883571Y-50160714D01*
X160847857Y-50232142D01*
X160812142Y-50375000D01*
X160812142Y-50553571D01*
X160847857Y-50696428D01*
X160883571Y-50767857D01*
X160919285Y-50803571D01*
X160990714Y-50839285D01*
X161062142Y-50839285D01*
X161133571Y-50803571D01*
X161169285Y-50767857D01*
X161205000Y-50696428D01*
X161240714Y-50553571D01*
X161240714Y-50375000D01*
X161205000Y-50232142D01*
X161169285Y-50160714D01*
X161133571Y-50125000D01*
X161062142Y-50089285D01*
X160490714Y-50839285D02*
X160490714Y-50089285D01*
X160419285Y-50553571D02*
X160205000Y-50839285D01*
X160205000Y-50339285D02*
X160490714Y-50625000D01*
X168982142Y-47339285D02*
X169232142Y-46982142D01*
X169410714Y-47339285D02*
X169410714Y-46589285D01*
X169125000Y-46589285D01*
X169053571Y-46625000D01*
X169017857Y-46660714D01*
X168982142Y-46732142D01*
X168982142Y-46839285D01*
X169017857Y-46910714D01*
X169053571Y-46946428D01*
X169125000Y-46982142D01*
X169410714Y-46982142D01*
X168696428Y-46660714D02*
X168660714Y-46625000D01*
X168589285Y-46589285D01*
X168410714Y-46589285D01*
X168339285Y-46625000D01*
X168303571Y-46660714D01*
X168267857Y-46732142D01*
X168267857Y-46803571D01*
X168303571Y-46910714D01*
X168732142Y-47339285D01*
X168267857Y-47339285D01*
X168017857Y-46589285D02*
X167517857Y-46589285D01*
X167839285Y-47339285D01*
X161446428Y-47339285D02*
X161875000Y-47339285D01*
X161660714Y-47339285D02*
X161660714Y-46589285D01*
X161732142Y-46696428D01*
X161803571Y-46767857D01*
X161875000Y-46803571D01*
X160767857Y-46589285D02*
X161125000Y-46589285D01*
X161160714Y-46946428D01*
X161125000Y-46910714D01*
X161053571Y-46875000D01*
X160875000Y-46875000D01*
X160803571Y-46910714D01*
X160767857Y-46946428D01*
X160732142Y-47017857D01*
X160732142Y-47196428D01*
X160767857Y-47267857D01*
X160803571Y-47303571D01*
X160875000Y-47339285D01*
X161053571Y-47339285D01*
X161125000Y-47303571D01*
X161160714Y-47267857D01*
X160410714Y-47339285D02*
X160410714Y-46589285D01*
X160339285Y-47053571D02*
X160125000Y-47339285D01*
X160125000Y-46839285D02*
X160410714Y-47125000D01*
X124071428Y-69210714D02*
X124142857Y-69175000D01*
X124214285Y-69103571D01*
X124321428Y-68996428D01*
X124392857Y-68960714D01*
X124464285Y-68960714D01*
X124428571Y-69139285D02*
X124500000Y-69103571D01*
X124571428Y-69032142D01*
X124607142Y-68889285D01*
X124607142Y-68639285D01*
X124571428Y-68496428D01*
X124500000Y-68425000D01*
X124428571Y-68389285D01*
X124285714Y-68389285D01*
X124214285Y-68425000D01*
X124142857Y-68496428D01*
X124107142Y-68639285D01*
X124107142Y-68889285D01*
X124142857Y-69032142D01*
X124214285Y-69103571D01*
X124285714Y-69139285D01*
X124428571Y-69139285D01*
X123821428Y-68460714D02*
X123785714Y-68425000D01*
X123714285Y-68389285D01*
X123535714Y-68389285D01*
X123464285Y-68425000D01*
X123428571Y-68460714D01*
X123392857Y-68532142D01*
X123392857Y-68603571D01*
X123428571Y-68710714D01*
X123857142Y-69139285D01*
X123392857Y-69139285D01*
X126035714Y-73290714D02*
X126000000Y-73255000D01*
X125928571Y-73219285D01*
X125750000Y-73219285D01*
X125678571Y-73255000D01*
X125642857Y-73290714D01*
X125607142Y-73362142D01*
X125607142Y-73433571D01*
X125642857Y-73540714D01*
X126071428Y-73969285D01*
X125607142Y-73969285D01*
X125285714Y-73969285D02*
X125285714Y-73219285D01*
X124857142Y-73969285D01*
X124857142Y-73219285D01*
X124571428Y-73219285D02*
X124107142Y-73219285D01*
X124357142Y-73505000D01*
X124250000Y-73505000D01*
X124178571Y-73540714D01*
X124142857Y-73576428D01*
X124107142Y-73647857D01*
X124107142Y-73826428D01*
X124142857Y-73897857D01*
X124178571Y-73933571D01*
X124250000Y-73969285D01*
X124464285Y-73969285D01*
X124535714Y-73933571D01*
X124571428Y-73897857D01*
X123750000Y-73969285D02*
X123607142Y-73969285D01*
X123535714Y-73933571D01*
X123500000Y-73897857D01*
X123428571Y-73790714D01*
X123392857Y-73647857D01*
X123392857Y-73362142D01*
X123428571Y-73290714D01*
X123464285Y-73255000D01*
X123535714Y-73219285D01*
X123678571Y-73219285D01*
X123750000Y-73255000D01*
X123785714Y-73290714D01*
X123821428Y-73362142D01*
X123821428Y-73540714D01*
X123785714Y-73612142D01*
X123750000Y-73647857D01*
X123678571Y-73683571D01*
X123535714Y-73683571D01*
X123464285Y-73647857D01*
X123428571Y-73612142D01*
X123392857Y-73540714D01*
X122928571Y-73219285D02*
X122857142Y-73219285D01*
X122785714Y-73255000D01*
X122750000Y-73290714D01*
X122714285Y-73362142D01*
X122678571Y-73505000D01*
X122678571Y-73683571D01*
X122714285Y-73826428D01*
X122750000Y-73897857D01*
X122785714Y-73933571D01*
X122857142Y-73969285D01*
X122928571Y-73969285D01*
X123000000Y-73933571D01*
X123035714Y-73897857D01*
X123071428Y-73826428D01*
X123107142Y-73683571D01*
X123107142Y-73505000D01*
X123071428Y-73362142D01*
X123035714Y-73290714D01*
X123000000Y-73255000D01*
X122928571Y-73219285D01*
X122035714Y-73469285D02*
X122035714Y-73969285D01*
X122214285Y-73183571D02*
X122392857Y-73719285D01*
X121928571Y-73719285D01*
X164125000Y-29767857D02*
X164160714Y-29803571D01*
X164267857Y-29839285D01*
X164339285Y-29839285D01*
X164446428Y-29803571D01*
X164517857Y-29732142D01*
X164553571Y-29660714D01*
X164589285Y-29517857D01*
X164589285Y-29410714D01*
X164553571Y-29267857D01*
X164517857Y-29196428D01*
X164446428Y-29125000D01*
X164339285Y-29089285D01*
X164267857Y-29089285D01*
X164160714Y-29125000D01*
X164125000Y-29160714D01*
X163875000Y-29089285D02*
X163410714Y-29089285D01*
X163660714Y-29375000D01*
X163553571Y-29375000D01*
X163482142Y-29410714D01*
X163446428Y-29446428D01*
X163410714Y-29517857D01*
X163410714Y-29696428D01*
X163446428Y-29767857D01*
X163482142Y-29803571D01*
X163553571Y-29839285D01*
X163767857Y-29839285D01*
X163839285Y-29803571D01*
X163875000Y-29767857D01*
X159879285Y-29839285D02*
X160307857Y-29839285D01*
X160093571Y-29839285D02*
X160093571Y-29089285D01*
X160165000Y-29196428D01*
X160236428Y-29267857D01*
X160307857Y-29303571D01*
X159415000Y-29089285D02*
X159343571Y-29089285D01*
X159272142Y-29125000D01*
X159236428Y-29160714D01*
X159200714Y-29232142D01*
X159165000Y-29375000D01*
X159165000Y-29553571D01*
X159200714Y-29696428D01*
X159236428Y-29767857D01*
X159272142Y-29803571D01*
X159343571Y-29839285D01*
X159415000Y-29839285D01*
X159486428Y-29803571D01*
X159522142Y-29767857D01*
X159557857Y-29696428D01*
X159593571Y-29553571D01*
X159593571Y-29375000D01*
X159557857Y-29232142D01*
X159522142Y-29160714D01*
X159486428Y-29125000D01*
X159415000Y-29089285D01*
X158700714Y-29089285D02*
X158629285Y-29089285D01*
X158557857Y-29125000D01*
X158522142Y-29160714D01*
X158486428Y-29232142D01*
X158450714Y-29375000D01*
X158450714Y-29553571D01*
X158486428Y-29696428D01*
X158522142Y-29767857D01*
X158557857Y-29803571D01*
X158629285Y-29839285D01*
X158700714Y-29839285D01*
X158772142Y-29803571D01*
X158807857Y-29767857D01*
X158843571Y-29696428D01*
X158879285Y-29553571D01*
X158879285Y-29375000D01*
X158843571Y-29232142D01*
X158807857Y-29160714D01*
X158772142Y-29125000D01*
X158700714Y-29089285D01*
X158129285Y-29339285D02*
X158129285Y-29839285D01*
X158129285Y-29410714D02*
X158093571Y-29375000D01*
X158022142Y-29339285D01*
X157915000Y-29339285D01*
X157843571Y-29375000D01*
X157807857Y-29446428D01*
X157807857Y-29839285D01*
X133125000Y-54267857D02*
X133160714Y-54303571D01*
X133267857Y-54339285D01*
X133339285Y-54339285D01*
X133446428Y-54303571D01*
X133517857Y-54232142D01*
X133553571Y-54160714D01*
X133589285Y-54017857D01*
X133589285Y-53910714D01*
X133553571Y-53767857D01*
X133517857Y-53696428D01*
X133446428Y-53625000D01*
X133339285Y-53589285D01*
X133267857Y-53589285D01*
X133160714Y-53625000D01*
X133125000Y-53660714D01*
X132482142Y-53589285D02*
X132625000Y-53589285D01*
X132696428Y-53625000D01*
X132732142Y-53660714D01*
X132803571Y-53767857D01*
X132839285Y-53910714D01*
X132839285Y-54196428D01*
X132803571Y-54267857D01*
X132767857Y-54303571D01*
X132696428Y-54339285D01*
X132553571Y-54339285D01*
X132482142Y-54303571D01*
X132446428Y-54267857D01*
X132410714Y-54196428D01*
X132410714Y-54017857D01*
X132446428Y-53946428D01*
X132482142Y-53910714D01*
X132553571Y-53875000D01*
X132696428Y-53875000D01*
X132767857Y-53910714D01*
X132803571Y-53946428D01*
X132839285Y-54017857D01*
X138799285Y-54339285D02*
X139227857Y-54339285D01*
X139013571Y-54339285D02*
X139013571Y-53589285D01*
X139085000Y-53696428D01*
X139156428Y-53767857D01*
X139227857Y-53803571D01*
X138335000Y-53589285D02*
X138263571Y-53589285D01*
X138192142Y-53625000D01*
X138156428Y-53660714D01*
X138120714Y-53732142D01*
X138085000Y-53875000D01*
X138085000Y-54053571D01*
X138120714Y-54196428D01*
X138156428Y-54267857D01*
X138192142Y-54303571D01*
X138263571Y-54339285D01*
X138335000Y-54339285D01*
X138406428Y-54303571D01*
X138442142Y-54267857D01*
X138477857Y-54196428D01*
X138513571Y-54053571D01*
X138513571Y-53875000D01*
X138477857Y-53732142D01*
X138442142Y-53660714D01*
X138406428Y-53625000D01*
X138335000Y-53589285D01*
X137620714Y-53589285D02*
X137549285Y-53589285D01*
X137477857Y-53625000D01*
X137442142Y-53660714D01*
X137406428Y-53732142D01*
X137370714Y-53875000D01*
X137370714Y-54053571D01*
X137406428Y-54196428D01*
X137442142Y-54267857D01*
X137477857Y-54303571D01*
X137549285Y-54339285D01*
X137620714Y-54339285D01*
X137692142Y-54303571D01*
X137727857Y-54267857D01*
X137763571Y-54196428D01*
X137799285Y-54053571D01*
X137799285Y-53875000D01*
X137763571Y-53732142D01*
X137727857Y-53660714D01*
X137692142Y-53625000D01*
X137620714Y-53589285D01*
X137049285Y-53839285D02*
X137049285Y-54339285D01*
X137049285Y-53910714D02*
X137013571Y-53875000D01*
X136942142Y-53839285D01*
X136835000Y-53839285D01*
X136763571Y-53875000D01*
X136727857Y-53946428D01*
X136727857Y-54339285D01*
X116094285Y-16086666D02*
X115618095Y-16086666D01*
X116189523Y-16372380D02*
X115856190Y-15372380D01*
X115522857Y-16372380D01*
X114665714Y-16372380D02*
X115237142Y-16372380D01*
X114951428Y-16372380D02*
X114951428Y-15372380D01*
X115046666Y-15515238D01*
X115141904Y-15610476D01*
X115237142Y-15658095D01*
X128982142Y-36839285D02*
X129232142Y-36482142D01*
X129410714Y-36839285D02*
X129410714Y-36089285D01*
X129125000Y-36089285D01*
X129053571Y-36125000D01*
X129017857Y-36160714D01*
X128982142Y-36232142D01*
X128982142Y-36339285D01*
X129017857Y-36410714D01*
X129053571Y-36446428D01*
X129125000Y-36482142D01*
X129410714Y-36482142D01*
X128267857Y-36839285D02*
X128696428Y-36839285D01*
X128482142Y-36839285D02*
X128482142Y-36089285D01*
X128553571Y-36196428D01*
X128625000Y-36267857D01*
X128696428Y-36303571D01*
X127982142Y-36160714D02*
X127946428Y-36125000D01*
X127875000Y-36089285D01*
X127696428Y-36089285D01*
X127625000Y-36125000D01*
X127589285Y-36160714D01*
X127553571Y-36232142D01*
X127553571Y-36303571D01*
X127589285Y-36410714D01*
X128017857Y-36839285D01*
X127553571Y-36839285D01*
X136446428Y-36839285D02*
X136875000Y-36839285D01*
X136660714Y-36839285D02*
X136660714Y-36089285D01*
X136732142Y-36196428D01*
X136803571Y-36267857D01*
X136875000Y-36303571D01*
X135767857Y-36089285D02*
X136125000Y-36089285D01*
X136160714Y-36446428D01*
X136125000Y-36410714D01*
X136053571Y-36375000D01*
X135875000Y-36375000D01*
X135803571Y-36410714D01*
X135767857Y-36446428D01*
X135732142Y-36517857D01*
X135732142Y-36696428D01*
X135767857Y-36767857D01*
X135803571Y-36803571D01*
X135875000Y-36839285D01*
X136053571Y-36839285D01*
X136125000Y-36803571D01*
X136160714Y-36767857D01*
X135410714Y-36839285D02*
X135410714Y-36089285D01*
X135339285Y-36553571D02*
X135125000Y-36839285D01*
X135125000Y-36339285D02*
X135410714Y-36625000D01*
X168982142Y-19339285D02*
X169232142Y-18982142D01*
X169410714Y-19339285D02*
X169410714Y-18589285D01*
X169125000Y-18589285D01*
X169053571Y-18625000D01*
X169017857Y-18660714D01*
X168982142Y-18732142D01*
X168982142Y-18839285D01*
X169017857Y-18910714D01*
X169053571Y-18946428D01*
X169125000Y-18982142D01*
X169410714Y-18982142D01*
X168267857Y-19339285D02*
X168696428Y-19339285D01*
X168482142Y-19339285D02*
X168482142Y-18589285D01*
X168553571Y-18696428D01*
X168625000Y-18767857D01*
X168696428Y-18803571D01*
X167910714Y-19339285D02*
X167767857Y-19339285D01*
X167696428Y-19303571D01*
X167660714Y-19267857D01*
X167589285Y-19160714D01*
X167553571Y-19017857D01*
X167553571Y-18732142D01*
X167589285Y-18660714D01*
X167625000Y-18625000D01*
X167696428Y-18589285D01*
X167839285Y-18589285D01*
X167910714Y-18625000D01*
X167946428Y-18660714D01*
X167982142Y-18732142D01*
X167982142Y-18910714D01*
X167946428Y-18982142D01*
X167910714Y-19017857D01*
X167839285Y-19053571D01*
X167696428Y-19053571D01*
X167625000Y-19017857D01*
X167589285Y-18982142D01*
X167553571Y-18910714D01*
X161089285Y-19339285D02*
X161517857Y-19339285D01*
X161303571Y-19339285D02*
X161303571Y-18589285D01*
X161375000Y-18696428D01*
X161446428Y-18767857D01*
X161517857Y-18803571D01*
X160767857Y-19339285D02*
X160767857Y-18589285D01*
X160696428Y-19053571D02*
X160482142Y-19339285D01*
X160482142Y-18839285D02*
X160767857Y-19125000D01*
X105297600Y-138669285D02*
X105297600Y-139205000D01*
X105333314Y-139312142D01*
X105404742Y-139383571D01*
X105511885Y-139419285D01*
X105583314Y-139419285D01*
X104547600Y-139419285D02*
X104976171Y-139419285D01*
X104761885Y-139419285D02*
X104761885Y-138669285D01*
X104833314Y-138776428D01*
X104904742Y-138847857D01*
X104976171Y-138883571D01*
X110809504Y-139151428D02*
X110047600Y-139151428D01*
X110428552Y-139532380D02*
X110428552Y-138770476D01*
X109047600Y-139532380D02*
X109619028Y-139532380D01*
X109333314Y-139532380D02*
X109333314Y-138532380D01*
X109428552Y-138675238D01*
X109523790Y-138770476D01*
X109619028Y-138818095D01*
X108666647Y-138627619D02*
X108619028Y-138580000D01*
X108523790Y-138532380D01*
X108285695Y-138532380D01*
X108190457Y-138580000D01*
X108142838Y-138627619D01*
X108095219Y-138722857D01*
X108095219Y-138818095D01*
X108142838Y-138960952D01*
X108714266Y-139532380D01*
X108095219Y-139532380D01*
X107809504Y-138532380D02*
X107476171Y-139532380D01*
X107142838Y-138532380D01*
X110809504Y-163351428D02*
X110047600Y-163351428D01*
X109047600Y-163732380D02*
X109619028Y-163732380D01*
X109333314Y-163732380D02*
X109333314Y-162732380D01*
X109428552Y-162875238D01*
X109523790Y-162970476D01*
X109619028Y-163018095D01*
X108666647Y-162827619D02*
X108619028Y-162780000D01*
X108523790Y-162732380D01*
X108285695Y-162732380D01*
X108190457Y-162780000D01*
X108142838Y-162827619D01*
X108095219Y-162922857D01*
X108095219Y-163018095D01*
X108142838Y-163160952D01*
X108714266Y-163732380D01*
X108095219Y-163732380D01*
X107809504Y-162732380D02*
X107476171Y-163732380D01*
X107142838Y-162732380D01*
X113119028Y-162232380D02*
X113452361Y-161756190D01*
X113690457Y-162232380D02*
X113690457Y-161232380D01*
X113309504Y-161232380D01*
X113214266Y-161280000D01*
X113166647Y-161327619D01*
X113119028Y-161422857D01*
X113119028Y-161565714D01*
X113166647Y-161660952D01*
X113214266Y-161708571D01*
X113309504Y-161756190D01*
X113690457Y-161756190D01*
X112690457Y-161708571D02*
X112357123Y-161708571D01*
X112214266Y-162232380D02*
X112690457Y-162232380D01*
X112690457Y-161232380D01*
X112214266Y-161232380D01*
X111785695Y-162232380D02*
X111785695Y-161232380D01*
X111547600Y-161232380D01*
X111404742Y-161280000D01*
X111309504Y-161375238D01*
X111261885Y-161470476D01*
X111214266Y-161660952D01*
X111214266Y-161803809D01*
X111261885Y-161994285D01*
X111309504Y-162089523D01*
X111404742Y-162184761D01*
X111547600Y-162232380D01*
X111785695Y-162232380D01*
X110071409Y-162184761D02*
X109928552Y-162232380D01*
X109690457Y-162232380D01*
X109595219Y-162184761D01*
X109547599Y-162137142D01*
X109499980Y-162041904D01*
X109499980Y-161946666D01*
X109547599Y-161851428D01*
X109595219Y-161803809D01*
X109690457Y-161756190D01*
X109880933Y-161708571D01*
X109976171Y-161660952D01*
X110023790Y-161613333D01*
X110071409Y-161518095D01*
X110071409Y-161422857D01*
X110023790Y-161327619D01*
X109976171Y-161280000D01*
X109880933Y-161232380D01*
X109642838Y-161232380D01*
X109499980Y-161280000D01*
X109214266Y-161232380D02*
X108642838Y-161232380D01*
X108928552Y-162232380D02*
X108928552Y-161232380D01*
X107738076Y-162232380D02*
X108071409Y-161756190D01*
X108309504Y-162232380D02*
X108309504Y-161232380D01*
X107928552Y-161232380D01*
X107833314Y-161280000D01*
X107785695Y-161327619D01*
X107738076Y-161422857D01*
X107738076Y-161565714D01*
X107785695Y-161660952D01*
X107833314Y-161708571D01*
X107928552Y-161756190D01*
X108309504Y-161756190D01*
X107309504Y-162232380D02*
X107309504Y-161232380D01*
X106833314Y-162232380D02*
X106833314Y-161232380D01*
X106452361Y-161232380D01*
X106357123Y-161280000D01*
X106309504Y-161327619D01*
X106261885Y-161422857D01*
X106261885Y-161565714D01*
X106309504Y-161660952D01*
X106357123Y-161708571D01*
X106452361Y-161756190D01*
X106833314Y-161756190D01*
X105833314Y-161708571D02*
X105499980Y-161708571D01*
X105357123Y-162232380D02*
X105833314Y-162232380D01*
X105833314Y-161232380D01*
X105357123Y-161232380D01*
X168982142Y-43839285D02*
X169232142Y-43482142D01*
X169410714Y-43839285D02*
X169410714Y-43089285D01*
X169125000Y-43089285D01*
X169053571Y-43125000D01*
X169017857Y-43160714D01*
X168982142Y-43232142D01*
X168982142Y-43339285D01*
X169017857Y-43410714D01*
X169053571Y-43446428D01*
X169125000Y-43482142D01*
X169410714Y-43482142D01*
X168732142Y-43089285D02*
X168267857Y-43089285D01*
X168517857Y-43375000D01*
X168410714Y-43375000D01*
X168339285Y-43410714D01*
X168303571Y-43446428D01*
X168267857Y-43517857D01*
X168267857Y-43696428D01*
X168303571Y-43767857D01*
X168339285Y-43803571D01*
X168410714Y-43839285D01*
X168625000Y-43839285D01*
X168696428Y-43803571D01*
X168732142Y-43767857D01*
X167589285Y-43089285D02*
X167946428Y-43089285D01*
X167982142Y-43446428D01*
X167946428Y-43410714D01*
X167875000Y-43375000D01*
X167696428Y-43375000D01*
X167625000Y-43410714D01*
X167589285Y-43446428D01*
X167553571Y-43517857D01*
X167553571Y-43696428D01*
X167589285Y-43767857D01*
X167625000Y-43803571D01*
X167696428Y-43839285D01*
X167875000Y-43839285D01*
X167946428Y-43803571D01*
X167982142Y-43767857D01*
X161089285Y-43839285D02*
X161517857Y-43839285D01*
X161303571Y-43839285D02*
X161303571Y-43089285D01*
X161375000Y-43196428D01*
X161446428Y-43267857D01*
X161517857Y-43303571D01*
X160767857Y-43839285D02*
X160767857Y-43089285D01*
X160696428Y-43553571D02*
X160482142Y-43839285D01*
X160482142Y-43339285D02*
X160767857Y-43625000D01*
X168982142Y-36839285D02*
X169232142Y-36482142D01*
X169410714Y-36839285D02*
X169410714Y-36089285D01*
X169125000Y-36089285D01*
X169053571Y-36125000D01*
X169017857Y-36160714D01*
X168982142Y-36232142D01*
X168982142Y-36339285D01*
X169017857Y-36410714D01*
X169053571Y-36446428D01*
X169125000Y-36482142D01*
X169410714Y-36482142D01*
X168267857Y-36839285D02*
X168696428Y-36839285D01*
X168482142Y-36839285D02*
X168482142Y-36089285D01*
X168553571Y-36196428D01*
X168625000Y-36267857D01*
X168696428Y-36303571D01*
X168017857Y-36089285D02*
X167553571Y-36089285D01*
X167803571Y-36375000D01*
X167696428Y-36375000D01*
X167625000Y-36410714D01*
X167589285Y-36446428D01*
X167553571Y-36517857D01*
X167553571Y-36696428D01*
X167589285Y-36767857D01*
X167625000Y-36803571D01*
X167696428Y-36839285D01*
X167910714Y-36839285D01*
X167982142Y-36803571D01*
X168017857Y-36767857D01*
X161446428Y-36839285D02*
X161875000Y-36839285D01*
X161660714Y-36839285D02*
X161660714Y-36089285D01*
X161732142Y-36196428D01*
X161803571Y-36267857D01*
X161875000Y-36303571D01*
X160767857Y-36089285D02*
X161125000Y-36089285D01*
X161160714Y-36446428D01*
X161125000Y-36410714D01*
X161053571Y-36375000D01*
X160875000Y-36375000D01*
X160803571Y-36410714D01*
X160767857Y-36446428D01*
X160732142Y-36517857D01*
X160732142Y-36696428D01*
X160767857Y-36767857D01*
X160803571Y-36803571D01*
X160875000Y-36839285D01*
X161053571Y-36839285D01*
X161125000Y-36803571D01*
X161160714Y-36767857D01*
X160410714Y-36839285D02*
X160410714Y-36089285D01*
X160339285Y-36553571D02*
X160125000Y-36839285D01*
X160125000Y-36339285D02*
X160410714Y-36625000D01*
D12*
X125280000Y-65880000D02*
X125280000Y-68120000D01*
X125400000Y-65880000D02*
X125400000Y-68120000D01*
X126120000Y-68120000D02*
X121880000Y-68120000D01*
X126770000Y-67000000D02*
X126120000Y-67000000D01*
X121880000Y-68120000D02*
X121880000Y-65880000D01*
X126120000Y-65880000D02*
X126120000Y-68120000D01*
X125520000Y-65880000D02*
X125520000Y-68120000D01*
X121880000Y-65880000D02*
X126120000Y-65880000D01*
X121230000Y-67000000D02*
X121880000Y-67000000D01*
X151300000Y-74210000D02*
X147700000Y-74210000D01*
X149500000Y-69760000D02*
G75*
G03*
X147143600Y-71261193I0J-2600000D01*
G01*
X151856400Y-71261193D02*
G75*
G03*
X149500000Y-69760000I-2356400J-1098807D01*
G01*
X147175816Y-73482795D02*
G75*
G03*
X147700000Y-74210000I2324184J1122795D01*
G01*
X151300000Y-74210000D02*
G75*
G03*
X151824184Y-73482795I-1800000J1850000D01*
G01*
X146230000Y-67000000D02*
X146880000Y-67000000D01*
X150520000Y-65880000D02*
X150520000Y-68120000D01*
X146880000Y-65880000D02*
X151120000Y-65880000D01*
X150280000Y-65880000D02*
X150280000Y-68120000D01*
X151120000Y-65880000D02*
X151120000Y-68120000D01*
X150400000Y-65880000D02*
X150400000Y-68120000D01*
X151120000Y-68120000D02*
X146880000Y-68120000D01*
X151770000Y-67000000D02*
X151120000Y-67000000D01*
X146880000Y-68120000D02*
X146880000Y-65880000D01*
X140040000Y-26000000D02*
X139270000Y-26000000D01*
X132730000Y-27370000D02*
X132730000Y-24630000D01*
X131960000Y-26000000D02*
X132730000Y-26000000D01*
X139270000Y-27370000D02*
X132730000Y-27370000D01*
X139270000Y-24630000D02*
X139270000Y-27370000D01*
X132730000Y-24630000D02*
X139270000Y-24630000D01*
X139270000Y-70130000D02*
X139270000Y-72870000D01*
X131960000Y-71500000D02*
X132730000Y-71500000D01*
X132730000Y-70130000D02*
X139270000Y-70130000D01*
X140040000Y-71500000D02*
X139270000Y-71500000D01*
X132730000Y-72870000D02*
X132730000Y-70130000D01*
X139270000Y-72870000D02*
X132730000Y-72870000D01*
X132730000Y-65870000D02*
X132730000Y-63130000D01*
X139270000Y-65870000D02*
X132730000Y-65870000D01*
X132730000Y-63130000D02*
X139270000Y-63130000D01*
X131960000Y-64500000D02*
X132730000Y-64500000D01*
X140040000Y-64500000D02*
X139270000Y-64500000D01*
X139270000Y-63130000D02*
X139270000Y-65870000D01*
X164270000Y-31630000D02*
X164270000Y-34370000D01*
X157730000Y-34370000D02*
X157730000Y-31630000D01*
X165040000Y-33000000D02*
X164270000Y-33000000D01*
X156960000Y-33000000D02*
X157730000Y-33000000D01*
X157730000Y-31630000D02*
X164270000Y-31630000D01*
X164270000Y-34370000D02*
X157730000Y-34370000D01*
X116549000Y-142540000D02*
X116549000Y-143880000D01*
X117989000Y-142540000D02*
X117989000Y-144641000D01*
X117269000Y-138624000D02*
X117269000Y-140460000D01*
X118510000Y-138278000D02*
X118510000Y-140460000D01*
X115869000Y-139991000D02*
X115869000Y-143009000D01*
X116749000Y-138952000D02*
X116749000Y-140460000D01*
X117029000Y-142540000D02*
X117029000Y-144242000D01*
X115669000Y-140441000D02*
X115669000Y-142559000D01*
X118070000Y-138341000D02*
X118070000Y-140460000D01*
X116269000Y-139408000D02*
X116269000Y-143592000D01*
X117749000Y-138426000D02*
X117749000Y-140460000D01*
X116669000Y-142540000D02*
X116669000Y-143984000D01*
X117109000Y-138710000D02*
X117109000Y-140460000D01*
X118350000Y-138294000D02*
X118350000Y-140460000D01*
X117789000Y-138414000D02*
X117789000Y-140460000D01*
X117549000Y-138498000D02*
X117549000Y-140460000D01*
X118190000Y-142540000D02*
X118190000Y-144682000D01*
X116829000Y-138893000D02*
X116829000Y-140460000D01*
X116229000Y-139456000D02*
X116229000Y-143544000D01*
X118350000Y-142540000D02*
X118350000Y-144706000D01*
X117629000Y-142540000D02*
X117629000Y-144533000D01*
X116509000Y-139157000D02*
X116509000Y-140460000D01*
X118310000Y-142540000D02*
X118310000Y-144701000D01*
X116469000Y-139195000D02*
X116469000Y-140460000D01*
X117789000Y-142540000D02*
X117789000Y-144586000D01*
X117909000Y-138379000D02*
X117909000Y-140460000D01*
X117749000Y-142540000D02*
X117749000Y-144574000D01*
X118110000Y-142540000D02*
X118110000Y-144667000D01*
X116109000Y-139610000D02*
X116109000Y-143390000D01*
X117669000Y-138453000D02*
X117669000Y-140460000D01*
X117349000Y-142540000D02*
X117349000Y-144416000D01*
X118310000Y-138299000D02*
X118310000Y-140460000D01*
X117709000Y-142540000D02*
X117709000Y-144561000D01*
X117949000Y-142540000D02*
X117949000Y-144631000D01*
X118710000Y-138270000D02*
X118710000Y-144730000D01*
X115949000Y-139850000D02*
X115949000Y-143150000D01*
X117989000Y-138359000D02*
X117989000Y-140460000D01*
X117709000Y-138439000D02*
X117709000Y-140460000D01*
X116549000Y-139120000D02*
X116549000Y-140460000D01*
X118590000Y-138273000D02*
X118590000Y-144727000D01*
X115549000Y-140867000D02*
X115549000Y-142133000D01*
X117069000Y-142540000D02*
X117069000Y-144266000D01*
X115749000Y-140238000D02*
X115749000Y-142762000D01*
X117829000Y-138402000D02*
X117829000Y-140460000D01*
X117429000Y-142540000D02*
X117429000Y-144452000D01*
X116709000Y-142540000D02*
X116709000Y-144016000D01*
X118510000Y-142540000D02*
X118510000Y-144722000D01*
X117509000Y-138514000D02*
X117509000Y-140460000D01*
X116949000Y-142540000D02*
X116949000Y-144190000D01*
X117669000Y-142540000D02*
X117669000Y-144547000D01*
X118390000Y-138289000D02*
X118390000Y-140460000D01*
X117389000Y-142540000D02*
X117389000Y-144434000D01*
X116629000Y-139050000D02*
X116629000Y-140460000D01*
X116869000Y-138864000D02*
X116869000Y-140460000D01*
X117829000Y-142540000D02*
X117829000Y-144598000D01*
X118150000Y-138325000D02*
X118150000Y-140460000D01*
X116469000Y-142540000D02*
X116469000Y-143805000D01*
X116189000Y-139505000D02*
X116189000Y-143495000D01*
X115709000Y-140335000D02*
X115709000Y-142665000D01*
X117069000Y-138734000D02*
X117069000Y-140460000D01*
X117469000Y-142540000D02*
X117469000Y-144470000D01*
X118270000Y-142540000D02*
X118270000Y-144695000D01*
X116989000Y-138784000D02*
X116989000Y-140460000D01*
X116749000Y-142540000D02*
X116749000Y-144048000D01*
X118029000Y-138350000D02*
X118029000Y-140460000D01*
X115789000Y-140150000D02*
X115789000Y-142850000D01*
X116349000Y-139318000D02*
X116349000Y-143682000D01*
X118029000Y-142540000D02*
X118029000Y-144650000D01*
X117389000Y-138566000D02*
X117389000Y-140460000D01*
X116589000Y-142540000D02*
X116589000Y-143916000D01*
X116789000Y-138922000D02*
X116789000Y-140460000D01*
X116509000Y-142540000D02*
X116509000Y-143843000D01*
X116829000Y-142540000D02*
X116829000Y-144107000D01*
X116869000Y-142540000D02*
X116869000Y-144136000D01*
X115629000Y-140560000D02*
X115629000Y-142440000D01*
X117869000Y-138390000D02*
X117869000Y-140460000D01*
X118390000Y-142540000D02*
X118390000Y-144711000D01*
X122250241Y-139661000D02*
X121620241Y-139661000D01*
X117429000Y-138548000D02*
X117429000Y-140460000D01*
X118110000Y-138333000D02*
X118110000Y-140460000D01*
X118230000Y-138311000D02*
X118230000Y-140460000D01*
X117309000Y-138604000D02*
X117309000Y-140460000D01*
X116149000Y-139556000D02*
X116149000Y-143444000D01*
X118670000Y-138270000D02*
X118670000Y-144730000D01*
X118430000Y-138285000D02*
X118430000Y-140460000D01*
X118630000Y-138272000D02*
X118630000Y-144728000D01*
X117549000Y-142540000D02*
X117549000Y-144502000D01*
X116309000Y-139363000D02*
X116309000Y-143637000D01*
X121935241Y-139346000D02*
X121935241Y-139976000D01*
X116589000Y-139084000D02*
X116589000Y-140460000D01*
X116629000Y-142540000D02*
X116629000Y-143950000D01*
X116949000Y-138810000D02*
X116949000Y-140460000D01*
X116029000Y-139724000D02*
X116029000Y-143276000D01*
X117149000Y-142540000D02*
X117149000Y-144312000D01*
X115829000Y-140068000D02*
X115829000Y-142932000D01*
X117629000Y-138467000D02*
X117629000Y-140460000D01*
X115589000Y-140698000D02*
X115589000Y-142302000D01*
X118150000Y-142540000D02*
X118150000Y-144675000D01*
X118470000Y-138282000D02*
X118470000Y-140460000D01*
X116669000Y-139016000D02*
X116669000Y-140460000D01*
X116789000Y-142540000D02*
X116789000Y-144078000D01*
X117509000Y-142540000D02*
X117509000Y-144486000D01*
X117589000Y-138482000D02*
X117589000Y-140460000D01*
X115989000Y-139786000D02*
X115989000Y-143214000D01*
X117589000Y-142540000D02*
X117589000Y-144518000D01*
X117909000Y-142540000D02*
X117909000Y-144621000D01*
X117309000Y-142540000D02*
X117309000Y-144396000D01*
X118190000Y-138318000D02*
X118190000Y-140460000D01*
X115909000Y-139919000D02*
X115909000Y-143081000D01*
X117869000Y-142540000D02*
X117869000Y-144610000D01*
X118750000Y-138270000D02*
X118750000Y-144730000D01*
X117229000Y-142540000D02*
X117229000Y-144356000D01*
X116389000Y-139276000D02*
X116389000Y-143724000D01*
X117269000Y-142540000D02*
X117269000Y-144376000D01*
X118430000Y-142540000D02*
X118430000Y-144715000D01*
X116709000Y-138984000D02*
X116709000Y-140460000D01*
X116069000Y-139666000D02*
X116069000Y-143334000D01*
X117029000Y-138758000D02*
X117029000Y-140460000D01*
X118550000Y-138276000D02*
X118550000Y-144724000D01*
X117189000Y-138666000D02*
X117189000Y-140460000D01*
X116989000Y-142540000D02*
X116989000Y-144216000D01*
X117229000Y-138644000D02*
X117229000Y-140460000D01*
X117469000Y-138530000D02*
X117469000Y-140460000D01*
X118230000Y-142540000D02*
X118230000Y-144689000D01*
X116429000Y-139235000D02*
X116429000Y-143765000D01*
X117189000Y-142540000D02*
X117189000Y-144334000D01*
X115509000Y-141098000D02*
X115509000Y-141902000D01*
X117109000Y-142540000D02*
X117109000Y-144290000D01*
X116909000Y-138836000D02*
X116909000Y-140460000D01*
X118270000Y-138305000D02*
X118270000Y-140460000D01*
X117949000Y-138369000D02*
X117949000Y-140460000D01*
X117149000Y-138688000D02*
X117149000Y-140460000D01*
X116909000Y-142540000D02*
X116909000Y-144164000D01*
X117349000Y-138584000D02*
X117349000Y-140460000D01*
X118470000Y-142540000D02*
X118470000Y-144718000D01*
X118070000Y-142540000D02*
X118070000Y-144659000D01*
X122020000Y-141500000D02*
G75*
G03*
X122020000Y-141500000I-3270000J0D01*
G01*
X128230000Y-113870000D02*
X128230000Y-111130000D01*
X128230000Y-111130000D02*
X134770000Y-111130000D01*
X134770000Y-111130000D02*
X134770000Y-113870000D01*
X135540000Y-112500000D02*
X134770000Y-112500000D01*
X127460000Y-112500000D02*
X128230000Y-112500000D01*
X134770000Y-113870000D02*
X128230000Y-113870000D01*
X140040000Y-57500000D02*
X139270000Y-57500000D01*
X139270000Y-58870000D02*
X132730000Y-58870000D01*
X131960000Y-57500000D02*
X132730000Y-57500000D01*
X132730000Y-58870000D02*
X132730000Y-56130000D01*
X139270000Y-56130000D02*
X139270000Y-58870000D01*
X132730000Y-56130000D02*
X139270000Y-56130000D01*
X123937600Y-146080000D02*
X123937600Y-149920000D01*
X118697600Y-146080000D02*
X123937600Y-146080000D01*
X123937600Y-149920000D02*
X118697600Y-149920000D01*
X125317600Y-148000000D02*
X123937600Y-148000000D01*
X118697600Y-149920000D02*
X118697600Y-146080000D01*
X117317600Y-148000000D02*
X118697600Y-148000000D01*
X110940000Y-68170000D02*
X112190000Y-68170000D01*
X115440000Y-88610000D02*
X110940000Y-88610000D01*
X118440000Y-88670000D02*
X107940000Y-88670000D01*
X114190000Y-68170000D02*
X115440000Y-68170000D01*
X107940000Y-68110000D02*
X118440000Y-68110000D01*
X107940000Y-88670000D02*
X107940000Y-68110000D01*
X115440000Y-68170000D02*
X115440000Y-88610000D01*
X118440000Y-68110000D02*
X118440000Y-88670000D01*
X110940000Y-88610000D02*
X110940000Y-68170000D01*
X112190000Y-68170000D02*
G75*
G03*
X114190000Y-68170000I1000000J0D01*
G01*
X165040000Y-61000000D02*
X164270000Y-61000000D01*
X157730000Y-59630000D02*
X164270000Y-59630000D01*
X164270000Y-59630000D02*
X164270000Y-62370000D01*
X156960000Y-61000000D02*
X157730000Y-61000000D01*
X157730000Y-62370000D02*
X157730000Y-59630000D01*
X164270000Y-62370000D02*
X157730000Y-62370000D01*
X128230000Y-161130000D02*
X134770000Y-161130000D01*
X127460000Y-162500000D02*
X128230000Y-162500000D01*
X134770000Y-161130000D02*
X134770000Y-163870000D01*
X135540000Y-162500000D02*
X134770000Y-162500000D01*
X128230000Y-163870000D02*
X128230000Y-161130000D01*
X134770000Y-163870000D02*
X128230000Y-163870000D01*
X132730000Y-31630000D02*
X139270000Y-31630000D01*
X132730000Y-34370000D02*
X132730000Y-31630000D01*
X139270000Y-31630000D02*
X139270000Y-34370000D01*
X140040000Y-33000000D02*
X139270000Y-33000000D01*
X139270000Y-34370000D02*
X132730000Y-34370000D01*
X131960000Y-33000000D02*
X132730000Y-33000000D01*
X109840000Y-168230000D02*
X109840000Y-172871000D01*
X120080000Y-168230000D02*
X120080000Y-172871000D01*
X120080000Y-172871000D02*
X109840000Y-172871000D01*
X113109000Y-168230000D02*
X113109000Y-169740000D01*
X120080000Y-168230000D02*
X109840000Y-168230000D01*
X120080000Y-169740000D02*
X109840000Y-169740000D01*
X116810000Y-168230000D02*
X116810000Y-169740000D01*
X165040000Y-26000000D02*
X164270000Y-26000000D01*
X164270000Y-27370000D02*
X157730000Y-27370000D01*
X164270000Y-24630000D02*
X164270000Y-27370000D01*
X157730000Y-24630000D02*
X164270000Y-24630000D01*
X156960000Y-26000000D02*
X157730000Y-26000000D01*
X157730000Y-27370000D02*
X157730000Y-24630000D01*
X153230000Y-163870000D02*
X153230000Y-161130000D01*
X153230000Y-161130000D02*
X159770000Y-161130000D01*
X159770000Y-163870000D02*
X153230000Y-163870000D01*
X159770000Y-161130000D02*
X159770000Y-163870000D01*
X152460000Y-162500000D02*
X153230000Y-162500000D01*
X160540000Y-162500000D02*
X159770000Y-162500000D01*
X157730000Y-70130000D02*
X164270000Y-70130000D01*
X165040000Y-71500000D02*
X164270000Y-71500000D01*
X157730000Y-72870000D02*
X157730000Y-70130000D01*
X164270000Y-72870000D02*
X157730000Y-72870000D01*
X164270000Y-70130000D02*
X164270000Y-72870000D01*
X156960000Y-71500000D02*
X157730000Y-71500000D01*
X126960000Y-137500000D02*
X127730000Y-137500000D01*
X134270000Y-138870000D02*
X127730000Y-138870000D01*
X135040000Y-137500000D02*
X134270000Y-137500000D01*
X134270000Y-136130000D02*
X134270000Y-138870000D01*
X127730000Y-136130000D02*
X134270000Y-136130000D01*
X127730000Y-138870000D02*
X127730000Y-136130000D01*
X139270000Y-23870000D02*
X132730000Y-23870000D01*
X140040000Y-22500000D02*
X139270000Y-22500000D01*
X139270000Y-21130000D02*
X139270000Y-23870000D01*
X132730000Y-23870000D02*
X132730000Y-21130000D01*
X131960000Y-22500000D02*
X132730000Y-22500000D01*
X132730000Y-21130000D02*
X139270000Y-21130000D01*
X157730000Y-58870000D02*
X157730000Y-56130000D01*
X164270000Y-58870000D02*
X157730000Y-58870000D01*
X164270000Y-56130000D02*
X164270000Y-58870000D01*
X157730000Y-56130000D02*
X164270000Y-56130000D01*
X156960000Y-57500000D02*
X157730000Y-57500000D01*
X165040000Y-57500000D02*
X164270000Y-57500000D01*
X123937600Y-154920000D02*
X118697600Y-154920000D01*
X118697600Y-151080000D02*
X123937600Y-151080000D01*
X118697600Y-154920000D02*
X118697600Y-151080000D01*
X125317600Y-153000000D02*
X123937600Y-153000000D01*
X123937600Y-151080000D02*
X123937600Y-154920000D01*
X117317600Y-153000000D02*
X118697600Y-153000000D01*
X155280000Y-55370000D02*
X155280000Y-52630000D01*
X162720000Y-55370000D02*
X162720000Y-52630000D01*
X155280000Y-55370000D02*
X162720000Y-55370000D01*
X155280000Y-52630000D02*
X162720000Y-52630000D01*
X139270000Y-66630000D02*
X139270000Y-69370000D01*
X140040000Y-68000000D02*
X139270000Y-68000000D01*
X132730000Y-69370000D02*
X132730000Y-66630000D01*
X131960000Y-68000000D02*
X132730000Y-68000000D01*
X139270000Y-69370000D02*
X132730000Y-69370000D01*
X132730000Y-66630000D02*
X139270000Y-66630000D01*
X165040000Y-64500000D02*
X164270000Y-64500000D01*
X164270000Y-63130000D02*
X164270000Y-65870000D01*
X157730000Y-63130000D02*
X164270000Y-63130000D01*
X156960000Y-64500000D02*
X157730000Y-64500000D01*
X157730000Y-65870000D02*
X157730000Y-63130000D01*
X164270000Y-65870000D02*
X157730000Y-65870000D01*
X164270000Y-41370000D02*
X157730000Y-41370000D01*
X157730000Y-38630000D02*
X164270000Y-38630000D01*
X165040000Y-40000000D02*
X164270000Y-40000000D01*
X157730000Y-41370000D02*
X157730000Y-38630000D01*
X164270000Y-38630000D02*
X164270000Y-41370000D01*
X156960000Y-40000000D02*
X157730000Y-40000000D01*
X128230000Y-86130000D02*
X134770000Y-86130000D01*
X127460000Y-87500000D02*
X128230000Y-87500000D01*
X135540000Y-87500000D02*
X134770000Y-87500000D01*
X128230000Y-88870000D02*
X128230000Y-86130000D01*
X134770000Y-88870000D02*
X128230000Y-88870000D01*
X134770000Y-86130000D02*
X134770000Y-88870000D01*
X139270000Y-62370000D02*
X132730000Y-62370000D01*
X131960000Y-61000000D02*
X132730000Y-61000000D01*
X132730000Y-62370000D02*
X132730000Y-59630000D01*
X132730000Y-59630000D02*
X139270000Y-59630000D01*
X139270000Y-59630000D02*
X139270000Y-62370000D01*
X140040000Y-61000000D02*
X139270000Y-61000000D01*
X156960000Y-68000000D02*
X157730000Y-68000000D01*
X157730000Y-66630000D02*
X164270000Y-66630000D01*
X165040000Y-68000000D02*
X164270000Y-68000000D01*
X164270000Y-66630000D02*
X164270000Y-69370000D01*
X164270000Y-69370000D02*
X157730000Y-69370000D01*
X157730000Y-69370000D02*
X157730000Y-66630000D01*
X116720000Y-64630000D02*
X109280000Y-64630000D01*
X116720000Y-67370000D02*
X109280000Y-67370000D01*
X116720000Y-64630000D02*
X116720000Y-67370000D01*
X109280000Y-64630000D02*
X109280000Y-67370000D01*
X131960000Y-47000000D02*
X132730000Y-47000000D01*
X132730000Y-45630000D02*
X139270000Y-45630000D01*
X140040000Y-47000000D02*
X139270000Y-47000000D01*
X139270000Y-48370000D02*
X132730000Y-48370000D01*
X139270000Y-45630000D02*
X139270000Y-48370000D01*
X132730000Y-48370000D02*
X132730000Y-45630000D01*
X134280000Y-28130000D02*
X134280000Y-30870000D01*
X141720000Y-30870000D02*
X134280000Y-30870000D01*
X141720000Y-28130000D02*
X141720000Y-30870000D01*
X141720000Y-28130000D02*
X134280000Y-28130000D01*
X160270000Y-138870000D02*
X153730000Y-138870000D01*
X153730000Y-136130000D02*
X160270000Y-136130000D01*
X160270000Y-136130000D02*
X160270000Y-138870000D01*
X152960000Y-137500000D02*
X153730000Y-137500000D01*
X161040000Y-137500000D02*
X160270000Y-137500000D01*
X153730000Y-138870000D02*
X153730000Y-136130000D01*
X139270000Y-44870000D02*
X132730000Y-44870000D01*
X132730000Y-44870000D02*
X132730000Y-42130000D01*
X132730000Y-42130000D02*
X139270000Y-42130000D01*
X139270000Y-42130000D02*
X139270000Y-44870000D01*
X131960000Y-43500000D02*
X132730000Y-43500000D01*
X140040000Y-43500000D02*
X139270000Y-43500000D01*
X153230000Y-111130000D02*
X159770000Y-111130000D01*
X160540000Y-112500000D02*
X159770000Y-112500000D01*
X152460000Y-112500000D02*
X153230000Y-112500000D01*
X159770000Y-113870000D02*
X153230000Y-113870000D01*
X153230000Y-113870000D02*
X153230000Y-111130000D01*
X159770000Y-111130000D02*
X159770000Y-113870000D01*
X150740000Y-45045000D02*
X150740000Y-62945000D01*
X153740000Y-63005000D02*
X143240000Y-63005000D01*
X146240000Y-62945000D02*
X146240000Y-45045000D01*
X143240000Y-44985000D02*
X153740000Y-44985000D01*
X146240000Y-45045000D02*
X147490000Y-45045000D01*
X153740000Y-44985000D02*
X153740000Y-63005000D01*
X143240000Y-63005000D02*
X143240000Y-44985000D01*
X150740000Y-62945000D02*
X146240000Y-62945000D01*
X149490000Y-45045000D02*
X150740000Y-45045000D01*
X147490000Y-45045000D02*
G75*
G03*
X149490000Y-45045000I1000000J0D01*
G01*
X140040000Y-50500000D02*
X139270000Y-50500000D01*
X131960000Y-50500000D02*
X132730000Y-50500000D01*
X132730000Y-49130000D02*
X139270000Y-49130000D01*
X139270000Y-49130000D02*
X139270000Y-51870000D01*
X139270000Y-51870000D02*
X132730000Y-51870000D01*
X132730000Y-51870000D02*
X132730000Y-49130000D01*
X132730000Y-20370000D02*
X132730000Y-17630000D01*
X131960000Y-19000000D02*
X132730000Y-19000000D01*
X140040000Y-19000000D02*
X139270000Y-19000000D01*
X132730000Y-17630000D02*
X139270000Y-17630000D01*
X139270000Y-20370000D02*
X132730000Y-20370000D01*
X139270000Y-17630000D02*
X139270000Y-20370000D01*
X159770000Y-88870000D02*
X153230000Y-88870000D01*
X160540000Y-87500000D02*
X159770000Y-87500000D01*
X153230000Y-88870000D02*
X153230000Y-86130000D01*
X152460000Y-87500000D02*
X153230000Y-87500000D01*
X159770000Y-86130000D02*
X159770000Y-88870000D01*
X153230000Y-86130000D02*
X159770000Y-86130000D01*
X139270000Y-41370000D02*
X132730000Y-41370000D01*
X132730000Y-38630000D02*
X139270000Y-38630000D01*
X139270000Y-38630000D02*
X139270000Y-41370000D01*
X132730000Y-41370000D02*
X132730000Y-38630000D01*
X131960000Y-40000000D02*
X132730000Y-40000000D01*
X140040000Y-40000000D02*
X139270000Y-40000000D01*
X120948600Y-158960000D02*
X120948600Y-157364000D01*
X120548600Y-158960000D02*
X120548600Y-157124000D01*
X119988600Y-158960000D02*
X119988600Y-156902000D01*
X119948600Y-163110000D02*
X119948600Y-161040000D01*
X120148600Y-163047000D02*
X120148600Y-161040000D01*
X120988600Y-158960000D02*
X120988600Y-157393000D01*
X120468600Y-162916000D02*
X120468600Y-161040000D01*
X119747600Y-158960000D02*
X119747600Y-156841000D01*
X119707600Y-163167000D02*
X119707600Y-161040000D01*
X120348600Y-158960000D02*
X120348600Y-157030000D01*
X119587600Y-163189000D02*
X119587600Y-161040000D01*
X121668600Y-161944000D02*
X121668600Y-158056000D01*
X121748600Y-161834000D02*
X121748600Y-158166000D01*
X121108600Y-162516000D02*
X121108600Y-161040000D01*
X120548600Y-162876000D02*
X120548600Y-161040000D01*
X119828600Y-158960000D02*
X119828600Y-156859000D01*
X119347600Y-163218000D02*
X119347600Y-161040000D01*
X119988600Y-163098000D02*
X119988600Y-161040000D01*
X120068600Y-158960000D02*
X120068600Y-156926000D01*
X119307600Y-163222000D02*
X119307600Y-161040000D01*
X121068600Y-162548000D02*
X121068600Y-161040000D01*
X120508600Y-158960000D02*
X120508600Y-157104000D01*
X119187600Y-163228000D02*
X119187600Y-156772000D01*
X119868600Y-158960000D02*
X119868600Y-156869000D01*
X121628600Y-161995000D02*
X121628600Y-158005000D01*
X120188600Y-158960000D02*
X120188600Y-156967000D01*
X121268600Y-162380000D02*
X121268600Y-161040000D01*
X120428600Y-158960000D02*
X120428600Y-157066000D01*
X122028600Y-161350000D02*
X122028600Y-158650000D01*
X121228600Y-162416000D02*
X121228600Y-161040000D01*
X121308600Y-162343000D02*
X121308600Y-161040000D01*
X120268600Y-158960000D02*
X120268600Y-156998000D01*
X120828600Y-162716000D02*
X120828600Y-161040000D01*
X122068600Y-161262000D02*
X122068600Y-158738000D01*
X120708600Y-158960000D02*
X120708600Y-157210000D01*
X119227600Y-163227000D02*
X119227600Y-156773000D01*
X121348600Y-158960000D02*
X121348600Y-157695000D01*
X119467600Y-158960000D02*
X119467600Y-156794000D01*
X121268600Y-158960000D02*
X121268600Y-157620000D01*
X120388600Y-158960000D02*
X120388600Y-157048000D01*
X120748600Y-158960000D02*
X120748600Y-157234000D01*
X121788600Y-161776000D02*
X121788600Y-158224000D01*
X119587600Y-158960000D02*
X119587600Y-156811000D01*
X119948600Y-158960000D02*
X119948600Y-156890000D01*
X122148600Y-161059000D02*
X122148600Y-158941000D01*
X119788600Y-163150000D02*
X119788600Y-161040000D01*
X120628600Y-158960000D02*
X120628600Y-157166000D01*
X115882359Y-162154000D02*
X115882359Y-161524000D01*
X119547600Y-163195000D02*
X119547600Y-161040000D01*
X115567359Y-161839000D02*
X116197359Y-161839000D01*
X119908600Y-158960000D02*
X119908600Y-156879000D01*
X121508600Y-162137000D02*
X121508600Y-157863000D01*
X119347600Y-158960000D02*
X119347600Y-156782000D01*
X119747600Y-163159000D02*
X119747600Y-161040000D01*
X119507600Y-163201000D02*
X119507600Y-161040000D01*
X122188600Y-160940000D02*
X122188600Y-159060000D01*
X120908600Y-162664000D02*
X120908600Y-161040000D01*
X120588600Y-158960000D02*
X120588600Y-157144000D01*
X119067600Y-163230000D02*
X119067600Y-156770000D01*
X120068600Y-163074000D02*
X120068600Y-161040000D01*
X122268600Y-160633000D02*
X122268600Y-159367000D01*
X121348600Y-162305000D02*
X121348600Y-161040000D01*
X119427600Y-158960000D02*
X119427600Y-156789000D01*
X122228600Y-160802000D02*
X122228600Y-159198000D01*
X121148600Y-158960000D02*
X121148600Y-157516000D01*
X120308600Y-162986000D02*
X120308600Y-161040000D01*
X120668600Y-162812000D02*
X120668600Y-161040000D01*
X121588600Y-162044000D02*
X121588600Y-157956000D01*
X120988600Y-162607000D02*
X120988600Y-161040000D01*
X122108600Y-161165000D02*
X122108600Y-158835000D01*
X119507600Y-158960000D02*
X119507600Y-156799000D01*
X120028600Y-158960000D02*
X120028600Y-156914000D01*
X120028600Y-163086000D02*
X120028600Y-161040000D01*
X120948600Y-162636000D02*
X120948600Y-161040000D01*
X119147600Y-163230000D02*
X119147600Y-156770000D01*
X119387600Y-163215000D02*
X119387600Y-161040000D01*
X120628600Y-162834000D02*
X120628600Y-161040000D01*
X121828600Y-161714000D02*
X121828600Y-158286000D01*
X120868600Y-162690000D02*
X120868600Y-161040000D01*
X119547600Y-158960000D02*
X119547600Y-156805000D01*
X120388600Y-162952000D02*
X120388600Y-161040000D01*
X121188600Y-158960000D02*
X121188600Y-157550000D01*
X121868600Y-161650000D02*
X121868600Y-158350000D01*
X119828600Y-163141000D02*
X119828600Y-161040000D01*
X119267600Y-163224000D02*
X119267600Y-156776000D01*
X120268600Y-163002000D02*
X120268600Y-161040000D01*
X119667600Y-158960000D02*
X119667600Y-156825000D01*
X120188600Y-163033000D02*
X120188600Y-161040000D01*
X119627600Y-163182000D02*
X119627600Y-161040000D01*
X121308600Y-158960000D02*
X121308600Y-157657000D01*
X121548600Y-162092000D02*
X121548600Y-157908000D01*
X120108600Y-163061000D02*
X120108600Y-161040000D01*
X119107600Y-163230000D02*
X119107600Y-156770000D01*
X119868600Y-163131000D02*
X119868600Y-161040000D01*
X120228600Y-163018000D02*
X120228600Y-161040000D01*
X121708600Y-161890000D02*
X121708600Y-158110000D01*
X120348600Y-162970000D02*
X120348600Y-161040000D01*
X120788600Y-158960000D02*
X120788600Y-157258000D01*
X121428600Y-162224000D02*
X121428600Y-157776000D01*
X120108600Y-158960000D02*
X120108600Y-156939000D01*
X120428600Y-162934000D02*
X120428600Y-161040000D01*
X120508600Y-162896000D02*
X120508600Y-161040000D01*
X121068600Y-158960000D02*
X121068600Y-157452000D01*
X120828600Y-158960000D02*
X120828600Y-157284000D01*
X122308600Y-160402000D02*
X122308600Y-159598000D01*
X119307600Y-158960000D02*
X119307600Y-156778000D01*
X121028600Y-162578000D02*
X121028600Y-161040000D01*
X120308600Y-158960000D02*
X120308600Y-157014000D01*
X119467600Y-163206000D02*
X119467600Y-161040000D01*
X120228600Y-158960000D02*
X120228600Y-156982000D01*
X120588600Y-162856000D02*
X120588600Y-161040000D01*
X119387600Y-158960000D02*
X119387600Y-156785000D01*
X119707600Y-158960000D02*
X119707600Y-156833000D01*
X120868600Y-158960000D02*
X120868600Y-157310000D01*
X120708600Y-162790000D02*
X120708600Y-161040000D01*
X120468600Y-158960000D02*
X120468600Y-157084000D01*
X120668600Y-158960000D02*
X120668600Y-157188000D01*
X121468600Y-162182000D02*
X121468600Y-157818000D01*
X119908600Y-163121000D02*
X119908600Y-161040000D01*
X120908600Y-158960000D02*
X120908600Y-157336000D01*
X119627600Y-158960000D02*
X119627600Y-156818000D01*
X121988600Y-161432000D02*
X121988600Y-158568000D01*
X119788600Y-158960000D02*
X119788600Y-156850000D01*
X121908600Y-161581000D02*
X121908600Y-158419000D01*
X121948600Y-161509000D02*
X121948600Y-158491000D01*
X120148600Y-158960000D02*
X120148600Y-156953000D01*
X121028600Y-158960000D02*
X121028600Y-157422000D01*
X119667600Y-163175000D02*
X119667600Y-161040000D01*
X121148600Y-162484000D02*
X121148600Y-161040000D01*
X120788600Y-162742000D02*
X120788600Y-161040000D01*
X121228600Y-158960000D02*
X121228600Y-157584000D01*
X121188600Y-162450000D02*
X121188600Y-161040000D01*
X119427600Y-163211000D02*
X119427600Y-161040000D01*
X120748600Y-162766000D02*
X120748600Y-161040000D01*
X121388600Y-162265000D02*
X121388600Y-157735000D01*
X121108600Y-158960000D02*
X121108600Y-157484000D01*
X122337600Y-160000000D02*
G75*
G03*
X122337600Y-160000000I-3270000J0D01*
G01*
X150740000Y-38445000D02*
X146240000Y-38445000D01*
X143240000Y-38505000D02*
X143240000Y-20485000D01*
X153740000Y-38505000D02*
X143240000Y-38505000D01*
X143240000Y-20485000D02*
X153740000Y-20485000D01*
X150740000Y-20545000D02*
X150740000Y-38445000D01*
X149490000Y-20545000D02*
X150740000Y-20545000D01*
X153740000Y-20485000D02*
X153740000Y-38505000D01*
X146240000Y-38445000D02*
X146240000Y-20545000D01*
X146240000Y-20545000D02*
X147490000Y-20545000D01*
X147490000Y-20545000D02*
G75*
G03*
X149490000Y-20545000I1000000J0D01*
G01*
X165040000Y-22500000D02*
X164270000Y-22500000D01*
X164270000Y-21130000D02*
X164270000Y-23870000D01*
X157730000Y-23870000D02*
X157730000Y-21130000D01*
X157730000Y-21130000D02*
X164270000Y-21130000D01*
X164270000Y-23870000D02*
X157730000Y-23870000D01*
X156960000Y-22500000D02*
X157730000Y-22500000D01*
X157730000Y-49130000D02*
X164270000Y-49130000D01*
X165040000Y-50500000D02*
X164270000Y-50500000D01*
X164270000Y-51870000D02*
X157730000Y-51870000D01*
X164270000Y-49130000D02*
X164270000Y-51870000D01*
X156960000Y-50500000D02*
X157730000Y-50500000D01*
X157730000Y-51870000D02*
X157730000Y-49130000D01*
X157730000Y-48370000D02*
X157730000Y-45630000D01*
X165040000Y-47000000D02*
X164270000Y-47000000D01*
X164270000Y-45630000D02*
X164270000Y-48370000D01*
X164270000Y-48370000D02*
X157730000Y-48370000D01*
X156960000Y-47000000D02*
X157730000Y-47000000D01*
X157730000Y-45630000D02*
X164270000Y-45630000D01*
X125800000Y-74210000D02*
X122200000Y-74210000D01*
X125800000Y-74210000D02*
G75*
G03*
X126324184Y-73482795I-1800000J1850000D01*
G01*
X126356400Y-71261193D02*
G75*
G03*
X124000000Y-69760000I-2356400J-1098807D01*
G01*
X121675816Y-73482795D02*
G75*
G03*
X122200000Y-74210000I2324184J1122795D01*
G01*
X124000000Y-69760000D02*
G75*
G03*
X121643600Y-71261193I0J-2600000D01*
G01*
X155280000Y-30870000D02*
X155280000Y-28130000D01*
X155280000Y-28130000D02*
X162720000Y-28130000D01*
X155280000Y-30870000D02*
X162720000Y-30870000D01*
X162720000Y-30870000D02*
X162720000Y-28130000D01*
X141720000Y-55370000D02*
X134280000Y-55370000D01*
X141720000Y-52630000D02*
X141720000Y-55370000D01*
X141720000Y-52630000D02*
X134280000Y-52630000D01*
X134280000Y-52630000D02*
X134280000Y-55370000D01*
X109030000Y-19730000D02*
X106360000Y-19730000D01*
X124400000Y-17060000D02*
X124400000Y-19730000D01*
X124400000Y-60500000D02*
X106360000Y-60500000D01*
X121730000Y-22270000D02*
X124400000Y-22270000D01*
X109030000Y-19730000D02*
X109030000Y-57830000D01*
X121730000Y-57830000D02*
X124400000Y-57830000D01*
X121730000Y-22270000D02*
X121730000Y-57830000D01*
X106360000Y-60500000D02*
X106360000Y-17060000D01*
X121730000Y-22270000D02*
X121730000Y-19730000D01*
X124400000Y-22270000D02*
X124400000Y-60500000D01*
X109030000Y-57830000D02*
X106360000Y-57830000D01*
X106360000Y-17060000D02*
X124400000Y-17060000D01*
X121730000Y-19730000D02*
X124400000Y-19730000D01*
X132730000Y-37870000D02*
X132730000Y-35130000D01*
X132730000Y-35130000D02*
X139270000Y-35130000D01*
X140040000Y-36500000D02*
X139270000Y-36500000D01*
X131960000Y-36500000D02*
X132730000Y-36500000D01*
X139270000Y-35130000D02*
X139270000Y-37870000D01*
X139270000Y-37870000D02*
X132730000Y-37870000D01*
X157730000Y-20370000D02*
X157730000Y-17630000D01*
X157730000Y-17630000D02*
X164270000Y-17630000D01*
X156960000Y-19000000D02*
X157730000Y-19000000D01*
X164270000Y-17630000D02*
X164270000Y-20370000D01*
X164270000Y-20370000D02*
X157730000Y-20370000D01*
X165040000Y-19000000D02*
X164270000Y-19000000D01*
X104642600Y-160930000D02*
X113992600Y-160930000D01*
X104897600Y-140330000D02*
X104897600Y-160680000D01*
X105447600Y-148250000D02*
X104937600Y-148250000D01*
X113197600Y-140880000D02*
X105447600Y-140880000D01*
X113197600Y-160130000D02*
X113747600Y-160680000D01*
X104947600Y-152750000D02*
X105427600Y-152750000D01*
X113197600Y-140880000D02*
X113747600Y-140330000D01*
X105447600Y-140880000D02*
X105447600Y-148230000D01*
X113197600Y-160130000D02*
X113197600Y-140880000D01*
X113992600Y-140070000D02*
X104642600Y-140070000D01*
X104642600Y-140070000D02*
X104642600Y-160930000D01*
X105447600Y-140880000D02*
X104947600Y-140380000D01*
X105447600Y-160130000D02*
X113197600Y-160130000D01*
X113747600Y-160680000D02*
X113747600Y-140330000D01*
X113992600Y-160930000D02*
X113992600Y-140070000D01*
X113747600Y-140330000D02*
X104897600Y-140330000D01*
X104897600Y-160680000D02*
X105447600Y-160130000D01*
X105447600Y-152750000D02*
X105447600Y-160130000D01*
X104897600Y-160680000D02*
X113747600Y-160680000D01*
X164270000Y-42130000D02*
X164270000Y-44870000D01*
X157730000Y-42130000D02*
X164270000Y-42130000D01*
X164270000Y-44870000D02*
X157730000Y-44870000D01*
X156960000Y-43500000D02*
X157730000Y-43500000D01*
X157730000Y-44870000D02*
X157730000Y-42130000D01*
X165040000Y-43500000D02*
X164270000Y-43500000D01*
X164270000Y-37870000D02*
X157730000Y-37870000D01*
X156960000Y-36500000D02*
X157730000Y-36500000D01*
X165040000Y-36500000D02*
X164270000Y-36500000D01*
X157730000Y-37870000D02*
X157730000Y-35130000D01*
X157730000Y-35130000D02*
X164270000Y-35130000D01*
X164270000Y-35130000D02*
X164270000Y-37870000D01*
%LPC*%
D13*
X163000000Y-118600000D03*
D14*
X168900000Y-122500000D03*
D15*
X167240000Y-129740000D03*
D16*
X156100000Y-125500000D03*
D17*
X160000000Y-131400000D03*
D13*
X113000000Y-93600000D03*
D14*
X118900000Y-97500000D03*
D15*
X117240000Y-104740000D03*
D16*
X106100000Y-100500000D03*
D17*
X110000000Y-106400000D03*
D13*
X163000000Y-93600000D03*
D14*
X168900000Y-97500000D03*
D15*
X167240000Y-104740000D03*
D16*
X156100000Y-100500000D03*
D17*
X160000000Y-106400000D03*
D13*
X163000000Y-143600000D03*
D14*
X168900000Y-147500000D03*
D15*
X167240000Y-154740000D03*
D16*
X156100000Y-150500000D03*
D17*
X160000000Y-156400000D03*
D13*
X138000000Y-143600000D03*
D14*
X143900000Y-147500000D03*
D15*
X142240000Y-154740000D03*
D16*
X131100000Y-150500000D03*
D17*
X135000000Y-156400000D03*
D13*
X113000000Y-118600000D03*
D14*
X118900000Y-122500000D03*
D15*
X117240000Y-129740000D03*
D16*
X106100000Y-125500000D03*
D17*
X110000000Y-131400000D03*
D13*
X138000000Y-168600000D03*
D14*
X143900000Y-172500000D03*
D15*
X142240000Y-179740000D03*
D16*
X131100000Y-175500000D03*
D17*
X135000000Y-181400000D03*
D13*
X138000000Y-118600000D03*
D14*
X143900000Y-122500000D03*
D15*
X142240000Y-129740000D03*
D16*
X131100000Y-125500000D03*
D17*
X135000000Y-131400000D03*
D13*
X163000000Y-168600000D03*
D14*
X168900000Y-172500000D03*
D15*
X167240000Y-179740000D03*
D16*
X156100000Y-175500000D03*
D17*
X160000000Y-181400000D03*
D13*
X138000000Y-93600000D03*
D14*
X143900000Y-97500000D03*
D15*
X142240000Y-104740000D03*
D16*
X131100000Y-100500000D03*
D17*
X135000000Y-106400000D03*
D18*
X141225000Y-87500000D03*
D19*
X143765000Y-87500000D03*
D20*
X112500000Y-25000000D03*
D18*
X141225000Y-112500000D03*
D19*
X143765000Y-112500000D03*
D20*
X162500000Y-75000000D03*
D18*
X141225000Y-162500000D03*
D19*
X143765000Y-162500000D03*
D21*
X123525000Y-77500000D03*
D22*
X126065000Y-77500000D03*
X128605000Y-77500000D03*
X131145000Y-77500000D03*
X133685000Y-77500000D03*
X136225000Y-77500000D03*
X138765000Y-77500000D03*
X141305000Y-77500000D03*
X143845000Y-77500000D03*
X146385000Y-77500000D03*
X148925000Y-77500000D03*
X151465000Y-77500000D03*
D18*
X166225000Y-162500000D03*
D19*
X168765000Y-162500000D03*
D18*
X166225000Y-87500000D03*
D19*
X168765000Y-87500000D03*
D18*
X166225000Y-137500000D03*
D19*
X168765000Y-137500000D03*
D18*
X141225000Y-137500000D03*
D19*
X143765000Y-137500000D03*
D18*
X166225000Y-112500000D03*
D19*
X168765000Y-112500000D03*
D23*
X127810000Y-67000000D03*
D24*
X120190000Y-67000000D03*
D25*
X152040000Y-72360000D03*
D26*
X149500000Y-72360000D03*
X146960000Y-72360000D03*
D23*
X152810000Y-67000000D03*
D24*
X145190000Y-67000000D03*
D27*
X130920000Y-26000000D03*
D24*
X141080000Y-26000000D03*
D27*
X130920000Y-71500000D03*
D24*
X141080000Y-71500000D03*
D27*
X141080000Y-64500000D03*
D24*
X130920000Y-64500000D03*
D27*
X166080000Y-33000000D03*
D24*
X155920000Y-33000000D03*
D23*
X120000000Y-141500000D03*
D27*
X117500000Y-141500000D03*
X126420000Y-112500000D03*
D24*
X136580000Y-112500000D03*
D27*
X141080000Y-57500000D03*
D24*
X130920000Y-57500000D03*
D27*
X116317600Y-148000000D03*
D24*
X126317600Y-148000000D03*
D28*
X117000000Y-69500000D03*
D29*
X117000000Y-72040000D03*
X117000000Y-74580000D03*
X117000000Y-77120000D03*
X117000000Y-79660000D03*
X117000000Y-82200000D03*
X117000000Y-84740000D03*
X117000000Y-87280000D03*
X109380000Y-87280000D03*
X109380000Y-84740000D03*
X109380000Y-82200000D03*
X109380000Y-79660000D03*
X109380000Y-77120000D03*
X109380000Y-74580000D03*
X109380000Y-72040000D03*
X109380000Y-69500000D03*
D27*
X155920000Y-61000000D03*
D24*
X166080000Y-61000000D03*
D27*
X126420000Y-162500000D03*
D24*
X136580000Y-162500000D03*
D27*
X130920000Y-33000000D03*
D24*
X141080000Y-33000000D03*
D30*
X117500000Y-171500000D03*
D31*
X114960000Y-171500000D03*
X112420000Y-171500000D03*
D27*
X166080000Y-26000000D03*
D24*
X155920000Y-26000000D03*
D27*
X151420000Y-162500000D03*
D24*
X161580000Y-162500000D03*
D27*
X155920000Y-71500000D03*
D24*
X166080000Y-71500000D03*
D27*
X125920000Y-137500000D03*
D24*
X136080000Y-137500000D03*
D27*
X141080000Y-22500000D03*
D24*
X130920000Y-22500000D03*
D27*
X166080000Y-57500000D03*
D24*
X155920000Y-57500000D03*
D27*
X116317600Y-153000000D03*
D24*
X126317600Y-153000000D03*
D27*
X156500000Y-54000000D03*
X161500000Y-54000000D03*
X141080000Y-68000000D03*
D24*
X130920000Y-68000000D03*
D27*
X155920000Y-64500000D03*
D24*
X166080000Y-64500000D03*
D27*
X155920000Y-40000000D03*
D24*
X166080000Y-40000000D03*
D27*
X126420000Y-87500000D03*
D24*
X136580000Y-87500000D03*
D27*
X141080000Y-61000000D03*
D24*
X130920000Y-61000000D03*
D27*
X166080000Y-68000000D03*
D24*
X155920000Y-68000000D03*
D27*
X115500000Y-66000000D03*
X110500000Y-66000000D03*
X141080000Y-47000000D03*
D24*
X130920000Y-47000000D03*
D27*
X140500000Y-29500000D03*
X135500000Y-29500000D03*
X151920000Y-137500000D03*
D24*
X162080000Y-137500000D03*
D27*
X141080000Y-43500000D03*
D24*
X130920000Y-43500000D03*
D27*
X151420000Y-112500000D03*
D24*
X161580000Y-112500000D03*
D28*
X152300000Y-46375000D03*
D29*
X152300000Y-48915000D03*
X152300000Y-51455000D03*
X152300000Y-53995000D03*
X152300000Y-56535000D03*
X152300000Y-59075000D03*
X152300000Y-61615000D03*
X144680000Y-61615000D03*
X144680000Y-59075000D03*
X144680000Y-56535000D03*
X144680000Y-53995000D03*
X144680000Y-51455000D03*
X144680000Y-48915000D03*
X144680000Y-46375000D03*
D27*
X130920000Y-50500000D03*
D24*
X141080000Y-50500000D03*
D27*
X141080000Y-19000000D03*
D24*
X130920000Y-19000000D03*
D27*
X151420000Y-87500000D03*
D24*
X161580000Y-87500000D03*
D27*
X141080000Y-40000000D03*
D24*
X130920000Y-40000000D03*
D23*
X117817600Y-160000000D03*
D27*
X120317600Y-160000000D03*
D28*
X152300000Y-21875000D03*
D29*
X152300000Y-24415000D03*
X152300000Y-26955000D03*
X152300000Y-29495000D03*
X152300000Y-32035000D03*
X152300000Y-34575000D03*
X152300000Y-37115000D03*
X144680000Y-37115000D03*
X144680000Y-34575000D03*
X144680000Y-32035000D03*
X144680000Y-29495000D03*
X144680000Y-26955000D03*
X144680000Y-24415000D03*
X144680000Y-21875000D03*
D27*
X166080000Y-22500000D03*
D24*
X155920000Y-22500000D03*
D27*
X166080000Y-50500000D03*
D24*
X155920000Y-50500000D03*
D27*
X166080000Y-47000000D03*
D24*
X155920000Y-47000000D03*
D25*
X126540000Y-72360000D03*
D26*
X124000000Y-72360000D03*
X121460000Y-72360000D03*
D27*
X156500000Y-29500000D03*
X161500000Y-29500000D03*
X140500000Y-54000000D03*
X135500000Y-54000000D03*
D23*
X123000000Y-21000000D03*
D24*
X123000000Y-23540000D03*
X123000000Y-26080000D03*
X123000000Y-28620000D03*
X123000000Y-31160000D03*
X123000000Y-33700000D03*
X123000000Y-36240000D03*
X123000000Y-38780000D03*
X123000000Y-41320000D03*
X123000000Y-43860000D03*
X123000000Y-46400000D03*
X123000000Y-48940000D03*
X123000000Y-51480000D03*
X123000000Y-54020000D03*
X123000000Y-56560000D03*
X107760000Y-56560000D03*
X107760000Y-54020000D03*
X107760000Y-51480000D03*
X107760000Y-48940000D03*
X107760000Y-46400000D03*
X107760000Y-43860000D03*
X107760000Y-41320000D03*
X107760000Y-38780000D03*
X107760000Y-36240000D03*
X107760000Y-33700000D03*
X107760000Y-31160000D03*
X107760000Y-28620000D03*
X107760000Y-26080000D03*
X107760000Y-23540000D03*
X107760000Y-21000000D03*
D27*
X141080000Y-36500000D03*
D24*
X130920000Y-36500000D03*
D27*
X155920000Y-19000000D03*
D24*
X166080000Y-19000000D03*
D32*
X108047600Y-155580000D03*
D33*
X110587600Y-155580000D03*
X108047600Y-153040000D03*
X110587600Y-153040000D03*
X108047600Y-150500000D03*
X110587600Y-150500000D03*
X108047600Y-147960000D03*
X110587600Y-147960000D03*
X108047600Y-145420000D03*
X110587600Y-145420000D03*
D27*
X155920000Y-43500000D03*
D24*
X166080000Y-43500000D03*
D27*
X166080000Y-36500000D03*
D24*
X155920000Y-36500000D03*
M02*
