M48
; DRILL file {KiCad (7.0.0)} date Sun Feb 26 23:15:06 2023
; FORMAT={-:-/ absolute / metric / decimal}
; #@! TF.CreationDate,2023-02-26T23:15:06-06:00
; #@! TF.GenerationSoftware,Kicad,Pcbnew,(7.0.0)
; #@! TF.FileFunction,Plated,1,2,PTH
FMAT,2
METRIC
; #@! TA.AperFunction,Plated,PTH,ViaDrill
T1C0.400
; #@! TA.AperFunction,Plated,PTH,ComponentDrill
T2C0.800
; #@! TA.AperFunction,Plated,PTH,ComponentDrill
T3C1.000
; #@! TA.AperFunction,Plated,PTH,ComponentDrill
T4C1.200
; #@! TA.AperFunction,Plated,PTH,ComponentDrill
T5C1.500
%
G90
G05
T1
X248.5Y-72.7
X251.5Y-66.2
T2
X207.42Y-47.5
X207.42Y-51.5
X217.58Y-47.5
X217.58Y-51.5
X223.42Y-33.0
X223.42Y-69.5
X233.58Y-33.0
X233.58Y-69.5
X233.785Y-38.405
X236.325Y-38.405
X238.865Y-38.405
X241.405Y-38.405
T3
X223.525Y-77.5
X226.065Y-77.5
X228.605Y-77.5
X231.145Y-77.5
X233.685Y-77.5
X236.225Y-77.5
X238.765Y-77.5
X241.305Y-77.5
X243.845Y-77.5
X246.385Y-77.5
X248.925Y-77.5
X251.465Y-77.5
X255.25Y-47.5
X255.25Y-50.0
X255.25Y-52.5
X269.75Y-47.5
X269.75Y-52.5
T4
X209.6Y-37.5
X209.6Y-62.5
X210.2Y-35.0
X210.2Y-40.0
X210.2Y-60.0
X210.2Y-65.0
X215.2Y-35.0
X215.2Y-40.0
X215.2Y-60.0
X215.2Y-65.0
X215.8Y-37.5
X215.8Y-62.5
T5
X262.1Y-44.4G85X263.4Y-44.4
G05
X262.1Y-55.6G85X263.4Y-55.6
G05
T0
M30
