G04 #@! TF.GenerationSoftware,KiCad,Pcbnew,(7.0.0)*
G04 #@! TF.CreationDate,2023-02-26T23:15:00-06:00*
G04 #@! TF.ProjectId,KosmoClockUI,4b6f736d-6f43-46c6-9f63-6b55492e6b69,rev?*
G04 #@! TF.SameCoordinates,Original*
G04 #@! TF.FileFunction,Legend,Bot*
G04 #@! TF.FilePolarity,Positive*
%FSLAX46Y46*%
G04 Gerber Fmt 4.6, Leading zero omitted, Abs format (unit mm)*
G04 Created by KiCad (PCBNEW (7.0.0)) date 2023-02-26 23:15:00*
%MOMM*%
%LPD*%
G01*
G04 APERTURE LIST*
G04 Aperture macros list*
%AMFreePoly0*
4,1,19,0.500000,-0.750000,0.000000,-0.750000,0.000000,-0.744911,-0.071157,-0.744911,-0.207708,-0.704816,-0.327430,-0.627875,-0.420627,-0.520320,-0.479746,-0.390866,-0.500000,-0.250000,-0.500000,0.250000,-0.479746,0.390866,-0.420627,0.520320,-0.327430,0.627875,-0.207708,0.704816,-0.071157,0.744911,0.000000,0.744911,0.000000,0.750000,0.500000,0.750000,0.500000,-0.750000,0.500000,-0.750000,
$1*%
%AMFreePoly1*
4,1,19,0.000000,0.744911,0.071157,0.744911,0.207708,0.704816,0.327430,0.627875,0.420627,0.520320,0.479746,0.390866,0.500000,0.250000,0.500000,-0.250000,0.479746,-0.390866,0.420627,-0.520320,0.327430,-0.627875,0.207708,-0.704816,0.071157,-0.744911,0.000000,-0.744911,0.000000,-0.750000,-0.500000,-0.750000,-0.500000,0.750000,0.000000,0.750000,0.000000,0.744911,0.000000,0.744911,
$1*%
G04 Aperture macros list end*
%ADD10C,0.250000*%
%ADD11C,0.150000*%
%ADD12C,0.120000*%
%ADD13C,2.700000*%
%ADD14C,3.000000*%
%ADD15C,1.600000*%
%ADD16C,1.800000*%
%ADD17R,2.000000X2.000000*%
%ADD18C,2.000000*%
%ADD19R,3.200000X2.000000*%
%ADD20FreePoly0,90.000000*%
%ADD21FreePoly1,90.000000*%
%ADD22FreePoly0,270.000000*%
%ADD23FreePoly1,270.000000*%
%ADD24O,1.600000X1.600000*%
%ADD25R,1.700000X1.700000*%
%ADD26O,1.700000X1.700000*%
G04 APERTURE END LIST*
D10*
X268808570Y-24345285D02*
X268808570Y-22545285D01*
X267779999Y-24345285D02*
X268551427Y-23316714D01*
X267779999Y-22545285D02*
X268808570Y-23573857D01*
X266751427Y-24345285D02*
X266922856Y-24259571D01*
X266922856Y-24259571D02*
X267008570Y-24173857D01*
X267008570Y-24173857D02*
X267094284Y-24002428D01*
X267094284Y-24002428D02*
X267094284Y-23488142D01*
X267094284Y-23488142D02*
X267008570Y-23316714D01*
X267008570Y-23316714D02*
X266922856Y-23231000D01*
X266922856Y-23231000D02*
X266751427Y-23145285D01*
X266751427Y-23145285D02*
X266494284Y-23145285D01*
X266494284Y-23145285D02*
X266322856Y-23231000D01*
X266322856Y-23231000D02*
X266237142Y-23316714D01*
X266237142Y-23316714D02*
X266151427Y-23488142D01*
X266151427Y-23488142D02*
X266151427Y-24002428D01*
X266151427Y-24002428D02*
X266237142Y-24173857D01*
X266237142Y-24173857D02*
X266322856Y-24259571D01*
X266322856Y-24259571D02*
X266494284Y-24345285D01*
X266494284Y-24345285D02*
X266751427Y-24345285D01*
X265465713Y-24259571D02*
X265294285Y-24345285D01*
X265294285Y-24345285D02*
X264951428Y-24345285D01*
X264951428Y-24345285D02*
X264779999Y-24259571D01*
X264779999Y-24259571D02*
X264694285Y-24088142D01*
X264694285Y-24088142D02*
X264694285Y-24002428D01*
X264694285Y-24002428D02*
X264779999Y-23831000D01*
X264779999Y-23831000D02*
X264951428Y-23745285D01*
X264951428Y-23745285D02*
X265208571Y-23745285D01*
X265208571Y-23745285D02*
X265379999Y-23659571D01*
X265379999Y-23659571D02*
X265465713Y-23488142D01*
X265465713Y-23488142D02*
X265465713Y-23402428D01*
X265465713Y-23402428D02*
X265379999Y-23231000D01*
X265379999Y-23231000D02*
X265208571Y-23145285D01*
X265208571Y-23145285D02*
X264951428Y-23145285D01*
X264951428Y-23145285D02*
X264779999Y-23231000D01*
X263922856Y-24345285D02*
X263922856Y-23145285D01*
X263922856Y-23316714D02*
X263837142Y-23231000D01*
X263837142Y-23231000D02*
X263665713Y-23145285D01*
X263665713Y-23145285D02*
X263408570Y-23145285D01*
X263408570Y-23145285D02*
X263237142Y-23231000D01*
X263237142Y-23231000D02*
X263151428Y-23402428D01*
X263151428Y-23402428D02*
X263151428Y-24345285D01*
X263151428Y-23402428D02*
X263065713Y-23231000D01*
X263065713Y-23231000D02*
X262894285Y-23145285D01*
X262894285Y-23145285D02*
X262637142Y-23145285D01*
X262637142Y-23145285D02*
X262465713Y-23231000D01*
X262465713Y-23231000D02*
X262379999Y-23402428D01*
X262379999Y-23402428D02*
X262379999Y-24345285D01*
X261265713Y-24345285D02*
X261437142Y-24259571D01*
X261437142Y-24259571D02*
X261522856Y-24173857D01*
X261522856Y-24173857D02*
X261608570Y-24002428D01*
X261608570Y-24002428D02*
X261608570Y-23488142D01*
X261608570Y-23488142D02*
X261522856Y-23316714D01*
X261522856Y-23316714D02*
X261437142Y-23231000D01*
X261437142Y-23231000D02*
X261265713Y-23145285D01*
X261265713Y-23145285D02*
X261008570Y-23145285D01*
X261008570Y-23145285D02*
X260837142Y-23231000D01*
X260837142Y-23231000D02*
X260751428Y-23316714D01*
X260751428Y-23316714D02*
X260665713Y-23488142D01*
X260665713Y-23488142D02*
X260665713Y-24002428D01*
X260665713Y-24002428D02*
X260751428Y-24173857D01*
X260751428Y-24173857D02*
X260837142Y-24259571D01*
X260837142Y-24259571D02*
X261008570Y-24345285D01*
X261008570Y-24345285D02*
X261265713Y-24345285D01*
X257785714Y-24173857D02*
X257871428Y-24259571D01*
X257871428Y-24259571D02*
X258128571Y-24345285D01*
X258128571Y-24345285D02*
X258299999Y-24345285D01*
X258299999Y-24345285D02*
X258557142Y-24259571D01*
X258557142Y-24259571D02*
X258728571Y-24088142D01*
X258728571Y-24088142D02*
X258814285Y-23916714D01*
X258814285Y-23916714D02*
X258899999Y-23573857D01*
X258899999Y-23573857D02*
X258899999Y-23316714D01*
X258899999Y-23316714D02*
X258814285Y-22973857D01*
X258814285Y-22973857D02*
X258728571Y-22802428D01*
X258728571Y-22802428D02*
X258557142Y-22631000D01*
X258557142Y-22631000D02*
X258299999Y-22545285D01*
X258299999Y-22545285D02*
X258128571Y-22545285D01*
X258128571Y-22545285D02*
X257871428Y-22631000D01*
X257871428Y-22631000D02*
X257785714Y-22716714D01*
X256757142Y-24345285D02*
X256928571Y-24259571D01*
X256928571Y-24259571D02*
X257014285Y-24088142D01*
X257014285Y-24088142D02*
X257014285Y-22545285D01*
X255814285Y-24345285D02*
X255985714Y-24259571D01*
X255985714Y-24259571D02*
X256071428Y-24173857D01*
X256071428Y-24173857D02*
X256157142Y-24002428D01*
X256157142Y-24002428D02*
X256157142Y-23488142D01*
X256157142Y-23488142D02*
X256071428Y-23316714D01*
X256071428Y-23316714D02*
X255985714Y-23231000D01*
X255985714Y-23231000D02*
X255814285Y-23145285D01*
X255814285Y-23145285D02*
X255557142Y-23145285D01*
X255557142Y-23145285D02*
X255385714Y-23231000D01*
X255385714Y-23231000D02*
X255300000Y-23316714D01*
X255300000Y-23316714D02*
X255214285Y-23488142D01*
X255214285Y-23488142D02*
X255214285Y-24002428D01*
X255214285Y-24002428D02*
X255300000Y-24173857D01*
X255300000Y-24173857D02*
X255385714Y-24259571D01*
X255385714Y-24259571D02*
X255557142Y-24345285D01*
X255557142Y-24345285D02*
X255814285Y-24345285D01*
X253671429Y-24259571D02*
X253842857Y-24345285D01*
X253842857Y-24345285D02*
X254185714Y-24345285D01*
X254185714Y-24345285D02*
X254357143Y-24259571D01*
X254357143Y-24259571D02*
X254442857Y-24173857D01*
X254442857Y-24173857D02*
X254528571Y-24002428D01*
X254528571Y-24002428D02*
X254528571Y-23488142D01*
X254528571Y-23488142D02*
X254442857Y-23316714D01*
X254442857Y-23316714D02*
X254357143Y-23231000D01*
X254357143Y-23231000D02*
X254185714Y-23145285D01*
X254185714Y-23145285D02*
X253842857Y-23145285D01*
X253842857Y-23145285D02*
X253671429Y-23231000D01*
X252900000Y-24345285D02*
X252900000Y-22545285D01*
X252728572Y-23659571D02*
X252214286Y-24345285D01*
X252214286Y-23145285D02*
X252900000Y-23831000D01*
X250620000Y-22545285D02*
X250020000Y-24345285D01*
X250020000Y-24345285D02*
X249420000Y-22545285D01*
X247877143Y-24345285D02*
X248905714Y-24345285D01*
X248391429Y-24345285D02*
X248391429Y-22545285D01*
X248391429Y-22545285D02*
X248562857Y-22802428D01*
X248562857Y-22802428D02*
X248734286Y-22973857D01*
X248734286Y-22973857D02*
X248905714Y-23059571D01*
X247105714Y-24173857D02*
X247020000Y-24259571D01*
X247020000Y-24259571D02*
X247105714Y-24345285D01*
X247105714Y-24345285D02*
X247191428Y-24259571D01*
X247191428Y-24259571D02*
X247105714Y-24173857D01*
X247105714Y-24173857D02*
X247105714Y-24345285D01*
X245305714Y-24345285D02*
X246334285Y-24345285D01*
X245820000Y-24345285D02*
X245820000Y-22545285D01*
X245820000Y-22545285D02*
X245991428Y-22802428D01*
X245991428Y-22802428D02*
X246162857Y-22973857D01*
X246162857Y-22973857D02*
X246334285Y-23059571D01*
X261282856Y-25461285D02*
X261282856Y-26918428D01*
X261282856Y-26918428D02*
X261197142Y-27089857D01*
X261197142Y-27089857D02*
X261111428Y-27175571D01*
X261111428Y-27175571D02*
X260939999Y-27261285D01*
X260939999Y-27261285D02*
X260597142Y-27261285D01*
X260597142Y-27261285D02*
X260425713Y-27175571D01*
X260425713Y-27175571D02*
X260339999Y-27089857D01*
X260339999Y-27089857D02*
X260254285Y-26918428D01*
X260254285Y-26918428D02*
X260254285Y-25461285D01*
X259397142Y-27261285D02*
X259397142Y-25461285D01*
X257459999Y-27261285D02*
X257459999Y-25461285D01*
X257459999Y-25461285D02*
X256774285Y-25461285D01*
X256774285Y-25461285D02*
X256602856Y-25547000D01*
X256602856Y-25547000D02*
X256517142Y-25632714D01*
X256517142Y-25632714D02*
X256431428Y-25804142D01*
X256431428Y-25804142D02*
X256431428Y-26061285D01*
X256431428Y-26061285D02*
X256517142Y-26232714D01*
X256517142Y-26232714D02*
X256602856Y-26318428D01*
X256602856Y-26318428D02*
X256774285Y-26404142D01*
X256774285Y-26404142D02*
X257459999Y-26404142D01*
X254631428Y-27089857D02*
X254717142Y-27175571D01*
X254717142Y-27175571D02*
X254974285Y-27261285D01*
X254974285Y-27261285D02*
X255145713Y-27261285D01*
X255145713Y-27261285D02*
X255402856Y-27175571D01*
X255402856Y-27175571D02*
X255574285Y-27004142D01*
X255574285Y-27004142D02*
X255659999Y-26832714D01*
X255659999Y-26832714D02*
X255745713Y-26489857D01*
X255745713Y-26489857D02*
X255745713Y-26232714D01*
X255745713Y-26232714D02*
X255659999Y-25889857D01*
X255659999Y-25889857D02*
X255574285Y-25718428D01*
X255574285Y-25718428D02*
X255402856Y-25547000D01*
X255402856Y-25547000D02*
X255145713Y-25461285D01*
X255145713Y-25461285D02*
X254974285Y-25461285D01*
X254974285Y-25461285D02*
X254717142Y-25547000D01*
X254717142Y-25547000D02*
X254631428Y-25632714D01*
X253259999Y-26318428D02*
X253002856Y-26404142D01*
X253002856Y-26404142D02*
X252917142Y-26489857D01*
X252917142Y-26489857D02*
X252831428Y-26661285D01*
X252831428Y-26661285D02*
X252831428Y-26918428D01*
X252831428Y-26918428D02*
X252917142Y-27089857D01*
X252917142Y-27089857D02*
X253002856Y-27175571D01*
X253002856Y-27175571D02*
X253174285Y-27261285D01*
X253174285Y-27261285D02*
X253859999Y-27261285D01*
X253859999Y-27261285D02*
X253859999Y-25461285D01*
X253859999Y-25461285D02*
X253259999Y-25461285D01*
X253259999Y-25461285D02*
X253088571Y-25547000D01*
X253088571Y-25547000D02*
X253002856Y-25632714D01*
X253002856Y-25632714D02*
X252917142Y-25804142D01*
X252917142Y-25804142D02*
X252917142Y-25975571D01*
X252917142Y-25975571D02*
X253002856Y-26147000D01*
X253002856Y-26147000D02*
X253088571Y-26232714D01*
X253088571Y-26232714D02*
X253259999Y-26318428D01*
X253259999Y-26318428D02*
X253859999Y-26318428D01*
X265825714Y-29234428D02*
X266425714Y-29234428D01*
X266425714Y-30177285D02*
X266425714Y-28377285D01*
X266425714Y-28377285D02*
X265568571Y-28377285D01*
X264197143Y-30091571D02*
X264368571Y-30177285D01*
X264368571Y-30177285D02*
X264711429Y-30177285D01*
X264711429Y-30177285D02*
X264882857Y-30091571D01*
X264882857Y-30091571D02*
X264968571Y-29920142D01*
X264968571Y-29920142D02*
X264968571Y-29234428D01*
X264968571Y-29234428D02*
X264882857Y-29063000D01*
X264882857Y-29063000D02*
X264711429Y-28977285D01*
X264711429Y-28977285D02*
X264368571Y-28977285D01*
X264368571Y-28977285D02*
X264197143Y-29063000D01*
X264197143Y-29063000D02*
X264111429Y-29234428D01*
X264111429Y-29234428D02*
X264111429Y-29405857D01*
X264111429Y-29405857D02*
X264968571Y-29577285D01*
X263340000Y-30177285D02*
X263340000Y-28377285D01*
X263340000Y-29063000D02*
X263168572Y-28977285D01*
X263168572Y-28977285D02*
X262825714Y-28977285D01*
X262825714Y-28977285D02*
X262654286Y-29063000D01*
X262654286Y-29063000D02*
X262568572Y-29148714D01*
X262568572Y-29148714D02*
X262482857Y-29320142D01*
X262482857Y-29320142D02*
X262482857Y-29834428D01*
X262482857Y-29834428D02*
X262568572Y-30005857D01*
X262568572Y-30005857D02*
X262654286Y-30091571D01*
X262654286Y-30091571D02*
X262825714Y-30177285D01*
X262825714Y-30177285D02*
X263168572Y-30177285D01*
X263168572Y-30177285D02*
X263340000Y-30091571D01*
X261711429Y-30177285D02*
X261711429Y-28977285D01*
X261711429Y-29320142D02*
X261625715Y-29148714D01*
X261625715Y-29148714D02*
X261540001Y-29063000D01*
X261540001Y-29063000D02*
X261368572Y-28977285D01*
X261368572Y-28977285D02*
X261197143Y-28977285D01*
X259825715Y-28977285D02*
X259825715Y-30177285D01*
X260597143Y-28977285D02*
X260597143Y-29920142D01*
X260597143Y-29920142D02*
X260511429Y-30091571D01*
X260511429Y-30091571D02*
X260340000Y-30177285D01*
X260340000Y-30177285D02*
X260082857Y-30177285D01*
X260082857Y-30177285D02*
X259911429Y-30091571D01*
X259911429Y-30091571D02*
X259825715Y-30005857D01*
X258197144Y-30177285D02*
X258197144Y-29234428D01*
X258197144Y-29234428D02*
X258282858Y-29063000D01*
X258282858Y-29063000D02*
X258454286Y-28977285D01*
X258454286Y-28977285D02*
X258797144Y-28977285D01*
X258797144Y-28977285D02*
X258968572Y-29063000D01*
X258197144Y-30091571D02*
X258368572Y-30177285D01*
X258368572Y-30177285D02*
X258797144Y-30177285D01*
X258797144Y-30177285D02*
X258968572Y-30091571D01*
X258968572Y-30091571D02*
X259054286Y-29920142D01*
X259054286Y-29920142D02*
X259054286Y-29748714D01*
X259054286Y-29748714D02*
X258968572Y-29577285D01*
X258968572Y-29577285D02*
X258797144Y-29491571D01*
X258797144Y-29491571D02*
X258368572Y-29491571D01*
X258368572Y-29491571D02*
X258197144Y-29405857D01*
X257340001Y-30177285D02*
X257340001Y-28977285D01*
X257340001Y-29320142D02*
X257254287Y-29148714D01*
X257254287Y-29148714D02*
X257168573Y-29063000D01*
X257168573Y-29063000D02*
X256997144Y-28977285D01*
X256997144Y-28977285D02*
X256825715Y-28977285D01*
X256397144Y-28977285D02*
X255968572Y-30177285D01*
X255540001Y-28977285D02*
X255968572Y-30177285D01*
X255968572Y-30177285D02*
X256140001Y-30605857D01*
X256140001Y-30605857D02*
X256225715Y-30691571D01*
X256225715Y-30691571D02*
X256397144Y-30777285D01*
X253860000Y-28548714D02*
X253774286Y-28463000D01*
X253774286Y-28463000D02*
X253602858Y-28377285D01*
X253602858Y-28377285D02*
X253174286Y-28377285D01*
X253174286Y-28377285D02*
X253002858Y-28463000D01*
X253002858Y-28463000D02*
X252917143Y-28548714D01*
X252917143Y-28548714D02*
X252831429Y-28720142D01*
X252831429Y-28720142D02*
X252831429Y-28891571D01*
X252831429Y-28891571D02*
X252917143Y-29148714D01*
X252917143Y-29148714D02*
X253945715Y-30177285D01*
X253945715Y-30177285D02*
X252831429Y-30177285D01*
X251717143Y-28377285D02*
X251545714Y-28377285D01*
X251545714Y-28377285D02*
X251374286Y-28463000D01*
X251374286Y-28463000D02*
X251288572Y-28548714D01*
X251288572Y-28548714D02*
X251202857Y-28720142D01*
X251202857Y-28720142D02*
X251117143Y-29063000D01*
X251117143Y-29063000D02*
X251117143Y-29491571D01*
X251117143Y-29491571D02*
X251202857Y-29834428D01*
X251202857Y-29834428D02*
X251288572Y-30005857D01*
X251288572Y-30005857D02*
X251374286Y-30091571D01*
X251374286Y-30091571D02*
X251545714Y-30177285D01*
X251545714Y-30177285D02*
X251717143Y-30177285D01*
X251717143Y-30177285D02*
X251888572Y-30091571D01*
X251888572Y-30091571D02*
X251974286Y-30005857D01*
X251974286Y-30005857D02*
X252060000Y-29834428D01*
X252060000Y-29834428D02*
X252145714Y-29491571D01*
X252145714Y-29491571D02*
X252145714Y-29063000D01*
X252145714Y-29063000D02*
X252060000Y-28720142D01*
X252060000Y-28720142D02*
X251974286Y-28548714D01*
X251974286Y-28548714D02*
X251888572Y-28463000D01*
X251888572Y-28463000D02*
X251717143Y-28377285D01*
X250431428Y-28548714D02*
X250345714Y-28463000D01*
X250345714Y-28463000D02*
X250174286Y-28377285D01*
X250174286Y-28377285D02*
X249745714Y-28377285D01*
X249745714Y-28377285D02*
X249574286Y-28463000D01*
X249574286Y-28463000D02*
X249488571Y-28548714D01*
X249488571Y-28548714D02*
X249402857Y-28720142D01*
X249402857Y-28720142D02*
X249402857Y-28891571D01*
X249402857Y-28891571D02*
X249488571Y-29148714D01*
X249488571Y-29148714D02*
X250517143Y-30177285D01*
X250517143Y-30177285D02*
X249402857Y-30177285D01*
X248802857Y-28377285D02*
X247688571Y-28377285D01*
X247688571Y-28377285D02*
X248288571Y-29063000D01*
X248288571Y-29063000D02*
X248031428Y-29063000D01*
X248031428Y-29063000D02*
X247860000Y-29148714D01*
X247860000Y-29148714D02*
X247774285Y-29234428D01*
X247774285Y-29234428D02*
X247688571Y-29405857D01*
X247688571Y-29405857D02*
X247688571Y-29834428D01*
X247688571Y-29834428D02*
X247774285Y-30005857D01*
X247774285Y-30005857D02*
X247860000Y-30091571D01*
X247860000Y-30091571D02*
X248031428Y-30177285D01*
X248031428Y-30177285D02*
X248545714Y-30177285D01*
X248545714Y-30177285D02*
X248717142Y-30091571D01*
X248717142Y-30091571D02*
X248802857Y-30005857D01*
D11*
X240833333Y-71217380D02*
X240833333Y-71931666D01*
X240833333Y-71931666D02*
X240880952Y-72074523D01*
X240880952Y-72074523D02*
X240976190Y-72169761D01*
X240976190Y-72169761D02*
X241119047Y-72217380D01*
X241119047Y-72217380D02*
X241214285Y-72217380D01*
X240357142Y-72217380D02*
X240357142Y-71217380D01*
X240357142Y-71217380D02*
X239976190Y-71217380D01*
X239976190Y-71217380D02*
X239880952Y-71265000D01*
X239880952Y-71265000D02*
X239833333Y-71312619D01*
X239833333Y-71312619D02*
X239785714Y-71407857D01*
X239785714Y-71407857D02*
X239785714Y-71550714D01*
X239785714Y-71550714D02*
X239833333Y-71645952D01*
X239833333Y-71645952D02*
X239880952Y-71693571D01*
X239880952Y-71693571D02*
X239976190Y-71741190D01*
X239976190Y-71741190D02*
X240357142Y-71741190D01*
X238833333Y-72217380D02*
X239404761Y-72217380D01*
X239119047Y-72217380D02*
X239119047Y-71217380D01*
X239119047Y-71217380D02*
X239214285Y-71360238D01*
X239214285Y-71360238D02*
X239309523Y-71455476D01*
X239309523Y-71455476D02*
X239404761Y-71503095D01*
X251333333Y-71217380D02*
X251333333Y-71931666D01*
X251333333Y-71931666D02*
X251380952Y-72074523D01*
X251380952Y-72074523D02*
X251476190Y-72169761D01*
X251476190Y-72169761D02*
X251619047Y-72217380D01*
X251619047Y-72217380D02*
X251714285Y-72217380D01*
X250857142Y-72217380D02*
X250857142Y-71217380D01*
X250857142Y-71217380D02*
X250476190Y-71217380D01*
X250476190Y-71217380D02*
X250380952Y-71265000D01*
X250380952Y-71265000D02*
X250333333Y-71312619D01*
X250333333Y-71312619D02*
X250285714Y-71407857D01*
X250285714Y-71407857D02*
X250285714Y-71550714D01*
X250285714Y-71550714D02*
X250333333Y-71645952D01*
X250333333Y-71645952D02*
X250380952Y-71693571D01*
X250380952Y-71693571D02*
X250476190Y-71741190D01*
X250476190Y-71741190D02*
X250857142Y-71741190D01*
X249904761Y-71312619D02*
X249857142Y-71265000D01*
X249857142Y-71265000D02*
X249761904Y-71217380D01*
X249761904Y-71217380D02*
X249523809Y-71217380D01*
X249523809Y-71217380D02*
X249428571Y-71265000D01*
X249428571Y-71265000D02*
X249380952Y-71312619D01*
X249380952Y-71312619D02*
X249333333Y-71407857D01*
X249333333Y-71407857D02*
X249333333Y-71503095D01*
X249333333Y-71503095D02*
X249380952Y-71645952D01*
X249380952Y-71645952D02*
X249952380Y-72217380D01*
X249952380Y-72217380D02*
X249333333Y-72217380D01*
X228633332Y-67423904D02*
X228899999Y-67042952D01*
X229090475Y-67423904D02*
X229090475Y-66623904D01*
X229090475Y-66623904D02*
X228785713Y-66623904D01*
X228785713Y-66623904D02*
X228709523Y-66662000D01*
X228709523Y-66662000D02*
X228671428Y-66700095D01*
X228671428Y-66700095D02*
X228633332Y-66776285D01*
X228633332Y-66776285D02*
X228633332Y-66890571D01*
X228633332Y-66890571D02*
X228671428Y-66966761D01*
X228671428Y-66966761D02*
X228709523Y-67004857D01*
X228709523Y-67004857D02*
X228785713Y-67042952D01*
X228785713Y-67042952D02*
X229090475Y-67042952D01*
X228366666Y-66623904D02*
X227871428Y-66623904D01*
X227871428Y-66623904D02*
X228138094Y-66928666D01*
X228138094Y-66928666D02*
X228023809Y-66928666D01*
X228023809Y-66928666D02*
X227947618Y-66966761D01*
X227947618Y-66966761D02*
X227909523Y-67004857D01*
X227909523Y-67004857D02*
X227871428Y-67081047D01*
X227871428Y-67081047D02*
X227871428Y-67271523D01*
X227871428Y-67271523D02*
X227909523Y-67347714D01*
X227909523Y-67347714D02*
X227947618Y-67385809D01*
X227947618Y-67385809D02*
X228023809Y-67423904D01*
X228023809Y-67423904D02*
X228252380Y-67423904D01*
X228252380Y-67423904D02*
X228328571Y-67385809D01*
X228328571Y-67385809D02*
X228366666Y-67347714D01*
X229433333Y-69793904D02*
X229890476Y-69793904D01*
X229661904Y-69793904D02*
X229661904Y-68993904D01*
X229661904Y-68993904D02*
X229738095Y-69108190D01*
X229738095Y-69108190D02*
X229814285Y-69184380D01*
X229814285Y-69184380D02*
X229890476Y-69222476D01*
X228938094Y-68993904D02*
X228861904Y-68993904D01*
X228861904Y-68993904D02*
X228785713Y-69032000D01*
X228785713Y-69032000D02*
X228747618Y-69070095D01*
X228747618Y-69070095D02*
X228709523Y-69146285D01*
X228709523Y-69146285D02*
X228671428Y-69298666D01*
X228671428Y-69298666D02*
X228671428Y-69489142D01*
X228671428Y-69489142D02*
X228709523Y-69641523D01*
X228709523Y-69641523D02*
X228747618Y-69717714D01*
X228747618Y-69717714D02*
X228785713Y-69755809D01*
X228785713Y-69755809D02*
X228861904Y-69793904D01*
X228861904Y-69793904D02*
X228938094Y-69793904D01*
X228938094Y-69793904D02*
X229014285Y-69755809D01*
X229014285Y-69755809D02*
X229052380Y-69717714D01*
X229052380Y-69717714D02*
X229090475Y-69641523D01*
X229090475Y-69641523D02*
X229128571Y-69489142D01*
X229128571Y-69489142D02*
X229128571Y-69298666D01*
X229128571Y-69298666D02*
X229090475Y-69146285D01*
X229090475Y-69146285D02*
X229052380Y-69070095D01*
X229052380Y-69070095D02*
X229014285Y-69032000D01*
X229014285Y-69032000D02*
X228938094Y-68993904D01*
X228176189Y-68993904D02*
X228099999Y-68993904D01*
X228099999Y-68993904D02*
X228023808Y-69032000D01*
X228023808Y-69032000D02*
X227985713Y-69070095D01*
X227985713Y-69070095D02*
X227947618Y-69146285D01*
X227947618Y-69146285D02*
X227909523Y-69298666D01*
X227909523Y-69298666D02*
X227909523Y-69489142D01*
X227909523Y-69489142D02*
X227947618Y-69641523D01*
X227947618Y-69641523D02*
X227985713Y-69717714D01*
X227985713Y-69717714D02*
X228023808Y-69755809D01*
X228023808Y-69755809D02*
X228099999Y-69793904D01*
X228099999Y-69793904D02*
X228176189Y-69793904D01*
X228176189Y-69793904D02*
X228252380Y-69755809D01*
X228252380Y-69755809D02*
X228290475Y-69717714D01*
X228290475Y-69717714D02*
X228328570Y-69641523D01*
X228328570Y-69641523D02*
X228366666Y-69489142D01*
X228366666Y-69489142D02*
X228366666Y-69298666D01*
X228366666Y-69298666D02*
X228328570Y-69146285D01*
X228328570Y-69146285D02*
X228290475Y-69070095D01*
X228290475Y-69070095D02*
X228252380Y-69032000D01*
X228252380Y-69032000D02*
X228176189Y-68993904D01*
X227566665Y-69793904D02*
X227566665Y-68993904D01*
X227109522Y-69793904D02*
X227452380Y-69336761D01*
X227109522Y-68993904D02*
X227566665Y-69451047D01*
X212633332Y-54293904D02*
X212899999Y-53912952D01*
X213090475Y-54293904D02*
X213090475Y-53493904D01*
X213090475Y-53493904D02*
X212785713Y-53493904D01*
X212785713Y-53493904D02*
X212709523Y-53532000D01*
X212709523Y-53532000D02*
X212671428Y-53570095D01*
X212671428Y-53570095D02*
X212633332Y-53646285D01*
X212633332Y-53646285D02*
X212633332Y-53760571D01*
X212633332Y-53760571D02*
X212671428Y-53836761D01*
X212671428Y-53836761D02*
X212709523Y-53874857D01*
X212709523Y-53874857D02*
X212785713Y-53912952D01*
X212785713Y-53912952D02*
X213090475Y-53912952D01*
X211947618Y-53760571D02*
X211947618Y-54293904D01*
X212138094Y-53455809D02*
X212328571Y-54027238D01*
X212328571Y-54027238D02*
X211833332Y-54027238D01*
X213128571Y-51070095D02*
X213090475Y-51032000D01*
X213090475Y-51032000D02*
X213014285Y-50993904D01*
X213014285Y-50993904D02*
X212823809Y-50993904D01*
X212823809Y-50993904D02*
X212747618Y-51032000D01*
X212747618Y-51032000D02*
X212709523Y-51070095D01*
X212709523Y-51070095D02*
X212671428Y-51146285D01*
X212671428Y-51146285D02*
X212671428Y-51222476D01*
X212671428Y-51222476D02*
X212709523Y-51336761D01*
X212709523Y-51336761D02*
X213166666Y-51793904D01*
X213166666Y-51793904D02*
X212671428Y-51793904D01*
X212328570Y-51793904D02*
X212328570Y-50993904D01*
X211871427Y-51793904D02*
X212214285Y-51336761D01*
X211871427Y-50993904D02*
X212328570Y-51451047D01*
X247833333Y-71367380D02*
X247833333Y-72081666D01*
X247833333Y-72081666D02*
X247880952Y-72224523D01*
X247880952Y-72224523D02*
X247976190Y-72319761D01*
X247976190Y-72319761D02*
X248119047Y-72367380D01*
X248119047Y-72367380D02*
X248214285Y-72367380D01*
X247357142Y-72367380D02*
X247357142Y-71367380D01*
X247357142Y-71367380D02*
X246976190Y-71367380D01*
X246976190Y-71367380D02*
X246880952Y-71415000D01*
X246880952Y-71415000D02*
X246833333Y-71462619D01*
X246833333Y-71462619D02*
X246785714Y-71557857D01*
X246785714Y-71557857D02*
X246785714Y-71700714D01*
X246785714Y-71700714D02*
X246833333Y-71795952D01*
X246833333Y-71795952D02*
X246880952Y-71843571D01*
X246880952Y-71843571D02*
X246976190Y-71891190D01*
X246976190Y-71891190D02*
X247357142Y-71891190D01*
X245928571Y-71700714D02*
X245928571Y-72367380D01*
X246166666Y-71319761D02*
X246404761Y-72034047D01*
X246404761Y-72034047D02*
X245785714Y-72034047D01*
X244333333Y-71217380D02*
X244333333Y-71931666D01*
X244333333Y-71931666D02*
X244380952Y-72074523D01*
X244380952Y-72074523D02*
X244476190Y-72169761D01*
X244476190Y-72169761D02*
X244619047Y-72217380D01*
X244619047Y-72217380D02*
X244714285Y-72217380D01*
X243857142Y-72217380D02*
X243857142Y-71217380D01*
X243857142Y-71217380D02*
X243476190Y-71217380D01*
X243476190Y-71217380D02*
X243380952Y-71265000D01*
X243380952Y-71265000D02*
X243333333Y-71312619D01*
X243333333Y-71312619D02*
X243285714Y-71407857D01*
X243285714Y-71407857D02*
X243285714Y-71550714D01*
X243285714Y-71550714D02*
X243333333Y-71645952D01*
X243333333Y-71645952D02*
X243380952Y-71693571D01*
X243380952Y-71693571D02*
X243476190Y-71741190D01*
X243476190Y-71741190D02*
X243857142Y-71741190D01*
X242952380Y-71217380D02*
X242333333Y-71217380D01*
X242333333Y-71217380D02*
X242666666Y-71598333D01*
X242666666Y-71598333D02*
X242523809Y-71598333D01*
X242523809Y-71598333D02*
X242428571Y-71645952D01*
X242428571Y-71645952D02*
X242380952Y-71693571D01*
X242380952Y-71693571D02*
X242333333Y-71788809D01*
X242333333Y-71788809D02*
X242333333Y-72026904D01*
X242333333Y-72026904D02*
X242380952Y-72122142D01*
X242380952Y-72122142D02*
X242428571Y-72169761D01*
X242428571Y-72169761D02*
X242523809Y-72217380D01*
X242523809Y-72217380D02*
X242809523Y-72217380D01*
X242809523Y-72217380D02*
X242904761Y-72169761D01*
X242904761Y-72169761D02*
X242952380Y-72122142D01*
X212633332Y-45423904D02*
X212899999Y-45042952D01*
X213090475Y-45423904D02*
X213090475Y-44623904D01*
X213090475Y-44623904D02*
X212785713Y-44623904D01*
X212785713Y-44623904D02*
X212709523Y-44662000D01*
X212709523Y-44662000D02*
X212671428Y-44700095D01*
X212671428Y-44700095D02*
X212633332Y-44776285D01*
X212633332Y-44776285D02*
X212633332Y-44890571D01*
X212633332Y-44890571D02*
X212671428Y-44966761D01*
X212671428Y-44966761D02*
X212709523Y-45004857D01*
X212709523Y-45004857D02*
X212785713Y-45042952D01*
X212785713Y-45042952D02*
X213090475Y-45042952D01*
X212328571Y-44700095D02*
X212290475Y-44662000D01*
X212290475Y-44662000D02*
X212214285Y-44623904D01*
X212214285Y-44623904D02*
X212023809Y-44623904D01*
X212023809Y-44623904D02*
X211947618Y-44662000D01*
X211947618Y-44662000D02*
X211909523Y-44700095D01*
X211909523Y-44700095D02*
X211871428Y-44776285D01*
X211871428Y-44776285D02*
X211871428Y-44852476D01*
X211871428Y-44852476D02*
X211909523Y-44966761D01*
X211909523Y-44966761D02*
X212366666Y-45423904D01*
X212366666Y-45423904D02*
X211871428Y-45423904D01*
X213128571Y-47070095D02*
X213090475Y-47032000D01*
X213090475Y-47032000D02*
X213014285Y-46993904D01*
X213014285Y-46993904D02*
X212823809Y-46993904D01*
X212823809Y-46993904D02*
X212747618Y-47032000D01*
X212747618Y-47032000D02*
X212709523Y-47070095D01*
X212709523Y-47070095D02*
X212671428Y-47146285D01*
X212671428Y-47146285D02*
X212671428Y-47222476D01*
X212671428Y-47222476D02*
X212709523Y-47336761D01*
X212709523Y-47336761D02*
X213166666Y-47793904D01*
X213166666Y-47793904D02*
X212671428Y-47793904D01*
X212328570Y-47793904D02*
X212328570Y-46993904D01*
X211871427Y-47793904D02*
X212214285Y-47336761D01*
X211871427Y-46993904D02*
X212328570Y-47451047D01*
X220562380Y-76690476D02*
X221276666Y-76690476D01*
X221276666Y-76690476D02*
X221419523Y-76642857D01*
X221419523Y-76642857D02*
X221514761Y-76547619D01*
X221514761Y-76547619D02*
X221562380Y-76404762D01*
X221562380Y-76404762D02*
X221562380Y-76309524D01*
X221562380Y-77690476D02*
X221562380Y-77119048D01*
X221562380Y-77404762D02*
X220562380Y-77404762D01*
X220562380Y-77404762D02*
X220705238Y-77309524D01*
X220705238Y-77309524D02*
X220800476Y-77214286D01*
X220800476Y-77214286D02*
X220848095Y-77119048D01*
X220657619Y-78071429D02*
X220610000Y-78119048D01*
X220610000Y-78119048D02*
X220562380Y-78214286D01*
X220562380Y-78214286D02*
X220562380Y-78452381D01*
X220562380Y-78452381D02*
X220610000Y-78547619D01*
X220610000Y-78547619D02*
X220657619Y-78595238D01*
X220657619Y-78595238D02*
X220752857Y-78642857D01*
X220752857Y-78642857D02*
X220848095Y-78642857D01*
X220848095Y-78642857D02*
X220990952Y-78595238D01*
X220990952Y-78595238D02*
X221562380Y-78023810D01*
X221562380Y-78023810D02*
X221562380Y-78642857D01*
X228633332Y-30923904D02*
X228899999Y-30542952D01*
X229090475Y-30923904D02*
X229090475Y-30123904D01*
X229090475Y-30123904D02*
X228785713Y-30123904D01*
X228785713Y-30123904D02*
X228709523Y-30162000D01*
X228709523Y-30162000D02*
X228671428Y-30200095D01*
X228671428Y-30200095D02*
X228633332Y-30276285D01*
X228633332Y-30276285D02*
X228633332Y-30390571D01*
X228633332Y-30390571D02*
X228671428Y-30466761D01*
X228671428Y-30466761D02*
X228709523Y-30504857D01*
X228709523Y-30504857D02*
X228785713Y-30542952D01*
X228785713Y-30542952D02*
X229090475Y-30542952D01*
X227871428Y-30923904D02*
X228328571Y-30923904D01*
X228099999Y-30923904D02*
X228099999Y-30123904D01*
X228099999Y-30123904D02*
X228176190Y-30238190D01*
X228176190Y-30238190D02*
X228252380Y-30314380D01*
X228252380Y-30314380D02*
X228328571Y-30352476D01*
X229433333Y-33293904D02*
X229890476Y-33293904D01*
X229661904Y-33293904D02*
X229661904Y-32493904D01*
X229661904Y-32493904D02*
X229738095Y-32608190D01*
X229738095Y-32608190D02*
X229814285Y-32684380D01*
X229814285Y-32684380D02*
X229890476Y-32722476D01*
X228938094Y-32493904D02*
X228861904Y-32493904D01*
X228861904Y-32493904D02*
X228785713Y-32532000D01*
X228785713Y-32532000D02*
X228747618Y-32570095D01*
X228747618Y-32570095D02*
X228709523Y-32646285D01*
X228709523Y-32646285D02*
X228671428Y-32798666D01*
X228671428Y-32798666D02*
X228671428Y-32989142D01*
X228671428Y-32989142D02*
X228709523Y-33141523D01*
X228709523Y-33141523D02*
X228747618Y-33217714D01*
X228747618Y-33217714D02*
X228785713Y-33255809D01*
X228785713Y-33255809D02*
X228861904Y-33293904D01*
X228861904Y-33293904D02*
X228938094Y-33293904D01*
X228938094Y-33293904D02*
X229014285Y-33255809D01*
X229014285Y-33255809D02*
X229052380Y-33217714D01*
X229052380Y-33217714D02*
X229090475Y-33141523D01*
X229090475Y-33141523D02*
X229128571Y-32989142D01*
X229128571Y-32989142D02*
X229128571Y-32798666D01*
X229128571Y-32798666D02*
X229090475Y-32646285D01*
X229090475Y-32646285D02*
X229052380Y-32570095D01*
X229052380Y-32570095D02*
X229014285Y-32532000D01*
X229014285Y-32532000D02*
X228938094Y-32493904D01*
X228176189Y-32493904D02*
X228099999Y-32493904D01*
X228099999Y-32493904D02*
X228023808Y-32532000D01*
X228023808Y-32532000D02*
X227985713Y-32570095D01*
X227985713Y-32570095D02*
X227947618Y-32646285D01*
X227947618Y-32646285D02*
X227909523Y-32798666D01*
X227909523Y-32798666D02*
X227909523Y-32989142D01*
X227909523Y-32989142D02*
X227947618Y-33141523D01*
X227947618Y-33141523D02*
X227985713Y-33217714D01*
X227985713Y-33217714D02*
X228023808Y-33255809D01*
X228023808Y-33255809D02*
X228099999Y-33293904D01*
X228099999Y-33293904D02*
X228176189Y-33293904D01*
X228176189Y-33293904D02*
X228252380Y-33255809D01*
X228252380Y-33255809D02*
X228290475Y-33217714D01*
X228290475Y-33217714D02*
X228328570Y-33141523D01*
X228328570Y-33141523D02*
X228366666Y-32989142D01*
X228366666Y-32989142D02*
X228366666Y-32798666D01*
X228366666Y-32798666D02*
X228328570Y-32646285D01*
X228328570Y-32646285D02*
X228290475Y-32570095D01*
X228290475Y-32570095D02*
X228252380Y-32532000D01*
X228252380Y-32532000D02*
X228176189Y-32493904D01*
X227566665Y-33293904D02*
X227566665Y-32493904D01*
X227109522Y-33293904D02*
X227452380Y-32836761D01*
X227109522Y-32493904D02*
X227566665Y-32951047D01*
D12*
X239700000Y-70750000D02*
X240300000Y-70750000D01*
X241000000Y-70050000D02*
X241000000Y-68650000D01*
X239000000Y-68650000D02*
X239000000Y-70050000D01*
X240300000Y-67950000D02*
X239700000Y-67950000D01*
X239000000Y-70050000D02*
G75*
G03*
X239700000Y-70750000I699999J-1D01*
G01*
X240300000Y-70750000D02*
G75*
G03*
X241000000Y-70050000I1J699999D01*
G01*
X239700000Y-67950000D02*
G75*
G03*
X239000000Y-68650000I0J-700000D01*
G01*
X241000000Y-68650000D02*
G75*
G03*
X240300000Y-67950000I-700000J0D01*
G01*
X250800000Y-67950000D02*
X250200000Y-67950000D01*
X249500000Y-68650000D02*
X249500000Y-70050000D01*
X251500000Y-70050000D02*
X251500000Y-68650000D01*
X250200000Y-70750000D02*
X250800000Y-70750000D01*
X251500000Y-68650000D02*
G75*
G03*
X250800000Y-67950000I-699999J1D01*
G01*
X250200000Y-67950000D02*
G75*
G03*
X249500000Y-68650000I-1J-699999D01*
G01*
X250800000Y-70750000D02*
G75*
G03*
X251500000Y-70050000I0J700000D01*
G01*
X249500000Y-70050000D02*
G75*
G03*
X250200000Y-70750000I700000J0D01*
G01*
X232540000Y-69500000D02*
X231770000Y-69500000D01*
X231770000Y-70870000D02*
X225230000Y-70870000D01*
X231770000Y-68130000D02*
X231770000Y-70870000D01*
X225230000Y-70870000D02*
X225230000Y-68130000D01*
X225230000Y-68130000D02*
X231770000Y-68130000D01*
X224460000Y-69500000D02*
X225230000Y-69500000D01*
X216540000Y-51500000D02*
X215770000Y-51500000D01*
X215770000Y-52870000D02*
X209230000Y-52870000D01*
X215770000Y-50130000D02*
X215770000Y-52870000D01*
X209230000Y-52870000D02*
X209230000Y-50130000D01*
X209230000Y-50130000D02*
X215770000Y-50130000D01*
X208460000Y-51500000D02*
X209230000Y-51500000D01*
X246700000Y-70750000D02*
X247300000Y-70750000D01*
X248000000Y-70050000D02*
X248000000Y-68650000D01*
X246000000Y-68650000D02*
X246000000Y-70050000D01*
X247300000Y-67950000D02*
X246700000Y-67950000D01*
X246000000Y-70050000D02*
G75*
G03*
X246700000Y-70750000I699999J-1D01*
G01*
X247300000Y-70750000D02*
G75*
G03*
X248000000Y-70050000I1J699999D01*
G01*
X246700000Y-67950000D02*
G75*
G03*
X246000000Y-68650000I0J-700000D01*
G01*
X248000000Y-68650000D02*
G75*
G03*
X247300000Y-67950000I-700000J0D01*
G01*
X243800000Y-67950000D02*
X243200000Y-67950000D01*
X242500000Y-68650000D02*
X242500000Y-70050000D01*
X244500000Y-70050000D02*
X244500000Y-68650000D01*
X243200000Y-70750000D02*
X243800000Y-70750000D01*
X244500000Y-68650000D02*
G75*
G03*
X243800000Y-67950000I-699999J1D01*
G01*
X243200000Y-67950000D02*
G75*
G03*
X242500000Y-68650000I-1J-699999D01*
G01*
X243800000Y-70750000D02*
G75*
G03*
X244500000Y-70050000I0J700000D01*
G01*
X242500000Y-70050000D02*
G75*
G03*
X243200000Y-70750000I700000J0D01*
G01*
X216540000Y-47500000D02*
X215770000Y-47500000D01*
X215770000Y-48870000D02*
X209230000Y-48870000D01*
X215770000Y-46130000D02*
X215770000Y-48870000D01*
X209230000Y-48870000D02*
X209230000Y-46130000D01*
X209230000Y-46130000D02*
X215770000Y-46130000D01*
X208460000Y-47500000D02*
X209230000Y-47500000D01*
X252795000Y-76170000D02*
X252795000Y-78830000D01*
X224795000Y-76170000D02*
X252795000Y-76170000D01*
X224795000Y-76170000D02*
X224795000Y-78830000D01*
X223525000Y-76170000D02*
X222195000Y-76170000D01*
X222195000Y-76170000D02*
X222195000Y-77500000D01*
X224795000Y-78830000D02*
X252795000Y-78830000D01*
X232540000Y-33000000D02*
X231770000Y-33000000D01*
X231770000Y-34370000D02*
X225230000Y-34370000D01*
X231770000Y-31630000D02*
X231770000Y-34370000D01*
X225230000Y-34370000D02*
X225230000Y-31630000D01*
X225230000Y-31630000D02*
X231770000Y-31630000D01*
X224460000Y-33000000D02*
X225230000Y-33000000D01*
%LPC*%
D13*
X212500000Y-25000000D03*
D14*
X226595000Y-38905000D03*
X226595000Y-60905000D03*
X248595000Y-38905000D03*
X248595000Y-60905000D03*
D15*
X233785000Y-38405000D03*
X236325000Y-38405000D03*
X238865000Y-38405000D03*
X241405000Y-38405000D03*
D16*
X210200000Y-35000000D03*
X215200000Y-35000000D03*
X210200000Y-40000000D03*
X215200000Y-40000000D03*
X209600000Y-37500000D03*
X215800000Y-37500000D03*
D17*
X255249999Y-47499999D03*
D18*
X255250000Y-52500000D03*
X255250000Y-50000000D03*
D19*
X262749999Y-44399999D03*
X262749999Y-55599999D03*
D18*
X269750000Y-52500000D03*
X269750000Y-47500000D03*
D13*
X262500000Y-75000000D03*
D16*
X210200000Y-60000000D03*
X215200000Y-60000000D03*
X210200000Y-65000000D03*
X215200000Y-65000000D03*
X209600000Y-62500000D03*
X215800000Y-62500000D03*
D20*
X240000000Y-70000000D03*
D21*
X240000000Y-68700000D03*
D22*
X250500000Y-68700000D03*
D23*
X250500000Y-70000000D03*
D15*
X233580000Y-69500000D03*
D24*
X223419999Y-69499999D03*
D15*
X217580000Y-51500000D03*
D24*
X207419999Y-51499999D03*
D20*
X247000000Y-70000000D03*
D21*
X247000000Y-68700000D03*
D22*
X243500000Y-68700000D03*
D23*
X243500000Y-70000000D03*
D15*
X217580000Y-47500000D03*
D24*
X207419999Y-47499999D03*
D25*
X223524999Y-77499999D03*
D26*
X226064999Y-77499999D03*
X228604999Y-77499999D03*
X231144999Y-77499999D03*
X233684999Y-77499999D03*
X236224999Y-77499999D03*
X238764999Y-77499999D03*
X241304999Y-77499999D03*
X243844999Y-77499999D03*
X246384999Y-77499999D03*
X248924999Y-77499999D03*
X251464999Y-77499999D03*
D15*
X233580000Y-33000000D03*
D24*
X223419999Y-32999999D03*
M02*
