G04 #@! TF.GenerationSoftware,KiCad,Pcbnew,(7.0.0)*
G04 #@! TF.CreationDate,2023-02-26T23:15:00-06:00*
G04 #@! TF.ProjectId,KosmoClockUI,4b6f736d-6f43-46c6-9f63-6b55492e6b69,rev?*
G04 #@! TF.SameCoordinates,Original*
G04 #@! TF.FileFunction,Copper,L1,Top*
G04 #@! TF.FilePolarity,Positive*
%FSLAX46Y46*%
G04 Gerber Fmt 4.6, Leading zero omitted, Abs format (unit mm)*
G04 Created by KiCad (PCBNEW (7.0.0)) date 2023-02-26 23:15:00*
%MOMM*%
%LPD*%
G01*
G04 APERTURE LIST*
G04 #@! TA.AperFunction,WasherPad*
%ADD10C,3.000000*%
G04 #@! TD*
G04 #@! TA.AperFunction,ComponentPad*
%ADD11C,1.600000*%
G04 #@! TD*
G04 #@! TA.AperFunction,ComponentPad*
%ADD12C,1.800000*%
G04 #@! TD*
G04 #@! TA.AperFunction,ComponentPad*
%ADD13R,2.000000X2.000000*%
G04 #@! TD*
G04 #@! TA.AperFunction,ComponentPad*
%ADD14C,2.000000*%
G04 #@! TD*
G04 #@! TA.AperFunction,ComponentPad*
%ADD15R,3.200000X2.000000*%
G04 #@! TD*
G04 #@! TA.AperFunction,ComponentPad*
%ADD16O,1.600000X1.600000*%
G04 #@! TD*
G04 #@! TA.AperFunction,ComponentPad*
%ADD17R,1.700000X1.700000*%
G04 #@! TD*
G04 #@! TA.AperFunction,ComponentPad*
%ADD18O,1.700000X1.700000*%
G04 #@! TD*
G04 #@! TA.AperFunction,ViaPad*
%ADD19C,0.800000*%
G04 #@! TD*
G04 #@! TA.AperFunction,Conductor*
%ADD20C,0.250000*%
G04 #@! TD*
G04 APERTURE END LIST*
D10*
X226595000Y-38905000D03*
X226595000Y-60905000D03*
X248595000Y-38905000D03*
X248595000Y-60905000D03*
D11*
X233785000Y-38405000D03*
X236325000Y-38405000D03*
X238865000Y-38405000D03*
X241405000Y-38405000D03*
D12*
X210200000Y-35000000D03*
X215200000Y-35000000D03*
X210200000Y-40000000D03*
X215200000Y-40000000D03*
X209600000Y-37500000D03*
X215800000Y-37500000D03*
D13*
X255249999Y-47499999D03*
D14*
X255250000Y-52500000D03*
X255250000Y-50000000D03*
D15*
X262749999Y-44399999D03*
X262749999Y-55599999D03*
D14*
X269750000Y-52500000D03*
X269750000Y-47500000D03*
D12*
X210200000Y-60000000D03*
X215200000Y-60000000D03*
X210200000Y-65000000D03*
X215200000Y-65000000D03*
X209600000Y-62500000D03*
X215800000Y-62500000D03*
D11*
X233580000Y-69500000D03*
D16*
X223419999Y-69499999D03*
D11*
X217580000Y-51500000D03*
D16*
X207419999Y-51499999D03*
D11*
X217580000Y-47500000D03*
D16*
X207419999Y-47499999D03*
D17*
X223524999Y-77499999D03*
D18*
X226064999Y-77499999D03*
X228604999Y-77499999D03*
X231144999Y-77499999D03*
X233684999Y-77499999D03*
X236224999Y-77499999D03*
X238764999Y-77499999D03*
X241304999Y-77499999D03*
X243844999Y-77499999D03*
X246384999Y-77499999D03*
X248924999Y-77499999D03*
X251464999Y-77499999D03*
D11*
X233580000Y-33000000D03*
D16*
X223419999Y-32999999D03*
D19*
X248500000Y-72700000D03*
X251500000Y-66200000D03*
D20*
X216007210Y-62500000D02*
X215800000Y-62500000D01*
X217200000Y-33000000D02*
X215200000Y-35000000D01*
X223420000Y-33000000D02*
X217200000Y-33000000D01*
X215200000Y-60000000D02*
X210200000Y-60000000D01*
X223420000Y-69500000D02*
X223420000Y-68220000D01*
X223420000Y-68220000D02*
X215200000Y-60000000D01*
X240035000Y-78365000D02*
X239724600Y-78675400D01*
X231476500Y-77500000D02*
X231145000Y-77500000D01*
X269750000Y-52500000D02*
X269750000Y-53750000D01*
X240861750Y-75689500D02*
X240035000Y-76516250D01*
X269750000Y-53750000D02*
X247810500Y-75689500D01*
X232651900Y-78675400D02*
X231476500Y-77500000D01*
X240035000Y-76516250D02*
X240035000Y-78365000D01*
X239724600Y-78675400D02*
X232651900Y-78675400D01*
X247810500Y-75689500D02*
X240861750Y-75689500D01*
X233685000Y-77500000D02*
X233685000Y-76324700D01*
X234860300Y-67889700D02*
X255250000Y-47500000D01*
X233685000Y-76324700D02*
X234860300Y-75149400D01*
X234860300Y-75149400D02*
X234860300Y-67889700D01*
X236225000Y-76324700D02*
X255250000Y-57299700D01*
X236225000Y-77500000D02*
X236225000Y-76324700D01*
X255250000Y-57299700D02*
X255250000Y-52500000D01*
G04 #@! TA.AperFunction,Conductor*
G36*
X271936500Y-20017381D02*
G01*
X271982619Y-20063500D01*
X271999500Y-20126500D01*
X271999500Y-79873500D01*
X271982619Y-79936500D01*
X271936500Y-79982619D01*
X271873500Y-79999500D01*
X203126500Y-79999500D01*
X203063500Y-79982619D01*
X203017381Y-79936500D01*
X203000500Y-79873500D01*
X203000500Y-78395223D01*
X222167000Y-78395223D01*
X222167359Y-78401938D01*
X222172662Y-78451257D01*
X222176259Y-78466478D01*
X222221405Y-78587519D01*
X222229954Y-78603175D01*
X222306697Y-78705692D01*
X222319307Y-78718302D01*
X222421824Y-78795045D01*
X222437480Y-78803594D01*
X222558521Y-78848740D01*
X222573742Y-78852337D01*
X222623061Y-78857640D01*
X222629777Y-78858000D01*
X223254410Y-78858000D01*
X223267493Y-78854493D01*
X223271000Y-78841410D01*
X223779000Y-78841410D01*
X223782506Y-78854493D01*
X223795590Y-78858000D01*
X224420223Y-78858000D01*
X224426938Y-78857640D01*
X224476257Y-78852337D01*
X224491478Y-78848740D01*
X224612519Y-78803594D01*
X224628175Y-78795045D01*
X224730692Y-78718302D01*
X224743302Y-78705692D01*
X224820045Y-78603175D01*
X224828594Y-78587519D01*
X224869618Y-78477531D01*
X224906150Y-78425491D01*
X224963440Y-78397915D01*
X225026902Y-78401825D01*
X225080375Y-78436225D01*
X225141760Y-78502906D01*
X225319424Y-78641189D01*
X225517426Y-78748342D01*
X225522355Y-78750034D01*
X225522357Y-78750035D01*
X225522360Y-78750036D01*
X225730365Y-78821444D01*
X225952431Y-78858500D01*
X226172358Y-78858500D01*
X226177569Y-78858500D01*
X226399635Y-78821444D01*
X226612574Y-78748342D01*
X226810576Y-78641189D01*
X226988240Y-78502906D01*
X227140722Y-78337268D01*
X227229518Y-78201354D01*
X227275030Y-78159457D01*
X227335000Y-78144271D01*
X227394970Y-78159457D01*
X227440481Y-78201354D01*
X227529278Y-78337268D01*
X227532806Y-78341100D01*
X227678227Y-78499069D01*
X227678231Y-78499073D01*
X227681760Y-78502906D01*
X227859424Y-78641189D01*
X228057426Y-78748342D01*
X228062355Y-78750034D01*
X228062357Y-78750035D01*
X228062360Y-78750036D01*
X228270365Y-78821444D01*
X228492431Y-78858500D01*
X228712358Y-78858500D01*
X228717569Y-78858500D01*
X228939635Y-78821444D01*
X229152574Y-78748342D01*
X229350576Y-78641189D01*
X229528240Y-78502906D01*
X229680722Y-78337268D01*
X229769518Y-78201354D01*
X229815030Y-78159457D01*
X229875000Y-78144271D01*
X229934970Y-78159457D01*
X229980481Y-78201354D01*
X230069278Y-78337268D01*
X230072806Y-78341100D01*
X230218227Y-78499069D01*
X230218231Y-78499073D01*
X230221760Y-78502906D01*
X230399424Y-78641189D01*
X230597426Y-78748342D01*
X230602355Y-78750034D01*
X230602357Y-78750035D01*
X230602360Y-78750036D01*
X230810365Y-78821444D01*
X231032431Y-78858500D01*
X231252358Y-78858500D01*
X231257569Y-78858500D01*
X231479635Y-78821444D01*
X231692574Y-78748342D01*
X231698414Y-78745180D01*
X231699278Y-78744930D01*
X231701928Y-78743768D01*
X231702080Y-78744116D01*
X231749708Y-78730288D01*
X231802568Y-78737985D01*
X231847489Y-78766893D01*
X232148242Y-79067646D01*
X232155784Y-79075933D01*
X232159900Y-79082418D01*
X232165679Y-79087844D01*
X232165680Y-79087846D01*
X232209567Y-79129058D01*
X232212409Y-79131813D01*
X232232131Y-79151535D01*
X232235259Y-79153961D01*
X232235260Y-79153962D01*
X232235314Y-79154004D01*
X232244346Y-79161717D01*
X232276579Y-79191986D01*
X232283524Y-79195804D01*
X232294330Y-79201745D01*
X232310856Y-79212601D01*
X232320590Y-79220151D01*
X232320592Y-79220152D01*
X232326860Y-79225014D01*
X232367430Y-79242570D01*
X232378086Y-79247790D01*
X232409893Y-79265276D01*
X232416840Y-79269095D01*
X232436466Y-79274134D01*
X232455159Y-79280534D01*
X232473755Y-79288581D01*
X232481586Y-79289821D01*
X232481589Y-79289822D01*
X232498028Y-79292425D01*
X232517425Y-79295497D01*
X232529025Y-79297898D01*
X232571870Y-79308900D01*
X232592124Y-79308900D01*
X232611834Y-79310450D01*
X232631843Y-79313620D01*
X232675861Y-79309458D01*
X232687719Y-79308900D01*
X239645833Y-79308900D01*
X239657016Y-79309427D01*
X239664509Y-79311102D01*
X239732585Y-79308962D01*
X239736545Y-79308900D01*
X239760494Y-79308900D01*
X239764456Y-79308900D01*
X239768456Y-79308394D01*
X239780299Y-79307461D01*
X239824489Y-79306073D01*
X239843933Y-79300423D01*
X239863302Y-79296412D01*
X239883397Y-79293874D01*
X239924515Y-79277593D01*
X239935717Y-79273757D01*
X239978193Y-79261418D01*
X239995639Y-79251099D01*
X240013369Y-79242413D01*
X240032217Y-79234952D01*
X240067987Y-79208961D01*
X240077898Y-79202451D01*
X240115962Y-79179942D01*
X240130288Y-79165615D01*
X240145317Y-79152778D01*
X240161707Y-79140872D01*
X240189888Y-79106805D01*
X240197867Y-79098035D01*
X240427266Y-78868637D01*
X240435534Y-78861114D01*
X240442018Y-78857000D01*
X240488661Y-78807328D01*
X240491353Y-78804550D01*
X240511135Y-78784770D01*
X240513613Y-78781574D01*
X240521307Y-78772564D01*
X240549504Y-78742537D01*
X240594709Y-78711744D01*
X240648708Y-78703008D01*
X240701319Y-78717978D01*
X240757426Y-78748342D01*
X240762355Y-78750034D01*
X240762357Y-78750035D01*
X240762360Y-78750036D01*
X240970365Y-78821444D01*
X241192431Y-78858500D01*
X241412358Y-78858500D01*
X241417569Y-78858500D01*
X241639635Y-78821444D01*
X241852574Y-78748342D01*
X242050576Y-78641189D01*
X242228240Y-78502906D01*
X242380722Y-78337268D01*
X242469518Y-78201354D01*
X242515030Y-78159457D01*
X242575000Y-78144271D01*
X242634970Y-78159457D01*
X242680481Y-78201354D01*
X242769278Y-78337268D01*
X242772806Y-78341100D01*
X242918227Y-78499069D01*
X242918231Y-78499073D01*
X242921760Y-78502906D01*
X243099424Y-78641189D01*
X243297426Y-78748342D01*
X243302355Y-78750034D01*
X243302357Y-78750035D01*
X243302360Y-78750036D01*
X243510365Y-78821444D01*
X243732431Y-78858500D01*
X243952358Y-78858500D01*
X243957569Y-78858500D01*
X244179635Y-78821444D01*
X244392574Y-78748342D01*
X244590576Y-78641189D01*
X244768240Y-78502906D01*
X244920722Y-78337268D01*
X245009518Y-78201354D01*
X245055030Y-78159457D01*
X245115000Y-78144271D01*
X245174970Y-78159457D01*
X245220481Y-78201354D01*
X245309278Y-78337268D01*
X245312806Y-78341100D01*
X245458227Y-78499069D01*
X245458231Y-78499073D01*
X245461760Y-78502906D01*
X245639424Y-78641189D01*
X245837426Y-78748342D01*
X245842355Y-78750034D01*
X245842357Y-78750035D01*
X245842360Y-78750036D01*
X246050365Y-78821444D01*
X246272431Y-78858500D01*
X246492358Y-78858500D01*
X246497569Y-78858500D01*
X246719635Y-78821444D01*
X246932574Y-78748342D01*
X247130576Y-78641189D01*
X247308240Y-78502906D01*
X247460722Y-78337268D01*
X247549518Y-78201354D01*
X247595030Y-78159457D01*
X247655000Y-78144271D01*
X247714970Y-78159457D01*
X247760481Y-78201354D01*
X247849278Y-78337268D01*
X247852806Y-78341100D01*
X247998227Y-78499069D01*
X247998231Y-78499073D01*
X248001760Y-78502906D01*
X248179424Y-78641189D01*
X248377426Y-78748342D01*
X248382355Y-78750034D01*
X248382357Y-78750035D01*
X248382360Y-78750036D01*
X248590365Y-78821444D01*
X248812431Y-78858500D01*
X249032358Y-78858500D01*
X249037569Y-78858500D01*
X249259635Y-78821444D01*
X249472574Y-78748342D01*
X249670576Y-78641189D01*
X249848240Y-78502906D01*
X250000722Y-78337268D01*
X250089817Y-78200896D01*
X250135328Y-78159001D01*
X250195297Y-78143814D01*
X250255267Y-78159000D01*
X250300781Y-78200898D01*
X250386822Y-78332592D01*
X250393210Y-78340799D01*
X250538567Y-78498700D01*
X250546211Y-78505737D01*
X250715588Y-78637568D01*
X250724281Y-78643247D01*
X250913042Y-78745400D01*
X250922559Y-78749575D01*
X251125557Y-78819264D01*
X251135627Y-78821814D01*
X251197461Y-78832132D01*
X251208598Y-78831556D01*
X251211000Y-78820664D01*
X251719000Y-78820664D01*
X251721401Y-78831556D01*
X251732538Y-78832132D01*
X251794372Y-78821814D01*
X251804442Y-78819264D01*
X252007440Y-78749575D01*
X252016957Y-78745400D01*
X252205718Y-78643247D01*
X252214411Y-78637568D01*
X252383788Y-78505737D01*
X252391432Y-78498700D01*
X252536789Y-78340799D01*
X252543177Y-78332593D01*
X252660568Y-78152913D01*
X252665511Y-78143778D01*
X252751729Y-77947223D01*
X252755099Y-77937408D01*
X252798013Y-77767943D01*
X252798248Y-77756565D01*
X252787160Y-77754000D01*
X251735590Y-77754000D01*
X251722506Y-77757506D01*
X251719000Y-77770590D01*
X251719000Y-78820664D01*
X251211000Y-78820664D01*
X251211000Y-77229410D01*
X251719000Y-77229410D01*
X251722506Y-77242493D01*
X251735590Y-77246000D01*
X252787160Y-77246000D01*
X252798248Y-77243434D01*
X252798013Y-77232056D01*
X252755099Y-77062591D01*
X252751729Y-77052776D01*
X252665511Y-76856221D01*
X252660568Y-76847086D01*
X252543177Y-76667406D01*
X252536789Y-76659200D01*
X252391432Y-76501299D01*
X252383788Y-76494262D01*
X252214411Y-76362431D01*
X252205718Y-76356752D01*
X252016957Y-76254599D01*
X252007440Y-76250424D01*
X251804442Y-76180735D01*
X251794372Y-76178185D01*
X251732538Y-76167867D01*
X251721401Y-76168443D01*
X251719000Y-76179336D01*
X251719000Y-77229410D01*
X251211000Y-77229410D01*
X251211000Y-76179336D01*
X251208598Y-76168443D01*
X251197461Y-76167867D01*
X251135627Y-76178185D01*
X251125557Y-76180735D01*
X250922559Y-76250424D01*
X250913042Y-76254599D01*
X250724281Y-76356752D01*
X250715588Y-76362431D01*
X250546211Y-76494262D01*
X250538567Y-76501299D01*
X250393210Y-76659200D01*
X250386816Y-76667415D01*
X250300780Y-76799101D01*
X250255267Y-76840999D01*
X250195297Y-76856185D01*
X250135328Y-76840998D01*
X250089816Y-76799101D01*
X250000722Y-76662732D01*
X249881774Y-76533521D01*
X249851772Y-76500930D01*
X249851767Y-76500925D01*
X249848240Y-76497094D01*
X249670576Y-76358811D01*
X249665997Y-76356333D01*
X249665994Y-76356331D01*
X249477159Y-76254139D01*
X249477156Y-76254137D01*
X249472574Y-76251658D01*
X249467650Y-76249967D01*
X249467642Y-76249964D01*
X249264565Y-76180248D01*
X249264559Y-76180246D01*
X249259635Y-76178556D01*
X249254498Y-76177698D01*
X249254495Y-76177698D01*
X249042706Y-76142357D01*
X249042703Y-76142356D01*
X249037569Y-76141500D01*
X248812431Y-76141500D01*
X248807297Y-76142356D01*
X248807293Y-76142357D01*
X248595504Y-76177698D01*
X248595498Y-76177699D01*
X248590365Y-76178556D01*
X248585445Y-76180244D01*
X248585429Y-76180249D01*
X248537458Y-76196718D01*
X248470689Y-76200863D01*
X248411209Y-76170246D01*
X248375785Y-76113497D01*
X248374403Y-76046614D01*
X248407450Y-75988452D01*
X249395902Y-75000000D01*
X260894551Y-75000000D01*
X260894939Y-75004930D01*
X260913928Y-75246214D01*
X260913929Y-75246222D01*
X260914317Y-75251148D01*
X260915471Y-75255956D01*
X260915472Y-75255960D01*
X260971971Y-75491298D01*
X260971972Y-75491303D01*
X260973127Y-75496111D01*
X260975020Y-75500681D01*
X260975021Y-75500684D01*
X260987371Y-75530500D01*
X261069534Y-75728859D01*
X261072119Y-75733078D01*
X261072120Y-75733079D01*
X261179404Y-75908151D01*
X261201164Y-75943659D01*
X261260043Y-76012597D01*
X261342109Y-76108685D01*
X261364776Y-76135224D01*
X261556341Y-76298836D01*
X261771141Y-76430466D01*
X262003889Y-76526873D01*
X262248852Y-76585683D01*
X262437118Y-76600500D01*
X262560413Y-76600500D01*
X262562882Y-76600500D01*
X262751148Y-76585683D01*
X262996111Y-76526873D01*
X263228859Y-76430466D01*
X263443659Y-76298836D01*
X263635224Y-76135224D01*
X263798836Y-75943659D01*
X263930466Y-75728859D01*
X264026873Y-75496111D01*
X264085683Y-75251148D01*
X264105449Y-75000000D01*
X264085683Y-74748852D01*
X264026873Y-74503889D01*
X263930466Y-74271141D01*
X263798836Y-74056341D01*
X263635224Y-73864776D01*
X263443659Y-73701164D01*
X263228859Y-73569534D01*
X262996111Y-73473127D01*
X262991303Y-73471972D01*
X262991298Y-73471971D01*
X262755960Y-73415472D01*
X262755956Y-73415471D01*
X262751148Y-73414317D01*
X262746222Y-73413929D01*
X262746214Y-73413928D01*
X262565338Y-73399693D01*
X262565330Y-73399692D01*
X262562882Y-73399500D01*
X262437118Y-73399500D01*
X262434670Y-73399692D01*
X262434661Y-73399693D01*
X262253785Y-73413928D01*
X262253775Y-73413929D01*
X262248852Y-73414317D01*
X262244045Y-73415471D01*
X262244039Y-73415472D01*
X262008701Y-73471971D01*
X262008692Y-73471973D01*
X262003889Y-73473127D01*
X261999321Y-73475018D01*
X261999315Y-73475021D01*
X261775715Y-73567639D01*
X261775710Y-73567641D01*
X261771141Y-73569534D01*
X261766926Y-73572116D01*
X261766920Y-73572120D01*
X261560558Y-73698579D01*
X261560550Y-73698584D01*
X261556341Y-73701164D01*
X261552580Y-73704375D01*
X261552576Y-73704379D01*
X261368538Y-73861562D01*
X261368531Y-73861568D01*
X261364776Y-73864776D01*
X261361568Y-73868531D01*
X261361562Y-73868538D01*
X261204379Y-74052576D01*
X261204375Y-74052580D01*
X261201164Y-74056341D01*
X261198584Y-74060550D01*
X261198579Y-74060558D01*
X261072120Y-74266920D01*
X261072116Y-74266926D01*
X261069534Y-74271141D01*
X261067641Y-74275710D01*
X261067639Y-74275715D01*
X260975021Y-74499315D01*
X260975018Y-74499321D01*
X260973127Y-74503889D01*
X260971973Y-74508692D01*
X260971971Y-74508701D01*
X260915472Y-74744039D01*
X260914317Y-74748852D01*
X260913929Y-74753775D01*
X260913928Y-74753785D01*
X260900540Y-74923900D01*
X260894551Y-75000000D01*
X249395902Y-75000000D01*
X270142259Y-54253643D01*
X270150533Y-54246114D01*
X270157018Y-54242000D01*
X270203676Y-54192312D01*
X270206368Y-54189534D01*
X270226134Y-54169770D01*
X270228601Y-54166588D01*
X270236310Y-54157561D01*
X270266586Y-54125321D01*
X270276345Y-54107567D01*
X270287199Y-54091043D01*
X270299613Y-54075041D01*
X270317167Y-54034475D01*
X270322392Y-54023808D01*
X270339875Y-53992008D01*
X270339874Y-53992008D01*
X270343695Y-53985060D01*
X270348732Y-53965442D01*
X270355138Y-53946730D01*
X270363181Y-53928145D01*
X270363330Y-53927203D01*
X270388572Y-53881715D01*
X270428512Y-53853422D01*
X270427981Y-53852380D01*
X270432384Y-53850136D01*
X270436963Y-53848240D01*
X270639416Y-53724176D01*
X270819969Y-53569969D01*
X270974176Y-53389416D01*
X271098240Y-53186963D01*
X271189105Y-52967594D01*
X271244535Y-52736711D01*
X271263165Y-52500000D01*
X271244535Y-52263289D01*
X271189105Y-52032406D01*
X271098240Y-51813037D01*
X270974176Y-51610584D01*
X270819969Y-51430031D01*
X270816206Y-51426817D01*
X270643175Y-51279034D01*
X270643171Y-51279031D01*
X270639416Y-51275824D01*
X270436963Y-51151760D01*
X270217594Y-51060895D01*
X270212786Y-51059740D01*
X270212781Y-51059739D01*
X269991523Y-51006620D01*
X269991519Y-51006619D01*
X269986711Y-51005465D01*
X269981785Y-51005077D01*
X269981777Y-51005076D01*
X269754930Y-50987223D01*
X269750000Y-50986835D01*
X269745070Y-50987223D01*
X269518222Y-51005076D01*
X269518212Y-51005077D01*
X269513289Y-51005465D01*
X269508482Y-51006619D01*
X269508476Y-51006620D01*
X269287218Y-51059739D01*
X269287209Y-51059741D01*
X269282406Y-51060895D01*
X269277838Y-51062786D01*
X269277832Y-51062789D01*
X269067611Y-51149865D01*
X269067606Y-51149867D01*
X269063037Y-51151760D01*
X269058817Y-51154345D01*
X269058817Y-51154346D01*
X268864798Y-51273241D01*
X268864792Y-51273245D01*
X268860584Y-51275824D01*
X268856834Y-51279026D01*
X268856824Y-51279034D01*
X268683786Y-51426823D01*
X268683779Y-51426829D01*
X268680031Y-51430031D01*
X268676829Y-51433779D01*
X268676823Y-51433786D01*
X268529034Y-51606824D01*
X268529026Y-51606834D01*
X268525824Y-51610584D01*
X268523245Y-51614792D01*
X268523241Y-51614798D01*
X268450561Y-51733401D01*
X268401760Y-51813037D01*
X268399867Y-51817606D01*
X268399865Y-51817611D01*
X268312789Y-52027832D01*
X268312786Y-52027838D01*
X268310895Y-52032406D01*
X268309741Y-52037209D01*
X268309739Y-52037218D01*
X268256620Y-52258476D01*
X268255465Y-52263289D01*
X268255077Y-52268212D01*
X268255076Y-52268222D01*
X268249444Y-52339788D01*
X268236835Y-52500000D01*
X268237223Y-52504930D01*
X268255076Y-52731777D01*
X268255077Y-52731785D01*
X268255465Y-52736711D01*
X268256619Y-52741519D01*
X268256620Y-52741523D01*
X268309739Y-52962781D01*
X268309740Y-52962786D01*
X268310895Y-52967594D01*
X268401760Y-53186963D01*
X268525824Y-53389416D01*
X268680031Y-53569969D01*
X268683786Y-53573176D01*
X268767364Y-53644559D01*
X268805366Y-53701434D01*
X268808052Y-53769784D01*
X268774628Y-53829465D01*
X247585000Y-75019095D01*
X247544123Y-75046409D01*
X247495905Y-75056000D01*
X240940517Y-75056000D01*
X240929333Y-75055472D01*
X240921841Y-75053798D01*
X240913915Y-75054047D01*
X240853764Y-75055938D01*
X240849805Y-75056000D01*
X240821894Y-75056000D01*
X240817968Y-75056495D01*
X240817950Y-75056497D01*
X240817858Y-75056509D01*
X240806053Y-75057437D01*
X240769781Y-75058577D01*
X240769773Y-75058578D01*
X240761861Y-75058827D01*
X240754254Y-75061036D01*
X240754253Y-75061037D01*
X240742406Y-75064479D01*
X240723056Y-75068486D01*
X240702953Y-75071026D01*
X240695590Y-75073940D01*
X240695586Y-75073942D01*
X240661848Y-75087300D01*
X240650623Y-75091143D01*
X240615767Y-75101270D01*
X240615760Y-75101273D01*
X240608157Y-75103482D01*
X240601341Y-75107512D01*
X240601333Y-75107516D01*
X240590710Y-75113798D01*
X240572971Y-75122489D01*
X240561499Y-75127031D01*
X240561496Y-75127032D01*
X240554133Y-75129948D01*
X240547726Y-75134602D01*
X240547722Y-75134605D01*
X240518361Y-75155937D01*
X240508443Y-75162451D01*
X240477215Y-75180919D01*
X240477207Y-75180925D01*
X240470388Y-75184958D01*
X240464786Y-75190558D01*
X240464779Y-75190565D01*
X240456058Y-75199286D01*
X240441037Y-75212115D01*
X240431057Y-75219366D01*
X240431048Y-75219373D01*
X240424643Y-75224028D01*
X240419595Y-75230128D01*
X240419586Y-75230138D01*
X240396450Y-75258104D01*
X240388463Y-75266881D01*
X239642747Y-76012597D01*
X239634460Y-76020138D01*
X239627982Y-76024250D01*
X239622562Y-76030021D01*
X239622559Y-76030024D01*
X239581370Y-76073886D01*
X239578621Y-76076722D01*
X239561667Y-76093677D01*
X239561660Y-76093684D01*
X239558865Y-76096480D01*
X239556442Y-76099602D01*
X239556426Y-76099621D01*
X239556365Y-76099701D01*
X239548690Y-76108685D01*
X239523838Y-76135152D01*
X239523835Y-76135154D01*
X239518414Y-76140929D01*
X239514600Y-76147864D01*
X239514592Y-76147877D01*
X239508650Y-76158686D01*
X239497803Y-76175199D01*
X239490245Y-76184942D01*
X239490238Y-76184952D01*
X239485386Y-76191209D01*
X239482240Y-76198476D01*
X239478928Y-76204079D01*
X239436694Y-76247134D01*
X239379289Y-76265628D01*
X239319865Y-76255326D01*
X239317156Y-76254138D01*
X239312574Y-76251658D01*
X239307646Y-76249966D01*
X239307641Y-76249964D01*
X239104565Y-76180248D01*
X239104559Y-76180246D01*
X239099635Y-76178556D01*
X239094498Y-76177698D01*
X239094495Y-76177698D01*
X238882706Y-76142357D01*
X238882703Y-76142356D01*
X238877569Y-76141500D01*
X238652431Y-76141500D01*
X238647297Y-76142356D01*
X238647293Y-76142357D01*
X238435504Y-76177698D01*
X238435498Y-76177699D01*
X238430365Y-76178556D01*
X238425443Y-76180245D01*
X238425434Y-76180248D01*
X238222357Y-76249964D01*
X238222344Y-76249969D01*
X238217426Y-76251658D01*
X238212847Y-76254135D01*
X238212840Y-76254139D01*
X238024005Y-76356331D01*
X238023997Y-76356336D01*
X238019424Y-76358811D01*
X238015313Y-76362010D01*
X238015311Y-76362012D01*
X237845878Y-76493888D01*
X237845872Y-76493893D01*
X237841760Y-76497094D01*
X237838237Y-76500919D01*
X237838227Y-76500930D01*
X237692806Y-76658899D01*
X237692802Y-76658902D01*
X237689278Y-76662732D01*
X237686430Y-76667090D01*
X237686427Y-76667095D01*
X237600483Y-76798643D01*
X237554969Y-76840542D01*
X237495000Y-76855728D01*
X237435031Y-76840542D01*
X237389517Y-76798643D01*
X237383827Y-76789934D01*
X237300722Y-76662732D01*
X237181774Y-76533521D01*
X237151768Y-76500926D01*
X237151765Y-76500923D01*
X237148240Y-76497094D01*
X237144131Y-76493896D01*
X237140552Y-76490601D01*
X237105129Y-76433852D01*
X237103747Y-76366969D01*
X237136794Y-76308808D01*
X255642264Y-57803339D01*
X255650535Y-57795813D01*
X255657018Y-57791700D01*
X255703660Y-57742029D01*
X255706352Y-57739251D01*
X255726135Y-57719470D01*
X255728613Y-57716274D01*
X255736308Y-57707263D01*
X255766586Y-57675021D01*
X255776348Y-57657262D01*
X255787195Y-57640750D01*
X255799614Y-57624741D01*
X255817179Y-57584146D01*
X255822388Y-57573514D01*
X255843695Y-57534760D01*
X255848733Y-57515134D01*
X255855134Y-57496437D01*
X255863181Y-57477845D01*
X255870096Y-57434177D01*
X255872504Y-57422553D01*
X255881529Y-57387405D01*
X255883500Y-57379730D01*
X255883500Y-57359476D01*
X255885051Y-57339765D01*
X255886980Y-57327585D01*
X255888220Y-57319757D01*
X255884058Y-57275738D01*
X255883500Y-57263881D01*
X255883500Y-56648638D01*
X260641500Y-56648638D01*
X260641859Y-56651985D01*
X260641860Y-56651988D01*
X260647168Y-56701367D01*
X260647169Y-56701373D01*
X260648011Y-56709201D01*
X260650762Y-56716578D01*
X260650763Y-56716580D01*
X260695962Y-56837763D01*
X260695964Y-56837766D01*
X260699111Y-56846204D01*
X260704508Y-56853414D01*
X260704510Y-56853417D01*
X260781340Y-56956049D01*
X260786739Y-56963261D01*
X260903796Y-57050889D01*
X261040799Y-57101989D01*
X261101362Y-57108500D01*
X264395269Y-57108500D01*
X264398638Y-57108500D01*
X264459201Y-57101989D01*
X264596204Y-57050889D01*
X264713261Y-56963261D01*
X264800889Y-56846204D01*
X264851989Y-56709201D01*
X264858500Y-56648638D01*
X264858500Y-54551362D01*
X264851989Y-54490799D01*
X264800889Y-54353796D01*
X264713261Y-54236739D01*
X264706049Y-54231340D01*
X264603417Y-54154510D01*
X264603414Y-54154508D01*
X264596204Y-54149111D01*
X264587766Y-54145964D01*
X264587763Y-54145962D01*
X264466580Y-54100763D01*
X264466578Y-54100762D01*
X264459201Y-54098011D01*
X264451373Y-54097169D01*
X264451367Y-54097168D01*
X264401988Y-54091860D01*
X264401985Y-54091859D01*
X264398638Y-54091500D01*
X261101362Y-54091500D01*
X261098015Y-54091859D01*
X261098011Y-54091860D01*
X261048632Y-54097168D01*
X261048625Y-54097169D01*
X261040799Y-54098011D01*
X261033423Y-54100761D01*
X261033419Y-54100763D01*
X260912236Y-54145962D01*
X260912230Y-54145965D01*
X260903796Y-54149111D01*
X260896588Y-54154506D01*
X260896582Y-54154510D01*
X260793950Y-54231340D01*
X260793946Y-54231343D01*
X260786739Y-54236739D01*
X260781343Y-54243946D01*
X260781340Y-54243950D01*
X260704510Y-54346582D01*
X260704506Y-54346588D01*
X260699111Y-54353796D01*
X260695965Y-54362230D01*
X260695962Y-54362236D01*
X260650763Y-54483419D01*
X260650761Y-54483423D01*
X260648011Y-54490799D01*
X260647169Y-54498625D01*
X260647168Y-54498632D01*
X260641860Y-54548011D01*
X260641500Y-54551362D01*
X260641500Y-56648638D01*
X255883500Y-56648638D01*
X255883500Y-53951566D01*
X255899565Y-53890000D01*
X255943665Y-53844133D01*
X255967601Y-53829465D01*
X256139416Y-53724176D01*
X256319969Y-53569969D01*
X256474176Y-53389416D01*
X256598240Y-53186963D01*
X256689105Y-52967594D01*
X256744535Y-52736711D01*
X256763165Y-52500000D01*
X256744535Y-52263289D01*
X256689105Y-52032406D01*
X256598240Y-51813037D01*
X256474176Y-51610584D01*
X256319969Y-51430031D01*
X256316213Y-51426823D01*
X256316207Y-51426817D01*
X256161910Y-51295035D01*
X256132325Y-51258069D01*
X256129048Y-51247358D01*
X256113789Y-51222999D01*
X255261729Y-50370939D01*
X255249999Y-50364167D01*
X255238271Y-50370938D01*
X254386209Y-51222999D01*
X254370947Y-51247364D01*
X254367669Y-51258077D01*
X254338089Y-51295036D01*
X254183786Y-51426823D01*
X254183779Y-51426829D01*
X254180031Y-51430031D01*
X254176829Y-51433779D01*
X254176823Y-51433786D01*
X254029034Y-51606824D01*
X254029026Y-51606834D01*
X254025824Y-51610584D01*
X254023245Y-51614792D01*
X254023241Y-51614798D01*
X253950561Y-51733401D01*
X253901760Y-51813037D01*
X253899867Y-51817606D01*
X253899865Y-51817611D01*
X253812789Y-52027832D01*
X253812786Y-52027838D01*
X253810895Y-52032406D01*
X253809741Y-52037209D01*
X253809739Y-52037218D01*
X253756620Y-52258476D01*
X253755465Y-52263289D01*
X253755077Y-52268212D01*
X253755076Y-52268222D01*
X253749444Y-52339788D01*
X253736835Y-52500000D01*
X253737223Y-52504930D01*
X253755076Y-52731777D01*
X253755077Y-52731785D01*
X253755465Y-52736711D01*
X253756619Y-52741519D01*
X253756620Y-52741523D01*
X253809739Y-52962781D01*
X253809740Y-52962786D01*
X253810895Y-52967594D01*
X253901760Y-53186963D01*
X254025824Y-53389416D01*
X254180031Y-53569969D01*
X254183786Y-53573176D01*
X254333956Y-53701434D01*
X254360584Y-53724176D01*
X254372572Y-53731522D01*
X254556335Y-53844133D01*
X254600435Y-53890000D01*
X254616500Y-53951566D01*
X254616500Y-56985106D01*
X254606909Y-57033324D01*
X254579595Y-57074201D01*
X250813090Y-60840705D01*
X250764564Y-60870900D01*
X250707691Y-60876551D01*
X250654172Y-60856495D01*
X250615019Y-60814858D01*
X250598289Y-60760209D01*
X250589442Y-60630870D01*
X250533538Y-60361847D01*
X250441523Y-60102942D01*
X250315111Y-59858977D01*
X250156657Y-59634498D01*
X249969111Y-59433686D01*
X249965774Y-59430971D01*
X249759304Y-59262995D01*
X249759301Y-59262993D01*
X249755969Y-59260282D01*
X249521200Y-59117516D01*
X249517259Y-59115804D01*
X249517253Y-59115801D01*
X249273112Y-59009756D01*
X249273109Y-59009755D01*
X249269177Y-59008047D01*
X249265052Y-59006891D01*
X249265043Y-59006888D01*
X249008742Y-58935076D01*
X249008732Y-58935074D01*
X249004596Y-58933915D01*
X249000335Y-58933329D01*
X249000324Y-58933327D01*
X248736653Y-58897086D01*
X248736643Y-58897085D01*
X248732385Y-58896500D01*
X248457615Y-58896500D01*
X248453357Y-58897085D01*
X248453346Y-58897086D01*
X248189675Y-58933327D01*
X248189661Y-58933329D01*
X248185404Y-58933915D01*
X248181269Y-58935073D01*
X248181257Y-58935076D01*
X247924956Y-59006888D01*
X247924942Y-59006892D01*
X247920823Y-59008047D01*
X247916895Y-59009753D01*
X247916887Y-59009756D01*
X247672746Y-59115801D01*
X247672733Y-59115807D01*
X247668800Y-59117516D01*
X247665129Y-59119748D01*
X247665122Y-59119752D01*
X247437704Y-59258048D01*
X247437699Y-59258050D01*
X247434031Y-59260282D01*
X247430704Y-59262988D01*
X247430695Y-59262995D01*
X247224225Y-59430971D01*
X247224217Y-59430978D01*
X247220889Y-59433686D01*
X247217957Y-59436824D01*
X247217952Y-59436830D01*
X247036282Y-59631350D01*
X247036274Y-59631358D01*
X247033343Y-59634498D01*
X247030863Y-59638010D01*
X247030860Y-59638015D01*
X246877375Y-59855454D01*
X246877370Y-59855462D01*
X246874889Y-59858977D01*
X246872913Y-59862790D01*
X246872906Y-59862802D01*
X246750453Y-60099127D01*
X246750449Y-60099136D01*
X246748477Y-60102942D01*
X246747042Y-60106978D01*
X246747037Y-60106991D01*
X246657902Y-60357792D01*
X246657897Y-60357807D01*
X246656462Y-60361847D01*
X246655587Y-60366054D01*
X246655587Y-60366057D01*
X246601432Y-60626661D01*
X246601430Y-60626670D01*
X246600558Y-60630870D01*
X246600264Y-60635157D01*
X246600264Y-60635163D01*
X246584070Y-60871915D01*
X246581807Y-60905000D01*
X246582101Y-60909298D01*
X246600178Y-61173582D01*
X246600558Y-61179130D01*
X246601431Y-61183331D01*
X246601432Y-61183338D01*
X246631165Y-61326417D01*
X246656462Y-61448153D01*
X246657899Y-61452196D01*
X246657902Y-61452207D01*
X246747037Y-61703008D01*
X246747040Y-61703015D01*
X246748477Y-61707058D01*
X246750451Y-61710869D01*
X246750453Y-61710872D01*
X246872906Y-61947197D01*
X246872909Y-61947202D01*
X246874889Y-61951023D01*
X247033343Y-62175502D01*
X247220889Y-62376314D01*
X247434031Y-62549718D01*
X247668800Y-62692484D01*
X247920823Y-62801953D01*
X248185404Y-62876085D01*
X248454822Y-62913116D01*
X248518011Y-62940884D01*
X248557091Y-62997779D01*
X248560331Y-63066727D01*
X248526758Y-63127036D01*
X235832742Y-75821051D01*
X235824459Y-75828588D01*
X235817982Y-75832700D01*
X235812563Y-75838469D01*
X235812555Y-75838477D01*
X235771370Y-75882335D01*
X235768621Y-75885172D01*
X235751667Y-75902127D01*
X235751660Y-75902134D01*
X235748865Y-75904930D01*
X235746442Y-75908052D01*
X235746426Y-75908071D01*
X235746365Y-75908151D01*
X235738690Y-75917135D01*
X235713838Y-75943602D01*
X235713835Y-75943604D01*
X235708414Y-75949379D01*
X235704600Y-75956314D01*
X235704592Y-75956327D01*
X235698650Y-75967136D01*
X235687803Y-75983649D01*
X235680243Y-75993395D01*
X235680237Y-75993404D01*
X235675386Y-75999659D01*
X235672242Y-76006923D01*
X235672238Y-76006931D01*
X235657824Y-76040240D01*
X235652604Y-76050895D01*
X235635125Y-76082689D01*
X235635121Y-76082697D01*
X235631305Y-76089640D01*
X235629333Y-76097316D01*
X235629331Y-76097324D01*
X235626266Y-76109262D01*
X235619865Y-76127959D01*
X235614968Y-76139276D01*
X235614966Y-76139281D01*
X235611819Y-76146555D01*
X235610579Y-76154380D01*
X235610577Y-76154389D01*
X235604901Y-76190224D01*
X235602495Y-76201844D01*
X235593470Y-76236992D01*
X235593468Y-76237001D01*
X235593315Y-76237598D01*
X235593312Y-76237608D01*
X235591500Y-76244669D01*
X235590708Y-76244465D01*
X235572403Y-76292662D01*
X235528398Y-76332307D01*
X235484006Y-76356331D01*
X235484003Y-76356332D01*
X235479424Y-76358811D01*
X235475318Y-76362006D01*
X235475307Y-76362014D01*
X235305878Y-76493888D01*
X235305872Y-76493893D01*
X235301760Y-76497094D01*
X235298237Y-76500919D01*
X235298227Y-76500930D01*
X235152806Y-76658899D01*
X235152802Y-76658902D01*
X235149278Y-76662732D01*
X235146430Y-76667090D01*
X235146427Y-76667095D01*
X235060483Y-76798643D01*
X235014969Y-76840542D01*
X234955000Y-76855728D01*
X234895031Y-76840542D01*
X234849517Y-76798643D01*
X234843827Y-76789934D01*
X234760722Y-76662732D01*
X234641774Y-76533521D01*
X234611768Y-76500926D01*
X234611765Y-76500923D01*
X234608240Y-76497094D01*
X234604131Y-76493896D01*
X234600552Y-76490601D01*
X234565129Y-76433852D01*
X234563747Y-76366969D01*
X234596794Y-76308808D01*
X235252559Y-75653043D01*
X235260833Y-75645514D01*
X235267318Y-75641400D01*
X235313976Y-75591712D01*
X235316668Y-75588934D01*
X235336434Y-75569170D01*
X235338901Y-75565988D01*
X235346610Y-75556961D01*
X235376886Y-75524721D01*
X235386645Y-75506967D01*
X235397499Y-75490443D01*
X235409913Y-75474441D01*
X235427467Y-75433875D01*
X235432692Y-75423208D01*
X235450175Y-75391408D01*
X235450174Y-75391408D01*
X235453995Y-75384460D01*
X235459032Y-75364842D01*
X235465438Y-75346130D01*
X235470332Y-75334821D01*
X235473481Y-75327545D01*
X235480396Y-75283877D01*
X235482804Y-75272253D01*
X235493800Y-75229430D01*
X235493800Y-75209176D01*
X235495351Y-75189465D01*
X235496065Y-75184958D01*
X235498520Y-75169457D01*
X235494358Y-75125438D01*
X235493800Y-75113581D01*
X235493800Y-68204294D01*
X235503391Y-68156076D01*
X235530705Y-68115199D01*
X240028647Y-63617257D01*
X253537406Y-50108497D01*
X253599494Y-50074523D01*
X253670107Y-50079383D01*
X253726959Y-50121546D01*
X253752108Y-50187708D01*
X253755569Y-50231686D01*
X253757115Y-50241445D01*
X253810216Y-50462626D01*
X253813266Y-50472012D01*
X253900312Y-50682160D01*
X253904793Y-50690955D01*
X254009433Y-50861712D01*
X254017379Y-50869815D01*
X254026999Y-50863789D01*
X255160904Y-49729884D01*
X255217388Y-49697272D01*
X255282610Y-49697272D01*
X255339094Y-49729884D01*
X256472997Y-50863787D01*
X256482619Y-50869814D01*
X256490568Y-50861708D01*
X256595205Y-50690957D01*
X256599686Y-50682162D01*
X256686733Y-50472012D01*
X256689783Y-50462626D01*
X256742884Y-50241445D01*
X256744428Y-50231699D01*
X256762275Y-50004930D01*
X256762275Y-49995070D01*
X256744428Y-49768300D01*
X256742884Y-49758554D01*
X256689783Y-49537373D01*
X256686733Y-49527987D01*
X256599686Y-49317837D01*
X256595205Y-49309042D01*
X256473770Y-49110879D01*
X256475582Y-49109768D01*
X256455777Y-49058598D01*
X256465421Y-48994659D01*
X256505509Y-48943923D01*
X256613261Y-48863261D01*
X256700889Y-48746204D01*
X256705956Y-48732619D01*
X268880183Y-48732619D01*
X268888286Y-48740565D01*
X269059044Y-48845206D01*
X269067839Y-48849687D01*
X269277987Y-48936733D01*
X269287373Y-48939783D01*
X269508554Y-48992884D01*
X269518300Y-48994428D01*
X269745070Y-49012275D01*
X269754930Y-49012275D01*
X269981699Y-48994428D01*
X269991445Y-48992884D01*
X270212626Y-48939783D01*
X270222012Y-48936733D01*
X270432162Y-48849686D01*
X270440957Y-48845205D01*
X270611708Y-48740568D01*
X270619814Y-48732619D01*
X270613787Y-48722997D01*
X269761729Y-47870939D01*
X269749999Y-47864167D01*
X269738271Y-47870938D01*
X268886208Y-48723000D01*
X268880183Y-48732619D01*
X256705956Y-48732619D01*
X256751989Y-48609201D01*
X256758500Y-48548638D01*
X256758500Y-47504930D01*
X268237725Y-47504930D01*
X268255571Y-47731699D01*
X268257115Y-47741445D01*
X268310216Y-47962626D01*
X268313266Y-47972012D01*
X268400312Y-48182160D01*
X268404793Y-48190955D01*
X268509433Y-48361712D01*
X268517379Y-48369816D01*
X268526997Y-48363791D01*
X269379059Y-47511730D01*
X269385832Y-47499999D01*
X270114167Y-47499999D01*
X270120939Y-47511729D01*
X270972997Y-48363787D01*
X270982619Y-48369814D01*
X270990568Y-48361708D01*
X271095205Y-48190957D01*
X271099686Y-48182162D01*
X271186733Y-47972012D01*
X271189783Y-47962626D01*
X271242884Y-47741445D01*
X271244428Y-47731699D01*
X271262275Y-47504930D01*
X271262275Y-47495070D01*
X271244428Y-47268300D01*
X271242884Y-47258554D01*
X271189783Y-47037373D01*
X271186733Y-47027987D01*
X271099687Y-46817839D01*
X271095206Y-46809044D01*
X270990565Y-46638286D01*
X270982619Y-46630183D01*
X270973000Y-46636208D01*
X270120938Y-47488271D01*
X270114167Y-47499999D01*
X269385832Y-47499999D01*
X269379060Y-47488270D01*
X268526999Y-46636209D01*
X268517378Y-46630183D01*
X268509433Y-46638285D01*
X268404793Y-46809044D01*
X268400312Y-46817839D01*
X268313266Y-47027987D01*
X268310216Y-47037373D01*
X268257115Y-47258554D01*
X268255571Y-47268300D01*
X268237725Y-47495070D01*
X268237725Y-47504930D01*
X256758500Y-47504930D01*
X256758500Y-46451362D01*
X256751989Y-46390799D01*
X256705955Y-46267378D01*
X268880183Y-46267378D01*
X268886209Y-46276999D01*
X269738270Y-47129060D01*
X269749999Y-47135832D01*
X269761730Y-47129059D01*
X270613791Y-46276997D01*
X270619816Y-46267379D01*
X270611712Y-46259433D01*
X270440955Y-46154793D01*
X270432160Y-46150312D01*
X270222012Y-46063266D01*
X270212626Y-46060216D01*
X269991445Y-46007115D01*
X269981699Y-46005571D01*
X269754930Y-45987725D01*
X269745070Y-45987725D01*
X269518300Y-46005571D01*
X269508554Y-46007115D01*
X269287373Y-46060216D01*
X269277987Y-46063266D01*
X269067839Y-46150312D01*
X269059044Y-46154793D01*
X268888285Y-46259433D01*
X268880183Y-46267378D01*
X256705955Y-46267378D01*
X256700889Y-46253796D01*
X256666517Y-46207881D01*
X256618659Y-46143950D01*
X256613261Y-46136739D01*
X256606049Y-46131340D01*
X256503417Y-46054510D01*
X256503414Y-46054508D01*
X256496204Y-46049111D01*
X256487766Y-46045964D01*
X256487763Y-46045962D01*
X256366580Y-46000763D01*
X256366578Y-46000762D01*
X256359201Y-45998011D01*
X256351373Y-45997169D01*
X256351367Y-45997168D01*
X256301988Y-45991860D01*
X256301985Y-45991859D01*
X256298638Y-45991500D01*
X254201362Y-45991500D01*
X254198015Y-45991859D01*
X254198011Y-45991860D01*
X254148632Y-45997168D01*
X254148625Y-45997169D01*
X254140799Y-45998011D01*
X254133423Y-46000761D01*
X254133419Y-46000763D01*
X254012236Y-46045962D01*
X254012230Y-46045965D01*
X254003796Y-46049111D01*
X253996588Y-46054506D01*
X253996582Y-46054510D01*
X253893950Y-46131340D01*
X253893946Y-46131343D01*
X253886739Y-46136739D01*
X253881343Y-46143946D01*
X253881340Y-46143950D01*
X253804510Y-46246582D01*
X253804506Y-46246588D01*
X253799111Y-46253796D01*
X253795965Y-46262230D01*
X253795962Y-46262236D01*
X253750763Y-46383419D01*
X253750761Y-46383423D01*
X253748011Y-46390799D01*
X253747169Y-46398625D01*
X253747168Y-46398632D01*
X253741860Y-46448011D01*
X253741500Y-46451362D01*
X253741500Y-46454731D01*
X253741500Y-48060405D01*
X253731909Y-48108623D01*
X253704595Y-48149500D01*
X234468042Y-67386051D01*
X234459759Y-67393588D01*
X234453282Y-67397700D01*
X234447863Y-67403469D01*
X234447855Y-67403477D01*
X234406670Y-67447335D01*
X234403921Y-67450172D01*
X234386967Y-67467127D01*
X234386960Y-67467134D01*
X234384165Y-67469930D01*
X234381742Y-67473052D01*
X234381726Y-67473071D01*
X234381665Y-67473151D01*
X234373990Y-67482135D01*
X234349138Y-67508602D01*
X234349135Y-67508604D01*
X234343714Y-67514379D01*
X234339900Y-67521314D01*
X234339892Y-67521327D01*
X234333950Y-67532136D01*
X234323103Y-67548649D01*
X234315543Y-67558395D01*
X234315537Y-67558404D01*
X234310686Y-67564659D01*
X234307542Y-67571923D01*
X234307538Y-67571931D01*
X234293124Y-67605240D01*
X234287904Y-67615895D01*
X234270425Y-67647689D01*
X234270421Y-67647697D01*
X234266605Y-67654640D01*
X234264633Y-67662316D01*
X234264631Y-67662324D01*
X234261566Y-67674262D01*
X234255165Y-67692959D01*
X234250268Y-67704276D01*
X234250266Y-67704281D01*
X234247119Y-67711555D01*
X234245879Y-67719380D01*
X234245877Y-67719389D01*
X234240201Y-67755224D01*
X234237795Y-67766844D01*
X234228771Y-67801989D01*
X234228769Y-67801997D01*
X234226800Y-67809670D01*
X234226800Y-67817599D01*
X234226800Y-67829924D01*
X234225249Y-67849635D01*
X234223319Y-67861814D01*
X234223318Y-67861821D01*
X234222080Y-67869643D01*
X234222825Y-67877526D01*
X234222825Y-67877534D01*
X234226241Y-67913661D01*
X234226800Y-67925519D01*
X234226800Y-68160058D01*
X234211267Y-68220663D01*
X234168499Y-68266326D01*
X234109040Y-68285788D01*
X234047549Y-68274252D01*
X234034229Y-68268040D01*
X234034219Y-68268036D01*
X234029243Y-68265716D01*
X233808087Y-68206457D01*
X233802611Y-68205977D01*
X233802606Y-68205977D01*
X233585475Y-68186981D01*
X233580000Y-68186502D01*
X233574525Y-68186981D01*
X233357393Y-68205977D01*
X233357386Y-68205978D01*
X233351913Y-68206457D01*
X233346599Y-68207880D01*
X233346598Y-68207881D01*
X233136067Y-68264293D01*
X233136065Y-68264293D01*
X233130757Y-68265716D01*
X233125779Y-68268036D01*
X233125774Y-68268039D01*
X232928238Y-68360151D01*
X232928233Y-68360153D01*
X232923251Y-68362477D01*
X232918752Y-68365627D01*
X232918742Y-68365633D01*
X232740211Y-68490643D01*
X232740208Y-68490645D01*
X232735700Y-68493802D01*
X232731808Y-68497693D01*
X232731802Y-68497699D01*
X232577699Y-68651802D01*
X232577693Y-68651808D01*
X232573802Y-68655700D01*
X232570645Y-68660208D01*
X232570643Y-68660211D01*
X232445633Y-68838742D01*
X232445627Y-68838752D01*
X232442477Y-68843251D01*
X232440153Y-68848233D01*
X232440151Y-68848238D01*
X232348039Y-69045774D01*
X232348036Y-69045779D01*
X232345716Y-69050757D01*
X232286457Y-69271913D01*
X232285978Y-69277386D01*
X232285977Y-69277393D01*
X232266988Y-69494443D01*
X232266502Y-69500000D01*
X232286457Y-69728087D01*
X232345716Y-69949243D01*
X232442477Y-70156749D01*
X232445630Y-70161252D01*
X232445633Y-70161257D01*
X232522123Y-70270496D01*
X232573802Y-70344300D01*
X232735700Y-70506198D01*
X232923251Y-70637523D01*
X233130757Y-70734284D01*
X233351913Y-70793543D01*
X233580000Y-70813498D01*
X233808087Y-70793543D01*
X234029243Y-70734284D01*
X234047548Y-70725748D01*
X234109040Y-70714212D01*
X234168499Y-70733674D01*
X234211267Y-70779337D01*
X234226800Y-70839942D01*
X234226800Y-74834804D01*
X234217209Y-74883022D01*
X234189895Y-74923900D01*
X233292736Y-75821057D01*
X233284458Y-75828589D01*
X233277982Y-75832700D01*
X233272559Y-75838474D01*
X233272555Y-75838478D01*
X233231370Y-75882335D01*
X233228621Y-75885172D01*
X233211667Y-75902127D01*
X233211660Y-75902134D01*
X233208865Y-75904930D01*
X233206442Y-75908052D01*
X233206426Y-75908071D01*
X233206365Y-75908151D01*
X233198690Y-75917135D01*
X233173838Y-75943602D01*
X233173835Y-75943604D01*
X233168414Y-75949379D01*
X233164600Y-75956314D01*
X233164592Y-75956327D01*
X233158650Y-75967136D01*
X233147803Y-75983649D01*
X233140243Y-75993395D01*
X233140237Y-75993404D01*
X233135386Y-75999659D01*
X233132242Y-76006923D01*
X233132238Y-76006931D01*
X233117824Y-76040240D01*
X233112604Y-76050895D01*
X233095125Y-76082689D01*
X233095121Y-76082697D01*
X233091305Y-76089640D01*
X233089333Y-76097316D01*
X233089331Y-76097324D01*
X233086266Y-76109262D01*
X233079865Y-76127959D01*
X233074968Y-76139276D01*
X233074966Y-76139281D01*
X233071819Y-76146555D01*
X233070579Y-76154380D01*
X233070577Y-76154389D01*
X233064901Y-76190224D01*
X233062495Y-76201844D01*
X233053470Y-76236992D01*
X233053468Y-76237001D01*
X233053315Y-76237598D01*
X233053312Y-76237608D01*
X233051500Y-76244669D01*
X233050708Y-76244465D01*
X233032403Y-76292662D01*
X232988398Y-76332307D01*
X232944006Y-76356331D01*
X232944003Y-76356332D01*
X232939424Y-76358811D01*
X232935318Y-76362006D01*
X232935307Y-76362014D01*
X232765878Y-76493888D01*
X232765872Y-76493893D01*
X232761760Y-76497094D01*
X232758237Y-76500919D01*
X232758227Y-76500930D01*
X232612806Y-76658899D01*
X232612802Y-76658902D01*
X232609278Y-76662732D01*
X232606430Y-76667090D01*
X232606427Y-76667095D01*
X232520483Y-76798643D01*
X232474969Y-76840542D01*
X232415000Y-76855728D01*
X232355031Y-76840542D01*
X232309517Y-76798643D01*
X232303827Y-76789934D01*
X232220722Y-76662732D01*
X232101774Y-76533521D01*
X232071772Y-76500930D01*
X232071767Y-76500925D01*
X232068240Y-76497094D01*
X231890576Y-76358811D01*
X231885997Y-76356333D01*
X231885994Y-76356331D01*
X231697159Y-76254139D01*
X231697156Y-76254137D01*
X231692574Y-76251658D01*
X231687650Y-76249967D01*
X231687642Y-76249964D01*
X231484565Y-76180248D01*
X231484559Y-76180246D01*
X231479635Y-76178556D01*
X231474498Y-76177698D01*
X231474495Y-76177698D01*
X231262706Y-76142357D01*
X231262703Y-76142356D01*
X231257569Y-76141500D01*
X231032431Y-76141500D01*
X231027297Y-76142356D01*
X231027293Y-76142357D01*
X230815504Y-76177698D01*
X230815498Y-76177699D01*
X230810365Y-76178556D01*
X230805443Y-76180245D01*
X230805434Y-76180248D01*
X230602357Y-76249964D01*
X230602344Y-76249969D01*
X230597426Y-76251658D01*
X230592847Y-76254135D01*
X230592840Y-76254139D01*
X230404005Y-76356331D01*
X230403997Y-76356336D01*
X230399424Y-76358811D01*
X230395313Y-76362010D01*
X230395311Y-76362012D01*
X230225878Y-76493888D01*
X230225872Y-76493893D01*
X230221760Y-76497094D01*
X230218237Y-76500919D01*
X230218227Y-76500930D01*
X230072806Y-76658899D01*
X230072802Y-76658902D01*
X230069278Y-76662732D01*
X230066430Y-76667090D01*
X230066427Y-76667095D01*
X229980483Y-76798643D01*
X229934969Y-76840542D01*
X229875000Y-76855728D01*
X229815031Y-76840542D01*
X229769517Y-76798643D01*
X229763827Y-76789934D01*
X229680722Y-76662732D01*
X229561774Y-76533521D01*
X229531772Y-76500930D01*
X229531767Y-76500925D01*
X229528240Y-76497094D01*
X229350576Y-76358811D01*
X229345997Y-76356333D01*
X229345994Y-76356331D01*
X229157159Y-76254139D01*
X229157156Y-76254137D01*
X229152574Y-76251658D01*
X229147650Y-76249967D01*
X229147642Y-76249964D01*
X228944565Y-76180248D01*
X228944559Y-76180246D01*
X228939635Y-76178556D01*
X228934498Y-76177698D01*
X228934495Y-76177698D01*
X228722706Y-76142357D01*
X228722703Y-76142356D01*
X228717569Y-76141500D01*
X228492431Y-76141500D01*
X228487297Y-76142356D01*
X228487293Y-76142357D01*
X228275504Y-76177698D01*
X228275498Y-76177699D01*
X228270365Y-76178556D01*
X228265443Y-76180245D01*
X228265434Y-76180248D01*
X228062357Y-76249964D01*
X228062344Y-76249969D01*
X228057426Y-76251658D01*
X228052847Y-76254135D01*
X228052840Y-76254139D01*
X227864005Y-76356331D01*
X227863997Y-76356336D01*
X227859424Y-76358811D01*
X227855313Y-76362010D01*
X227855311Y-76362012D01*
X227685878Y-76493888D01*
X227685872Y-76493893D01*
X227681760Y-76497094D01*
X227678237Y-76500919D01*
X227678227Y-76500930D01*
X227532806Y-76658899D01*
X227532802Y-76658902D01*
X227529278Y-76662732D01*
X227526430Y-76667090D01*
X227526427Y-76667095D01*
X227440483Y-76798643D01*
X227394969Y-76840542D01*
X227335000Y-76855728D01*
X227275031Y-76840542D01*
X227229517Y-76798643D01*
X227223827Y-76789934D01*
X227140722Y-76662732D01*
X227021774Y-76533521D01*
X226991772Y-76500930D01*
X226991767Y-76500925D01*
X226988240Y-76497094D01*
X226810576Y-76358811D01*
X226805997Y-76356333D01*
X226805994Y-76356331D01*
X226617159Y-76254139D01*
X226617156Y-76254137D01*
X226612574Y-76251658D01*
X226607650Y-76249967D01*
X226607642Y-76249964D01*
X226404565Y-76180248D01*
X226404559Y-76180246D01*
X226399635Y-76178556D01*
X226394498Y-76177698D01*
X226394495Y-76177698D01*
X226182706Y-76142357D01*
X226182703Y-76142356D01*
X226177569Y-76141500D01*
X225952431Y-76141500D01*
X225947297Y-76142356D01*
X225947293Y-76142357D01*
X225735504Y-76177698D01*
X225735498Y-76177699D01*
X225730365Y-76178556D01*
X225725443Y-76180245D01*
X225725434Y-76180248D01*
X225522357Y-76249964D01*
X225522344Y-76249969D01*
X225517426Y-76251658D01*
X225512847Y-76254135D01*
X225512840Y-76254139D01*
X225324005Y-76356331D01*
X225323997Y-76356336D01*
X225319424Y-76358811D01*
X225315313Y-76362010D01*
X225315311Y-76362012D01*
X225145878Y-76493888D01*
X225145872Y-76493893D01*
X225141760Y-76497094D01*
X225138237Y-76500920D01*
X225138226Y-76500931D01*
X225080374Y-76563775D01*
X225026901Y-76598174D01*
X224963440Y-76602084D01*
X224906150Y-76574508D01*
X224869618Y-76522468D01*
X224828594Y-76412480D01*
X224820045Y-76396824D01*
X224743302Y-76294307D01*
X224730692Y-76281697D01*
X224628175Y-76204954D01*
X224612519Y-76196405D01*
X224491478Y-76151259D01*
X224476257Y-76147662D01*
X224426938Y-76142359D01*
X224420223Y-76142000D01*
X223795590Y-76142000D01*
X223782506Y-76145506D01*
X223779000Y-76158590D01*
X223779000Y-78841410D01*
X223271000Y-78841410D01*
X223271000Y-77770590D01*
X223267493Y-77757506D01*
X223254410Y-77754000D01*
X222183590Y-77754000D01*
X222170506Y-77757506D01*
X222167000Y-77770590D01*
X222167000Y-78395223D01*
X203000500Y-78395223D01*
X203000500Y-77229410D01*
X222167000Y-77229410D01*
X222170506Y-77242493D01*
X222183590Y-77246000D01*
X223254410Y-77246000D01*
X223267493Y-77242493D01*
X223271000Y-77229410D01*
X223271000Y-76158590D01*
X223267493Y-76145506D01*
X223254410Y-76142000D01*
X222629777Y-76142000D01*
X222623061Y-76142359D01*
X222573742Y-76147662D01*
X222558521Y-76151259D01*
X222437480Y-76196405D01*
X222421824Y-76204954D01*
X222319307Y-76281697D01*
X222306697Y-76294307D01*
X222229954Y-76396824D01*
X222221405Y-76412480D01*
X222176259Y-76533521D01*
X222172662Y-76548742D01*
X222167359Y-76598061D01*
X222167000Y-76604777D01*
X222167000Y-77229410D01*
X203000500Y-77229410D01*
X203000500Y-66160163D01*
X209404581Y-66160163D01*
X209412817Y-66171531D01*
X209423147Y-66179572D01*
X209431836Y-66185249D01*
X209627888Y-66291346D01*
X209637405Y-66295521D01*
X209848241Y-66367901D01*
X209858311Y-66370451D01*
X210078192Y-66407142D01*
X210088541Y-66408000D01*
X210311459Y-66408000D01*
X210321807Y-66407142D01*
X210541688Y-66370451D01*
X210551758Y-66367901D01*
X210762594Y-66295521D01*
X210772111Y-66291346D01*
X210968159Y-66185251D01*
X210976855Y-66179569D01*
X210987181Y-66171532D01*
X210995416Y-66160163D01*
X214404581Y-66160163D01*
X214412817Y-66171531D01*
X214423147Y-66179572D01*
X214431836Y-66185249D01*
X214627888Y-66291346D01*
X214637405Y-66295521D01*
X214848241Y-66367901D01*
X214858311Y-66370451D01*
X215078192Y-66407142D01*
X215088541Y-66408000D01*
X215311459Y-66408000D01*
X215321807Y-66407142D01*
X215541688Y-66370451D01*
X215551758Y-66367901D01*
X215762594Y-66295521D01*
X215772111Y-66291346D01*
X215968159Y-66185251D01*
X215976855Y-66179569D01*
X215987181Y-66171532D01*
X215995417Y-66160162D01*
X215988651Y-66147862D01*
X215211730Y-65370940D01*
X215199999Y-65364167D01*
X215188270Y-65370939D01*
X214411350Y-66147859D01*
X214404581Y-66160163D01*
X210995416Y-66160163D01*
X210995417Y-66160162D01*
X210988651Y-66147862D01*
X210211730Y-65370940D01*
X210199999Y-65364167D01*
X210188270Y-65370939D01*
X209411350Y-66147859D01*
X209404581Y-66160163D01*
X203000500Y-66160163D01*
X203000500Y-65005189D01*
X208787604Y-65005189D01*
X208806012Y-65227348D01*
X208807724Y-65237602D01*
X208862445Y-65453691D01*
X208865818Y-65463516D01*
X208955362Y-65667655D01*
X208960309Y-65676797D01*
X209033108Y-65788225D01*
X209041202Y-65796072D01*
X209050735Y-65790052D01*
X209829058Y-65011730D01*
X209835831Y-64999999D01*
X210564167Y-64999999D01*
X210570940Y-65011730D01*
X211349263Y-65790052D01*
X211358797Y-65796072D01*
X211366888Y-65788228D01*
X211439693Y-65676792D01*
X211444636Y-65667657D01*
X211534181Y-65463516D01*
X211537554Y-65453691D01*
X211592275Y-65237602D01*
X211593987Y-65227348D01*
X211612396Y-65005189D01*
X213787604Y-65005189D01*
X213806012Y-65227348D01*
X213807724Y-65237602D01*
X213862445Y-65453691D01*
X213865818Y-65463516D01*
X213955362Y-65667655D01*
X213960309Y-65676797D01*
X214033108Y-65788225D01*
X214041202Y-65796072D01*
X214050735Y-65790052D01*
X214829058Y-65011730D01*
X214835831Y-64999999D01*
X215564167Y-64999999D01*
X215570940Y-65011730D01*
X216349263Y-65790052D01*
X216358797Y-65796072D01*
X216366888Y-65788228D01*
X216439693Y-65676792D01*
X216444636Y-65667657D01*
X216534181Y-65463516D01*
X216537554Y-65453691D01*
X216592275Y-65237602D01*
X216593987Y-65227348D01*
X216612396Y-65005189D01*
X216612396Y-64994811D01*
X216593987Y-64772651D01*
X216592275Y-64762397D01*
X216537554Y-64546308D01*
X216534181Y-64536483D01*
X216444637Y-64332344D01*
X216439690Y-64323203D01*
X216366890Y-64211773D01*
X216358796Y-64203926D01*
X216349262Y-64209947D01*
X215570939Y-64988270D01*
X215564167Y-64999999D01*
X214835831Y-64999999D01*
X214829059Y-64988270D01*
X214050736Y-64209947D01*
X214041202Y-64203927D01*
X214033108Y-64211773D01*
X213960304Y-64323210D01*
X213955363Y-64332340D01*
X213865818Y-64536483D01*
X213862445Y-64546308D01*
X213807724Y-64762397D01*
X213806012Y-64772651D01*
X213787604Y-64994811D01*
X213787604Y-65005189D01*
X211612396Y-65005189D01*
X211612396Y-64994811D01*
X211593987Y-64772651D01*
X211592275Y-64762397D01*
X211537554Y-64546308D01*
X211534181Y-64536483D01*
X211444637Y-64332344D01*
X211439690Y-64323203D01*
X211366890Y-64211773D01*
X211358796Y-64203926D01*
X211349262Y-64209947D01*
X210570939Y-64988270D01*
X210564167Y-64999999D01*
X209835831Y-64999999D01*
X209829059Y-64988270D01*
X209050736Y-64209947D01*
X209041202Y-64203927D01*
X209033108Y-64211773D01*
X208960304Y-64323210D01*
X208955363Y-64332340D01*
X208865818Y-64536483D01*
X208862445Y-64546308D01*
X208807724Y-64762397D01*
X208806012Y-64772651D01*
X208787604Y-64994811D01*
X208787604Y-65005189D01*
X203000500Y-65005189D01*
X203000500Y-62500000D01*
X208186673Y-62500000D01*
X208187103Y-62505189D01*
X208205511Y-62727348D01*
X208205949Y-62732626D01*
X208207230Y-62737684D01*
X208251603Y-62912913D01*
X208263251Y-62958907D01*
X208265343Y-62963676D01*
X208265344Y-62963679D01*
X208310545Y-63066727D01*
X208357016Y-63172669D01*
X208484686Y-63368083D01*
X208488214Y-63371915D01*
X208639247Y-63535981D01*
X208639252Y-63535985D01*
X208642780Y-63539818D01*
X208826983Y-63683190D01*
X209032273Y-63794287D01*
X209253049Y-63870080D01*
X209424776Y-63898736D01*
X209461703Y-63910989D01*
X209493132Y-63933922D01*
X210188271Y-64629060D01*
X210199999Y-64635831D01*
X210211730Y-64629058D01*
X210988650Y-63852137D01*
X210995417Y-63839836D01*
X210995416Y-63839835D01*
X214404581Y-63839835D01*
X214411349Y-63852138D01*
X215188270Y-64629059D01*
X215200000Y-64635831D01*
X215211726Y-64629061D01*
X215958046Y-63882741D01*
X216005001Y-63853092D01*
X216060141Y-63846508D01*
X216112756Y-63864268D01*
X216122700Y-63870334D01*
X216136427Y-63871329D01*
X216141677Y-63870453D01*
X216151764Y-63867899D01*
X216362594Y-63795521D01*
X216372111Y-63791346D01*
X216568159Y-63685251D01*
X216576855Y-63679569D01*
X216587181Y-63671532D01*
X216595417Y-63660162D01*
X216588651Y-63647862D01*
X215811730Y-62870940D01*
X215800000Y-62864167D01*
X215788266Y-62870942D01*
X215041952Y-63617257D01*
X214994998Y-63646906D01*
X214939859Y-63653490D01*
X214887244Y-63635730D01*
X214877300Y-63629664D01*
X214863571Y-63628670D01*
X214858306Y-63629548D01*
X214848245Y-63632097D01*
X214637405Y-63704478D01*
X214627888Y-63708653D01*
X214431835Y-63814751D01*
X214423150Y-63820425D01*
X214412817Y-63828467D01*
X214404581Y-63839835D01*
X210995416Y-63839835D01*
X210987179Y-63828465D01*
X210976856Y-63820430D01*
X210968161Y-63814749D01*
X210772111Y-63708653D01*
X210762594Y-63704478D01*
X210673766Y-63673984D01*
X210621977Y-63640148D01*
X210592533Y-63585742D01*
X210592534Y-63523879D01*
X210621977Y-63469473D01*
X210715314Y-63368083D01*
X210842984Y-63172669D01*
X210936749Y-62958907D01*
X210994051Y-62732626D01*
X211012897Y-62505189D01*
X214387604Y-62505189D01*
X214406012Y-62727348D01*
X214407724Y-62737602D01*
X214462445Y-62953691D01*
X214465818Y-62963516D01*
X214555362Y-63167655D01*
X214560309Y-63176797D01*
X214633108Y-63288225D01*
X214641202Y-63296072D01*
X214650736Y-63290051D01*
X215429059Y-62511728D01*
X215435831Y-62499999D01*
X215429058Y-62488268D01*
X214650735Y-61709946D01*
X214641202Y-61703927D01*
X214633108Y-61711773D01*
X214560304Y-61823210D01*
X214555363Y-61832340D01*
X214465818Y-62036483D01*
X214462445Y-62046308D01*
X214407724Y-62262397D01*
X214406012Y-62272651D01*
X214387604Y-62494811D01*
X214387604Y-62505189D01*
X211012897Y-62505189D01*
X211013327Y-62500000D01*
X210994051Y-62267374D01*
X210936749Y-62041093D01*
X210842984Y-61827331D01*
X210715314Y-61631917D01*
X210622345Y-61530926D01*
X210592903Y-61476522D01*
X210592903Y-61414659D01*
X210622346Y-61360253D01*
X210674133Y-61326417D01*
X210767727Y-61294287D01*
X210973017Y-61183190D01*
X211157220Y-61039818D01*
X211315314Y-60868083D01*
X211431278Y-60690585D01*
X211476793Y-60648686D01*
X211536762Y-60633500D01*
X213863238Y-60633500D01*
X213923207Y-60648686D01*
X213968721Y-60690585D01*
X214084686Y-60868083D01*
X214114714Y-60900702D01*
X214239247Y-61035981D01*
X214239252Y-61035985D01*
X214242780Y-61039818D01*
X214426983Y-61183190D01*
X214632273Y-61294287D01*
X214853049Y-61370080D01*
X215024778Y-61398736D01*
X215061704Y-61410989D01*
X215093133Y-61433923D01*
X215800000Y-62140790D01*
X216949262Y-63290051D01*
X216958797Y-63296072D01*
X216966888Y-63288228D01*
X217039693Y-63176792D01*
X217044633Y-63167662D01*
X217100784Y-63039653D01*
X217137758Y-62991639D01*
X217192869Y-62966440D01*
X217253370Y-62969882D01*
X217305267Y-63001171D01*
X222600208Y-68296112D01*
X222629513Y-68342108D01*
X222636634Y-68396180D01*
X222620239Y-68448196D01*
X222583398Y-68488410D01*
X222580219Y-68490636D01*
X222580211Y-68490643D01*
X222575700Y-68493802D01*
X222571808Y-68497693D01*
X222571802Y-68497699D01*
X222417699Y-68651802D01*
X222417693Y-68651808D01*
X222413802Y-68655700D01*
X222410645Y-68660208D01*
X222410643Y-68660211D01*
X222285633Y-68838742D01*
X222285627Y-68838752D01*
X222282477Y-68843251D01*
X222280153Y-68848233D01*
X222280151Y-68848238D01*
X222188039Y-69045774D01*
X222188036Y-69045779D01*
X222185716Y-69050757D01*
X222126457Y-69271913D01*
X222125978Y-69277386D01*
X222125977Y-69277393D01*
X222106988Y-69494443D01*
X222106502Y-69500000D01*
X222126457Y-69728087D01*
X222185716Y-69949243D01*
X222282477Y-70156749D01*
X222285630Y-70161252D01*
X222285633Y-70161257D01*
X222362123Y-70270496D01*
X222413802Y-70344300D01*
X222575700Y-70506198D01*
X222763251Y-70637523D01*
X222970757Y-70734284D01*
X223191913Y-70793543D01*
X223420000Y-70813498D01*
X223648087Y-70793543D01*
X223869243Y-70734284D01*
X224076749Y-70637523D01*
X224264300Y-70506198D01*
X224426198Y-70344300D01*
X224557523Y-70156749D01*
X224654284Y-69949243D01*
X224713543Y-69728087D01*
X224733498Y-69500000D01*
X224713543Y-69271913D01*
X224654284Y-69050757D01*
X224557523Y-68843251D01*
X224426198Y-68655700D01*
X224264300Y-68493802D01*
X224108838Y-68384946D01*
X224066726Y-68334577D01*
X224057408Y-68280037D01*
X224055701Y-68280091D01*
X224053561Y-68212032D01*
X224053500Y-68208075D01*
X224053500Y-68184100D01*
X224053500Y-68180144D01*
X224052993Y-68176134D01*
X224052061Y-68164294D01*
X224051678Y-68152104D01*
X224050673Y-68120110D01*
X224045020Y-68100656D01*
X224041012Y-68081297D01*
X224038474Y-68061203D01*
X224022197Y-68020092D01*
X224018358Y-68008882D01*
X224006018Y-67966406D01*
X223995703Y-67948966D01*
X223987010Y-67931221D01*
X223979552Y-67912383D01*
X223953564Y-67876614D01*
X223947046Y-67866690D01*
X223928578Y-67835462D01*
X223924542Y-67828637D01*
X223910218Y-67814313D01*
X223897376Y-67799277D01*
X223890134Y-67789309D01*
X223890131Y-67789306D01*
X223885472Y-67782893D01*
X223851405Y-67754710D01*
X223842626Y-67746721D01*
X217000905Y-60905000D01*
X224581807Y-60905000D01*
X224582101Y-60909298D01*
X224600178Y-61173582D01*
X224600558Y-61179130D01*
X224601431Y-61183331D01*
X224601432Y-61183338D01*
X224631165Y-61326417D01*
X224656462Y-61448153D01*
X224657899Y-61452196D01*
X224657902Y-61452207D01*
X224747037Y-61703008D01*
X224747040Y-61703015D01*
X224748477Y-61707058D01*
X224750451Y-61710869D01*
X224750453Y-61710872D01*
X224872906Y-61947197D01*
X224872909Y-61947202D01*
X224874889Y-61951023D01*
X225033343Y-62175502D01*
X225220889Y-62376314D01*
X225434031Y-62549718D01*
X225668800Y-62692484D01*
X225920823Y-62801953D01*
X226185404Y-62876085D01*
X226457615Y-62913500D01*
X226728080Y-62913500D01*
X226732385Y-62913500D01*
X227004596Y-62876085D01*
X227269177Y-62801953D01*
X227521200Y-62692484D01*
X227755969Y-62549718D01*
X227969111Y-62376314D01*
X228156657Y-62175502D01*
X228315111Y-61951023D01*
X228441523Y-61707058D01*
X228533538Y-61448153D01*
X228589442Y-61179130D01*
X228608193Y-60905000D01*
X228589442Y-60630870D01*
X228533538Y-60361847D01*
X228441523Y-60102942D01*
X228315111Y-59858977D01*
X228156657Y-59634498D01*
X227969111Y-59433686D01*
X227965774Y-59430971D01*
X227759304Y-59262995D01*
X227759301Y-59262993D01*
X227755969Y-59260282D01*
X227521200Y-59117516D01*
X227517259Y-59115804D01*
X227517253Y-59115801D01*
X227273112Y-59009756D01*
X227273109Y-59009755D01*
X227269177Y-59008047D01*
X227265052Y-59006891D01*
X227265043Y-59006888D01*
X227008742Y-58935076D01*
X227008732Y-58935074D01*
X227004596Y-58933915D01*
X227000335Y-58933329D01*
X227000324Y-58933327D01*
X226736653Y-58897086D01*
X226736643Y-58897085D01*
X226732385Y-58896500D01*
X226457615Y-58896500D01*
X226453357Y-58897085D01*
X226453346Y-58897086D01*
X226189675Y-58933327D01*
X226189661Y-58933329D01*
X226185404Y-58933915D01*
X226181269Y-58935073D01*
X226181257Y-58935076D01*
X225924956Y-59006888D01*
X225924942Y-59006892D01*
X225920823Y-59008047D01*
X225916895Y-59009753D01*
X225916887Y-59009756D01*
X225672746Y-59115801D01*
X225672733Y-59115807D01*
X225668800Y-59117516D01*
X225665129Y-59119748D01*
X225665122Y-59119752D01*
X225437704Y-59258048D01*
X225437699Y-59258050D01*
X225434031Y-59260282D01*
X225430704Y-59262988D01*
X225430695Y-59262995D01*
X225224225Y-59430971D01*
X225224217Y-59430978D01*
X225220889Y-59433686D01*
X225217957Y-59436824D01*
X225217952Y-59436830D01*
X225036282Y-59631350D01*
X225036274Y-59631358D01*
X225033343Y-59634498D01*
X225030863Y-59638010D01*
X225030860Y-59638015D01*
X224877375Y-59855454D01*
X224877370Y-59855462D01*
X224874889Y-59858977D01*
X224872913Y-59862790D01*
X224872906Y-59862802D01*
X224750453Y-60099127D01*
X224750449Y-60099136D01*
X224748477Y-60102942D01*
X224747042Y-60106978D01*
X224747037Y-60106991D01*
X224657902Y-60357792D01*
X224657897Y-60357807D01*
X224656462Y-60361847D01*
X224655587Y-60366054D01*
X224655587Y-60366057D01*
X224601432Y-60626661D01*
X224601430Y-60626670D01*
X224600558Y-60630870D01*
X224600264Y-60635157D01*
X224600264Y-60635163D01*
X224584070Y-60871915D01*
X224581807Y-60905000D01*
X217000905Y-60905000D01*
X216591022Y-60495117D01*
X216558638Y-60439470D01*
X216557973Y-60375092D01*
X216594051Y-60232626D01*
X216613327Y-60000000D01*
X216594051Y-59767374D01*
X216536749Y-59541093D01*
X216442984Y-59327331D01*
X216315314Y-59131917D01*
X216251880Y-59063010D01*
X216160752Y-58964018D01*
X216160747Y-58964013D01*
X216157220Y-58960182D01*
X216124964Y-58935076D01*
X215977130Y-58820011D01*
X215977127Y-58820009D01*
X215973017Y-58816810D01*
X215968438Y-58814332D01*
X215968435Y-58814330D01*
X215772312Y-58708194D01*
X215772309Y-58708192D01*
X215767727Y-58705713D01*
X215762799Y-58704021D01*
X215762794Y-58704019D01*
X215551881Y-58631612D01*
X215551875Y-58631610D01*
X215546951Y-58629920D01*
X215541814Y-58629062D01*
X215541811Y-58629062D01*
X215321849Y-58592357D01*
X215321846Y-58592356D01*
X215316712Y-58591500D01*
X215083288Y-58591500D01*
X215078154Y-58592356D01*
X215078150Y-58592357D01*
X214858188Y-58629062D01*
X214858182Y-58629063D01*
X214853049Y-58629920D01*
X214848127Y-58631609D01*
X214848118Y-58631612D01*
X214637205Y-58704019D01*
X214637196Y-58704022D01*
X214632273Y-58705713D01*
X214627694Y-58708190D01*
X214627687Y-58708194D01*
X214431564Y-58814330D01*
X214431556Y-58814335D01*
X214426983Y-58816810D01*
X214422877Y-58820005D01*
X214422869Y-58820011D01*
X214246898Y-58956976D01*
X214246892Y-58956981D01*
X214242780Y-58960182D01*
X214239258Y-58964007D01*
X214239247Y-58964018D01*
X214088214Y-59128084D01*
X214088211Y-59128087D01*
X214084686Y-59131917D01*
X214081838Y-59136275D01*
X214081835Y-59136280D01*
X213968721Y-59309415D01*
X213923207Y-59351314D01*
X213863238Y-59366500D01*
X211536762Y-59366500D01*
X211476793Y-59351314D01*
X211431279Y-59309415D01*
X211318164Y-59136280D01*
X211315314Y-59131917D01*
X211251880Y-59063010D01*
X211160752Y-58964018D01*
X211160747Y-58964013D01*
X211157220Y-58960182D01*
X211124964Y-58935076D01*
X210977130Y-58820011D01*
X210977127Y-58820009D01*
X210973017Y-58816810D01*
X210968438Y-58814332D01*
X210968435Y-58814330D01*
X210772312Y-58708194D01*
X210772309Y-58708192D01*
X210767727Y-58705713D01*
X210762799Y-58704021D01*
X210762794Y-58704019D01*
X210551881Y-58631612D01*
X210551875Y-58631610D01*
X210546951Y-58629920D01*
X210541814Y-58629062D01*
X210541811Y-58629062D01*
X210321849Y-58592357D01*
X210321846Y-58592356D01*
X210316712Y-58591500D01*
X210083288Y-58591500D01*
X210078154Y-58592356D01*
X210078150Y-58592357D01*
X209858188Y-58629062D01*
X209858182Y-58629063D01*
X209853049Y-58629920D01*
X209848127Y-58631609D01*
X209848118Y-58631612D01*
X209637205Y-58704019D01*
X209637196Y-58704022D01*
X209632273Y-58705713D01*
X209627694Y-58708190D01*
X209627687Y-58708194D01*
X209431564Y-58814330D01*
X209431556Y-58814335D01*
X209426983Y-58816810D01*
X209422877Y-58820005D01*
X209422869Y-58820011D01*
X209246898Y-58956976D01*
X209246892Y-58956981D01*
X209242780Y-58960182D01*
X209239258Y-58964007D01*
X209239247Y-58964018D01*
X209088214Y-59128084D01*
X209088211Y-59128087D01*
X209084686Y-59131917D01*
X209081838Y-59136275D01*
X209081835Y-59136280D01*
X208968721Y-59309415D01*
X208957016Y-59327331D01*
X208954923Y-59332101D01*
X208954921Y-59332106D01*
X208865344Y-59536320D01*
X208865341Y-59536326D01*
X208863251Y-59541093D01*
X208861973Y-59546137D01*
X208861971Y-59546145D01*
X208838707Y-59638015D01*
X208805949Y-59767374D01*
X208805519Y-59772562D01*
X208805518Y-59772569D01*
X208787961Y-59984446D01*
X208786673Y-60000000D01*
X208787103Y-60005189D01*
X208805518Y-60227430D01*
X208805518Y-60227435D01*
X208805949Y-60232626D01*
X208807229Y-60237680D01*
X208807230Y-60237684D01*
X208842025Y-60375090D01*
X208863251Y-60458907D01*
X208957016Y-60672669D01*
X209084686Y-60868083D01*
X209177653Y-60969072D01*
X209207096Y-61023477D01*
X209207097Y-61085339D01*
X209177654Y-61139746D01*
X209125865Y-61173582D01*
X209037201Y-61204021D01*
X209037198Y-61204021D01*
X209032273Y-61205713D01*
X209027694Y-61208190D01*
X209027687Y-61208194D01*
X208831564Y-61314330D01*
X208831556Y-61314335D01*
X208826983Y-61316810D01*
X208822877Y-61320005D01*
X208822869Y-61320011D01*
X208646898Y-61456976D01*
X208646892Y-61456981D01*
X208642780Y-61460182D01*
X208639258Y-61464007D01*
X208639247Y-61464018D01*
X208488214Y-61628084D01*
X208488211Y-61628087D01*
X208484686Y-61631917D01*
X208481838Y-61636275D01*
X208481835Y-61636280D01*
X208359868Y-61822965D01*
X208357016Y-61827331D01*
X208354923Y-61832101D01*
X208354921Y-61832106D01*
X208265344Y-62036320D01*
X208265341Y-62036326D01*
X208263251Y-62041093D01*
X208261973Y-62046137D01*
X208261971Y-62046145D01*
X208261930Y-62046308D01*
X208205949Y-62267374D01*
X208205519Y-62272562D01*
X208205518Y-62272569D01*
X208196922Y-62376314D01*
X208186673Y-62500000D01*
X203000500Y-62500000D01*
X203000500Y-51500000D01*
X206106502Y-51500000D01*
X206106981Y-51505475D01*
X206116545Y-51614798D01*
X206126457Y-51728087D01*
X206185716Y-51949243D01*
X206282477Y-52156749D01*
X206285630Y-52161252D01*
X206285633Y-52161257D01*
X206353707Y-52258476D01*
X206413802Y-52344300D01*
X206575700Y-52506198D01*
X206763251Y-52637523D01*
X206970757Y-52734284D01*
X207191913Y-52793543D01*
X207420000Y-52813498D01*
X207648087Y-52793543D01*
X207869243Y-52734284D01*
X208076749Y-52637523D01*
X208264300Y-52506198D01*
X208426198Y-52344300D01*
X208557523Y-52156749D01*
X208654284Y-51949243D01*
X208713543Y-51728087D01*
X208733498Y-51500000D01*
X216266502Y-51500000D01*
X216266981Y-51505475D01*
X216276545Y-51614798D01*
X216286457Y-51728087D01*
X216345716Y-51949243D01*
X216442477Y-52156749D01*
X216445630Y-52161252D01*
X216445633Y-52161257D01*
X216513707Y-52258476D01*
X216573802Y-52344300D01*
X216735700Y-52506198D01*
X216923251Y-52637523D01*
X217130757Y-52734284D01*
X217351913Y-52793543D01*
X217580000Y-52813498D01*
X217808087Y-52793543D01*
X218029243Y-52734284D01*
X218236749Y-52637523D01*
X218424300Y-52506198D01*
X218586198Y-52344300D01*
X218717523Y-52156749D01*
X218814284Y-51949243D01*
X218873543Y-51728087D01*
X218893498Y-51500000D01*
X218873543Y-51271913D01*
X218814284Y-51050757D01*
X218717523Y-50843251D01*
X218586198Y-50655700D01*
X218424300Y-50493802D01*
X218350496Y-50442123D01*
X218241257Y-50365633D01*
X218241252Y-50365630D01*
X218236749Y-50362477D01*
X218029243Y-50265716D01*
X217808087Y-50206457D01*
X217802611Y-50205977D01*
X217802606Y-50205977D01*
X217585475Y-50186981D01*
X217580000Y-50186502D01*
X217574525Y-50186981D01*
X217357393Y-50205977D01*
X217357386Y-50205978D01*
X217351913Y-50206457D01*
X217346599Y-50207880D01*
X217346598Y-50207881D01*
X217136067Y-50264293D01*
X217136065Y-50264293D01*
X217130757Y-50265716D01*
X217125779Y-50268036D01*
X217125774Y-50268039D01*
X216928238Y-50360151D01*
X216928233Y-50360153D01*
X216923251Y-50362477D01*
X216918752Y-50365627D01*
X216918742Y-50365633D01*
X216740211Y-50490643D01*
X216740208Y-50490645D01*
X216735700Y-50493802D01*
X216731808Y-50497693D01*
X216731802Y-50497699D01*
X216577699Y-50651802D01*
X216577693Y-50651808D01*
X216573802Y-50655700D01*
X216570645Y-50660208D01*
X216570643Y-50660211D01*
X216445633Y-50838742D01*
X216445627Y-50838752D01*
X216442477Y-50843251D01*
X216440153Y-50848233D01*
X216440151Y-50848238D01*
X216348039Y-51045774D01*
X216348036Y-51045779D01*
X216345716Y-51050757D01*
X216344293Y-51056065D01*
X216344293Y-51056067D01*
X216290164Y-51258077D01*
X216286457Y-51271913D01*
X216285978Y-51277386D01*
X216285977Y-51277393D01*
X216272904Y-51426823D01*
X216266502Y-51500000D01*
X208733498Y-51500000D01*
X208713543Y-51271913D01*
X208654284Y-51050757D01*
X208557523Y-50843251D01*
X208426198Y-50655700D01*
X208264300Y-50493802D01*
X208190496Y-50442123D01*
X208081257Y-50365633D01*
X208081252Y-50365630D01*
X208076749Y-50362477D01*
X207869243Y-50265716D01*
X207648087Y-50206457D01*
X207642611Y-50205977D01*
X207642606Y-50205977D01*
X207425475Y-50186981D01*
X207420000Y-50186502D01*
X207414525Y-50186981D01*
X207197393Y-50205977D01*
X207197386Y-50205978D01*
X207191913Y-50206457D01*
X207186599Y-50207880D01*
X207186598Y-50207881D01*
X206976067Y-50264293D01*
X206976065Y-50264293D01*
X206970757Y-50265716D01*
X206965779Y-50268036D01*
X206965774Y-50268039D01*
X206768238Y-50360151D01*
X206768233Y-50360153D01*
X206763251Y-50362477D01*
X206758752Y-50365627D01*
X206758742Y-50365633D01*
X206580211Y-50490643D01*
X206580208Y-50490645D01*
X206575700Y-50493802D01*
X206571808Y-50497693D01*
X206571802Y-50497699D01*
X206417699Y-50651802D01*
X206417693Y-50651808D01*
X206413802Y-50655700D01*
X206410645Y-50660208D01*
X206410643Y-50660211D01*
X206285633Y-50838742D01*
X206285627Y-50838752D01*
X206282477Y-50843251D01*
X206280153Y-50848233D01*
X206280151Y-50848238D01*
X206188039Y-51045774D01*
X206188036Y-51045779D01*
X206185716Y-51050757D01*
X206184293Y-51056065D01*
X206184293Y-51056067D01*
X206130164Y-51258077D01*
X206126457Y-51271913D01*
X206125978Y-51277386D01*
X206125977Y-51277393D01*
X206112904Y-51426823D01*
X206106502Y-51500000D01*
X203000500Y-51500000D01*
X203000500Y-47500000D01*
X206106502Y-47500000D01*
X206126457Y-47728087D01*
X206185716Y-47949243D01*
X206188038Y-47954223D01*
X206188039Y-47954225D01*
X206196333Y-47972012D01*
X206282477Y-48156749D01*
X206285630Y-48161252D01*
X206285633Y-48161257D01*
X206362123Y-48270496D01*
X206413802Y-48344300D01*
X206575700Y-48506198D01*
X206763251Y-48637523D01*
X206970757Y-48734284D01*
X207191913Y-48793543D01*
X207420000Y-48813498D01*
X207648087Y-48793543D01*
X207869243Y-48734284D01*
X208076749Y-48637523D01*
X208264300Y-48506198D01*
X208426198Y-48344300D01*
X208557523Y-48156749D01*
X208654284Y-47949243D01*
X208713543Y-47728087D01*
X208733498Y-47500000D01*
X216266502Y-47500000D01*
X216286457Y-47728087D01*
X216345716Y-47949243D01*
X216348038Y-47954223D01*
X216348039Y-47954225D01*
X216356333Y-47972012D01*
X216442477Y-48156749D01*
X216445630Y-48161252D01*
X216445633Y-48161257D01*
X216522123Y-48270496D01*
X216573802Y-48344300D01*
X216735700Y-48506198D01*
X216923251Y-48637523D01*
X217130757Y-48734284D01*
X217351913Y-48793543D01*
X217580000Y-48813498D01*
X217808087Y-48793543D01*
X218029243Y-48734284D01*
X218236749Y-48637523D01*
X218424300Y-48506198D01*
X218586198Y-48344300D01*
X218717523Y-48156749D01*
X218814284Y-47949243D01*
X218873543Y-47728087D01*
X218893498Y-47500000D01*
X218873543Y-47271913D01*
X218814284Y-47050757D01*
X218717523Y-46843251D01*
X218586198Y-46655700D01*
X218424300Y-46493802D01*
X218277197Y-46390799D01*
X218241257Y-46365633D01*
X218241252Y-46365630D01*
X218236749Y-46362477D01*
X218053440Y-46276999D01*
X218034225Y-46268039D01*
X218034223Y-46268038D01*
X218029243Y-46265716D01*
X217808087Y-46206457D01*
X217802611Y-46205977D01*
X217802606Y-46205977D01*
X217585475Y-46186981D01*
X217580000Y-46186502D01*
X217574525Y-46186981D01*
X217357393Y-46205977D01*
X217357386Y-46205978D01*
X217351913Y-46206457D01*
X217346599Y-46207880D01*
X217346598Y-46207881D01*
X217136067Y-46264293D01*
X217136065Y-46264293D01*
X217130757Y-46265716D01*
X217125779Y-46268036D01*
X217125774Y-46268039D01*
X216928238Y-46360151D01*
X216928233Y-46360153D01*
X216923251Y-46362477D01*
X216918752Y-46365627D01*
X216918742Y-46365633D01*
X216740211Y-46490643D01*
X216740208Y-46490645D01*
X216735700Y-46493802D01*
X216731808Y-46497693D01*
X216731802Y-46497699D01*
X216577699Y-46651802D01*
X216577693Y-46651808D01*
X216573802Y-46655700D01*
X216570645Y-46660208D01*
X216570643Y-46660211D01*
X216445633Y-46838742D01*
X216445627Y-46838752D01*
X216442477Y-46843251D01*
X216440153Y-46848233D01*
X216440151Y-46848238D01*
X216348039Y-47045774D01*
X216348036Y-47045779D01*
X216345716Y-47050757D01*
X216344293Y-47056065D01*
X216344293Y-47056067D01*
X216287881Y-47266598D01*
X216286457Y-47271913D01*
X216285978Y-47277386D01*
X216285977Y-47277393D01*
X216267528Y-47488270D01*
X216266502Y-47500000D01*
X208733498Y-47500000D01*
X208713543Y-47271913D01*
X208654284Y-47050757D01*
X208557523Y-46843251D01*
X208426198Y-46655700D01*
X208264300Y-46493802D01*
X208117197Y-46390799D01*
X208081257Y-46365633D01*
X208081252Y-46365630D01*
X208076749Y-46362477D01*
X207893440Y-46276999D01*
X207874225Y-46268039D01*
X207874223Y-46268038D01*
X207869243Y-46265716D01*
X207648087Y-46206457D01*
X207642611Y-46205977D01*
X207642606Y-46205977D01*
X207425475Y-46186981D01*
X207420000Y-46186502D01*
X207414525Y-46186981D01*
X207197393Y-46205977D01*
X207197386Y-46205978D01*
X207191913Y-46206457D01*
X207186599Y-46207880D01*
X207186598Y-46207881D01*
X206976067Y-46264293D01*
X206976065Y-46264293D01*
X206970757Y-46265716D01*
X206965779Y-46268036D01*
X206965774Y-46268039D01*
X206768238Y-46360151D01*
X206768233Y-46360153D01*
X206763251Y-46362477D01*
X206758752Y-46365627D01*
X206758742Y-46365633D01*
X206580211Y-46490643D01*
X206580208Y-46490645D01*
X206575700Y-46493802D01*
X206571808Y-46497693D01*
X206571802Y-46497699D01*
X206417699Y-46651802D01*
X206417693Y-46651808D01*
X206413802Y-46655700D01*
X206410645Y-46660208D01*
X206410643Y-46660211D01*
X206285633Y-46838742D01*
X206285627Y-46838752D01*
X206282477Y-46843251D01*
X206280153Y-46848233D01*
X206280151Y-46848238D01*
X206188039Y-47045774D01*
X206188036Y-47045779D01*
X206185716Y-47050757D01*
X206184293Y-47056065D01*
X206184293Y-47056067D01*
X206127881Y-47266598D01*
X206126457Y-47271913D01*
X206125978Y-47277386D01*
X206125977Y-47277393D01*
X206107528Y-47488270D01*
X206106502Y-47500000D01*
X203000500Y-47500000D01*
X203000500Y-45448638D01*
X260641500Y-45448638D01*
X260641859Y-45451985D01*
X260641860Y-45451988D01*
X260647168Y-45501367D01*
X260647169Y-45501373D01*
X260648011Y-45509201D01*
X260650762Y-45516578D01*
X260650763Y-45516580D01*
X260695962Y-45637763D01*
X260695964Y-45637766D01*
X260699111Y-45646204D01*
X260704508Y-45653414D01*
X260704510Y-45653417D01*
X260781340Y-45756049D01*
X260786739Y-45763261D01*
X260903796Y-45850889D01*
X261040799Y-45901989D01*
X261101362Y-45908500D01*
X264395269Y-45908500D01*
X264398638Y-45908500D01*
X264459201Y-45901989D01*
X264596204Y-45850889D01*
X264713261Y-45763261D01*
X264800889Y-45646204D01*
X264851989Y-45509201D01*
X264858500Y-45448638D01*
X264858500Y-43351362D01*
X264851989Y-43290799D01*
X264800889Y-43153796D01*
X264713261Y-43036739D01*
X264706049Y-43031340D01*
X264603417Y-42954510D01*
X264603414Y-42954508D01*
X264596204Y-42949111D01*
X264587766Y-42945964D01*
X264587763Y-42945962D01*
X264466580Y-42900763D01*
X264466578Y-42900762D01*
X264459201Y-42898011D01*
X264451373Y-42897169D01*
X264451367Y-42897168D01*
X264401988Y-42891860D01*
X264401985Y-42891859D01*
X264398638Y-42891500D01*
X261101362Y-42891500D01*
X261098015Y-42891859D01*
X261098011Y-42891860D01*
X261048632Y-42897168D01*
X261048625Y-42897169D01*
X261040799Y-42898011D01*
X261033423Y-42900761D01*
X261033419Y-42900763D01*
X260912236Y-42945962D01*
X260912230Y-42945965D01*
X260903796Y-42949111D01*
X260896588Y-42954506D01*
X260896582Y-42954510D01*
X260793950Y-43031340D01*
X260793946Y-43031343D01*
X260786739Y-43036739D01*
X260781343Y-43043946D01*
X260781340Y-43043950D01*
X260704510Y-43146582D01*
X260704506Y-43146588D01*
X260699111Y-43153796D01*
X260695965Y-43162230D01*
X260695962Y-43162236D01*
X260650763Y-43283419D01*
X260650761Y-43283423D01*
X260648011Y-43290799D01*
X260647169Y-43298625D01*
X260647168Y-43298632D01*
X260641860Y-43348011D01*
X260641500Y-43351362D01*
X260641500Y-45448638D01*
X203000500Y-45448638D01*
X203000500Y-41160163D01*
X209404581Y-41160163D01*
X209412817Y-41171531D01*
X209423147Y-41179572D01*
X209431836Y-41185249D01*
X209627888Y-41291346D01*
X209637405Y-41295521D01*
X209848241Y-41367901D01*
X209858311Y-41370451D01*
X210078192Y-41407142D01*
X210088541Y-41408000D01*
X210311459Y-41408000D01*
X210321807Y-41407142D01*
X210541688Y-41370451D01*
X210551758Y-41367901D01*
X210762594Y-41295521D01*
X210772111Y-41291346D01*
X210968159Y-41185251D01*
X210976855Y-41179569D01*
X210987181Y-41171532D01*
X210995416Y-41160163D01*
X214404581Y-41160163D01*
X214412817Y-41171531D01*
X214423147Y-41179572D01*
X214431836Y-41185249D01*
X214627888Y-41291346D01*
X214637405Y-41295521D01*
X214848241Y-41367901D01*
X214858311Y-41370451D01*
X215078192Y-41407142D01*
X215088541Y-41408000D01*
X215311459Y-41408000D01*
X215321807Y-41407142D01*
X215541688Y-41370451D01*
X215551758Y-41367901D01*
X215762594Y-41295521D01*
X215772111Y-41291346D01*
X215968159Y-41185251D01*
X215976855Y-41179569D01*
X215987181Y-41171532D01*
X215995417Y-41160162D01*
X215988651Y-41147862D01*
X215211730Y-40370940D01*
X215199999Y-40364167D01*
X215188270Y-40370939D01*
X214411350Y-41147859D01*
X214404581Y-41160163D01*
X210995416Y-41160163D01*
X210995417Y-41160162D01*
X210988651Y-41147862D01*
X210211730Y-40370940D01*
X210199999Y-40364167D01*
X210188270Y-40370939D01*
X209411350Y-41147859D01*
X209404581Y-41160163D01*
X203000500Y-41160163D01*
X203000500Y-40005189D01*
X208787604Y-40005189D01*
X208806012Y-40227348D01*
X208807724Y-40237602D01*
X208862445Y-40453691D01*
X208865818Y-40463516D01*
X208955362Y-40667655D01*
X208960309Y-40676797D01*
X209033108Y-40788225D01*
X209041202Y-40796072D01*
X209050735Y-40790052D01*
X209829058Y-40011730D01*
X209835831Y-39999999D01*
X210564167Y-39999999D01*
X210570940Y-40011730D01*
X211349263Y-40790052D01*
X211358797Y-40796072D01*
X211366888Y-40788228D01*
X211439693Y-40676792D01*
X211444636Y-40667657D01*
X211534181Y-40463516D01*
X211537554Y-40453691D01*
X211592275Y-40237602D01*
X211593987Y-40227348D01*
X211612396Y-40005189D01*
X213787604Y-40005189D01*
X213806012Y-40227348D01*
X213807724Y-40237602D01*
X213862445Y-40453691D01*
X213865818Y-40463516D01*
X213955362Y-40667655D01*
X213960309Y-40676797D01*
X214033108Y-40788225D01*
X214041202Y-40796072D01*
X214050735Y-40790052D01*
X214829058Y-40011730D01*
X214835831Y-39999999D01*
X215564167Y-39999999D01*
X215570940Y-40011730D01*
X216349263Y-40790052D01*
X216358797Y-40796072D01*
X216366888Y-40788228D01*
X216439693Y-40676792D01*
X216444636Y-40667657D01*
X216534181Y-40463516D01*
X216537554Y-40453691D01*
X216592275Y-40237602D01*
X216593987Y-40227348D01*
X216612396Y-40005189D01*
X216612396Y-39994811D01*
X216593987Y-39772651D01*
X216592275Y-39762397D01*
X216537554Y-39546308D01*
X216534181Y-39536483D01*
X216444637Y-39332344D01*
X216439690Y-39323203D01*
X216366890Y-39211773D01*
X216358796Y-39203926D01*
X216349262Y-39209947D01*
X215570939Y-39988270D01*
X215564167Y-39999999D01*
X214835831Y-39999999D01*
X214829059Y-39988270D01*
X214050736Y-39209947D01*
X214041202Y-39203927D01*
X214033108Y-39211773D01*
X213960304Y-39323210D01*
X213955363Y-39332340D01*
X213865818Y-39536483D01*
X213862445Y-39546308D01*
X213807724Y-39762397D01*
X213806012Y-39772651D01*
X213787604Y-39994811D01*
X213787604Y-40005189D01*
X211612396Y-40005189D01*
X211612396Y-39994811D01*
X211593987Y-39772651D01*
X211592275Y-39762397D01*
X211537554Y-39546308D01*
X211534181Y-39536483D01*
X211444637Y-39332344D01*
X211439690Y-39323203D01*
X211366890Y-39211773D01*
X211358796Y-39203926D01*
X211349262Y-39209947D01*
X210570939Y-39988270D01*
X210564167Y-39999999D01*
X209835831Y-39999999D01*
X209829059Y-39988270D01*
X209050736Y-39209947D01*
X209041202Y-39203927D01*
X209033108Y-39211773D01*
X208960304Y-39323210D01*
X208955363Y-39332340D01*
X208865818Y-39536483D01*
X208862445Y-39546308D01*
X208807724Y-39762397D01*
X208806012Y-39772651D01*
X208787604Y-39994811D01*
X208787604Y-40005189D01*
X203000500Y-40005189D01*
X203000500Y-37500000D01*
X208186673Y-37500000D01*
X208187103Y-37505189D01*
X208205511Y-37727348D01*
X208205949Y-37732626D01*
X208207230Y-37737684D01*
X208239259Y-37864167D01*
X208263251Y-37958907D01*
X208265343Y-37963676D01*
X208265344Y-37963679D01*
X208354921Y-38167893D01*
X208357016Y-38172669D01*
X208484686Y-38368083D01*
X208488214Y-38371915D01*
X208639247Y-38535981D01*
X208639252Y-38535985D01*
X208642780Y-38539818D01*
X208826983Y-38683190D01*
X209032273Y-38794287D01*
X209253049Y-38870080D01*
X209424776Y-38898736D01*
X209461703Y-38910989D01*
X209493132Y-38933922D01*
X210188271Y-39629060D01*
X210199999Y-39635831D01*
X210211730Y-39629058D01*
X210988650Y-38852137D01*
X210995417Y-38839836D01*
X210995416Y-38839835D01*
X214404581Y-38839835D01*
X214411349Y-38852138D01*
X215188270Y-39629059D01*
X215200000Y-39635831D01*
X215211726Y-39629061D01*
X215935787Y-38905000D01*
X224581807Y-38905000D01*
X224582101Y-38909298D01*
X224592187Y-39056758D01*
X224600558Y-39179130D01*
X224601431Y-39183331D01*
X224601432Y-39183338D01*
X224632396Y-39332344D01*
X224656462Y-39448153D01*
X224657899Y-39452196D01*
X224657902Y-39452207D01*
X224747037Y-39703008D01*
X224747040Y-39703015D01*
X224748477Y-39707058D01*
X224750451Y-39710869D01*
X224750453Y-39710872D01*
X224872906Y-39947197D01*
X224872909Y-39947202D01*
X224874889Y-39951023D01*
X225033343Y-40175502D01*
X225220889Y-40376314D01*
X225434031Y-40549718D01*
X225668800Y-40692484D01*
X225920823Y-40801953D01*
X226185404Y-40876085D01*
X226457615Y-40913500D01*
X226728080Y-40913500D01*
X226732385Y-40913500D01*
X227004596Y-40876085D01*
X227269177Y-40801953D01*
X227521200Y-40692484D01*
X227755969Y-40549718D01*
X227969111Y-40376314D01*
X228156657Y-40175502D01*
X228315111Y-39951023D01*
X228441523Y-39707058D01*
X228533538Y-39448153D01*
X228589442Y-39179130D01*
X228608193Y-38905000D01*
X228589442Y-38630870D01*
X228542505Y-38405000D01*
X232471502Y-38405000D01*
X232471981Y-38410475D01*
X232490894Y-38626661D01*
X232491457Y-38633087D01*
X232550716Y-38854243D01*
X232553038Y-38859223D01*
X232553039Y-38859225D01*
X232629195Y-39022543D01*
X232647477Y-39061749D01*
X232650630Y-39066252D01*
X232650633Y-39066257D01*
X232726662Y-39174836D01*
X232778802Y-39249300D01*
X232940700Y-39411198D01*
X233128251Y-39542523D01*
X233335757Y-39639284D01*
X233556913Y-39698543D01*
X233785000Y-39718498D01*
X234013087Y-39698543D01*
X234234243Y-39639284D01*
X234441749Y-39542523D01*
X234629300Y-39411198D01*
X234791198Y-39249300D01*
X234922523Y-39061749D01*
X234940804Y-39022543D01*
X234987300Y-38969525D01*
X235055000Y-38949792D01*
X235122700Y-38969525D01*
X235169195Y-39022543D01*
X235185149Y-39056758D01*
X235185151Y-39056761D01*
X235187477Y-39061749D01*
X235190630Y-39066252D01*
X235190633Y-39066257D01*
X235266662Y-39174836D01*
X235318802Y-39249300D01*
X235480700Y-39411198D01*
X235668251Y-39542523D01*
X235875757Y-39639284D01*
X236096913Y-39698543D01*
X236325000Y-39718498D01*
X236553087Y-39698543D01*
X236774243Y-39639284D01*
X236981749Y-39542523D01*
X237169300Y-39411198D01*
X237331198Y-39249300D01*
X237462523Y-39061749D01*
X237480804Y-39022543D01*
X237527300Y-38969525D01*
X237595000Y-38949792D01*
X237662700Y-38969525D01*
X237709195Y-39022543D01*
X237725149Y-39056758D01*
X237725151Y-39056761D01*
X237727477Y-39061749D01*
X237730630Y-39066252D01*
X237730633Y-39066257D01*
X237806662Y-39174836D01*
X237858802Y-39249300D01*
X238020700Y-39411198D01*
X238208251Y-39542523D01*
X238415757Y-39639284D01*
X238636913Y-39698543D01*
X238865000Y-39718498D01*
X239093087Y-39698543D01*
X239314243Y-39639284D01*
X239521749Y-39542523D01*
X239709300Y-39411198D01*
X239871198Y-39249300D01*
X240002523Y-39061749D01*
X240020804Y-39022543D01*
X240067300Y-38969525D01*
X240135000Y-38949792D01*
X240202700Y-38969525D01*
X240249195Y-39022543D01*
X240265149Y-39056758D01*
X240265151Y-39056761D01*
X240267477Y-39061749D01*
X240270630Y-39066252D01*
X240270633Y-39066257D01*
X240346662Y-39174836D01*
X240398802Y-39249300D01*
X240560700Y-39411198D01*
X240748251Y-39542523D01*
X240955757Y-39639284D01*
X241176913Y-39698543D01*
X241405000Y-39718498D01*
X241633087Y-39698543D01*
X241854243Y-39639284D01*
X242061749Y-39542523D01*
X242249300Y-39411198D01*
X242411198Y-39249300D01*
X242542523Y-39061749D01*
X242615616Y-38905000D01*
X246581807Y-38905000D01*
X246582101Y-38909298D01*
X246592187Y-39056758D01*
X246600558Y-39179130D01*
X246601431Y-39183331D01*
X246601432Y-39183338D01*
X246632396Y-39332344D01*
X246656462Y-39448153D01*
X246657899Y-39452196D01*
X246657902Y-39452207D01*
X246747037Y-39703008D01*
X246747040Y-39703015D01*
X246748477Y-39707058D01*
X246750451Y-39710869D01*
X246750453Y-39710872D01*
X246872906Y-39947197D01*
X246872909Y-39947202D01*
X246874889Y-39951023D01*
X247033343Y-40175502D01*
X247220889Y-40376314D01*
X247434031Y-40549718D01*
X247668800Y-40692484D01*
X247920823Y-40801953D01*
X248185404Y-40876085D01*
X248457615Y-40913500D01*
X248728080Y-40913500D01*
X248732385Y-40913500D01*
X249004596Y-40876085D01*
X249269177Y-40801953D01*
X249521200Y-40692484D01*
X249755969Y-40549718D01*
X249969111Y-40376314D01*
X250156657Y-40175502D01*
X250315111Y-39951023D01*
X250441523Y-39707058D01*
X250533538Y-39448153D01*
X250589442Y-39179130D01*
X250608193Y-38905000D01*
X250589442Y-38630870D01*
X250533538Y-38361847D01*
X250441523Y-38102942D01*
X250315111Y-37858977D01*
X250156657Y-37634498D01*
X249969111Y-37433686D01*
X249764813Y-37267477D01*
X249759304Y-37262995D01*
X249759301Y-37262993D01*
X249755969Y-37260282D01*
X249521200Y-37117516D01*
X249517259Y-37115804D01*
X249517253Y-37115801D01*
X249273112Y-37009756D01*
X249273109Y-37009755D01*
X249269177Y-37008047D01*
X249265052Y-37006891D01*
X249265043Y-37006888D01*
X249008742Y-36935076D01*
X249008732Y-36935074D01*
X249004596Y-36933915D01*
X249000335Y-36933329D01*
X249000324Y-36933327D01*
X248736653Y-36897086D01*
X248736643Y-36897085D01*
X248732385Y-36896500D01*
X248457615Y-36896500D01*
X248453357Y-36897085D01*
X248453346Y-36897086D01*
X248189675Y-36933327D01*
X248189661Y-36933329D01*
X248185404Y-36933915D01*
X248181269Y-36935073D01*
X248181257Y-36935076D01*
X247924956Y-37006888D01*
X247924942Y-37006892D01*
X247920823Y-37008047D01*
X247916895Y-37009753D01*
X247916887Y-37009756D01*
X247672746Y-37115801D01*
X247672733Y-37115807D01*
X247668800Y-37117516D01*
X247665129Y-37119748D01*
X247665122Y-37119752D01*
X247437704Y-37258048D01*
X247437699Y-37258050D01*
X247434031Y-37260282D01*
X247430704Y-37262988D01*
X247430695Y-37262995D01*
X247224225Y-37430971D01*
X247224217Y-37430978D01*
X247220889Y-37433686D01*
X247217957Y-37436824D01*
X247217952Y-37436830D01*
X247036282Y-37631350D01*
X247036274Y-37631358D01*
X247033343Y-37634498D01*
X247030863Y-37638010D01*
X247030860Y-37638015D01*
X246877375Y-37855454D01*
X246877370Y-37855462D01*
X246874889Y-37858977D01*
X246872913Y-37862790D01*
X246872906Y-37862802D01*
X246750453Y-38099127D01*
X246750449Y-38099136D01*
X246748477Y-38102942D01*
X246747042Y-38106978D01*
X246747037Y-38106991D01*
X246657902Y-38357792D01*
X246657897Y-38357807D01*
X246656462Y-38361847D01*
X246655587Y-38366054D01*
X246655587Y-38366057D01*
X246601432Y-38626661D01*
X246601430Y-38626670D01*
X246600558Y-38630870D01*
X246600264Y-38635157D01*
X246600264Y-38635163D01*
X246589264Y-38795980D01*
X246581807Y-38905000D01*
X242615616Y-38905000D01*
X242639284Y-38854243D01*
X242698543Y-38633087D01*
X242718498Y-38405000D01*
X242698543Y-38176913D01*
X242639284Y-37955757D01*
X242542523Y-37748251D01*
X242535066Y-37737602D01*
X242504980Y-37694634D01*
X242411198Y-37560700D01*
X242249300Y-37398802D01*
X242175496Y-37347123D01*
X242066257Y-37270633D01*
X242066252Y-37270630D01*
X242061749Y-37267477D01*
X241854243Y-37170716D01*
X241633087Y-37111457D01*
X241627611Y-37110977D01*
X241627606Y-37110977D01*
X241410475Y-37091981D01*
X241405000Y-37091502D01*
X241399525Y-37091981D01*
X241182393Y-37110977D01*
X241182386Y-37110978D01*
X241176913Y-37111457D01*
X241171599Y-37112880D01*
X241171598Y-37112881D01*
X240961067Y-37169293D01*
X240961065Y-37169293D01*
X240955757Y-37170716D01*
X240950779Y-37173036D01*
X240950774Y-37173039D01*
X240753238Y-37265151D01*
X240753233Y-37265153D01*
X240748251Y-37267477D01*
X240743752Y-37270627D01*
X240743742Y-37270633D01*
X240565211Y-37395643D01*
X240565208Y-37395645D01*
X240560700Y-37398802D01*
X240556808Y-37402693D01*
X240556802Y-37402699D01*
X240402699Y-37556802D01*
X240402693Y-37556808D01*
X240398802Y-37560700D01*
X240395645Y-37565208D01*
X240395643Y-37565211D01*
X240270633Y-37743742D01*
X240270627Y-37743752D01*
X240267477Y-37748251D01*
X240265153Y-37753233D01*
X240265151Y-37753238D01*
X240249195Y-37787457D01*
X240202700Y-37840474D01*
X240135000Y-37860207D01*
X240067300Y-37840474D01*
X240020805Y-37787457D01*
X240004848Y-37753238D01*
X240002523Y-37748251D01*
X239995066Y-37737602D01*
X239964980Y-37694634D01*
X239871198Y-37560700D01*
X239709300Y-37398802D01*
X239635496Y-37347123D01*
X239526257Y-37270633D01*
X239526252Y-37270630D01*
X239521749Y-37267477D01*
X239314243Y-37170716D01*
X239093087Y-37111457D01*
X239087611Y-37110977D01*
X239087606Y-37110977D01*
X238870475Y-37091981D01*
X238865000Y-37091502D01*
X238859525Y-37091981D01*
X238642393Y-37110977D01*
X238642386Y-37110978D01*
X238636913Y-37111457D01*
X238631599Y-37112880D01*
X238631598Y-37112881D01*
X238421067Y-37169293D01*
X238421065Y-37169293D01*
X238415757Y-37170716D01*
X238410779Y-37173036D01*
X238410774Y-37173039D01*
X238213238Y-37265151D01*
X238213233Y-37265153D01*
X238208251Y-37267477D01*
X238203752Y-37270627D01*
X238203742Y-37270633D01*
X238025211Y-37395643D01*
X238025208Y-37395645D01*
X238020700Y-37398802D01*
X238016808Y-37402693D01*
X238016802Y-37402699D01*
X237862699Y-37556802D01*
X237862693Y-37556808D01*
X237858802Y-37560700D01*
X237855645Y-37565208D01*
X237855643Y-37565211D01*
X237730633Y-37743742D01*
X237730627Y-37743752D01*
X237727477Y-37748251D01*
X237725153Y-37753233D01*
X237725151Y-37753238D01*
X237709195Y-37787457D01*
X237662700Y-37840474D01*
X237595000Y-37860207D01*
X237527300Y-37840474D01*
X237480805Y-37787457D01*
X237464848Y-37753238D01*
X237462523Y-37748251D01*
X237455066Y-37737602D01*
X237424980Y-37694634D01*
X237331198Y-37560700D01*
X237169300Y-37398802D01*
X237095496Y-37347123D01*
X236986257Y-37270633D01*
X236986252Y-37270630D01*
X236981749Y-37267477D01*
X236774243Y-37170716D01*
X236553087Y-37111457D01*
X236547611Y-37110977D01*
X236547606Y-37110977D01*
X236330475Y-37091981D01*
X236325000Y-37091502D01*
X236319525Y-37091981D01*
X236102393Y-37110977D01*
X236102386Y-37110978D01*
X236096913Y-37111457D01*
X236091599Y-37112880D01*
X236091598Y-37112881D01*
X235881067Y-37169293D01*
X235881065Y-37169293D01*
X235875757Y-37170716D01*
X235870779Y-37173036D01*
X235870774Y-37173039D01*
X235673238Y-37265151D01*
X235673233Y-37265153D01*
X235668251Y-37267477D01*
X235663752Y-37270627D01*
X235663742Y-37270633D01*
X235485211Y-37395643D01*
X235485208Y-37395645D01*
X235480700Y-37398802D01*
X235476808Y-37402693D01*
X235476802Y-37402699D01*
X235322699Y-37556802D01*
X235322693Y-37556808D01*
X235318802Y-37560700D01*
X235315645Y-37565208D01*
X235315643Y-37565211D01*
X235190633Y-37743742D01*
X235190627Y-37743752D01*
X235187477Y-37748251D01*
X235185153Y-37753233D01*
X235185151Y-37753238D01*
X235169195Y-37787457D01*
X235122700Y-37840474D01*
X235055000Y-37860207D01*
X234987300Y-37840474D01*
X234940805Y-37787457D01*
X234924848Y-37753238D01*
X234922523Y-37748251D01*
X234915066Y-37737602D01*
X234884980Y-37694634D01*
X234791198Y-37560700D01*
X234629300Y-37398802D01*
X234555496Y-37347123D01*
X234446257Y-37270633D01*
X234446252Y-37270630D01*
X234441749Y-37267477D01*
X234234243Y-37170716D01*
X234013087Y-37111457D01*
X234007611Y-37110977D01*
X234007606Y-37110977D01*
X233790475Y-37091981D01*
X233785000Y-37091502D01*
X233779525Y-37091981D01*
X233562393Y-37110977D01*
X233562386Y-37110978D01*
X233556913Y-37111457D01*
X233551599Y-37112880D01*
X233551598Y-37112881D01*
X233341067Y-37169293D01*
X233341065Y-37169293D01*
X233335757Y-37170716D01*
X233330779Y-37173036D01*
X233330774Y-37173039D01*
X233133238Y-37265151D01*
X233133233Y-37265153D01*
X233128251Y-37267477D01*
X233123752Y-37270627D01*
X233123742Y-37270633D01*
X232945211Y-37395643D01*
X232945208Y-37395645D01*
X232940700Y-37398802D01*
X232936808Y-37402693D01*
X232936802Y-37402699D01*
X232782699Y-37556802D01*
X232782693Y-37556808D01*
X232778802Y-37560700D01*
X232775645Y-37565208D01*
X232775643Y-37565211D01*
X232650633Y-37743742D01*
X232650627Y-37743752D01*
X232647477Y-37748251D01*
X232645153Y-37753233D01*
X232645151Y-37753238D01*
X232553039Y-37950774D01*
X232553036Y-37950779D01*
X232550716Y-37955757D01*
X232549293Y-37961065D01*
X232549293Y-37961067D01*
X232510193Y-38106991D01*
X232491457Y-38176913D01*
X232490978Y-38182386D01*
X232490977Y-38182393D01*
X232471988Y-38399443D01*
X232471502Y-38405000D01*
X228542505Y-38405000D01*
X228533538Y-38361847D01*
X228441523Y-38102942D01*
X228315111Y-37858977D01*
X228156657Y-37634498D01*
X227969111Y-37433686D01*
X227764813Y-37267477D01*
X227759304Y-37262995D01*
X227759301Y-37262993D01*
X227755969Y-37260282D01*
X227521200Y-37117516D01*
X227517259Y-37115804D01*
X227517253Y-37115801D01*
X227273112Y-37009756D01*
X227273109Y-37009755D01*
X227269177Y-37008047D01*
X227265052Y-37006891D01*
X227265043Y-37006888D01*
X227008742Y-36935076D01*
X227008732Y-36935074D01*
X227004596Y-36933915D01*
X227000335Y-36933329D01*
X227000324Y-36933327D01*
X226736653Y-36897086D01*
X226736643Y-36897085D01*
X226732385Y-36896500D01*
X226457615Y-36896500D01*
X226453357Y-36897085D01*
X226453346Y-36897086D01*
X226189675Y-36933327D01*
X226189661Y-36933329D01*
X226185404Y-36933915D01*
X226181269Y-36935073D01*
X226181257Y-36935076D01*
X225924956Y-37006888D01*
X225924942Y-37006892D01*
X225920823Y-37008047D01*
X225916895Y-37009753D01*
X225916887Y-37009756D01*
X225672746Y-37115801D01*
X225672733Y-37115807D01*
X225668800Y-37117516D01*
X225665129Y-37119748D01*
X225665122Y-37119752D01*
X225437704Y-37258048D01*
X225437699Y-37258050D01*
X225434031Y-37260282D01*
X225430704Y-37262988D01*
X225430695Y-37262995D01*
X225224225Y-37430971D01*
X225224217Y-37430978D01*
X225220889Y-37433686D01*
X225217957Y-37436824D01*
X225217952Y-37436830D01*
X225036282Y-37631350D01*
X225036274Y-37631358D01*
X225033343Y-37634498D01*
X225030863Y-37638010D01*
X225030860Y-37638015D01*
X224877375Y-37855454D01*
X224877370Y-37855462D01*
X224874889Y-37858977D01*
X224872913Y-37862790D01*
X224872906Y-37862802D01*
X224750453Y-38099127D01*
X224750449Y-38099136D01*
X224748477Y-38102942D01*
X224747042Y-38106978D01*
X224747037Y-38106991D01*
X224657902Y-38357792D01*
X224657897Y-38357807D01*
X224656462Y-38361847D01*
X224655587Y-38366054D01*
X224655587Y-38366057D01*
X224601432Y-38626661D01*
X224601430Y-38626670D01*
X224600558Y-38630870D01*
X224600264Y-38635157D01*
X224600264Y-38635163D01*
X224589264Y-38795980D01*
X224581807Y-38905000D01*
X215935787Y-38905000D01*
X215958046Y-38882741D01*
X216005001Y-38853092D01*
X216060141Y-38846508D01*
X216112756Y-38864268D01*
X216122700Y-38870334D01*
X216136427Y-38871329D01*
X216141677Y-38870453D01*
X216151764Y-38867899D01*
X216362594Y-38795521D01*
X216372111Y-38791346D01*
X216568159Y-38685251D01*
X216576855Y-38679569D01*
X216587181Y-38671532D01*
X216595417Y-38660162D01*
X216588651Y-38647862D01*
X215811730Y-37870940D01*
X215800000Y-37864167D01*
X215788266Y-37870942D01*
X215041952Y-38617257D01*
X214994998Y-38646906D01*
X214939859Y-38653490D01*
X214887244Y-38635730D01*
X214877300Y-38629664D01*
X214863571Y-38628670D01*
X214858306Y-38629548D01*
X214848245Y-38632097D01*
X214637405Y-38704478D01*
X214627888Y-38708653D01*
X214431835Y-38814751D01*
X214423150Y-38820425D01*
X214412817Y-38828467D01*
X214404581Y-38839835D01*
X210995416Y-38839835D01*
X210987179Y-38828465D01*
X210976856Y-38820430D01*
X210968161Y-38814749D01*
X210772111Y-38708653D01*
X210762594Y-38704478D01*
X210673766Y-38673984D01*
X210621977Y-38640148D01*
X210592533Y-38585742D01*
X210592534Y-38523879D01*
X210621977Y-38469473D01*
X210715314Y-38368083D01*
X210842984Y-38172669D01*
X210936749Y-37958907D01*
X210994051Y-37732626D01*
X211012897Y-37505189D01*
X214387604Y-37505189D01*
X214406012Y-37727348D01*
X214407724Y-37737602D01*
X214462445Y-37953691D01*
X214465818Y-37963516D01*
X214555362Y-38167655D01*
X214560309Y-38176797D01*
X214633108Y-38288225D01*
X214641202Y-38296072D01*
X214650736Y-38290051D01*
X215429059Y-37511728D01*
X215435831Y-37499999D01*
X216164167Y-37499999D01*
X216170939Y-37511728D01*
X216949264Y-38290053D01*
X216958797Y-38296072D01*
X216966888Y-38288228D01*
X217039693Y-38176792D01*
X217044636Y-38167657D01*
X217134181Y-37963516D01*
X217137554Y-37953691D01*
X217192275Y-37737602D01*
X217193987Y-37727348D01*
X217212396Y-37505189D01*
X217212396Y-37494811D01*
X217193987Y-37272651D01*
X217192275Y-37262397D01*
X217137554Y-37046308D01*
X217134181Y-37036483D01*
X217044637Y-36832344D01*
X217039690Y-36823203D01*
X216966890Y-36711773D01*
X216958796Y-36703926D01*
X216949263Y-36709946D01*
X216170940Y-37488268D01*
X216164167Y-37499999D01*
X215435831Y-37499999D01*
X215429058Y-37488268D01*
X214650735Y-36709946D01*
X214641202Y-36703927D01*
X214633108Y-36711773D01*
X214560304Y-36823210D01*
X214555363Y-36832340D01*
X214465818Y-37036483D01*
X214462445Y-37046308D01*
X214407724Y-37262397D01*
X214406012Y-37272651D01*
X214387604Y-37494811D01*
X214387604Y-37505189D01*
X211012897Y-37505189D01*
X211013327Y-37500000D01*
X210994051Y-37267374D01*
X210936749Y-37041093D01*
X210842984Y-36827331D01*
X210715314Y-36631917D01*
X210622345Y-36530926D01*
X210592903Y-36476522D01*
X210592903Y-36414659D01*
X210622346Y-36360253D01*
X210674133Y-36326417D01*
X210767727Y-36294287D01*
X210973017Y-36183190D01*
X211157220Y-36039818D01*
X211315314Y-35868083D01*
X211442984Y-35672669D01*
X211536749Y-35458907D01*
X211594051Y-35232626D01*
X211613327Y-35000000D01*
X213786673Y-35000000D01*
X213805949Y-35232626D01*
X213863251Y-35458907D01*
X213957016Y-35672669D01*
X214084686Y-35868083D01*
X214088214Y-35871915D01*
X214239247Y-36035981D01*
X214239252Y-36035985D01*
X214242780Y-36039818D01*
X214426983Y-36183190D01*
X214632273Y-36294287D01*
X214853049Y-36370080D01*
X215024776Y-36398736D01*
X215061703Y-36410989D01*
X215093132Y-36433922D01*
X215788271Y-37129060D01*
X215799999Y-37135831D01*
X215811730Y-37129058D01*
X216588650Y-36352137D01*
X216595417Y-36339836D01*
X216587179Y-36328465D01*
X216576856Y-36320430D01*
X216568161Y-36314749D01*
X216372111Y-36208653D01*
X216362594Y-36204478D01*
X216273766Y-36173984D01*
X216221977Y-36140148D01*
X216192533Y-36085742D01*
X216192534Y-36023879D01*
X216221977Y-35969473D01*
X216315314Y-35868083D01*
X216442984Y-35672669D01*
X216536749Y-35458907D01*
X216594051Y-35232626D01*
X216613327Y-35000000D01*
X216594051Y-34767374D01*
X216557973Y-34624906D01*
X216558638Y-34560527D01*
X216591020Y-34504882D01*
X217425500Y-33670404D01*
X217466378Y-33643091D01*
X217514596Y-33633500D01*
X222200606Y-33633500D01*
X222258786Y-33647737D01*
X222303820Y-33687229D01*
X222413802Y-33844300D01*
X222575700Y-34006198D01*
X222709634Y-34099980D01*
X222749770Y-34128084D01*
X222763251Y-34137523D01*
X222970757Y-34234284D01*
X223191913Y-34293543D01*
X223420000Y-34313498D01*
X223648087Y-34293543D01*
X223869243Y-34234284D01*
X224076749Y-34137523D01*
X224264300Y-34006198D01*
X224426198Y-33844300D01*
X224557523Y-33656749D01*
X224654284Y-33449243D01*
X224713543Y-33228087D01*
X224733498Y-33000000D01*
X232266502Y-33000000D01*
X232286457Y-33228087D01*
X232345716Y-33449243D01*
X232348038Y-33454223D01*
X232348039Y-33454225D01*
X232430756Y-33631613D01*
X232442477Y-33656749D01*
X232445630Y-33661252D01*
X232445633Y-33661257D01*
X232452038Y-33670404D01*
X232573802Y-33844300D01*
X232735700Y-34006198D01*
X232869634Y-34099980D01*
X232909770Y-34128084D01*
X232923251Y-34137523D01*
X233130757Y-34234284D01*
X233351913Y-34293543D01*
X233580000Y-34313498D01*
X233808087Y-34293543D01*
X234029243Y-34234284D01*
X234236749Y-34137523D01*
X234424300Y-34006198D01*
X234586198Y-33844300D01*
X234717523Y-33656749D01*
X234814284Y-33449243D01*
X234873543Y-33228087D01*
X234893498Y-33000000D01*
X234873543Y-32771913D01*
X234814284Y-32550757D01*
X234717523Y-32343251D01*
X234586198Y-32155700D01*
X234424300Y-31993802D01*
X234350496Y-31942123D01*
X234241257Y-31865633D01*
X234241252Y-31865630D01*
X234236749Y-31862477D01*
X234029243Y-31765716D01*
X233808087Y-31706457D01*
X233802611Y-31705977D01*
X233802606Y-31705977D01*
X233585475Y-31686981D01*
X233580000Y-31686502D01*
X233574525Y-31686981D01*
X233357393Y-31705977D01*
X233357386Y-31705978D01*
X233351913Y-31706457D01*
X233346599Y-31707880D01*
X233346598Y-31707881D01*
X233136067Y-31764293D01*
X233136065Y-31764293D01*
X233130757Y-31765716D01*
X233125779Y-31768036D01*
X233125774Y-31768039D01*
X232928238Y-31860151D01*
X232928233Y-31860153D01*
X232923251Y-31862477D01*
X232918752Y-31865627D01*
X232918742Y-31865633D01*
X232740211Y-31990643D01*
X232740208Y-31990645D01*
X232735700Y-31993802D01*
X232731808Y-31997693D01*
X232731802Y-31997699D01*
X232577699Y-32151802D01*
X232577693Y-32151808D01*
X232573802Y-32155700D01*
X232570645Y-32160208D01*
X232570643Y-32160211D01*
X232445633Y-32338742D01*
X232445627Y-32338752D01*
X232442477Y-32343251D01*
X232440153Y-32348233D01*
X232440151Y-32348238D01*
X232348039Y-32545774D01*
X232348036Y-32545779D01*
X232345716Y-32550757D01*
X232286457Y-32771913D01*
X232285978Y-32777386D01*
X232285977Y-32777393D01*
X232266988Y-32994443D01*
X232266502Y-33000000D01*
X224733498Y-33000000D01*
X224713543Y-32771913D01*
X224654284Y-32550757D01*
X224557523Y-32343251D01*
X224426198Y-32155700D01*
X224264300Y-31993802D01*
X224190496Y-31942123D01*
X224081257Y-31865633D01*
X224081252Y-31865630D01*
X224076749Y-31862477D01*
X223869243Y-31765716D01*
X223648087Y-31706457D01*
X223642611Y-31705977D01*
X223642606Y-31705977D01*
X223425475Y-31686981D01*
X223420000Y-31686502D01*
X223414525Y-31686981D01*
X223197393Y-31705977D01*
X223197386Y-31705978D01*
X223191913Y-31706457D01*
X223186599Y-31707880D01*
X223186598Y-31707881D01*
X222976067Y-31764293D01*
X222976065Y-31764293D01*
X222970757Y-31765716D01*
X222965779Y-31768036D01*
X222965774Y-31768039D01*
X222768238Y-31860151D01*
X222768233Y-31860153D01*
X222763251Y-31862477D01*
X222758752Y-31865627D01*
X222758742Y-31865633D01*
X222580211Y-31990643D01*
X222580208Y-31990645D01*
X222575700Y-31993802D01*
X222571808Y-31997693D01*
X222571802Y-31997699D01*
X222417699Y-32151802D01*
X222417693Y-32151808D01*
X222413802Y-32155700D01*
X222410645Y-32160208D01*
X222410643Y-32160211D01*
X222303819Y-32312771D01*
X222258786Y-32352263D01*
X222200606Y-32366500D01*
X217278767Y-32366500D01*
X217267583Y-32365972D01*
X217260091Y-32364298D01*
X217252165Y-32364547D01*
X217192014Y-32366438D01*
X217188055Y-32366500D01*
X217160144Y-32366500D01*
X217156218Y-32366995D01*
X217156200Y-32366997D01*
X217156108Y-32367009D01*
X217144303Y-32367937D01*
X217108030Y-32369077D01*
X217108022Y-32369078D01*
X217100110Y-32369327D01*
X217092503Y-32371536D01*
X217092502Y-32371537D01*
X217080655Y-32374979D01*
X217061306Y-32378986D01*
X217049062Y-32380533D01*
X217041203Y-32381526D01*
X217033841Y-32384440D01*
X217033832Y-32384443D01*
X217000097Y-32397800D01*
X216988870Y-32401645D01*
X216954012Y-32411772D01*
X216954008Y-32411773D01*
X216946407Y-32413982D01*
X216939591Y-32418012D01*
X216939583Y-32418016D01*
X216928960Y-32424298D01*
X216911221Y-32432989D01*
X216899749Y-32437531D01*
X216899746Y-32437532D01*
X216892383Y-32440448D01*
X216885976Y-32445102D01*
X216885972Y-32445105D01*
X216856611Y-32466437D01*
X216846693Y-32472951D01*
X216815465Y-32491419D01*
X216815457Y-32491425D01*
X216808638Y-32495458D01*
X216803036Y-32501058D01*
X216803029Y-32501065D01*
X216794308Y-32509786D01*
X216779287Y-32522615D01*
X216769307Y-32529866D01*
X216769298Y-32529873D01*
X216762893Y-32534528D01*
X216757845Y-32540628D01*
X216757836Y-32540638D01*
X216734700Y-32568604D01*
X216726713Y-32577381D01*
X215697277Y-33606817D01*
X215636584Y-33640479D01*
X215567273Y-33636896D01*
X215551883Y-33631613D01*
X215551881Y-33631612D01*
X215546951Y-33629920D01*
X215541814Y-33629062D01*
X215541811Y-33629062D01*
X215321849Y-33592357D01*
X215321846Y-33592356D01*
X215316712Y-33591500D01*
X215083288Y-33591500D01*
X215078154Y-33592356D01*
X215078150Y-33592357D01*
X214858188Y-33629062D01*
X214858182Y-33629063D01*
X214853049Y-33629920D01*
X214848127Y-33631609D01*
X214848118Y-33631612D01*
X214637205Y-33704019D01*
X214637196Y-33704022D01*
X214632273Y-33705713D01*
X214627694Y-33708190D01*
X214627687Y-33708194D01*
X214431564Y-33814330D01*
X214431556Y-33814335D01*
X214426983Y-33816810D01*
X214422877Y-33820005D01*
X214422869Y-33820011D01*
X214246898Y-33956976D01*
X214246892Y-33956981D01*
X214242780Y-33960182D01*
X214239258Y-33964007D01*
X214239247Y-33964018D01*
X214088214Y-34128084D01*
X214088211Y-34128087D01*
X214084686Y-34131917D01*
X214081838Y-34136275D01*
X214081835Y-34136280D01*
X213959868Y-34322965D01*
X213957016Y-34327331D01*
X213954923Y-34332101D01*
X213954921Y-34332106D01*
X213865344Y-34536320D01*
X213865341Y-34536326D01*
X213863251Y-34541093D01*
X213861973Y-34546137D01*
X213861971Y-34546145D01*
X213842026Y-34624908D01*
X213805949Y-34767374D01*
X213805519Y-34772562D01*
X213805518Y-34772569D01*
X213787961Y-34984446D01*
X213786673Y-35000000D01*
X211613327Y-35000000D01*
X211594051Y-34767374D01*
X211536749Y-34541093D01*
X211442984Y-34327331D01*
X211315314Y-34131917D01*
X211195993Y-34002300D01*
X211160752Y-33964018D01*
X211160747Y-33964013D01*
X211157220Y-33960182D01*
X210973017Y-33816810D01*
X210968438Y-33814332D01*
X210968435Y-33814330D01*
X210772312Y-33708194D01*
X210772309Y-33708192D01*
X210767727Y-33705713D01*
X210762799Y-33704021D01*
X210762794Y-33704019D01*
X210551881Y-33631612D01*
X210551875Y-33631610D01*
X210546951Y-33629920D01*
X210541814Y-33629062D01*
X210541811Y-33629062D01*
X210321849Y-33592357D01*
X210321846Y-33592356D01*
X210316712Y-33591500D01*
X210083288Y-33591500D01*
X210078154Y-33592356D01*
X210078150Y-33592357D01*
X209858188Y-33629062D01*
X209858182Y-33629063D01*
X209853049Y-33629920D01*
X209848127Y-33631609D01*
X209848118Y-33631612D01*
X209637205Y-33704019D01*
X209637196Y-33704022D01*
X209632273Y-33705713D01*
X209627694Y-33708190D01*
X209627687Y-33708194D01*
X209431564Y-33814330D01*
X209431556Y-33814335D01*
X209426983Y-33816810D01*
X209422877Y-33820005D01*
X209422869Y-33820011D01*
X209246898Y-33956976D01*
X209246892Y-33956981D01*
X209242780Y-33960182D01*
X209239258Y-33964007D01*
X209239247Y-33964018D01*
X209088214Y-34128084D01*
X209088211Y-34128087D01*
X209084686Y-34131917D01*
X209081838Y-34136275D01*
X209081835Y-34136280D01*
X208959868Y-34322965D01*
X208957016Y-34327331D01*
X208954923Y-34332101D01*
X208954921Y-34332106D01*
X208865344Y-34536320D01*
X208865341Y-34536326D01*
X208863251Y-34541093D01*
X208861973Y-34546137D01*
X208861971Y-34546145D01*
X208842026Y-34624908D01*
X208805949Y-34767374D01*
X208805519Y-34772562D01*
X208805518Y-34772569D01*
X208787961Y-34984446D01*
X208786673Y-35000000D01*
X208805949Y-35232626D01*
X208863251Y-35458907D01*
X208957016Y-35672669D01*
X209084686Y-35868083D01*
X209177653Y-35969072D01*
X209207096Y-36023477D01*
X209207097Y-36085339D01*
X209177654Y-36139746D01*
X209125865Y-36173582D01*
X209037201Y-36204021D01*
X209037198Y-36204021D01*
X209032273Y-36205713D01*
X209027694Y-36208190D01*
X209027687Y-36208194D01*
X208831564Y-36314330D01*
X208831556Y-36314335D01*
X208826983Y-36316810D01*
X208822877Y-36320005D01*
X208822869Y-36320011D01*
X208646898Y-36456976D01*
X208646892Y-36456981D01*
X208642780Y-36460182D01*
X208639258Y-36464007D01*
X208639247Y-36464018D01*
X208488214Y-36628084D01*
X208488211Y-36628087D01*
X208484686Y-36631917D01*
X208481838Y-36636275D01*
X208481835Y-36636280D01*
X208359868Y-36822965D01*
X208357016Y-36827331D01*
X208354923Y-36832101D01*
X208354921Y-36832106D01*
X208265344Y-37036320D01*
X208265341Y-37036326D01*
X208263251Y-37041093D01*
X208261973Y-37046137D01*
X208261971Y-37046145D01*
X208208311Y-37258048D01*
X208205949Y-37267374D01*
X208205519Y-37272562D01*
X208205518Y-37272569D01*
X208192393Y-37430971D01*
X208186673Y-37500000D01*
X203000500Y-37500000D01*
X203000500Y-25000000D01*
X210894551Y-25000000D01*
X210894939Y-25004930D01*
X210913928Y-25246214D01*
X210913929Y-25246222D01*
X210914317Y-25251148D01*
X210915471Y-25255956D01*
X210915472Y-25255960D01*
X210971971Y-25491298D01*
X210971972Y-25491303D01*
X210973127Y-25496111D01*
X211069534Y-25728859D01*
X211201164Y-25943659D01*
X211364776Y-26135224D01*
X211556341Y-26298836D01*
X211771141Y-26430466D01*
X212003889Y-26526873D01*
X212248852Y-26585683D01*
X212437118Y-26600500D01*
X212560413Y-26600500D01*
X212562882Y-26600500D01*
X212751148Y-26585683D01*
X212996111Y-26526873D01*
X213228859Y-26430466D01*
X213443659Y-26298836D01*
X213635224Y-26135224D01*
X213798836Y-25943659D01*
X213930466Y-25728859D01*
X214026873Y-25496111D01*
X214085683Y-25251148D01*
X214105449Y-25000000D01*
X214085683Y-24748852D01*
X214026873Y-24503889D01*
X213930466Y-24271141D01*
X213798836Y-24056341D01*
X213635224Y-23864776D01*
X213443659Y-23701164D01*
X213228859Y-23569534D01*
X212996111Y-23473127D01*
X212991303Y-23471972D01*
X212991298Y-23471971D01*
X212755960Y-23415472D01*
X212755956Y-23415471D01*
X212751148Y-23414317D01*
X212746222Y-23413929D01*
X212746214Y-23413928D01*
X212565338Y-23399693D01*
X212565330Y-23399692D01*
X212562882Y-23399500D01*
X212437118Y-23399500D01*
X212434670Y-23399692D01*
X212434661Y-23399693D01*
X212253785Y-23413928D01*
X212253775Y-23413929D01*
X212248852Y-23414317D01*
X212244045Y-23415471D01*
X212244039Y-23415472D01*
X212008701Y-23471971D01*
X212008692Y-23471973D01*
X212003889Y-23473127D01*
X211999321Y-23475018D01*
X211999315Y-23475021D01*
X211775715Y-23567639D01*
X211775710Y-23567641D01*
X211771141Y-23569534D01*
X211766926Y-23572116D01*
X211766920Y-23572120D01*
X211560558Y-23698579D01*
X211560550Y-23698584D01*
X211556341Y-23701164D01*
X211552580Y-23704375D01*
X211552576Y-23704379D01*
X211368538Y-23861562D01*
X211368531Y-23861568D01*
X211364776Y-23864776D01*
X211361568Y-23868531D01*
X211361562Y-23868538D01*
X211204379Y-24052576D01*
X211204375Y-24052580D01*
X211201164Y-24056341D01*
X211198584Y-24060550D01*
X211198579Y-24060558D01*
X211072120Y-24266920D01*
X211072116Y-24266926D01*
X211069534Y-24271141D01*
X211067641Y-24275710D01*
X211067639Y-24275715D01*
X210975021Y-24499315D01*
X210975018Y-24499321D01*
X210973127Y-24503889D01*
X210971973Y-24508692D01*
X210971971Y-24508701D01*
X210915472Y-24744039D01*
X210914317Y-24748852D01*
X210913929Y-24753775D01*
X210913928Y-24753785D01*
X210894939Y-24995070D01*
X210894551Y-25000000D01*
X203000500Y-25000000D01*
X203000500Y-20126500D01*
X203017381Y-20063500D01*
X203063500Y-20017381D01*
X203126500Y-20000500D01*
X271873500Y-20000500D01*
X271936500Y-20017381D01*
G37*
G04 #@! TD.AperFunction*
M02*
